<svg id="BACKGROUND" xmlns="http://www.w3.org/2000/svg" width="83.412" height="92.824" viewBox="0 0 83.412 92.824">
  <g id="Grupo_1203542" data-name="Grupo 1203542" transform="translate(0 0)">
    <g id="Grupo_1203538" data-name="Grupo 1203538" transform="translate(38.096)">
      <path id="Trazado_1255203" data-name="Trazado 1255203" d="M240.775-.008c.317.266.874.574.877,1.111l.029,4.329c-.109.378-.533.5-1.276.361a4.55,4.55,0,0,0-1.443-.366q-.076.236-.182,0l.012-3.973a1.69,1.69,0,0,1,.9-1.465h1.087Z" transform="translate(-219.059 0.01)" fill="#ba5d4c"/>
      <path id="Trazado_1255204" data-name="Trazado 1255204" d="M192.866,22.412h.182q.7.08,1.38.2.806,2.826,1.772,5.581l.324.366q5.078,2.5,10.073,5.158c.547.741.651,2.45-.32,2.7l-.395.37a7.113,7.113,0,0,0-6.589,2.864l-.513.126a2.919,2.919,0,0,1-1.249-1.177,2.369,2.369,0,0,1-1.157-1.213l-.438.2a4.361,4.361,0,0,0-4.981,1.274q-.628,1.242-1.126.746l-.475-.073a5.739,5.739,0,0,0-4.121-2.656l-.3-.375c-.269,0-.446.031-.458.366l-5.1.031-.329-.361a8.719,8.719,0,0,1-.845-2.38,1.74,1.74,0,0,1,.76-1.506l2.467-1.208,6.07-2.954a2.739,2.739,0,0,0,1.685-1.62l1.31-3.913a.881.881,0,0,1,.9-.559l1.467.017Z" transform="translate(-173.142 -16.973)" fill="#f2e9e5"/>
      <path id="Trazado_1255205" data-name="Trazado 1255205" d="M229.623,146.585l.375.085,3.23,28.548c.174.889-.007,1.465-.54,1.731-.412,1.225-2.036,1.712-3.448,1.729l-.2.366-2.426.027-.262-.361c-.029.446-1.068.261-1.443.16-.809-.22-2.417-1-1.988-1.925-.433-.211-.61-.7-.525-1.477l3.22-28.713.385-.182a4.27,4.27,0,0,1,3.622.01Z" transform="translate(-206.626 -110.778)" fill="#feefac"/>
      <path id="Trazado_1255206" data-name="Trazado 1255206" d="M255.75,146.694l.458.2q4.725,12.745,9.286,25.5c.182.55.075.881-.312.993a2.537,2.537,0,0,1-1.7,2.143,46.7,46.7,0,0,1-8.119,1.494,4.073,4.073,0,0,0,.165-1.852L252.3,146.66c.019-.14.061-.349.162-.361.271-.034,2.9-.034,3.036.029A.592.592,0,0,1,255.75,146.694Z" transform="translate(-229.305 -110.855)" fill="#fee077"/>
      <path id="Trazado_1255207" data-name="Trazado 1255207" d="M270.025,147.8l15.025,20.979a2.527,2.527,0,0,1-.01,2.634,2.714,2.714,0,0,1-1.86,1.4c-2.409.683-4.811,1.157-7.2,1.639a3.663,3.663,0,0,0-.293-1.763l-9.138-24.931a16.506,16.506,0,0,1,3.475.034Z" transform="translate(-240.104 -111.926)" fill="#fed05b"/>
      <path id="Trazado_1255208" data-name="Trazado 1255208" d="M173.277,146.785l.3.242-9.245,25.24a1.5,1.5,0,0,1-.487,1.2c-.046.133-.121.324-.228.322a9.846,9.846,0,0,1-1.644-.341q-.912-.007-1.034-.586v-1.027c0-.47-.252-.92-.741-.925l-2.332-.015a42.425,42.425,0,0,1-.1-4.814,2.341,2.341,0,0,1-.2-2.39L169.853,146.8c.017-.14.051-.344.155-.363.245-.048,2.792-.07,3.015-.019l.257.361Z" transform="translate(-157.333 -110.941)" fill="#fed05b"/>
      <path id="Trazado_1255209" data-name="Trazado 1255209" d="M203.588,123.669c.017-.14.056-.344.162-.363a31.15,31.15,0,0,1,3.225,0l.262.363a.5.5,0,0,1,.2-.363,24.3,24.3,0,0,1,2.942,0l.252.363c.039-.14.1-.346.208-.363.288-.039,2.908-.058,3.048,0a.586.586,0,0,1,.262.363c.017-.14.058-.351.157-.363.339-.039,3.361-.075,3.521,0a.592.592,0,0,1,.254.363l.278.286-1.884,4.8,2.642.012.252.363a.14.14,0,0,0,.036.162l-3.475-.034-3.45-.034c-1.2-.012-2.417-.027-3.622-.01l-.153.366-3.019.041-.259-.358-3.426.022-2.242-5.605.2-.363h3.363l.257.358Z" transform="translate(-189.487 -93.412)" fill="#bc80e0"/>
      <g id="Grupo_1203537" data-name="Grupo 1203537" transform="translate(3.167 67.898)">
        <path id="Trazado_1255210" data-name="Trazado 1255210" d="M249.49,324l-.363-.206q0-1.217-.007-2.433l.361-.259,2.69.056a7.726,7.726,0,0,1,6.872,7.872,4.472,4.472,0,0,0,4.274,4.354l3.782.061a1.348,1.348,0,0,1,1.276,1.356,1.368,1.368,0,0,1-1.276,1.339l-4.385-.022a7.318,7.318,0,0,1-6.451-6.816c-.063-2.666-1.453-4.935-4.237-5.286L249.488,324Z" transform="translate(-230.061 -311.245)" fill="#a34f3e"/>
        <path id="Trazado_1255211" data-name="Trazado 1255211" d="M240.387,280.4l-.024,9.857.01,2.9.048,10.521a1.483,1.483,0,0,1-1.392,1.649,1.424,1.424,0,0,1-1.523-1.492l.056-10.656a3.39,3.39,0,0,1,0-2.927c-.143-.014-.358-.063-.363-.162-.126-2.62-.14-5.7-.048-8.322q-.2-1.053.356-1.329l2.889-.031Z" transform="translate(-220.941 -280.4)" fill="#ba5d4c"/>
        <path id="Trazado_1255212" data-name="Trazado 1255212" d="M187.023,319.867c.007.976.01,1.959,0,2.927l-2.581-.007c-2.62.327-4.056,2.511-4.116,4.983a7.412,7.412,0,0,1-6.276,7.09l-3.644.039a1.269,1.269,0,0,0,.443-1.053l-.015-1.642.148-.366c3.426.37,6.463-1.252,6.211-5.051.857-5.2,4.482-7.6,9.569-7.276l.259.356Z" transform="translate(-170.41 -310.019)" fill="#a34f3e"/>
      </g>
      <path id="Trazado_1255213" data-name="Trazado 1255213" d="M242.267,22.462l1.806.027c.375,0,.617.533.731.864l1.111,3.262c.155.458.31,1.145.775,1.375l2.8,1.385,5.363,2.605c.743.361,1.753.688,2.029,1.564.341,1.087-.3,2.119-.673,3.032l-.14,0q-1.653-.069-3.293-.121c.383-.76.68-2.276-.351-2.78l-9-4.4a2.212,2.212,0,0,1-1.305-1.448l-1.593-5.225c-.458.087-.806.058-.986-.148l2.719,0Z" transform="translate(-219.642 -17.019)" fill="#eee1dc"/>
      <path id="Trazado_1255214" data-name="Trazado 1255214" d="M187.616,80.64c.039.189-.012.317-.09.257-.249-.2.128-.143.366.039,2.613,1.986,2.6,7.126,2.392,10.17l-.361.264H186.1L181.73,80.676Z" transform="translate(-175.822 -61.112)" fill="#fee077"/>
      <path id="Trazado_1255215" data-name="Trazado 1255215" d="M266.378,80.166l3.078-.036a.244.244,0,0,1,.216.157l-.051.228a19.17,19.17,0,0,1-3.131.2q-2.023,4.842-3.918,9.7l2.659.041.254.366a.334.334,0,0,0-.007.177l-.38.361a14.956,14.956,0,0,1-3.141-.14.507.507,0,0,1-.119-.242l-3.935,0c-.14-.039-.351-.1-.361-.211-.133-1.562-.015-5.78.741-6.908.155-.23.262-.363.6-.339a6.968,6.968,0,0,1,5.877-3.329l1.62-.031Z" transform="translate(-233.242 -60.725)" fill="#fee077"/>
      <path id="Trazado_1255216" data-name="Trazado 1255216" d="M283.718,80.765l.14,0L279.534,91.3l-3.5-.056L280.306,80.8Z" transform="translate(-247.289 -61.203)" fill="#fed05b"/>
      <path id="Trazado_1255217" data-name="Trazado 1255217" d="M272.387,124.952l-2.354,5.438-3.424-.017,2.138-5.443Z" transform="translate(-240.15 -94.677)" fill="#ae66d9"/>
      <path id="Trazado_1255218" data-name="Trazado 1255218" d="M232.644,82.827l.225.441-1.513,3.019a12.784,12.784,0,0,0-.475,5.637l-.327.748H227.16l-.363-.208a25.364,25.364,0,0,0-.32-5.826,1.94,1.94,0,0,1-.378-1.586c.145.017.254-.09.358-.269a4.74,4.74,0,0,1,6.187-1.954Z" transform="translate(-209.409 -62.417)" fill="#fee077"/>
      <path id="Trazado_1255219" data-name="Trazado 1255219" d="M204.706,80.632a6.066,6.066,0,0,1,4.9,3.1,6.309,6.309,0,0,1,1.051,3.286l.01,4.337h-3.649L207,86.473a7.6,7.6,0,0,0-2.722-5.707.865.865,0,0,1,.426-.136Z" transform="translate(-192.912 -61.104)" fill="#fed05b"/>
      <path id="Trazado_1255220" data-name="Trazado 1255220" d="M248.909,86.67a7.38,7.38,0,0,0-.944,3.862l-.034,3.6h-3.518a38.106,38.106,0,0,1,0-4.877c.126-1.673,1.523-3.266,2.09-4.971A4.708,4.708,0,0,1,248.909,86.67Z" transform="translate(-223.268 -63.87)" fill="#fed05b"/>
      <path id="Trazado_1255221" data-name="Trazado 1255221" d="M197.006,147.83l-3.262,29.059.179,1.31a45.012,45.012,0,0,1-7.983-1.46,2.53,2.53,0,0,1-1.8-2.177,2.768,2.768,0,0,1,.145-1.32l9.291-25.366Z" transform="translate(-177.631 -112.032)" fill="#fee077"/>
    </g>
    <g id="Grupo_1203541" data-name="Grupo 1203541" transform="translate(0 41.234)">
      <g id="Grupo_1203539" data-name="Grupo 1203539" transform="translate(0 18.301)">
        <path id="Trazado_1255222" data-name="Trazado 1255222" d="M3.274,246.273l.128-.363,10.528.029.278.308q10.493-.073,20.771.114l.363.126v32.451l-.363.223H.939A.865.865,0,0,1,0,278.228l.007-31.083c0-1.286,2.211-.874,3.266-.872Z" transform="translate(0 -245.898)" fill="#f2e9e5"/>
        <path id="Trazado_1255223" data-name="Trazado 1255223" d="M147.908,246.324c.029-.167.1-.177.2-.036.019-.14.061-.349.16-.361.855-.119,2.673-.157,3.126.637.2.346.339,1.634-.215,1.69l.363.223q0,13.856-.01,27.713l-.363.223.363.194c.121.751.179,2.511-.792,2.5l-6.279.022v-32.8a13.434,13.434,0,0,1,3.443,0Z" transform="translate(-109.481 -245.862)" fill="#eee1dc"/>
      </g>
      <g id="Grupo_1203540" data-name="Grupo 1203540" transform="translate(3.259)">
        <path id="Trazado_1255224" data-name="Trazado 1255224" d="M37.58,175.824c.257.421.036.6-.387.741l-4.8.755a5.588,5.588,0,0,0-4.1,5.569l-.349.329a1.436,1.436,0,0,0,.044.9,14.7,14.7,0,0,1-3.4.167l-.254-.363-.167.363H13.688l-.218-.361.022-11.906c0-.521.814-.7,1.211-.547,3.954,1.5,10.4,1.315,14.175-.569.479-.24.942-.726,1.533-.605.736.15,1.048.884,1.528,1.363l2.806,2.816A7.5,7.5,0,0,0,37.58,175.824Z" transform="translate(-13.468 -170.281)" fill="#ba5d4c"/>
        <path id="Trazado_1255225" data-name="Trazado 1255225" d="M95.921,198.468l.361.264a38.084,38.084,0,0,1-.031,5.615.643.643,0,0,1-.242.15q-6.24.065-12.434-.1a1.417,1.417,0,0,1,.007-1.094c-.564-.237-.264-.976-.068-1.45a3.41,3.41,0,0,1,2.492-2.048l4.693-.719,1.128-.6a2.745,2.745,0,0,1,1.337-1.015l2.758,1Z" transform="translate(-66.356 -190.887)" fill="#ba5d4c"/>
        <path id="Trazado_1255226" data-name="Trazado 1255226" d="M24.317,226.64l.363.162L24.7,231.2l18.083.015.22.363c.017-.14.063-.356.162-.363.581-.046,4.952-.092,5.194,0,.138.053.206.22.262.363.131.051.128.111,0,.182H45.18l-31.708-.085-.012-5.029H24.315Z" transform="translate(-13.46 -212.993)" fill="#a34f3e"/>
        <path id="Trazado_1255227" data-name="Trazado 1255227" d="M85.186,194.209a4.169,4.169,0,0,1-3.136,2.133l-3.654.5a3.144,3.144,0,0,0-2.789,3.2,1.555,1.555,0,0,0,.08,1.354,7.3,7.3,0,0,1-2.685.23q-.45-.113-.153-1.053a5.942,5.942,0,0,1,4.894-6.354l3.8-.542a1.164,1.164,0,0,0,.949-.5l2.693,1.039Z" transform="translate(-58.379 -187.628)" fill="#6d3326"/>
        <path id="Trazado_1255228" data-name="Trazado 1255228" d="M102.038,205.54c.5,2.366.165,4.8.3,7.2l-.2.036V212.6l-.363-.165.015-4.358H96.774l-.264-.363-.167.363-11.85,0c-.421.01-.554-.189-.305-.545l12.322.022.022-5.947c2.266.821,5.015,1.591,5.506,3.942Z" transform="translate(-66.967 -194.017)" fill="#a34f3e"/>
        <path id="Trazado_1255229" data-name="Trazado 1255229" d="M64.663,222.634a.172.172,0,0,0,.191.184l12.131,0c.14.017.354.063.363.162a30.355,30.355,0,0,1-.116,4.6.52.52,0,0,1-.242.121l-18.662.015-.029-4.947h3.429a2.25,2.25,0,0,1,.184-.707l.046.693,2.564-.029a1.349,1.349,0,0,1,.145-1.194l-.007,1.094Z" transform="translate(-47.443 -209.128)" fill="#883f2e"/>
        <path id="Trazado_1255230" data-name="Trazado 1255230" d="M141.092,231.719l-5.618,0,0-4.886,5.661,0Z" transform="translate(-105.927 -213.137)" fill="#6d3326"/>
      </g>
    </g>
  </g>
</svg>
