<svg id="Grupo_1224305" data-name="Grupo 1224305" xmlns="http://www.w3.org/2000/svg" xmlns:xlink="http://www.w3.org/1999/xlink" width="95.959" height="82.439" viewBox="0 0 95.959 82.439">
  <defs>
    <clipPath id="clip-path">
      <rect id="Rectángulo_745371" data-name="Rectángulo 745371" width="95.959" height="82.439" fill="none"/>
    </clipPath>
    <clipPath id="clip-path-2">
      <path id="Trazado_1391527" data-name="Trazado 1391527" d="M131.677,72.128c-.109,0-.15.22-.127.374-.276.063-.331.138-.106.227q-.082,6.684.075,13.226l-.375.228q-.006,10.591-.012,21.178l.375.13q4.247.2,8.536.064a11.916,11.916,0,0,1,.1-2.495v-.187c.162-.071.164-.134,0-.188l.375-.261q0-1.351,0-2.7l-.375-.21q.538-.19.374-.994a13.483,13.483,0,0,0,0-2.23c-.017-.1-.23-.143-.375-.161.162-.07.165-.133,0-.187q-.133-12.42-.06-24.9c.2-.5-.111-.757-.513-.394.008-.167.006-.405-.111-.45-1.934-.046-3.884-.082-5.827-.082q-.979,0-1.957.013" transform="translate(-131.133 -72.115)" fill="none"/>
    </clipPath>
    <linearGradient id="linear-gradient" x1="-7.277" y1="1.238" x2="-7.221" y2="1.238" gradientUnits="objectBoundingBox">
      <stop offset="0" stop-color="#0ed18f"/>
      <stop offset="1" stop-color="#05e29b"/>
    </linearGradient>
  </defs>
  <g id="Grupo_1224300" data-name="Grupo 1224300">
    <g id="Grupo_1224299" data-name="Grupo 1224299" clip-path="url(#clip-path)">
      <path id="Trazado_1391526" data-name="Trazado 1391526" d="M93.884,138.629l-.009,7.3a1.111,1.111,0,0,1-1.164,1.129H33.228c-.5,0-1.127-.338-1.131-.754l-.032-4.05.178-.375,56.115-.033.38-.141a7.353,7.353,0,0,0,.206-2.819l.376-.257a39.3,39.3,0,0,1,4.3-.095c.126-.236.214-.192.269.092" transform="translate(-14.973 -64.62)" fill="#fd5693"/>
    </g>
  </g>
  <g id="Grupo_1224302" data-name="Grupo 1224302" transform="translate(69.899 38.44)">
    <g id="Grupo_1224301" data-name="Grupo 1224301" clip-path="url(#clip-path-2)">
      <rect id="Rectángulo_745372" data-name="Rectángulo 745372" width="9.599" height="35.555" transform="matrix(1, -0.003, 0.003, 1, -0.103, 0)" fill="url(#linear-gradient)"/>
    </g>
  </g>
  <g id="Grupo_1224304" data-name="Grupo 1224304">
    <g id="Grupo_1224303" data-name="Grupo 1224303" clip-path="url(#clip-path)">
      <path id="Trazado_1391528" data-name="Trazado 1391528" d="M40.656,138.415c.023-.33.085-.343.209-.032l.131-.375,23.058,0,.23.375.228-.336q10.229-.061,20.472-.021l.228.375a19.664,19.664,0,0,1,4.095.033l-.008,2.587a.977.977,0,0,1-1.085,1.01l-56.161.027-.008-3.637a.591.591,0,0,1,.014-.25c.118-.352,6.589-.172,7.364-.127q1-.189,1.232.374" transform="translate(-14.96 -64.419)" fill="#fd76a7"/>
      <path id="Trazado_1391529" data-name="Trazado 1391529" d="M40.6,103.178a38.984,38.984,0,0,1-.05,5.427l-8.611,0v-2.8c-.163-.055-.16-.117,0-.187l.009-3.152-.01-3.534-.011-5.789.051-19.031.375.128q-.017,14.309.251,28.525l7.774.034Z" transform="translate(-14.859 -34.609)" fill="#0ed18f"/>
      <path id="Trazado_1391530" data-name="Trazado 1391530" d="M77.484,40.939l.6-.064a7.545,7.545,0,0,0,7.749.056l.6.067.377.278.106,10.236a2.247,2.247,0,0,1-2.276,2.309l-11.587,0-.223-.375.041-6.824c.017-2.718,2.215-4.85,4.618-5.687" transform="translate(-34.006 -19.087)" fill="#26a5fd"/>
      <path id="Trazado_1391531" data-name="Trazado 1391531" d="M91.181,57.981c-5.915.168-12.376.164-18.361,0l0-4.423,11.8,0a1.9,1.9,0,0,0,1.909-1.94l-.109-10.508a6.579,6.579,0,0,1,4.723,5.01Z" transform="translate(-34.004 -19.195)" fill="#0592fb"/>
      <path id="Trazado_1391532" data-name="Trazado 1391532" d="M87.916,30.288a7.8,7.8,0,0,1-11.9-4.184l.416-.277a7.5,7.5,0,0,0,11.693-7.4l.3-.486a7.334,7.334,0,0,1,2.8,5.436,7.6,7.6,0,0,1-3.311,6.911" transform="translate(-35.495 -8.378)" fill="#feaf9d"/>
      <path id="Trazado_1391533" data-name="Trazado 1391533" d="M86.517,15.253c.723.8,0,2.6-.446,3.539a8.1,8.1,0,0,1-6.908,4.675c-1.082.054-3.044-.018-3.553-1.009a6.69,6.69,0,0,1,.365-2.716,7.794,7.794,0,0,1,10.542-4.49" transform="translate(-35.303 -6.807)" fill="#7a6d79"/>
      <path id="Trazado_1391534" data-name="Trazado 1391534" d="M88.237,16.962a8.2,8.2,0,0,1-2.9,8,7.7,7.7,0,0,1-8.69.541,1.966,1.966,0,0,0-.819-.382,6.946,6.946,0,0,1-.211-2.075,7.75,7.75,0,0,0,7.58-.775,8.047,8.047,0,0,0,3.328-6.431,7.363,7.363,0,0,1,1.713,1.117" transform="translate(-35.31 -7.399)" fill="#fecdbe"/>
      <path id="Trazado_1391535" data-name="Trazado 1391535" d="M64.507,72.657h26.23c.169.036.174.1.023.195l-.131.375-35.257-.006-.232-.375c-.164-.053-.162-.116,0-.188.053-.163.116-.161.187,0Z" transform="translate(-25.691 -33.871)" fill="#edc9a6"/>
      <path id="Trazado_1391536" data-name="Trazado 1391536" d="M127.3,64.434l-.031,13.453c-.055.174-.117.159-.183-.025l-.375-.173-.017-12.732-4.371,0-.271-.375-.023-.195,1.313-.021,0-9.331a.184.184,0,0,1,.189-.2l0,9.554Z" transform="translate(-56.982 -25.606)" fill="#f6cb78"/>
      <path id="Trazado_1391537" data-name="Trazado 1391537" d="M140.355,136.545l-4.564,0-4.095-.033c-.159-.058-.147-.112.022-.163l8.436.008,0-2.078c0-.2.072-.339.2-.36Z" transform="translate(-61.444 -62.536)" fill="#0ed18f"/>
      <path id="Trazado_1391538" data-name="Trazado 1391538" d="M40.733,78.836a.591.591,0,0,1,.25.014,17.1,17.1,0,0,1,.136,3.742c-.043.08-.162.119-.3.147L40.758,86.5l.375.129q-.006,7.876-.011,15.756l-.375.227-8.476-.037-.144-29.026c.2-.161.305-.514.533-.514,2.716-.164,5.576-.167,8.337-.081a1.226,1.226,0,0,1-.2.227l.019,5.389c.248.123.212.212-.078.272" transform="translate(-15.002 -34.038)" fill="#05e29b"/>
      <path id="Trazado_1391539" data-name="Trazado 1391539" d="M38.946,72.764h5.963v.188l-.164.375-3.014,0-.006,4.851,12.8.017c.446,0,.6.222.329.587l-.173.375-13.26-.007-.225-.375-.038-5.827-8.036.021c-.038-.1.044-.2.188-.2Z" transform="translate(-15.46 -33.977)" fill="#f0c88b"/>
      <path id="Trazado_1391540" data-name="Trazado 1391540" d="M147.868,83.756l0,9.267v5.729c-.062,0-.191-.013-.191-.209l.13-24.691Z" transform="translate(-68.962 -34.486)" fill="#0ed18f"/>
      <path id="Trazado_1391541" data-name="Trazado 1391541" d="M51.958,73.115l35.621.007a.579.579,0,0,1,.249.015c.376.127.149,7.043.105,7.892q.161.768-.377.917l-.439.119a2.638,2.638,0,0,0-4.042.316,12.451,12.451,0,0,1-2.451,4.007l-.868.428a8.305,8.305,0,0,1-4.726-.913,2.534,2.534,0,0,0-3.181,3.2,7.13,7.13,0,0,1,.8,4.953,7.489,7.489,0,0,1-4.09,2.929c-2.683,1.929-1.06,4.427,1.533,5.257l.025.444-.129.375-21.264.011.056,4.752-.372.279-.209.033.05-5.427L48.266,86.6l.172-.375,12.878-.016a3.471,3.471,0,0,0,3.144-4.859l.2-.428-.432,0a3.211,3.211,0,0,0-2.139-1.592l-.192-.385a.239.239,0,0,0-.222-.214l-13.279,0,0-5.62Z" transform="translate(-22.51 -34.142)" fill="#fee077"/>
      <path id="Trazado_1391542" data-name="Trazado 1391542" d="M70.251,128.493c.063-.161.129-.155.2.01a1.106,1.106,0,0,0,.569.392,2.782,2.782,0,0,1,1.5,3.371l-.558,1.643-23.42,0-.063-5.429Z" transform="translate(-22.637 -59.946)" fill="#fed05b"/>
      <path id="Trazado_1391543" data-name="Trazado 1391543" d="M126.781,86.4a3.051,3.051,0,0,1-3.722-1.7l-1.306-2.413c-.5.014-.488-.16-.027-.341l.022-8.824,5.037,0Z" transform="translate(-56.679 -34.146)" fill="#fed05b"/>
      <path id="Trazado_1391544" data-name="Trazado 1391544" d="M61.933,84.049A3.516,3.516,0,0,1,64.7,86.024c.2.676-1.188,1.581-1.788,1.825a3.73,3.73,0,0,1-.931.273l-13.185.084-.111,3.239L48.3,91.7l-.025-7.66Z" transform="translate(-22.542 -39.244)" fill="#bc80e0"/>
      <path id="Trazado_1391545" data-name="Trazado 1391545" d="M111.913,94.433a.358.358,0,0,0,.183.025l-.012,21.535-.022.163-20.928-.017a.346.346,0,0,1-.318-.23c.918-1.958.993-3.792-1.278-4.714l.081-.462c0-.146.027-.37.118-.377a69.411,69.411,0,0,1,6.975-.15,1.371,1.371,0,0,1,1.357.346.918.918,0,0,1,.945,0l7.637-.028a1.042,1.042,0,0,0,.178-1.955l.029-.425q-.612-.23-.415-1.513-.228-1.031.34-1.354a10.742,10.742,0,0,0,.649-1.318,6.159,6.159,0,0,0-.58-1.356l-.374-.173q.015-5.942.031-11.887l.375-.222.43.007a6.673,6.673,0,0,0,2.963,3.787l.627.1a.913.913,0,0,1,1.009.215" transform="translate(-41.811 -42.177)" fill="#eeecee"/>
      <path id="Trazado_1391546" data-name="Trazado 1391546" d="M103.883,88.76l.027.342-.032,12.282-.13.373-7.767-.069a1.028,1.028,0,0,0-.063,2.034l7.614-.036.277.372.075,2.868-.127.374-7.924.027a1.029,1.029,0,0,0-.556,1.618l-.181.385-8.45.182-.2-.009c-1.5-.87-3.173-1.219-3.277-3.3a2.948,2.948,0,0,1,1.658-2.789l2.263-1.111a2.969,2.969,0,0,0,1.623-3.641l-.857-2.5A2.927,2.927,0,0,1,91.6,92.4l2.516.853a2.885,2.885,0,0,0,3.519-1.392l1.385-2.745a2.759,2.759,0,0,1,2.326-1.4,3.458,3.458,0,0,1,2.538,1.045" transform="translate(-38.836 -40.957)" fill="#fefefe"/>
      <path id="Trazado_1391547" data-name="Trazado 1391547" d="M113.979,113.29c.636.007,1.006.991.947,1.459-.051.4-.427,1.209-1.017,1.215l-7.611.064a1.414,1.414,0,1,1,0-2.823Z" transform="translate(-48.938 -52.862)" fill="#ae66d9"/>
      <path id="Trazado_1391548" data-name="Trazado 1391548" d="M113.985,123.741a1.545,1.545,0,0,1,.9,1.724,1.457,1.457,0,0,1-1.464,1.075l-7.3-.018a1.405,1.405,0,1,1,.182-2.8Z" transform="translate(-48.937 -57.771)" fill="#ae66d9"/>
      <path id="Trazado_1391549" data-name="Trazado 1391549" d="M64.719,87.76a3.761,3.761,0,0,1-.142,3.851,3.876,3.876,0,0,1-3.2,1.811l-13.056.015.134-3.9,12.924-.008c1.611,0,2.365-.917,3.342-1.769" transform="translate(-22.563 -40.98)" fill="#ae66d9"/>
      <path id="Trazado_1391550" data-name="Trazado 1391550" d="M152.509.262a1.323,1.323,0,0,1,.748.372V4.943c-.133.591-.5,1.309-.935.564-.083.151-.146.138-.191-.034,0,.145-.035.368-.127.375a44,44,0,0,1-4.9-.01q-.754.158-.9-.377l-.172.375H134.593l-.224-.375-.282.368q-5.009.023-10.021.028l-.225-.375A1.037,1.037,0,0,1,122.7,4.378l.029-1.482.13-.375,22.521-.014a.979.979,0,0,1,.782-.19,15.471,15.471,0,0,1,.184-2.145q3.1-.078,6.158.091" transform="translate(-57.298 -0.068)" fill="#c8bec7"/>
      <path id="Trazado_1391551" data-name="Trazado 1391551" d="M135.366,10.12l.135.684a12.711,12.711,0,0,0,9.991,17.18l.479.431a4.057,4.057,0,0,1,1.237.111l.375.131q-.012,13.792-.024,27.591l-.375.23-.161.375a11.2,11.2,0,0,0-3.52.223q-1.443,2.4,3.449,1.818l.267.373c.591.138.555,1.9-.012,2.083l-.208.374q-1.689-.049-3.354.058l-.38.346a2.993,2.993,0,0,1-.449,1.126c-.018.145-.056.355-.166.375a35.59,35.59,0,0,1-5.176.006l-.269-.374c-.148-2.967-.087-6.206-.005-9.268l.27-.574a11.5,11.5,0,0,0-1.826-20.711l-.826-.65-.634.232a11.788,11.788,0,0,0-8.667,1.48l-.677-.006,0-23.626Z" transform="translate(-58.294 -4.726)" fill="#fee077"/>
      <path id="Trazado_1391552" data-name="Trazado 1391552" d="M134.554,50.923c2.149,1.475,2.94,5,2.925,7.521-.007,1.291-.086,3.339-1.112,4.116a.936.936,0,0,0-.559-.123l-7.461-.022c-.077.434-.208.51-.271.074l-3.805-.06.211-.227q-.074-4.717.095-9.383v-.19a12.137,12.137,0,0,1,9.979-1.707" transform="translate(-58.029 -23.588)" fill="#fd76a7"/>
      <path id="Trazado_1391553" data-name="Trazado 1391553" d="M146.351,0q-.089,1.032-.158,2.244a.935.935,0,0,1-.8.563l-22.629.015.028-2.063c.007-.529.734-.764,1.282-.764Z" transform="translate(-57.324 0)" fill="#d6cfd5"/>
      <path id="Trazado_1391554" data-name="Trazado 1391554" d="M173.026.2l-6.185,0c-.055.759.182,1.449-.158,2.056a5.181,5.181,0,0,1,.158-2.244h5.985a.192.192,0,0,1,.2.19" transform="translate(-77.814 -0.004)" fill="#cfc6cd"/>
      <path id="Trazado_1391555" data-name="Trazado 1391555" d="M155.469,10.118l.375.13,0,17.985a2.525,2.525,0,0,1-1.61.182,13.017,13.017,0,0,1-9.749-6.08,13.264,13.264,0,0,1-.857-12.216Z" transform="translate(-66.56 -4.725)" fill="#05e29b"/>
      <path id="Trazado_1391556" data-name="Trazado 1391556" d="M171.642,10.13c.166,5.506.164,11.378,0,16.889.127.041.122.1,0,.173l-.4.576c-1.029.4-4.392,1.51-5.221,1.006a1.606,1.606,0,0,1-.3-.248c-.436,0-.836-.075-1.237-.111l1.236-.064,0-18.232Z" transform="translate(-76.808 -4.725)" fill="#0ed18f"/>
      <path id="Trazado_1391557" data-name="Trazado 1391557" d="M178.1,27.034c-.058.163-.121.159-.19,0V10.14l.191.034Z" transform="translate(-83.077 -4.735)" fill="#55d785"/>
      <path id="Trazado_1391558" data-name="Trazado 1391558" d="M177.772,83.8l-.187,0-.375-.132,0-41.3.375-.361v-.173l.19,0Z" transform="translate(-82.749 -19.531)" fill="#fee089"/>
      <path id="Trazado_1391559" data-name="Trazado 1391559" d="M163.866,42.15l0,41.8-15.924,0a37.582,37.582,0,0,1,0-5.729l5.611-.007.4-.024c1.054,1.056,6.709.888,4.205-1.478l-.214-.4.011-2.083.144-.39a1.044,1.044,0,0,0-.111-1.989l-.068-.411.025-27.952a14.418,14.418,0,0,0,5.92-1.334" transform="translate(-69.032 -19.682)" fill="#fed05b"/>
      <path id="Trazado_1391560" data-name="Trazado 1391560" d="M145.945,73.216l-.055-9.9-.513-.394a12.187,12.187,0,0,0-1.813-11.637,11.846,11.846,0,0,1,2.381,21.935" transform="translate(-67.039 -23.946)" fill="#fd5693"/>
      <path id="Trazado_1391561" data-name="Trazado 1391561" d="M162.872,106.228a1.326,1.326,0,0,1,1.2,1.529A1.394,1.394,0,0,1,162.615,109l-2.639.007a1.5,1.5,0,0,1-1.5-.876,1.377,1.377,0,0,1,1.131-1.908Z" transform="translate(-73.959 -49.603)" fill="#fefefe"/>
      <path id="Trazado_1391562" data-name="Trazado 1391562" d="M162.849,97.09a1.485,1.485,0,0,1,1.229,1.391,1.333,1.333,0,0,1-1.193,1.4l-3.089.02a1.375,1.375,0,0,1-1.41-1.413,1.42,1.42,0,0,1,1.426-1.386Z" transform="translate(-73.96 -45.337)" fill="#fefefe"/>
      <path id="Trazado_1391563" data-name="Trazado 1391563" d="M179.447,127.241h-.192c-.144-.018-.35-.055-.375-.166a37.972,37.972,0,0,1,0-5.185l.375-.269.193,0Z" transform="translate(-83.487 -56.792)" fill="#d0c7cd"/>
      <path id="Trazado_1391564" data-name="Trazado 1391564" d="M163.964,120.231c.056-.163.118-.159.187,0a.822.822,0,0,1,.744.564v5.62a.558.558,0,0,1-.189.466c-.083.05-.34-.007-.378.237q-8.182.05-16.29-.143v-3.172l.174-.374,9.08-.012c.58-.022.568-2.594.431-2.625h-9.461l-.224-.375v-.187l.13-.375,15.566,0Z" transform="translate(-69.128 -55.968)" fill="#c8bec7"/>
      <path id="Trazado_1391565" data-name="Trazado 1391565" d="M17.156,120.663a15.542,15.542,0,0,1,.01,3.534l-.129.375L.525,124.56.3,124.185a8.865,8.865,0,0,1-.058-2.833.894.894,0,0,1,.812-.706Z" transform="translate(-0.073 -56.337)" fill="#d6cfd5"/>
      <path id="Trazado_1391566" data-name="Trazado 1391566" d="M17.181,127.3q.046.585.373.737c.089.21.148,2.417-.382,2.415q-7.921.093-15.925.182c-.454,0-.945-.274-.943-.738a7.032,7.032,0,0,1,.011-2.608Z" transform="translate(-0.087 -59.437)" fill="#c8bec7"/>
      <path id="Trazado_1391567" data-name="Trazado 1391567" d="M164.328,133.362l-16.291.045v-.188Z" transform="translate(-69.128 -62.208)" fill="#d5cdd5"/>
      <path id="Trazado_1391568" data-name="Trazado 1391568" d="M18.1,133.219l0,.187-15.923,0a.188.188,0,0,1,.208-.183Z" transform="translate(-1.015 -62.207)" fill="#d5cdd5"/>
      <path id="Trazado_1391569" data-name="Trazado 1391569" d="M.227,124.8c-.073.156-.134.146-.187-.022a9.516,9.516,0,0,1,.128-2.811Z" transform="translate(0 -56.955)" fill="#e1dde0"/>
      <path id="Trazado_1391570" data-name="Trazado 1391570" d="M.236,129.873c-.118-.025-.2-.168-.194-.368l.018-2.263.186.023Z" transform="translate(-0.02 -59.417)" fill="#d0c7cd"/>
      <path id="Trazado_1391571" data-name="Trazado 1391571" d="M148.04,124.3v-3.385H158.1l0,2.407a.992.992,0,0,1-1.059,1Z" transform="translate(-69.128 -56.463)" fill="#d6cfd5"/>
      <path id="Trazado_1391572" data-name="Trazado 1391572" d="M29.842.266a.748.748,0,0,1,.753.747l-.009,3.575c0,.512-.542.992-.924.925-.084.151-.15.138-.2-.035-.018.146-.061.361-.167.375a36.4,36.4,0,0,1-5.524-.013l-.27-.375L.984,5.476c-1.107,0-.946-1.234-.923-2.586l.13-.375,22.459,0a3.009,3.009,0,0,1,.861-.332Q23.568,1.1,23.659.19,26.77.113,29.842.266" transform="translate(-0.018 -0.077)" fill="#c8bec7"/>
      <path id="Trazado_1391573" data-name="Trazado 1391573" d="M17.928,109.815a43.7,43.7,0,0,1,.011,5.789l-.13.375-15.747-.017-.227-.375L1.83,109.94a1.276,1.276,0,0,1,.575-.128Z" transform="translate(-0.855 -51.278)" fill="#fed05b"/>
      <path id="Trazado_1391574" data-name="Trazado 1391574" d="M17.177,24.671c.014,1.563-2.1,2.524-3.489,2.8q-5.766.106-11.526.1l-.333-.26,0-5.256,11-.1a4.7,4.7,0,0,1,4.353,2.716" transform="translate(-0.853 -10.252)" fill="#bc80e0"/>
      <path id="Trazado_1391575" data-name="Trazado 1391575" d="M23.49,0c.433.11.519.238.077.312A6.832,6.832,0,0,1,23.529,2.1c-.128.286-.318.7-.836.705L.079,2.813.113.765C.122.235.851,0,1.4,0Z" transform="translate(-0.037)" fill="#d6cfd5"/>
      <path id="Trazado_1391576" data-name="Trazado 1391576" d="M1.825,33.555l0-3.867a1.191,1.191,0,0,1,.561-.154l10.295.019a5.138,5.138,0,0,0,4.492-2.5,4.6,4.6,0,0,1-.385,4.524,4.684,4.684,0,0,1-3.918,2.033Z" transform="translate(-0.852 -12.631)" fill="#ae66d9"/>
      <path id="Trazado_1391577" data-name="Trazado 1391577" d="M55.1,43.519h-.188l-.374-.131q0-16.508,0-33.022l.375-.23.2.034Z" transform="translate(-25.468 -4.733)" fill="#feeec4"/>
      <path id="Trazado_1391578" data-name="Trazado 1391578" d="M50.369.193,44.138.227a3.553,3.553,0,0,1-.1,1.879L44,.008h6.172a.188.188,0,0,1,.2.185" transform="translate(-20.546 -0.004)" fill="#cec6cd"/>
      <path id="Trazado_1391579" data-name="Trazado 1391579" d="M50.021,10.123l0,33.384a26.075,26.075,0,0,1-3.49.095c-.1.4-.273.4-.374,0a9.815,9.815,0,0,1-2.1-.092V10.11Z" transform="translate(-20.574 -4.721)" fill="#fed05b"/>
      <path id="Trazado_1391580" data-name="Trazado 1391580" d="M24.331,9.781l.375.131V42.948l-.375.231q-2.878.094-5.828.206c.139.464-.033.689-.533.514q.07,9.536-.051,19.03c0,.147-.038.373-.129.375-5.1.131-10.549.108-15.65.028l-.319-.278,0-37.738.173-.374,11.029.05c3.016-.344,4.763-2.54,3.986-5.577l.163-.6L16.7,18.7a4.339,4.339,0,0,0-3.883-2.233l-10.766.1-.229-.373-.009-6.4.13-.375L24.1,9.406Z" transform="translate(-0.846 -4.392)" fill="#fee077"/>
      <path id="Trazado_1391581" data-name="Trazado 1391581" d="M17.315,62.977l-5.554.014a1.41,1.41,0,1,1,.022-2.816h5.408a1.416,1.416,0,0,1,1.482,1.214,1.381,1.381,0,0,1-1.359,1.587" transform="translate(-4.805 -28.099)" fill="#fefefe"/>
      <path id="Trazado_1391582" data-name="Trazado 1391582" d="M17.212,52.134H11.758a1.418,1.418,0,0,1-1.466-1.29,1.363,1.363,0,0,1,1.329-1.5l5.729,0a1.369,1.369,0,0,1,1.333,1.343,1.417,1.417,0,0,1-1.471,1.453" transform="translate(-4.802 -23.039)" fill="#fefefe"/>
    </g>
  </g>
</svg>
