<svg id="Grupo_1224264" data-name="Grupo 1224264" xmlns="http://www.w3.org/2000/svg" xmlns:xlink="http://www.w3.org/1999/xlink" width="79.619" height="79.612" viewBox="0 0 79.619 79.612">
  <defs>
    <clipPath id="clip-path">
      <rect id="Rectángulo_745107" data-name="Rectángulo 745107" width="79.619" height="79.612" fill="none"/>
    </clipPath>
    <clipPath id="clip-path-2">
      <path id="Trazado_1391382" data-name="Trazado 1391382" d="M78.172,86.037a10.8,10.8,0,0,0-1.755,0c-.088.015-.121.191-.136.311l-4.043-.009q-.284.049-.234.48v18.171c-.066.446.014.717.236.814l7.278,0a17.378,17.378,0,0,1,1.2-9.449l-.09-.524q-.138-4.67-.083-9.37-.623-.028-1.3-.118a.7.7,0,0,0-.685-.352,2.032,2.032,0,0,0-.391.043" transform="translate(-71.98 -85.994)" fill="none"/>
    </clipPath>
    <linearGradient id="linear-gradient" x1="-4.297" y1="1.735" x2="-4.238" y2="1.735" gradientUnits="objectBoundingBox">
      <stop offset="0" stop-color="#fed08c"/>
      <stop offset="1" stop-color="#fedf9b"/>
    </linearGradient>
  </defs>
  <g id="Grupo_1224259" data-name="Grupo 1224259">
    <g id="Grupo_1224258" data-name="Grupo 1224258" clip-path="url(#clip-path)">
      <path id="Trazado_1391362" data-name="Trazado 1391362" d="M2.55,0l.311.149Q2.831,39.779,2.8,79.419l-.311.193H.156A.851.851,0,0,1,0,79.1L0,.067Z" transform="translate(0 -0.001)" fill="#e1996c"/>
      <path id="Trazado_1391363" data-name="Trazado 1391363" d="M7.057,20.987c.121.014.3.053.311.139a29.4,29.4,0,0,1,0,3.933q.144.714-.311.9l.311.109q0,19.365,0,38.736L7.061,65c.122.014.3.054.311.139a40.441,40.441,0,0,1-.006,4.458.5.5,0,0,1-.311.224l.014,9.325a.912.912,0,0,1-.159.472H4.734L4.795,0,7.061.057Z" transform="translate(-2.245 -0.001)" fill="#f3a973"/>
      <path id="Trazado_1391364" data-name="Trazado 1391364" d="M19.268,39.677c.015-.121.055-.3.139-.31a29.017,29.017,0,0,1,3.378.034.508.508,0,0,1,.217.313l.107-.311,16.029-.04.19.311,4.821,0c.036-.121.091-.3.186-.307a26.132,26.132,0,0,1,3.395.075.485.485,0,0,1,.115.264l15.9.074c-.055-.5.289-.6.466-.12l10.122-.006c.121.014.3.052.311.139a30.444,30.444,0,0,1,0,4.593l-.311.225-.149.311-64.833.006-.195-.311,0-4.972Z" transform="translate(-4.341 -18.656)" fill="#d38b64"/>
      <path id="Trazado_1391365" data-name="Trazado 1391365" d="M135.391,0l.311.149q-.056,24.031-.113,48.07l-.311.192-2.526-1.541-.311-.293q.027-10.219.053-20.436l.312-.188V21L132.795.051Z" transform="translate(-62.814)" fill="#e1996c"/>
      <path id="Trazado_1391366" data-name="Trazado 1391366" d="M140.148,50.4a13.29,13.29,0,0,0-2.311-1.986L137.95,0l2.217.066Z" transform="translate(-65.372)" fill="#f3a973"/>
      <path id="Trazado_1391367" data-name="Trazado 1391367" d="M16.625,123.32c.015-.12.047-.292.14-.311a30.878,30.878,0,0,1,4.33.014l.224.312.108-.311,20.509,0,.191.311q.038-.62.313,0l.143-.311,6.95,0,.186.311a18.642,18.642,0,0,0,1.449,4.788l-42.017.006.006-4.821.145-.311,7.139.019Z" transform="translate(-4.34 -58.306)" fill="#d38b64"/>
      <path id="Trazado_1391368" data-name="Trazado 1391368" d="M85.606,10.642l.207.012q.192,3.329.118,6.783l2.813-1.2L91.6,17.446l.052-6.617.312-.18,5.934-.006c.3,0,.914.266.915.635l.015,14.77c-.134,0-.354-.028-.466.12q-8.025-.022-16.055-.09l-.172-.141.025-15.106.311-.189Z" transform="translate(-38.953 -5.047)" fill="#fedf9b"/>
      <path id="Trazado_1391369" data-name="Trazado 1391369" d="M79.427,10.634l-.025,15.4,15.915.123-15.8-.023-3.8-.084.018-14.786c0-.442.731-.645,1.041-.644Z" transform="translate(-35.913 -5.039)" fill="#fed08c"/>
      <path id="Trazado_1391370" data-name="Trazado 1391370" d="M95.1,10.649l-.058,7.331-3.15-1.454-3.131,1.441-.015-7.325Z" transform="translate(-42.088 -5.047)" fill="#fed08c"/>
      <path id="Trazado_1391371" data-name="Trazado 1391371" d="M38.341,10.641l.207.013q.146,3.407.1,6.924l2.871-1.349q1.463.606,2.867,1.353l-.006-6.759.31-.185,5.9,0c.3,0,.914.263.914.635l.012,14.787L35.19,26.1,34.879,26,34.85,10.831l.311-.188Z" transform="translate(-16.528 -5.046)" fill="#a69aa6"/>
      <path id="Trazado_1391372" data-name="Trazado 1391372" d="M32.1,10.646l.029,15.462-3.734-.037,0-14.48a.925.925,0,0,1,.932-.944Z" transform="translate(-13.466 -5.049)" fill="#908190"/>
      <path id="Trazado_1391373" data-name="Trazado 1391373" d="M47.8,10.639l.043,6.842a.488.488,0,0,1-.2.392.377.377,0,0,1-.345-.043L44.65,16.517l-2.8,1.355c-.226.109-.424-.151-.423-.392l.035-6.84Z" transform="translate(-19.647 -5.046)" fill="#908190"/>
      <path id="Trazado_1391374" data-name="Trazado 1391374" d="M88.094,63.584l.228.259.034,5.657,2.183-.942,2.135.893.027-5.687.312-.182,4.732,0a.613.613,0,0,1,.622.631l0,11.511-3.422.021-8.09-.014-.071.207a4.846,4.846,0,0,0-1.312-.219c-.122-.013-.308-.059-.31-.145-.08-3.711-.1-7.825.058-11.523l.1-.457Z" transform="translate(-40.36 -30.153)" fill="#a69aa6"/>
      <path id="Trazado_1391375" data-name="Trazado 1391375" d="M82.977,63.6a.772.772,0,0,1,.206.461l-.056,11.664-2.967,0,0-11.195c0-.369.276-.906.622-.91Z" transform="translate(-38.018 -30.165)" fill="#908190"/>
      <path id="Trazado_1391376" data-name="Trazado 1391376" d="M95.6,63.587l-.03,6.4-2.437-1.135L90.626,69.99l-.067-5.936a1.111,1.111,0,0,1,.125-.466Z" transform="translate(-42.95 -30.158)" fill="#908290"/>
      <path id="Trazado_1391377" data-name="Trazado 1391377" d="M40.308,63.581l.311.106-.012,5.76q1.025-.431,2.082-.882,1.151.448,2.266.876l0-5.509.205-.347,4.943-.006a1.18,1.18,0,0,1,.643.649l0,11.492-4.008.023c-.014.123-.057.308-.144.311-2.212.094-4.865.1-7.073,0q-.648.136-.78-.311l-.943,0-.311-.145q.007-5.908.014-11.821l.311-.186Z" transform="translate(-17.781 -30.154)" fill="#fedf9b"/>
      <path id="Trazado_1391378" data-name="Trazado 1391378" d="M35.464,63.586l-.015,12.152-2.911-.007L32.532,64.21a.611.611,0,0,1,.62-.631Z" transform="translate(-15.429 -30.154)" fill="#fed08c"/>
      <path id="Trazado_1391379" data-name="Trazado 1391379" d="M47.7,63.586a1.956,1.956,0,0,1,.137.925l-.04,5.458-2.552-1.113-2.415,1.122.013-6.4Z" transform="translate(-20.311 -30.155)" fill="#fed08c"/>
      <path id="Trazado_1391380" data-name="Trazado 1391380" d="M96.273,86.358c.5.1.446,1.179.017,1.418l-1.138.694a17.348,17.348,0,0,0-6.881,7.873c-.449,0-.493-.331-.089-.524-.127-3.114-.146-6.4,0-9.476.014-.122.057-.307.143-.311,2.148-.091,4.763-.1,6.906.012q.845-.156,1.041.313" transform="translate(-41.691 -40.77)" fill="#fed08c"/>
      <path id="Trazado_1391381" data-name="Trazado 1391381" d="M107.244,86.368l.479.037a22.506,22.506,0,0,0-3.883,1.4l-.018-1.418c.014-.121.049-.3.136-.312.3-.036,2.922-.079,3.063-.019a.51.51,0,0,1,.223.309" transform="translate(-49.24 -40.801)" fill="#fcde9d"/>
    </g>
  </g>
  <g id="Grupo_1224261" data-name="Grupo 1224261" transform="translate(37.842 45.209)">
    <g id="Grupo_1224260" data-name="Grupo 1224260" clip-path="url(#clip-path-2)">
      <rect id="Rectángulo_745108" data-name="Rectángulo 745108" width="8.794" height="19.837" transform="translate(-0.05 -0.021)" fill="url(#linear-gradient)"/>
    </g>
  </g>
  <g id="Grupo_1224263" data-name="Grupo 1224263">
    <g id="Grupo_1224262" data-name="Grupo 1224262" clip-path="url(#clip-path)">
      <path id="Trazado_1391383" data-name="Trazado 1391383" d="M72.188,86.651a1.02,1.02,0,0,0-.157.485l0,18.166a1.485,1.485,0,0,0,.159.815l-.313,0V86.65Z" transform="translate(-34.089 -41.096)" fill="#fed08c"/>
      <path id="Trazado_1391384" data-name="Trazado 1391384" d="M87.186,86.677l0,9.476a.317.317,0,0,1-.15-.316l-.016-9.069c-.564.078-.978.111-1.214-.1Z" transform="translate(-40.695 -41.103)" fill="#fedf9b"/>
      <path id="Trazado_1391385" data-name="Trazado 1391385" d="M35.032,86.364c0-.467.866-.442.943,0l.311.146.015,9.92q1.836-.84,3.7-1.711,1.9.909,3.731,1.684-.006-4.911-.074-9.845l.309-.19c.032-.12.079-.3.177-.312a26.245,26.245,0,0,1,3.608-.021l.223.31,4.821-.012q.209.01.076.561v18.1a1.1,1.1,0,0,1-.077.813l-20.807,0-.311-.107q-.014-9.583-.028-19.169l.311-.189.158.013.18-.311,2.51.006Z" transform="translate(-15.012 -40.78)" fill="#a69aa6"/>
      <path id="Trazado_1391386" data-name="Trazado 1391386" d="M28.034,86.668l.028,19.465-4.694-.015,0-18.5a.926.926,0,0,1,.934-.947Z" transform="translate(-11.083 -41.103)" fill="#908190"/>
      <path id="Trazado_1391387" data-name="Trazado 1391387" d="M47.845,86.713l.1,9.907a.548.548,0,0,1-.145.393.44.44,0,0,1-.427.065l-3.482-1.725-3.445,1.694a.449.449,0,0,1-.424,0,.5.5,0,0,1-.2-.412l.03-9.922Z" transform="translate(-18.885 -41.124)" fill="#908290"/>
      <path id="Trazado_1391388" data-name="Trazado 1391388" d="M116.048,87.292c.076-.095.2-.229.278-.195a12.458,12.458,0,0,1,1.692,1.032.855.855,0,0,1,.556.7c.925-.1,2.057,1.1,2.311,1.986a17.845,17.845,0,0,1,4.844,9.933v4.043c-.009,1.453-.7,5.438-1.814,6.234a1.708,1.708,0,0,1-.332.176,7.788,7.788,0,0,1-3.793,1.919c-.782.227-2.96.811-3.579.545a1.643,1.643,0,0,1-.314-.188q-.27-.235-.008-.816l-.012-19.241-.135-.266a23.239,23.239,0,0,0-3.793-.081l-.229-.309-.312-.133a3.536,3.536,0,0,0-.267-2.181,44.521,44.521,0,0,0-5.232-.02,2.9,2.9,0,0,0-.288,2.106l-.31.214-.142.309-3.419-.045q-.448.155-.886.275-.162,6.38-.115,12.87c-.045.112-.089.2-.131.2-.623-.019-1.91-2.935-2.2-3.685A17.615,17.615,0,0,1,97.8,91.83a7.314,7.314,0,0,1,1.774-3.707c-.3-.381.818-1.037,1.138-.694a1.926,1.926,0,0,1,.23-.333.925.925,0,0,1,.275-.234,8.877,8.877,0,0,1,3.378-.834,1.6,1.6,0,0,1,.238-.273c.5-.437,2.732-.517,3.533-.524,1.535-.014,6.663.63,7.508,1.748a1.628,1.628,0,0,1,.177.315" transform="translate(-46.109 -40.422)" fill="#fff"/>
      <path id="Trazado_1391389" data-name="Trazado 1391389" d="M93.909,90.71a17.322,17.322,0,0,0,1.1,18.1l.035-12.877c0-.075.115-.1.161-.055l.311.108q-.018,6.448-.035,12.9l-.312.188.31.844q-.053,2.852.051,5.673l.458.222,8.5.019a19.289,19.289,0,0,1,2.362.316,4.731,4.731,0,0,1,3.389-.082,17.977,17.977,0,0,0,7.687-2.276,1.641,1.641,0,0,1,.037.355.67.67,0,0,1-.057.3c-2.509,4.448-7.884,8.165-13.074,8.173h-4.043a17.759,17.759,0,0,1-9.435-4.379,16.437,16.437,0,0,1-4.073-5.423,1.636,1.636,0,0,1-.309-.191,9.731,9.731,0,0,1-1.3-4.267,1.629,1.629,0,0,1,.158-.329,1.275,1.275,0,0,1-.39-.585,17.4,17.4,0,0,1,1.064-8.4,1.273,1.273,0,0,1,.528-.467c.163-1.695,1.406-3.288,2.5-4.561.689-.8,3.138-3.269,4.021-3.334a1.575,1.575,0,0,1,.357.022" transform="translate(-40.448 -43.01)" fill="#e8f1f9"/>
      <path id="Trazado_1391390" data-name="Trazado 1391390" d="M119,97.132l-.011.826a.839.839,0,0,1-.909.812l-5.07-.119c-.571-.013-.416-1.13-.418-1.533l-.009-1.8a.825.825,0,0,1,.86-.88l4.628-.009a.852.852,0,0,1,.923.9Z" transform="translate(-53.392 -44.786)" fill="#feee92"/>
      <path id="Trazado_1391391" data-name="Trazado 1391391" d="M115.751,132.739l-10.878-.026a.765.765,0,0,1-.811-.809l.011-6.24a17.328,17.328,0,0,0,11.366,6.863c.2.031.279.044.311.212" transform="translate(-49.354 -59.599)" fill="#26a5fd"/>
      <path id="Trazado_1391392" data-name="Trazado 1391392" d="M108.566,99.5l.307.169a2.2,2.2,0,0,0,.093,1.054,39.58,39.58,0,0,0,5.386.065.491.491,0,0,0,.3-.38q-.12-.732.325-.895l3.717-.043a.774.774,0,0,1,.762.761v19.2a1.621,1.621,0,0,1-.3.8q-1.694.088-3.389.081a15.651,15.651,0,0,1-8.432-3.335c-1.253-.961-2.8-2.224-3.246-3.74l.036-13.194c0-.37.556-.591.912-.586Z" transform="translate(-49.364 -47.168)" fill="#60b6fe"/>
      <path id="Trazado_1391393" data-name="Trazado 1391393" d="M117.854,111.779l-5.693,0a1.214,1.214,0,0,1-1.232-1.21,1.2,1.2,0,0,1,1.237-1.188l5.6-.008a1.206,1.206,0,0,1,1.3,1.048,1.184,1.184,0,0,1-1.217,1.355" transform="translate(-52.611 -51.874)" fill="#26a5fd"/>
      <path id="Trazado_1391394" data-name="Trazado 1391394" d="M117.854,120.919h-5.686a1.2,1.2,0,1,1-.006-2.4l5.609-.005a1.215,1.215,0,0,1,1.3,1.063,1.185,1.185,0,0,1-1.219,1.346" transform="translate(-52.611 -56.206)" fill="#26a5fd"/>
      <path id="Trazado_1391395" data-name="Trazado 1391395" d="M117.774,130.074l-5.606-.008a1.2,1.2,0,1,1,0-2.4l5.61-.006a1.2,1.2,0,0,1,1.309,1.22,1.217,1.217,0,0,1-1.307,1.191" transform="translate(-52.612 -60.547)" fill="#26a5fd"/>
    </g>
  </g>
</svg>
