<svg id="Grupo_1224250" data-name="Grupo 1224250" xmlns="http://www.w3.org/2000/svg" xmlns:xlink="http://www.w3.org/1999/xlink" width="95.424" height="88.787" viewBox="0 0 95.424 88.787">
  <defs>
    <clipPath id="clip-path">
      <rect id="Rectángulo_745098" data-name="Rectángulo 745098" width="95.424" height="88.787" fill="none"/>
    </clipPath>
  </defs>
  <g id="Grupo_1224249" data-name="Grupo 1224249" clip-path="url(#clip-path)">
    <path id="Trazado_1391303" data-name="Trazado 1391303" d="M114.512,63.538c8.589.639,16.025,8.117,16.829,16.6l-.019,3.718c-.831,8.426-7.085,17.715-12.877,23.612l-3.283,3.342a.542.542,0,0,1-.38-.1c-8.771-7.925-19.892-21.719-17.208-34.364a16.929,16.929,0,0,1,7.7-11.218,18.5,18.5,0,0,1,9.239-1.592M102.25,83.432a6.7,6.7,0,0,0,1.1,3.243A7.5,7.5,0,0,0,105,89.184a10.672,10.672,0,0,0,14.952.825,10.559,10.559,0,0,0,3.606-8.952,10.727,10.727,0,1,0-21.313,2.375" transform="translate(-35.917 -23.464)" fill="#fe5f7a"/>
    <path id="Trazado_1391304" data-name="Trazado 1391304" d="M103.669,66.051c-8.024,6.263-9.663,15.547-5.615,24.934,3.238,7.509,9.024,14.5,15.034,19.992.26.238.468.361.47.755l-.954.857a1.792,1.792,0,0,1-2.539.1l-4.813-4.852A60.417,60.417,0,0,1,96.6,96a26.254,26.254,0,0,1-3.25-8.464l-.469-3.2a18.848,18.848,0,0,1,1-7.632,3.132,3.132,0,0,1,1.454-3.119,1.9,1.9,0,0,1-.037-.424c.083-1.654,6.3-7.277,7.956-7.192a1.89,1.89,0,0,1,.417.079" transform="translate(-34.313 -24.386)" fill="#fa4455"/>
    <path id="Trazado_1391305" data-name="Trazado 1391305" d="M82.77,37.948l.1,15.458-.736.332a18.106,18.106,0,0,0-7.711,1.323L73.628,55l-.374-.169-.093-9.4c-.2-.725-.558-.847-1.236-.953l-24.333,0-.228-.373a.347.347,0,0,1-.113.373q-2-.363-2.545.923l-.027,18.639c.123.833.294,1.08,1.147,1.251l17.787-.008.225.373a5.059,5.059,0,0,1-.316,2.564l-.346,2.854a3.755,3.755,0,0,1-.337,2.214l-27.786.074c-.145,0-.368-.037-.373-.127a57.183,57.183,0,0,1,.009-6.935c-.045-.354,0-.533.374-.64-.144-.018-.355-.058-.373-.164a23.1,23.1,0,0,1,0-2.647.622.622,0,0,1,.373-.262l-.373-.129-.008-16.836c-.127-.689-.284-.976-1.015-1.135l-12.219-.011-.224-.373-.2.373q-1.979-.355-2.505.958L18.5,65.354l-.373.227.373.219q-.009,3.643-.019,7.29l-.374.272-6.164.009-.373-.13q-.05-18.075.115-36.129l1.836-1.035a7.976,7.976,0,0,0,9.23.009A8.015,8.015,0,0,0,32,36.079a7.974,7.974,0,0,0,9.224.009,8.031,8.031,0,0,0,9.252,0,7.97,7.97,0,0,0,9.23-.007,7.989,7.989,0,0,0,9.24.01,8.01,8.01,0,0,0,9.254-.015,10.4,10.4,0,0,0,3.2,1.364,1.593,1.593,0,0,1,1.37.511" transform="translate(-4.272 -13.334)" fill="#fedf77"/>
    <path id="Trazado_1391306" data-name="Trazado 1391306" d="M20.9,28.4q.179-.425.346-.183l.43.208a4.247,4.247,0,0,0,8.174-.166l.439-.207.452.2c1.586,4.426,7.159,4.165,8.5-.241.306-.189.442-.139.519.232l.413.212c1.159,4.08,7.011,3.917,8.128-.156l.429-.209.458.19c1.643,4.343,7.117,4.158,8.547-.238.069-.107.33.015.456.156l.428.207a4.308,4.308,0,0,0,8.265-.119l.454-.2.437.2a4.283,4.283,0,0,0,8.31-.217l.429-.232.432.233a4.433,4.433,0,0,0,3.911,3.388l.3.392-.036,3.048a7.584,7.584,0,0,1-4.569-1.548,7.735,7.735,0,0,1-9.253.017,7.724,7.724,0,0,1-9.24-.011,7.7,7.7,0,0,1-9.23.008,7.763,7.763,0,0,1-9.252,0,7.7,7.7,0,0,1-9.224-.01,7.741,7.741,0,0,1-9.251.008,7.732,7.732,0,0,1-9.251-.014,10.2,10.2,0,0,1-1.523.881l-.034,36.089L7.1,70.286,7.069,31.863a4.872,4.872,0,0,0,4.824-3.989l.424.23a4.235,4.235,0,0,0,8.142.48Z" transform="translate(-2.613 -10.294)" fill="#fecf5b"/>
    <path id="Trazado_1391307" data-name="Trazado 1391307" d="M38.9,82.746l-.009,7.7H21.945l.02-7.781.13-.373,16.581.077Z" transform="translate(-8.112 -30.42)" fill="#dad7da"/>
    <path id="Trazado_1391308" data-name="Trazado 1391308" d="M40.507,67.295l-.172.373-9.673-.042c-2.74-.449-4.059-2.183-4.382-4.846L26.3,49.035l.373-.223,12.316,0A1.5,1.5,0,0,1,40.5,50.311Z" transform="translate(-9.714 -18.043)" fill="#7ad6ed"/>
    <path id="Trazado_1391309" data-name="Trazado 1391309" d="M94.407,59.707a18.514,18.514,0,0,0-8.336,7.537l-.413.371-13.214.037c-2.8-.362-4.259-1.944-4.644-4.7l-.03-13.912.373-.224,24.573,0A1.546,1.546,0,0,1,94.33,50.34Z" transform="translate(-25.051 -18.042)" fill="#7ad6ed"/>
    <path id="Trazado_1391310" data-name="Trazado 1391310" d="M66.569,48.813l.019,13.8a4.6,4.6,0,0,0,4.625,4.682L84.5,67.245a17.463,17.463,0,0,0-1.454,3.119l-17.935.009a1.549,1.549,0,0,1-1.6-1.619l.011-18.441a1.5,1.5,0,0,1,1.52-1.5Z" transform="translate(-23.476 -18.043)" fill="#4bc2ee"/>
    <path id="Trazado_1391311" data-name="Trazado 1391311" d="M25.079,48.811,25.06,62.605a4.634,4.634,0,0,0,4.691,4.69l9.166,0,0,3.074-16.936-.079.009-19.939a1.545,1.545,0,0,1,1.6-1.542Z" transform="translate(-8.124 -18.042)" fill="#4bc2ee"/>
    <path id="Trazado_1391312" data-name="Trazado 1391312" d="M117.393,75.852l-.052,12.115-.175.373-11.777-.013-.225-.373a10.718,10.718,0,0,1,12.228-12.1" transform="translate(-38.831 -27.987)" fill="#fedf77"/>
    <path id="Trazado_1391313" data-name="Trazado 1391313" d="M7.67,94.968c.016-.146.065-.366.168-.373a51.746,51.746,0,0,1,5.724-.009l.272.373.129-.373H30.554l.227.373.129-.373,27.428-.073.229.372.4.158.4,2.722-.33.318L1.2,98.138,0,97.208V95.9c-.041-1.631,2.982-1.44,4.215-1.348l.275.367.216-.37a22.248,22.248,0,0,1,2.707.039.616.616,0,0,1,.257.376" transform="translate(0 -34.93)" fill="#ebe9eb"/>
    <path id="Trazado_1391314" data-name="Trazado 1391314" d="M106.33,98.375a6.7,6.7,0,0,1-1.1-3.243l12.176.013A22.875,22.875,0,0,0,120,95.2a1.745,1.745,0,0,1,2.027,1.063c.217.63-.173,2.027-1.208,2.035Z" transform="translate(-38.898 -35.165)" fill="#ebe9eb"/>
    <path id="Trazado_1391315" data-name="Trazado 1391315" d="M83.167,13.822l-.125.373-8.861.014-.219-.373-.173.373h-9l-.223-.373-.17.373H55.73l-.221-.373-.172.373-8.975,0-.223-.373-.014.249q-4.407.218-8.962.119l-.219-.373c-.016.147-.068.369-.171.373-2.809.117-6.083.118-8.894,0l-.221-.373c-.016.147-.069.368-.173.373-2.5.11-5.7.154-8.176,0q-.7.149-.835-.373c-.016.147-.067.368-.17.373-2.418.113-5.456.137-7.865,0q-1.009.19-1.246-.372c-.017.147-.071.368-.175.372-2.775.1-6.019.091-8.795-.035L0,13.8V12.681l.622-1.254L8.053,1.556A4.533,4.533,0,0,1,10.508,0L72.492,0a4.608,4.608,0,0,1,2.7,1.651l7.255,9.671a4.021,4.021,0,0,1,.72,2.5" transform="translate(0 0)" fill="#fe5f7a"/>
    <path id="Trazado_1391316" data-name="Trazado 1391316" d="M9.192,21.93l.379.443L9.6,25.206l-.316.468c.31,1.633-.98,3.043-2.351,3.755-.65.338-2.026.93-2.474.234A4.769,4.769,0,0,1,0,26.138V21.893Z" transform="translate(0 -8.093)" fill="#d83f50"/>
    <path id="Trazado_1391317" data-name="Trazado 1391317" d="M126.281,21.928l-.055,3.891a4.575,4.575,0,0,1-4.578,3.853,4.815,4.815,0,0,1-4.641-4.013l-.369-.22q.03-1.618.06-3.237l.378-.259Z" transform="translate(-43.114 -8.106)" fill="#d83f50"/>
    <path id="Trazado_1391318" data-name="Trazado 1391318" d="M111.6,21.951l-.069,3.716a4.66,4.66,0,0,1-9.176.245c-.146-.012-.364-.049-.379-.151a25.1,25.1,0,0,1-.132-3.532l.362-.279Z" transform="translate(-37.64 -8.114)" fill="#fa4455"/>
    <path id="Trazado_1391319" data-name="Trazado 1391319" d="M52.942,21.945l.388.279a13.873,13.873,0,0,0,.148,3.549l-.339.289a.3.3,0,0,0-.274-.011c.046-.023-1.01,3.85-4.875,3.577a4.922,4.922,0,0,1-4.319-3.758l-.373-.209-.013-3.45.372-.263Z" transform="translate(-16 -8.112)" fill="#fa4455"/>
    <path id="Trazado_1391320" data-name="Trazado 1391320" d="M96.805,21.95l.147,3.962a4.917,4.917,0,0,1-4.6,3.733,4.545,4.545,0,0,1-4.549-3.625,1.629,1.629,0,0,1-.539-1.657,3.005,3.005,0,0,1,.478-2.413Z" transform="translate(-32.237 -8.114)" fill="#d83f50"/>
    <path id="Trazado_1391321" data-name="Trazado 1391321" d="M23.854,21.945l.373.215c.039.279.058,2.867,0,3a.62.62,0,0,1-.373.267.678.678,0,0,1-.188.788,4.555,4.555,0,0,1-4.588,3.42,4.63,4.63,0,0,1-4.414-3.948,29.853,29.853,0,0,1-.088-3.744Z" transform="translate(-5.381 -8.112)" fill="#fa4455"/>
    <path id="Trazado_1391322" data-name="Trazado 1391322" d="M82.3,21.95a14.953,14.953,0,0,0,.061,4.07c-.248.051-.313.247-.409.528a4.586,4.586,0,0,1-4.881,3.067,5.056,5.056,0,0,1-4.17-3.7c-.145-.019-.362-.065-.372-.168a25.186,25.186,0,0,1,.026-3.53l.375-.262Z" transform="translate(-26.791 -8.114)" fill="#fa4455"/>
    <path id="Trazado_1391323" data-name="Trazado 1391323" d="M67.771,21.95l-.029,3.96A4.624,4.624,0,0,1,63.3,29.64a4.4,4.4,0,0,1-4.533-3.578l-.214-1.716c-.106-.849.086-1.641.018-2.4Z" transform="translate(-21.633 -8.112)" fill="#d83f50"/>
    <path id="Trazado_1391324" data-name="Trazado 1391324" d="M38.487,21.949l.014,3.922a4.7,4.7,0,0,1-4.466,3.77,4.531,4.531,0,0,1-4.577-3.6.815.815,0,0,1-.158-.605l0-3.487Z" transform="translate(-10.83 -8.112)" fill="#d83f50"/>
    <path id="Trazado_1391325" data-name="Trazado 1391325" d="M29.348,28.083,29,28.266l.188-.788c.247.143.124.425.158.6" transform="translate(-10.72 -10.157)" fill="#eb8655"/>
  </g>
</svg>
