<svg id="Grupo_1224180" data-name="Grupo 1224180" xmlns="http://www.w3.org/2000/svg" xmlns:xlink="http://www.w3.org/1999/xlink" width="73.731" height="82.439" viewBox="0 0 73.731 82.439">
  <defs>
    <clipPath id="clip-path">
      <rect id="Rectángulo_744913" data-name="Rectángulo 744913" width="73.731" height="82.439" fill="none"/>
    </clipPath>
  </defs>
  <g id="Grupo_1224179" data-name="Grupo 1224179" clip-path="url(#clip-path)">
    <path id="Trazado_1390874" data-name="Trazado 1390874" d="M5.031,138.412l.155-.335H11.78l1.127.335.116-.335H31.135l.2.335.762-.335q5.289,0,10.585,0l1.053.331.116-.335H61.966l.2.335.815-.335h5.523l.2.335c.016-.13.054-.323.149-.335a30.869,30.869,0,0,1,4.637,0l.241.335v5.027c-.016.131-.056.326-.149.335a32.33,32.33,0,0,1-4.637,0l-.241-.335-.161.335H5.24l-.209-.335c-.015.131-.056.326-.149.335a32.33,32.33,0,0,1-4.637,0L0,143.439v-5.027c.015-.131.057-.327.149-.335a29.294,29.294,0,0,1,3.83,0q.827-.16,1.049.335" transform="translate(-0.003 -89.151)" fill="#6e82b6"/>
    <path id="Trazado_1390875" data-name="Trazado 1390875" d="M5.031,57.914h7.876l.113-.335h6.393l.2.335h7.038c0-.13.032-.331.113-.335a48.793,48.793,0,0,1,6.019,0c.317-.041.475,0,.57.335h7.038l.113-.335h6.393l.2.335h7.038c0-.13.032-.331.113-.335a47.433,47.433,0,0,1,5.684,0q.754-.154.906.335h7.875c.015-.131.056-.326.149-.335a35.232,35.232,0,0,1,4.637,0l.241.335v5.027c-.015.131-.057.329-.149.335a38.905,38.905,0,0,1-4.637,0l-.241-.335-.161.335H5.24l-.209-.335c-.015.131-.057.328-.149.335-.514.041-4.421.083-4.637,0-.126-.048-.189-.2-.241-.335V57.914c.016-.13.054-.323.149-.335a30.864,30.864,0,0,1,4.637,0Z" transform="translate(-0.003 -37.139)" fill="#6e82b6"/>
    <path id="Trazado_1390876" data-name="Trazado 1390876" d="M159.627,24.472v6.7l-.113.335h-6.392l-.2-.335v-6.7l.113-.335h6.391Z" transform="translate(-98.801 -15.594)" fill="#feafa9"/>
    <path id="Trazado_1390877" data-name="Trazado 1390877" d="M159.628,8.887h-6.7l.005-5.3,2.5-1.245.016-2.329h1.668l.016,2.329,2.5,1.245Z" transform="translate(-98.802 -0.01)" fill="#7fd5fa"/>
    <rect id="Rectángulo_744907" data-name="Rectángulo 744907" width="6.702" height="5.195" transform="translate(54.125 15.581)" fill="#7fd5fa"/>
    <path id="Trazado_1390878" data-name="Trazado 1390878" d="M5.03,203.747c.015-.131.059-.329.151-.335a46.277,46.277,0,0,1,5.135,0l.244.335.156-.335H23.762l.2.335a.531.531,0,0,1,.013-.223c.084-.249,4.622-.151,5.195-.112q.82-.16.992.335l.156-.335H43.367l.2.335.013-.223q2.929-.2,5.99-.112l.2.335.156-.335H62.972l.2.335c.015-.131.059-.329.15-.335a46.283,46.283,0,0,1,5.135,0l.244.335c.016-.129.048-.312.149-.335a35.3,35.3,0,0,1,4.637,0l.241.335v5.025l-3.52,0c-.015.131-.057.328-.149.335-.514.041-4.421.084-4.637,0-.126-.048-.189-.2-.241-.335H8.548c-.015.131-.056.326-.149.335a32.333,32.333,0,0,1-4.637,0l-.241-.335-3.52,0v-5.025c.016-.13.054-.323.149-.335a30.821,30.821,0,0,1,4.637,0Z" transform="translate(-0.001 -131.362)" fill="#6e82b6"/>
    <path id="Trazado_1390879" data-name="Trazado 1390879" d="M198.53,72.9V96.361H193.5l-.335-.117V73.108l.335-.206Z" transform="translate(-124.8 -47.099)" fill="#466088"/>
    <path id="Trazado_1390880" data-name="Trazado 1390880" d="M199.139,20.775h-5.027V0h5.03Z" transform="translate(-125.409 0)" fill="#466088"/>
    <path id="Trazado_1390881" data-name="Trazado 1390881" d="M198.53,153.386v18.1H193.5l-.335-.115V153.589l.335-.2Z" transform="translate(-124.8 -99.098)" fill="#466088"/>
    <rect id="Rectángulo_744908" data-name="Rectángulo 744908" width="5.027" height="5.028" transform="translate(65.184 77.412)" fill="#466088"/>
    <path id="Trazado_1390882" data-name="Trazado 1390882" d="M5.031,72.9l.335.117V96.154l-.335.206H0V72.9Z" transform="translate(-0.003 -47.099)" fill="#466088"/>
    <path id="Trazado_1390883" data-name="Trazado 1390883" d="M5.029,20.775H0V0H5.03Z" transform="translate(0 0)" fill="#466088"/>
    <path id="Trazado_1390884" data-name="Trazado 1390884" d="M5.031,153.386l.335.116V171.28l-.335.2H0v-18.1Z" transform="translate(-0.003 -99.098)" fill="#466088"/>
    <rect id="Rectángulo_744909" data-name="Rectángulo 744909" width="5.027" height="5.028" transform="translate(3.521 77.412)" fill="#466088"/>
    <path id="Trazado_1390885" data-name="Trazado 1390885" d="M120.8,24.472v6.7c0,.13-.031.33-.113.335a53.86,53.86,0,0,1-5.394,0q-.955.173-1.2-.335v-6.7l.113-.335h6.391Z" transform="translate(-73.719 -15.594)" fill="#feafa9"/>
    <path id="Trazado_1390886" data-name="Trazado 1390886" d="M120.806,8.887h-6.7l.005-5.3,2.5-1.245.016-2.329h1.668l.016,2.329,2.5,1.245Z" transform="translate(-73.72 -0.01)" fill="#7fd5fa"/>
    <rect id="Rectángulo_744910" data-name="Rectángulo 744910" width="6.702" height="5.195" transform="translate(40.385 15.581)" fill="#7fd5fa"/>
    <path id="Trazado_1390887" data-name="Trazado 1390887" d="M51.231,85.076l-.667.157-16.967,0c-.68.15-.664.876.059,1l17.006-.024.694.333a1.808,1.808,0,0,1-1.05,2.6,1.482,1.482,0,0,1,1.2,1.081,1.65,1.65,0,0,1-.276,1.552l-.663.153-16.967,0c-.68.15-.664.876.059,1l17.006-.024.694.333a1.809,1.809,0,0,1-1.051,2.6,1.481,1.481,0,0,1,1.2,1.081,1.651,1.651,0,0,1-.276,1.553l-.663.153-16.967,0c-.68.15-.664.875.059,1l17.006-.024.694.333a1.848,1.848,0,0,1-.818,2.538H32.106c-.113-.216-.382-.254-.62-.384a3.345,3.345,0,0,1-1.724-3.522,3.6,3.6,0,0,1,2.519-2.8,3.468,3.468,0,0,1,0-6.7,3.518,3.518,0,0,1-2.56-3.494c.025-1.075.936-3.093,2.505-3.1l18.1-.105c.631,0,1.065.746,1.172,1.155a1.642,1.642,0,0,1-.273,1.528" transform="translate(-19.202 -53.232)" fill="#97c969"/>
    <path id="Trazado_1390888" data-name="Trazado 1390888" d="M56.809,108.588c-.218.228-.431.346-.8.676a1.908,1.908,0,0,1,.931.794l-17.723.025a.837.837,0,1,1,0-1.673l17.381,0a.2.2,0,0,1,.213.182" transform="translate(-24.784 -70.038)" fill="#75a940"/>
    <path id="Trazado_1390889" data-name="Trazado 1390889" d="M56.812,89.647c-.235.221-.42.364-.81.674a1.931,1.931,0,0,1,.935.8l-17.723.025a.837.837,0,1,1,0-1.673l17.381,0a.2.2,0,0,1,.217.178" transform="translate(-24.784 -57.803)" fill="#75a940"/>
    <path id="Trazado_1390890" data-name="Trazado 1390890" d="M56.809,127.525c-.218.228-.43.346-.8.676a1.918,1.918,0,0,1,.932.794l-17.723.025a.837.837,0,1,1,0-1.673l17.381,0a.2.2,0,0,1,.213.182" transform="translate(-24.784 -82.273)" fill="#75a940"/>
    <path id="Trazado_1390891" data-name="Trazado 1390891" d="M137.627,119.642a2.143,2.143,0,0,1,1,1.142,1.727,1.727,0,0,1-.279,1.552l-.668.149-16.969,0c-.672.15-.662.878.059,1.005l16.82-.024a1.491,1.491,0,0,1,.881.334,1.849,1.849,0,0,1-.819,2.538H119.224c-.111-.215-.385-.256-.618-.383a3.359,3.359,0,0,1-1.732-3.513,3.784,3.784,0,0,1,2.4-2.8l.115-.335,18.039-.005Z" transform="translate(-75.488 -77.081)" fill="#80d5fa"/>
    <path id="Trazado_1390892" data-name="Trazado 1390892" d="M138.366,85.063l-.536.15h-17.1c-.679.152-.665.877.059,1.007L137.7,86.2l.785.334a1.724,1.724,0,0,1-.363,2.149c-.233.174-.465.28-.446.545-.157.323-.329.28-.6.138l-17.595.136-.206-.334c-1.747-1.036-2.591-2.037-2.393-4.008a3.59,3.59,0,0,1,2.574-2.8l18,.029c.63,0,1.065.723,1.171,1.134a1.726,1.726,0,0,1-.268,1.537" transform="translate(-75.5 -53.212)" fill="#feafa9"/>
    <path id="Trazado_1390893" data-name="Trazado 1390893" d="M137.668,101.419a1.513,1.513,0,0,1,.955.982,1.624,1.624,0,0,1-.276,1.538l-.82.168H120.713c-.671.15-.661.878.059,1.006l16.821-.024a1.5,1.5,0,0,1,.881.334,1.842,1.842,0,0,1-.847,2.542l-18.358.005a1.2,1.2,0,0,0-.676-.37,3.421,3.421,0,0,1-1.711-3.59c.128-.829,1.116-2.642,2.387-2.651l17.866-.128Z" transform="translate(-75.488 -65.402)" fill="#fee252"/>
    <path id="Trazado_1390894" data-name="Trazado 1390894" d="M143.932,89.654a2.4,2.4,0,0,1-.829.659c.458.344.766.456.952.813l-17.727.021a.838.838,0,1,1,0-1.675l17.385,0a.226.226,0,0,1,.22.185" transform="translate(-81.066 -57.803)" fill="#fe7b7b"/>
    <path id="Trazado_1390895" data-name="Trazado 1390895" d="M143.936,127.529a3.226,3.226,0,0,1-1.027.678c.653.2.934.376,1.151.789l-17.723.024a.837.837,0,1,1,0-1.673l17.383,0a.21.21,0,0,1,.218.185" transform="translate(-81.074 -82.273)" fill="#46bde7"/>
    <path id="Trazado_1390896" data-name="Trazado 1390896" d="M143.935,108.575c-.271.27-.539.353-1,.726a1.472,1.472,0,0,1,1.13.757l-17.724.024a.837.837,0,1,1,0-1.673l17.384,0a.2.2,0,0,1,.215.167" transform="translate(-81.075 -70.039)" fill="#feb136"/>
    <path id="Trazado_1390897" data-name="Trazado 1390897" d="M81.983,24.472v6.7l-.113.335H75.478l-.2-.335v-6.7l.113-.335h6.391Z" transform="translate(-48.637 -15.594)" fill="#feafa9"/>
    <path id="Trazado_1390898" data-name="Trazado 1390898" d="M81.984,8.887h-6.7l.005-5.3,2.5-1.245L77.8.015h1.668l.016,2.329,2.5,1.245Z" transform="translate(-48.638 -0.01)" fill="#80d5fa"/>
    <rect id="Rectángulo_744911" data-name="Rectángulo 744911" width="6.702" height="5.195" transform="translate(26.644 15.581)" fill="#7fd5fa"/>
    <path id="Trazado_1390899" data-name="Trazado 1390899" d="M43.161,24.316v6.7l-.113.335H36.656l-.2-.335v-6.7c0-.13.031-.331.113-.335a47.41,47.41,0,0,1,5.682,0q.754-.154.906.335" transform="translate(-23.555 -15.438)" fill="#feafa9"/>
    <path id="Trazado_1390900" data-name="Trazado 1390900" d="M43.162,8.887h-6.7l.005-5.3,2.5-1.245L38.978.015h1.668l.016,2.329,2.5,1.245Z" transform="translate(-23.556 -0.01)" fill="#7fd5fa"/>
    <rect id="Rectángulo_744912" data-name="Rectángulo 744912" width="6.702" height="5.195" transform="translate(12.904 15.581)" fill="#7fd5fa"/>
    <path id="Trazado_1390901" data-name="Trazado 1390901" d="M34.856,166.641l.336.147.038,4.323a1.958,1.958,0,0,1,2.559-.031q.126-2.052.082-4.2l.336-.239,5.028,0v13.4H29.829v-13.4Z" transform="translate(-19.271 -107.662)" fill="#fee252"/>
    <path id="Trazado_1390902" data-name="Trazado 1390902" d="M47.385,166.641l-.017,5.017c-.553-.193-1.077-.729-1.655-.725s-1.1.536-1.662.725l-.017-5.016Z" transform="translate(-28.449 -107.662)" fill="#feb136"/>
    <path id="Trazado_1390903" data-name="Trazado 1390903" d="M90.248,166.641l.336.147.038,4.323a1.958,1.958,0,0,1,2.559-.031q.126-2.052.082-4.2l.336-.239,5.028,0v13.4H85.221v-13.4Z" transform="translate(-55.058 -107.662)" fill="#fee252"/>
    <path id="Trazado_1390904" data-name="Trazado 1390904" d="M102.778,166.641l-.017,5.017c-.553-.193-1.077-.729-1.655-.725s-1.1.536-1.662.725l-.017-5.016Z" transform="translate(-64.237 -107.662)" fill="#feb136"/>
    <path id="Trazado_1390905" data-name="Trazado 1390905" d="M145.641,166.641l.336.147.038,4.323a1.958,1.958,0,0,1,2.559-.031q.126-2.052.082-4.2l.336-.239,5.028,0v13.4H140.614v-13.4Z" transform="translate(-90.846 -107.662)" fill="#fee252"/>
    <path id="Trazado_1390906" data-name="Trazado 1390906" d="M158.17,166.641l-.017,5.017c-.553-.193-1.077-.729-1.655-.725s-1.1.536-1.662.725l-.017-5.016Z" transform="translate(-100.024 -107.662)" fill="#feb136"/>
  </g>
</svg>
