<svg id="BACKGROUND" xmlns="http://www.w3.org/2000/svg" width="75.975" height="75.887" viewBox="0 0 75.975 75.887">
  <g id="Grupo_1203479" data-name="Grupo 1203479" transform="translate(0)">
    <g id="Grupo_1203465" data-name="Grupo 1203465" transform="translate(0.001)">
      <path id="Trazado_1254960" data-name="Trazado 1254960" d="M69.465,0c.115,0,.291.03.3.1a33.535,33.535,0,0,1-.053,4.94l-.3.17c-.012.129-.034.131-.063,0l-.012.2Q66.225,5.6,63,5.524l-.174-.3c-.012.117-.055.293-.139.3-2.732.091-5.96.141-8.679,0q-.823.154-1.024-.3c-.012.117-.055.293-.137.3-2.782.093-5.97.117-8.75,0q-.879.157-1.119-.3l-.139.3H33.287l-.18-.3-.137.3H23.282l-.178-.3-.139.3q-4.761,0-9.524,0l-.178-.3-.137.3L3.4,5.576l-.18-.3-.156.3C2.581,5.657.531,5.7.207,5.346S.05.879.114.141L.642,0Z" transform="translate(-0.013)" fill="#a77b69"/>
      <path id="Trazado_1254961" data-name="Trazado 1254961" d="M356.622,0a.464.464,0,0,1,.445.446V4.893a1.939,1.939,0,0,1-1.182.447l-1.919-.006c-.053.075-.109.036-.164-.121-.032.115-.077.283-.17.3a26.25,26.25,0,0,1-2.927,0l-.216-.3L350.545,0Z" transform="translate(-281.094)" fill="#956a5b"/>
    </g>
    <path id="Trazado_1254962" data-name="Trazado 1254962" d="M33.464,95.815l.022,19.925H28.15l.04-19.949.428-.1a4.789,4.789,0,0,0,4.417.026l.43.1Z" transform="translate(-22.578 -76.743)" fill="#fed084"/>
    <path id="Trazado_1254963" data-name="Trazado 1254963" d="M330.082,96.074a11.13,11.13,0,0,0,2.907-.17,1.916,1.916,0,0,1,1.382-.3l.026,19.929H329.06l.008-19.923c.133-.436,1.123.032,1.016.459Z" transform="translate(-263.906 -76.542)" fill="#fed084"/>
    <g id="Grupo_1203467" data-name="Grupo 1203467" transform="translate(0 38.599)">
      <path id="Trazado_1254964" data-name="Trazado 1254964" d="M5.58,195.336c.032-.117.081-.287.174-.3a32.967,32.967,0,0,1,4.944,0l.218.3.137-.3s2.629,0,7.89-.006l1.014.3.137-.3,6.471.018.176.3c.479-.236,2.885-.513,3.2-.218a.41.41,0,0,1,.1.2l.952-.3q7.1,0,14.189.006l.861.291.139-.3,6.487.02.176.3a8.615,8.615,0,0,1,3.063-.313.482.482,0,0,1,.214.3l1.014-.3q3.929,0,7.849,0l.178.3c.032-.115.077-.279.174-.3a33.228,33.228,0,0,1,4.944,0l.218.3c.014-.117.051-.291.133-.3a35.7,35.7,0,0,1,4.762,0c.345.02.541.261.59.729v4.447c-.083.98-2.123.8-2.9.707l-.206-.3a2.615,2.615,0,0,1-2.536-.044l-.622.3H67.011l-.216-.3-.814.3H9.954l-.814-.3c-.014.115-.046.287-.129.3a8.225,8.225,0,0,1-3.435-.281,2.477,2.477,0,0,1-2.374.034c-.014.115-.044.287-.125.3-.509.073-2.62.131-2.923-.277a24.59,24.59,0,0,1,0-5.37,1.033,1.033,0,0,1,.669-.249l4.544.014.214.3Z" transform="translate(-0.007 -194.942)" fill="#fee7c1"/>
      <path id="Trazado_1254965" data-name="Trazado 1254965" d="M31.684,223.39a46.122,46.122,0,0,0,57.655,0h3.548c.069.1.162.24.113.3-.279.368-1.188,1.321-1.606,1.129a4.415,4.415,0,0,1-1.907,1.923,4.575,4.575,0,0,1-2.416,1.224c.032.115.079.289.006.343a20.311,20.311,0,0,1-2.53,1.5q-.5.457-.871.172l.01.325a33.234,33.234,0,0,1-3.364,1.628.478.478,0,0,1-.321-.174l-3.709,1.439c.02.115.034.291-.044.323-.356.143-3.235,1.03-3.412,1.01a.482.482,0,0,1-.291-.224l-.1.325a32.266,32.266,0,0,1-3.6.756.489.489,0,0,1-.269-.246l-3.988.491c-.008.115-.036.289-.117.3a27.813,27.813,0,0,1-2.909.135.486.486,0,0,1-.224-.287,6.226,6.226,0,0,1-2.542.3,3.3,3.3,0,0,1-2.2-.451l-3.99-.493c-.053.107-.137.265-.228.255-.358-.04-3.168-.586-3.307-.683a.481.481,0,0,1-.15-.335,5.277,5.277,0,0,1-4.035-1.18l-3.711-1.443c-.061.1-.17.24-.249.21a31.478,31.478,0,0,1-3.2-1.531.491.491,0,0,1-.067-.36,2.036,2.036,0,0,1-1.6-.531,4.28,4.28,0,0,1-1.952-1.58,51.929,51.929,0,0,1-5.978-4.564l3.564-.016Z" transform="translate(-22.554 -217.757)" fill="#f7f6f6"/>
      <g id="Grupo_1203466" data-name="Grupo 1203466" transform="translate(0.09 31.75)">
        <path id="Trazado_1254966" data-name="Trazado 1254966" d="M335.938,355.937v4.447c-.121.129-.329.438-.616.44l-10.857.006-.2-.012a50.148,50.148,0,0,1-.1-5.021l.3-.174c.006-.447,1.095-.408,1.192-.075q3.526.068,7.025-.048c.038-.131.085-.131.145,0l1.633-.012a2.221,2.221,0,0,1,1.477.455Z" transform="translate(-260.055 -355.292)" fill="#fed084"/>
        <path id="Trazado_1254967" data-name="Trazado 1254967" d="M3.564,356.378l.782.107,60.524-.006v5.206H1.24a.71.71,0,0,1-.78-.745l.048-4.1c.081-.3.709-.477.978-.475l2.079.016Z" transform="translate(-0.46 -356.148)" fill="#fee7c1"/>
      </g>
    </g>
    <g id="Grupo_1203468" data-name="Grupo 1203468" transform="translate(3.206 5.209)">
      <path id="Trazado_1254968" data-name="Trazado 1254968" d="M26.243,26.432l.3.137q.024,5.079.049,10.16l-.3.182a5.5,5.5,0,0,1-2.416,3.356,5.086,5.086,0,0,1-5.275-.026,4.818,4.818,0,0,1-2.356-4.156L16.2,26.48l10.041-.05Z" transform="translate(-16.2 -26.406)" fill="#fe6c87"/>
      <path id="Trazado_1254969" data-name="Trazado 1254969" d="M275.614,26.41l.3.137q.042,5.07.083,10.144l-.3.182a5.844,5.844,0,0,1-2.277,3.324,4.866,4.866,0,0,1-5.95-.362,5.317,5.317,0,0,1-1.837-3.079l-.295-.141q.065-5.013.133-10.029l.3-.174h9.841Z" transform="translate(-216.009 -26.39)" fill="#f7f6f6"/>
      <path id="Trazado_1254970" data-name="Trazado 1254970" d="M76.761,26.42l.3.133q.059,5.01.117,10.025l-.3.18A5.166,5.166,0,0,1,75.218,39.7a4.819,4.819,0,0,1-6.025.541A4.485,4.485,0,0,1,66.971,36.9L66.92,26.424l9.841,0Z" transform="translate(-56.877 -26.398)" fill="#f7f6f6"/>
      <path id="Trazado_1254971" data-name="Trazado 1254971" d="M126.625,26.412l.3.139q-.036,5-.073,10.015l-.3.174a4.337,4.337,0,0,1-1.7,3.089,4.764,4.764,0,0,1-5.18.778,4.658,4.658,0,0,1-2.928-3.857l-.121-10.34h10.005Z" transform="translate(-96.736 -26.39)" fill="#fe6c87"/>
      <path id="Trazado_1254972" data-name="Trazado 1254972" d="M225.635,26.41,225.5,36.754c-.028,2.42-2.453,4.223-4.812,4.277a4.9,4.9,0,0,1-4.958-4.281c-.117-.012-.3-.051-.3-.135-.121-2.913-.2-6.279-.089-9.183-.107-.546-.012-.885.287-1.022Z" transform="translate(-175.87 -26.39)" fill="#fe6c87"/>
      <path id="Trazado_1254973" data-name="Trazado 1254973" d="M176.708,26.42l.1,10.338a5.085,5.085,0,0,1-10.047-.008l.075-10.33h9.87Z" transform="translate(-136.948 -26.398)" fill="#f7f6f6"/>
      <path id="Trazado_1254974" data-name="Trazado 1254974" d="M323.742,26.352c.117.012.295.053.3.135.137,3.507.1,7.128-.075,10.635-.382,1.538-1.653,3.578-3.378,3.54L319.57,40.2a4.465,4.465,0,0,1-2.263-3.382L317.22,26.36l6.52-.01Z" transform="translate(-257.617 -26.342)" fill="#fe6c87"/>
      <path id="Trazado_1254975" data-name="Trazado 1254975" d="M340.752,26.31q.092,4.859.109,9.75a4.885,4.885,0,0,1-2.352,4.107,4.7,4.7,0,0,1-4.289.463,5.134,5.134,0,0,0,3.225-4.857l-.071-9.453.063,0,3.313-.006Z" transform="translate(-271.251 -26.31)" fill="#e74f74"/>
      <path id="Trazado_1254976" data-name="Trazado 1254976" d="M367.382,26.434l-.055,9.629c-.012.018-.1-.042-.1-.152l0-9.6c.085-.008.164.008.164.121Z" transform="translate(-297.717 -26.311)" fill="#f595aa"/>
    </g>
    <g id="Grupo_1203469" data-name="Grupo 1203469" transform="translate(46.015 54.047)">
      <path id="Trazado_1254977" data-name="Trazado 1254977" d="M254.863,272.96l2.18,8.813a.408.408,0,0,1-.083.378.419.419,0,0,1-.317.111l-3.772-.711-.321-.059-1.746-7.025c-.075-.2.03-.333.311-.4Z" transform="translate(-247.141 -272.96)" fill="#fec750"/>
      <path id="Trazado_1254978" data-name="Trazado 1254978" d="M236.374,278.552a.548.548,0,0,0-.02.345l1.776,7.138-2.95,2.38a.376.376,0,0,1-.606-.2l-2.174-8.831,3.974-.836Z" transform="translate(-232.4 -277.443)" fill="#fedb64"/>
    </g>
    <g id="Grupo_1203470" data-name="Grupo 1203470" transform="translate(34.033 56.483)">
      <path id="Trazado_1254979" data-name="Trazado 1254979" d="M176.632,285.41q.163.383-.451.483l.01,7.043-.3.176-3.467,1.578a.351.351,0,0,1-.523-.279l-.014-9.152a33.221,33.221,0,0,0,4.74.15Z" transform="translate(-171.89 -285.26)" fill="#aeeea4"/>
      <path id="Trazado_1254980" data-name="Trazado 1254980" d="M196.06,285.262l-.008,9.019a.483.483,0,0,1-.137.378.385.385,0,0,1-.394.028l-3.451-1.574-.01-7.542a1.459,1.459,0,0,0,.748-.16l3.249-.15Z" transform="translate(-188.066 -285.26)" fill="#8be0a3"/>
    </g>
    <g id="Grupo_1203471" data-name="Grupo 1203471" transform="translate(20.124 54.047)">
      <path id="Trazado_1254981" data-name="Trazado 1254981" d="M107.878,274.14l.061.295-1.8,7.033-.331.1-3.606.695a.639.639,0,0,1-.455-.1.383.383,0,0,1-.093-.388l2.182-8.813a25.328,25.328,0,0,0,4.035,1.18Z" transform="translate(-101.641 -272.96)" fill="#fe6c87"/>
      <path id="Trazado_1254982" data-name="Trazado 1254982" d="M128.46,279.682l-2.172,8.833c-.049.2-.323.4-.509.255l-3.069-2.424,1.736-6.928c.061-.248.1-.408.329-.5l3.685.76Z" transform="translate(-118.538 -277.74)" fill="#e74f74"/>
    </g>
    <g id="Grupo_1203472" data-name="Grupo 1203472" transform="translate(3.202 44.234)">
      <path id="Trazado_1254983" data-name="Trazado 1254983" d="M18.544,223.47l.871.356,2.4,1.944a11.547,11.547,0,0,1,2.7,2.263l.2.259-4.21,8.021q1.752.22,3.649.267l.2.307.317-.075q1.146,1.559,2.354,3l4.219-7.968.345-.018c.055-.1.149-.249.232-.228a26.046,26.046,0,0,1,3.388,1.317l.093.354.255.206L33.4,242.237a33.017,33.017,0,0,0,3.6-.612l.269.249.289-.15q1.5,1.233,2.98,2.289l2.15-8.7.331-.1c.028-.113.081-.273.168-.277a25.685,25.685,0,0,1,3.641.449l.178.321.3.135.006,9.031q1.7-.692,3.386-1.495l.315.182.246-.214,3.42,1.519.026-8.979.3-.176c0-.117.014-.289.1-.311a25.972,25.972,0,0,1,3.641-.449l.251.267.321.063L61.463,244a31.131,31.131,0,0,0,2.909-2.239l.354.1.222-.259a32.017,32.017,0,0,0,3.673.6l-2.148-8.69.246-.246a.4.4,0,0,1,.051-.339,33.75,33.75,0,0,1,3.35-1.3l.307.2.327-.018,4.225,7.956a26.431,26.431,0,0,0,2.241-2.835l.364.008c.006-.117.034-.291.115-.3a34.663,34.663,0,0,1,3.79-.287l.317.1.3.137v8.886a4.664,4.664,0,0,1-2.138,3.97l5.564.032.174.3c-.162.176-.447.143-.741.143l-7.477-.02c-.012.119-.057.3-.143.3-20.105.1-40.965.018-61.025-.077l-.139-.319V223.5c.79-.01,1.59-.03,2.372-.034Z" transform="translate(-16.18 -223.456)" fill="#a77b69"/>
      <path id="Trazado_1254984" data-name="Trazado 1254984" d="M103.775,223.4a2.99,2.99,0,0,1-.63.873A37.282,37.282,0,0,1,94.9,229.33a46.544,46.544,0,0,1-48.149-5.059,1.917,1.917,0,0,1-.348-.394,3.8,3.8,0,0,1-.285-.477Z" transform="translate(-40.192 -223.4)" fill="#a77b69"/>
      <path id="Trazado_1254985" data-name="Trazado 1254985" d="M338.861,223.462l-.006,26.271-.145,0-7.051-.032a4.41,4.41,0,0,0,3.154-4.271v-9.019c-.392-.046-.376-.178,0-.287l-.3-1.133.012-7.982a3.7,3.7,0,0,1,.3-2.162l1.493-1.432c.845,0,1.691.04,2.536.044Z" transform="translate(-269.194 -223.416)" fill="#956a5b"/>
      <path id="Trazado_1254986" data-name="Trazado 1254986" d="M330.155,241.916l-4.3-8.13a26.391,26.391,0,0,0,4.322-3.146Z" transform="translate(-264.534 -229.206)" fill="#a77b69"/>
    </g>
    <g id="Grupo_1203473" data-name="Grupo 1203473" transform="translate(7.243 48.812)">
      <path id="Trazado_1254987" data-name="Trazado 1254987" d="M44.446,248.631l.194.261q-1.785,3.234-3.57,6.473l-.345.01-3.833-.206a.374.374,0,0,1-.273-.5l4.271-8.146a33.575,33.575,0,0,0,3.556,2.109Z" transform="translate(-36.59 -246.52)" fill="#83caee"/>
      <path id="Trazado_1254988" data-name="Trazado 1254988" d="M64.705,258.861l-4.315,8.128a.34.34,0,0,1-.335.156.418.418,0,0,1-.228-.137l-2.358-3.083,3.72-6.746,3.515,1.683Z" transform="translate(-53.336 -255.069)" fill="#70bce7"/>
    </g>
    <g id="Grupo_1203474" data-name="Grupo 1203474" transform="translate(57.443 48.759)">
      <path id="Trazado_1254989" data-name="Trazado 1254989" d="M315.318,254.437v.287a1.059,1.059,0,0,1-.846.291l-3.376.2c-.1.073-.267.127-.309.05-1.188-2.18-2.344-4.4-3.437-6.631l.265-.307,3.4-2.018c.109-.044.283-.089.327-.018,1.045,1.778,2.1,3.851,3.026,5.714a6.5,6.5,0,0,1,.954,2.435Z" transform="translate(-303.938 -246.252)" fill="#70bce7"/>
      <path id="Trazado_1254990" data-name="Trazado 1254990" d="M297.278,263.609l-2.208,2.956a.439.439,0,0,1-.4.186.415.415,0,0,1-.283-.218L290.12,258.5l3.675-1.776a1.349,1.349,0,0,0,.224.709l3.257,6.18Z" transform="translate(-290.12 -254.647)" fill="#83caee"/>
    </g>
    <g id="Grupo_1203478" data-name="Grupo 1203478" transform="translate(15.5 26.344)">
      <g id="Grupo_1203475" data-name="Grupo 1203475" transform="translate(26.232)">
        <path id="Trazado_1254991" data-name="Trazado 1254991" d="M231.7,152.333c.123-.008.293.038.287.125-.151,2.2-.333,4.413-.653,6.592A2.421,2.421,0,0,1,229,160.944l-6.8-.02-1.059-.719a3.494,3.494,0,0,1-.925-2.509l-.558-5.32.137-.3,11.722-.04.18.3Z" transform="translate(-217.9 -148.279)" fill="#e7e7e7"/>
        <path id="Trazado_1254992" data-name="Trazado 1254992" d="M272.634,152.154c.006.907-.152,2.018-.251,3.1l-.137,1.5c-.178,1.958-.091,3.016-2.119,3.994l-3.277.018a3.037,3.037,0,0,0,2.194-2.73l.5-5.879c.014-.115.047-.285.133-.3a13.682,13.682,0,0,1,2.055,0c.473-.1.772,0,.9.3Z" transform="translate(-255.746 -148.107)" fill="#d7d7d7"/>
        <path id="Trazado_1254993" data-name="Trazado 1254993" d="M224.573,133.124c.117.014.289.051.3.135.034.408.083,3.521,0,3.683a.48.48,0,0,1-.3.216l-12.039.04c-1.081,0-1.76-.024-1.76-.642V133.73a.58.58,0,0,1,.606-.59l13.2-.02Z" transform="translate(-210.77 -133.106)" fill="#f7f6f6"/>
        <path id="Trazado_1254994" data-name="Trazado 1254994" d="M283.557,137.1l-3.087.006,0-4.035c.172,0,.346-.022.582-.018l3.841.067c.406.008.606.636.606.982v1.968c0,.382-.2.976-.606.988l-1.341.04Z" transform="translate(-266.669 -133.048)" fill="#e7e7e7"/>
      </g>
      <g id="Grupo_1203477" data-name="Grupo 1203477" transform="translate(0 0.022)">
        <g id="Grupo_1203476" data-name="Grupo 1203476" transform="translate(1.873 3.726)">
          <path id="Trazado_1254995" data-name="Trazado 1254995" d="M99.74,152.319l.287.125-.491,5.807c-.3,1.451-.764,2.552-2.428,2.669l-6.784-.018c-2.028-.972-1.94-2.045-2.117-3.992l-.137-1.5-.154-1.616a6.616,6.616,0,0,1-.15-1.483l.137-.3q5.827.006,11.658.014l.178.3Z" transform="translate(-87.751 -152.003)" fill="#e7e7e7"/>
          <path id="Trazado_1254996" data-name="Trazado 1254996" d="M140.822,152.373,140.3,157.5c-.091.98-.049,2.075-.929,2.653l-1.053.717-3.3.02a3.061,3.061,0,0,0,2.133-2.7l.5-5.9c.018-.115.055-.283.139-.293a14.231,14.231,0,0,1,2.065.053q.763-.131.966.321Z" transform="translate(-125.661 -151.976)" fill="#d7d7d7"/>
        </g>
        <path id="Trazado_1254997" data-name="Trazado 1254997" d="M92.2,133.18c.115.016.289.055.3.139A33.243,33.243,0,0,1,92.453,137a.486.486,0,0,1-.3.214L80.183,137.2l-1.287-.042c-.412-.014-.606-.608-.606-.988V134.2c0-.291.2-.986.612-.986l13.3-.03Z" transform="translate(-78.29 -133.176)" fill="#f7f6f6"/>
        <path id="Trazado_1254998" data-name="Trazado 1254998" d="M151.472,137.282,148.3,137.2l.051-4.037,4.18,0c.388,0,.733.192.735.608l.01,2.677a.742.742,0,0,1-.224.6c-.384.293-1-.02-1.58.238Z" transform="translate(-134.438 -133.16)" fill="#e7e7e7"/>
      </g>
    </g>
  </g>
</svg>
