<svg xmlns="http://www.w3.org/2000/svg" xmlns:xlink="http://www.w3.org/1999/xlink" width="216.3" height="190.894" viewBox="0 0 216.3 190.894">
  <defs>
    <clipPath id="clip-path">
      <path id="Sustracción_79" data-name="Sustracción 79" d="M44.438,0A44.23,44.23,0,0,0,19.592,7.589,44.567,44.567,0,0,0,3.492,27.14a44.379,44.379,0,0,0,4.1,42.142,44.568,44.568,0,0,0,19.551,16.1,44.379,44.379,0,0,0,42.142-4.1,44.568,44.568,0,0,0,16.1-19.551,44.378,44.378,0,0,0-4.1-42.142,44.568,44.568,0,0,0-19.551-16.1A44.158,44.158,0,0,0,44.438,0Zm0,68.016A23.579,23.579,0,1,1,68.016,44.437,23.605,23.605,0,0,1,44.438,68.016Z" transform="translate(88.875 88.875) rotate(180)" fill="#bdf59c"/>
    </clipPath>
    <clipPath id="clip-path-2">
      <ellipse id="Elipse_66614" data-name="Elipse 66614" cx="59.776" cy="59.776" rx="59.776" ry="59.776" transform="translate(0 0)" fill="#61ccee"/>
    </clipPath>
    <clipPath id="clip-path-3">
      <rect id="Rectángulo_744906" data-name="Rectángulo 744906" width="145.847" height="133.681" fill="none"/>
    </clipPath>
  </defs>
  <g id="Grupo_1224308" data-name="Grupo 1224308" transform="translate(6599 7676)">
    <g id="Grupo_1224165" data-name="Grupo 1224165" transform="translate(-7763.626 -11530.658)">
      <g id="Enmascarar_grupo_1099781" data-name="Enmascarar grupo 1099781" transform="translate(1292.051 3854.658)" opacity="0.5" clip-path="url(#clip-path)" style="isolation: isolate">
        <g id="Grupo_1224018" data-name="Grupo 1224018" transform="translate(-101.106 0.115)">
          <rect id="Rectángulo_743560" data-name="Rectángulo 743560" width="2.554" height="123.008" transform="translate(283.144 86.98) rotate(135)" fill="#bdf59c"/>
          <rect id="Rectángulo_743561" data-name="Rectángulo 743561" width="2.554" height="123.008" transform="translate(216.319 86.98) rotate(135)" fill="#bdf59c"/>
          <rect id="Rectángulo_743562" data-name="Rectángulo 743562" width="2.554" height="123.008" transform="translate(148.218 86.98) rotate(135)" fill="#bdf59c"/>
          <rect id="Rectángulo_743563" data-name="Rectángulo 743563" width="2.554" height="123.008" transform="translate(249.519 86.98) rotate(135)" fill="#bdf59c"/>
          <rect id="Rectángulo_743564" data-name="Rectángulo 743564" width="2.554" height="123.008" transform="translate(182.694 86.98) rotate(135)" fill="#bdf59c"/>
          <rect id="Rectángulo_743565" data-name="Rectángulo 743565" width="2.554" height="123.008" transform="translate(114.593 86.98) rotate(135)" fill="#bdf59c"/>
          <rect id="Rectángulo_743566" data-name="Rectángulo 743566" width="2.554" height="123.008" transform="translate(266.119 86.98) rotate(135)" fill="#bdf59c"/>
          <rect id="Rectángulo_743567" data-name="Rectángulo 743567" width="2.554" height="123.008" transform="translate(199.294 86.98) rotate(135)" fill="#bdf59c"/>
          <rect id="Rectángulo_743568" data-name="Rectángulo 743568" width="2.554" height="123.008" transform="translate(131.192 86.98) rotate(135)" fill="#bdf59c"/>
          <rect id="Rectángulo_743569" data-name="Rectángulo 743569" width="2.554" height="123.008" transform="translate(232.493 86.98) rotate(135)" fill="#bdf59c"/>
          <rect id="Rectángulo_743570" data-name="Rectángulo 743570" width="2.554" height="123.008" transform="translate(165.669 86.98) rotate(135)" fill="#bdf59c"/>
          <rect id="Rectángulo_743571" data-name="Rectángulo 743571" width="2.554" height="123.008" transform="translate(97.567 86.98) rotate(135)" fill="#bdf59c"/>
          <rect id="Rectángulo_743572" data-name="Rectángulo 743572" width="2.554" height="123.008" transform="translate(274.363 86.98) rotate(135)" fill="#bdf59c"/>
          <rect id="Rectángulo_743573" data-name="Rectángulo 743573" width="2.554" height="123.008" transform="translate(207.538 86.98) rotate(135)" fill="#bdf59c"/>
          <rect id="Rectángulo_743574" data-name="Rectángulo 743574" width="2.554" height="123.008" transform="translate(139.437 86.98) rotate(135)" fill="#bdf59c"/>
          <rect id="Rectángulo_743575" data-name="Rectángulo 743575" width="2.554" height="123.008" transform="translate(240.738 86.98) rotate(135)" fill="#bdf59c"/>
          <rect id="Rectángulo_743576" data-name="Rectángulo 743576" width="2.554" height="123.008" transform="translate(173.913 86.98) rotate(135)" fill="#bdf59c"/>
          <rect id="Rectángulo_743577" data-name="Rectángulo 743577" width="2.554" height="123.008" transform="translate(105.811 86.98) rotate(135)" fill="#bdf59c"/>
          <rect id="Rectángulo_743578" data-name="Rectángulo 743578" width="2.554" height="123.008" transform="translate(257.338 86.98) rotate(135)" fill="#bdf59c"/>
          <rect id="Rectángulo_743579" data-name="Rectángulo 743579" width="2.554" height="123.008" transform="translate(190.513 86.98) rotate(135)" fill="#bdf59c"/>
          <rect id="Rectángulo_743580" data-name="Rectángulo 743580" width="2.554" height="123.008" transform="translate(122.411 86.98) rotate(135)" fill="#bdf59c"/>
          <rect id="Rectángulo_743581" data-name="Rectángulo 743581" width="2.554" height="123.008" transform="translate(223.712 86.98) rotate(135)" fill="#bdf59c"/>
          <rect id="Rectángulo_743582" data-name="Rectángulo 743582" width="2.554" height="123.008" transform="translate(156.888 86.98) rotate(135)" fill="#bdf59c"/>
          <rect id="Rectángulo_743583" data-name="Rectángulo 743583" width="2.554" height="123.008" transform="translate(88.786 86.98) rotate(135)" fill="#bdf59c"/>
        </g>
      </g>
      <g id="Enmascarar_grupo_1099780" data-name="Enmascarar grupo 1099780" transform="translate(1164.626 3926)" opacity="0.3" clip-path="url(#clip-path-2)" style="isolation: isolate">
        <g id="Grupo_1224017" data-name="Grupo 1224017" transform="translate(-136.004 0.155)">
          <rect id="Rectángulo_743536" data-name="Rectángulo 743536" width="3.436" height="165.467" transform="translate(380.875 117.003) rotate(135)" fill="#61ccee"/>
          <rect id="Rectángulo_743537" data-name="Rectángulo 743537" width="3.436" height="165.467" transform="translate(290.985 117.003) rotate(135)" fill="#61ccee"/>
          <rect id="Rectángulo_743538" data-name="Rectángulo 743538" width="3.436" height="165.467" transform="translate(199.377 117.003) rotate(135)" fill="#61ccee"/>
          <rect id="Rectángulo_743539" data-name="Rectángulo 743539" width="3.436" height="165.467" transform="translate(335.644 117.003) rotate(135)" fill="#61ccee"/>
          <rect id="Rectángulo_743540" data-name="Rectángulo 743540" width="3.436" height="165.467" transform="translate(245.754 117.003) rotate(135)" fill="#61ccee"/>
          <rect id="Rectángulo_743541" data-name="Rectángulo 743541" width="3.436" height="165.467" transform="translate(154.146 117.003) rotate(135)" fill="#61ccee"/>
          <rect id="Rectángulo_743542" data-name="Rectángulo 743542" width="3.436" height="165.467" transform="translate(357.973 117.003) rotate(135)" fill="#61ccee"/>
          <rect id="Rectángulo_743543" data-name="Rectángulo 743543" width="3.436" height="165.467" transform="translate(268.083 117.003) rotate(135)" fill="#61ccee"/>
          <rect id="Rectángulo_743544" data-name="Rectángulo 743544" width="3.436" height="165.467" transform="translate(176.475 117.003) rotate(135)" fill="#61ccee"/>
          <rect id="Rectángulo_743545" data-name="Rectángulo 743545" width="3.436" height="165.467" transform="translate(312.742 117.003) rotate(135)" fill="#61ccee"/>
          <rect id="Rectángulo_743546" data-name="Rectángulo 743546" width="3.436" height="165.467" transform="translate(222.852 117.003) rotate(135)" fill="#61ccee"/>
          <rect id="Rectángulo_743547" data-name="Rectángulo 743547" width="3.436" height="165.467" transform="translate(131.244 117.003) rotate(135)" fill="#61ccee"/>
          <rect id="Rectángulo_743548" data-name="Rectángulo 743548" width="3.436" height="165.467" transform="translate(369.063 117.003) rotate(135)" fill="#61ccee"/>
          <rect id="Rectángulo_743549" data-name="Rectángulo 743549" width="3.436" height="165.467" transform="translate(279.173 117.003) rotate(135)" fill="#61ccee"/>
          <rect id="Rectángulo_743550" data-name="Rectángulo 743550" width="3.436" height="165.467" transform="translate(187.565 117.003) rotate(135)" fill="#61ccee"/>
          <rect id="Rectángulo_743551" data-name="Rectángulo 743551" width="3.436" height="165.467" transform="translate(323.832 117.003) rotate(135)" fill="#61ccee"/>
          <rect id="Rectángulo_743552" data-name="Rectángulo 743552" width="3.436" height="165.467" transform="translate(233.942 117.003) rotate(135)" fill="#61ccee"/>
          <rect id="Rectángulo_743553" data-name="Rectángulo 743553" width="3.436" height="165.467" transform="translate(142.334 117.003) rotate(135)" fill="#61ccee"/>
          <rect id="Rectángulo_743554" data-name="Rectángulo 743554" width="3.436" height="165.467" transform="translate(346.161 117.003) rotate(135)" fill="#61ccee"/>
          <rect id="Rectángulo_743555" data-name="Rectángulo 743555" width="3.436" height="165.467" transform="translate(256.271 117.003) rotate(135)" fill="#61ccee"/>
          <rect id="Rectángulo_743556" data-name="Rectángulo 743556" width="3.436" height="165.467" transform="translate(164.663 117.003) rotate(135)" fill="#61ccee"/>
          <rect id="Rectángulo_743557" data-name="Rectángulo 743557" width="3.436" height="165.467" transform="translate(300.93 117.003) rotate(135)" fill="#61ccee"/>
          <rect id="Rectángulo_743558" data-name="Rectángulo 743558" width="3.436" height="165.467" transform="translate(211.04 117.003) rotate(135)" fill="#61ccee"/>
          <rect id="Rectángulo_743559" data-name="Rectángulo 743559" width="3.436" height="165.467" transform="translate(119.432 117.003) rotate(135)" fill="#61ccee"/>
        </g>
      </g>
    </g>
    <g id="Grupo_1224177" data-name="Grupo 1224177" transform="translate(-6564 -7647)">
      <g id="Grupo_1224176" data-name="Grupo 1224176" clip-path="url(#clip-path-3)">
        <path id="Trazado_1390859" data-name="Trazado 1390859" d="M74.169,38.55l.7.056c.589,1.2,1.582,2.607,2.96,2.9a70.315,70.315,0,0,0,10.971.117,3.916,3.916,0,0,0,3.129-1.665q.765-1.97,1.709-1.391l.648.223c.483,1.855,1.862,2.576,3.652,2.8l8.018.2.427.619.036,38.715-22.586.037-.608-.28-.062-21.976H65.382q-.333,10.771-.183,21.893l-.608.365-22.586-.036.02-38.717.26-.614,8.2-.188a4.21,4.21,0,0,0,3.836-3.267l.685-.2.669.2a4.23,4.23,0,0,0,3.756,3.243,71.026,71.026,0,0,0,11.156-.106c1.356-.261,2.349-1.669,2.883-2.859Z" transform="translate(-1.282 -1.164)" fill="#fff"/>
        <rect id="Rectángulo_744905" data-name="Rectángulo 744905" width="19.241" height="22.864" transform="translate(63.307 57.144)" fill="#415a6b"/>
        <path id="Trazado_1390860" data-name="Trazado 1390860" d="M112.532,26.147q-28.3.276-57.257.145-.521.9-1.037,0-9.547.137-18.766-.147L45.417,0H102.6Z" transform="translate(-1.083)" fill="#415a6b"/>
        <path id="Trazado_1390861" data-name="Trazado 1390861" d="M114.408,27.269l-.078,10.313c-.02,2.708-2.809,4.59-6.355,4.5l-8.47-.216a4.332,4.332,0,0,1-4.272-3.634l-.638-.266q-.355-5.113-.227-10.254l.608-.445c6.263-.254,13.106-.251,19.432,0" transform="translate(-2.879 -0.826)" fill="#ef5540"/>
        <path id="Trazado_1390862" data-name="Trazado 1390862" d="M54.835,36.1c.908-.109.843,1.589-.024,1.713a4.925,4.925,0,0,1-4.5,4.075l-8.491.2c-3.5.08-6.319-1.782-6.339-4.5l-.078-10.313c6.341-.238,13.147-.238,19.64-.1a2.056,2.056,0,0,1-.33.366q-.113,4.3.118,8.56" transform="translate(-1.081 -0.826)" fill="#cdd5df"/>
        <path id="Trazado_1390863" data-name="Trazado 1390863" d="M112.53,26.97a.731.731,0,0,1,.079.3l-19.432,0-.28.607H74.37l-.362-.607-.279.607L55.48,27.9l-.035,7.762-.61.432a.7.7,0,0,1-.28-.608l0-8.225-19.151,0a.892.892,0,0,1,.063-.3Z" transform="translate(-1.081 -0.823)" fill="#c38d8a"/>
        <path id="Trazado_1390864" data-name="Trazado 1390864" d="M94.367,27.273l.013,8.51.244,2.455a.913.913,0,0,0-.579.6A4.709,4.709,0,0,1,89.8,41.9l-10.357-.045c-2.118-.009-3.524-1.931-4.279-3.638a.952.952,0,0,1-.405-.024c-.5-.172-.3-9.5-.164-10.567l.609-.354Z" transform="translate(-2.272 -0.832)" fill="#cdd5df"/>
        <path id="Trazado_1390865" data-name="Trazado 1390865" d="M74.619,27.273l-.04,10.945c-.7,1.745-2.07,3.608-4.211,3.616l-10.348.038a4.863,4.863,0,0,1-4.6-4.054l.024-1.713.041-8.834Z" transform="translate(-1.691 -0.832)" fill="#ef5540"/>
        <path id="Trazado_1390866" data-name="Trazado 1390866" d="M134.451,136.2a.822.822,0,0,1,.538-.363,9.786,9.786,0,0,0,7.671-9.672l-.03-34.006a9.663,9.663,0,0,0-7.4-9.294l5.3-.383a9.748,9.748,0,0,1,9.418,8.462l0,36.718a10.188,10.188,0,0,1-8.881,8.471Z" transform="translate(-4.103 -2.517)" fill="#e7465e"/>
        <path id="Trazado_1390867" data-name="Trazado 1390867" d="M40.723,82.472l.283-.607,21.937.034.365.608.28-.607H82.182l.364.608.282-.608,21.936-.036.368.607,31.3-.008q-.519,1.027-2.63.8a10.139,10.139,0,0,1,5.255,7.6l.037,36.571c-.775,4.821-3.744,8.315-8.743,8.746l-121.377,0a10.062,10.062,0,0,1-8.97-8.5V90.916a10.05,10.05,0,0,1,8.946-8.49Z" transform="translate(0 -2.498)" fill="#f15e6c"/>
        <path id="Trazado_1390868" data-name="Trazado 1390868" d="M42.476,116.462l-.343,7.262L32.8,121.1l-9.43,2.6-.382-9.839-5.332-7.965,6.7-2.463a28.353,28.353,0,0,0,17.822,15.106c-.021-.755-.156-1.555.3-2.074" transform="translate(-0.539 -3.157)" fill="#f1b74c"/>
        <path id="Trazado_1390869" data-name="Trazado 1390869" d="M42.682,116.194a6.862,6.862,0,0,0-.208,2.263,1.414,1.414,0,0,1-.678.25c-1.631.124-7.013-3.07-8.559-4.193-2.208-1.6-8.941-8.207-8.8-10.7a2.813,2.813,0,0,1,.127-.649l2.558-.986,5.933-7.534,5.993,7.62,9.092,3.368-5.28,8c-.468.709-.093,1.886-.175,2.566" transform="translate(-0.746 -2.888)" fill="#fdd34c"/>
        <path id="Trazado_1390870" data-name="Trazado 1390870" d="M126.341,118.423a2.927,2.927,0,0,1-.623.238c-2.793.64-10.748-5.628-12.8-7.837-1.172-1.263-4.712-5.57-4.641-6.995a2.865,2.865,0,0,1,.125-.655l2.472-.941,5.98-7.591,6.08,7.648,9.026,3.321-5.2,8.013Z" transform="translate(-3.305 -2.888)" fill="#fdd34c"/>
        <path id="Trazado_1390871" data-name="Trazado 1390871" d="M108.2,103.443a28.926,28.926,0,0,0,17.938,15.249l-.029,5.047-9.38-2.657-9.375,2.648c-.351-3.222-.309-6.314-.393-9.6l-5.476-8.25Z" transform="translate(-3.097 -3.157)" fill="#f1b74c"/>
        <path id="Trazado_1390872" data-name="Trazado 1390872" d="M84.584,114.374l-.167,4.055a1.528,1.528,0,0,1-.665.291c-2.108.231-8.8-4.235-10.6-5.8-1.689-1.468-6.95-7.149-6.861-9.1a2.891,2.891,0,0,1,.123-.651l2.465-.943,6.025-7.5,6.232,7.337,8.842,3.636L85.228,112.8a5.528,5.528,0,0,0-.644,1.573" transform="translate(-2.023 -2.891)" fill="#fdd34c"/>
        <path id="Trazado_1390873" data-name="Trazado 1390873" d="M66.216,103.442a28.607,28.607,0,0,0,17.933,15.1c.091-1.37-.2-2.652.232-3.9l-.219,9.018-9.416-2.3-9.3,2.27-.753-9.6-5.053-8.131Z" transform="translate(-1.82 -3.157)" fill="#f1b74c"/>
      </g>
    </g>
  </g>
</svg>
