<svg id="Grupo_1224182" data-name="Grupo 1224182" xmlns="http://www.w3.org/2000/svg" xmlns:xlink="http://www.w3.org/1999/xlink" width="89.002" height="82.439" viewBox="0 0 89.002 82.439">
  <defs>
    <clipPath id="clip-path">
      <rect id="Rectángulo_744914" data-name="Rectángulo 744914" width="89.002" height="82.439" fill="none"/>
    </clipPath>
  </defs>
  <g id="Grupo_1224181" data-name="Grupo 1224181" clip-path="url(#clip-path)">
    <path id="Trazado_1390907" data-name="Trazado 1390907" d="M185.893,117.424l.017,6.291-.182.156.008-6.053a.19.19,0,0,0-.189-.2Z" transform="translate(-117.43 -74.316)" fill="#bfe5ee"/>
    <path id="Trazado_1390908" data-name="Trazado 1390908" d="M136.032,191.236h-7.68c-.066.145-.124.137-.174-.019a2.689,2.689,0,0,0-1-1.943l-1.826-1.647a17.359,17.359,0,0,0,11.528-6.089Z" transform="translate(-79.334 -114.892)" fill="#b8e3ee"/>
    <path id="Trazado_1390909" data-name="Trazado 1390909" d="M175.049,133.816l.356.091q.53,6.433,1.06,12.869l-.329.239-.376.217q-2.318-.043-4.615-.2a41.863,41.863,0,0,1-1.555-4.287.646.646,0,0,0-1.173.138q-.629,2.106-1.46,4.132a42.633,42.633,0,0,1-4.664.187.685.685,0,0,0-.366.961q1.9,1.373,3.67,2.909a43.338,43.338,0,0,1-1.227,4.259c-.062.742.419.987,1.069.674q1.752-1.305,3.61-2.438a40.377,40.377,0,0,1,3.689,2.492.636.636,0,0,0,.967-.662q-.731-2.133-1.261-4.313a34.837,34.837,0,0,1,3.363-2.625l.4.133c.135-.013.345,0,.358.084.287,1.985.89,6.648.6,8.472-.561,3.571-3.163,5.336-6.547,5.753l-16.758.072-.212-.347.213-1.884-.332-.19q.364-4.333.777-8.667l.4-.843,1.445-16.471a.721.721,0,0,1,.782-.632H158.4c.064-.532,1.257-.509,1.365,0,.077-.5,1.822-.44,2.253-.347.261-.047.394.079.474.348.018-.134.056-.333.155-.347a22.268,22.268,0,0,1,2.582.011.576.576,0,0,1,.244.349c.024-.119.044-.191.182-.157.015-.137.064-.344.159-.347,2.6-.1,5.9-.154,8.47.015q.644-.137.769.349" transform="translate(-97.172 -84.4)" fill="#dc578f"/>
    <path id="Trazado_1390910" data-name="Trazado 1390910" d="M175.47,134.014q.346-.551,1.515-.293.97-.152,1.237.393a13.437,13.437,0,0,1,2.981-.006c.247.078.624.229.661.651l2.5,28.395c.116,1.314.329,2.9-.024,3.078-.125.064-.448-.051-.538.23l-29.69-.01c-.207-.185-.7-.1-.7-.5l-.014-1.561.173-.862V162.8l16.78-.07a6.456,6.456,0,0,0,6.442-7.013l-.667-6.951a12.71,12.71,0,0,0-.076-1.58l-1.088-13.2c0-.5.4-.455.511.022" transform="translate(-97.082 -84.576)" fill="#d9387d"/>
    <path id="Trazado_1390911" data-name="Trazado 1390911" d="M189.008,117.211c.151.031.142.073-.012.127l-2.752-.1-.328-.389a6.2,6.2,0,0,0-9.087-5.821l-.51-.12q-.118.574-.346.2l-.116.482a6.009,6.009,0,0,0-2.367,5.368l-.317.387h-2.727a9.471,9.471,0,0,1,5.746-9.441c.005-.054.093-.089.147-.088a9.012,9.012,0,0,1,4.113-.648,9.338,9.338,0,0,1,8.557,10.045" transform="translate(-107.856 -67.801)" fill="#f3dc45"/>
    <path id="Trazado_1390912" data-name="Trazado 1390912" d="M185.03,223.033l-29.69-.01Z" transform="translate(-98.313 -141.148)" fill="#edaac7"/>
    <path id="Trazado_1390913" data-name="Trazado 1390913" d="M224,134.657l-2.981.006.012-.127a12.586,12.586,0,0,1,2.968.121" transform="translate(-139.881 -85.126)" fill="#da4584"/>
    <path id="Trazado_1390914" data-name="Trazado 1390914" d="M153.371,215.924c0-.293-.086-.661.173-.862,0,.292.077.662-.173.862" transform="translate(-97.057 -136.11)" fill="#db4d89"/>
    <path id="Trazado_1390915" data-name="Trazado 1390915" d="M189.856,162.087a.9.9,0,0,1,.459.777.92.92,0,0,1-.382.8l-3.475,2.572,1.272,4.026a.987.987,0,0,1-.569,1.242,1.126,1.126,0,0,1-1.153-.246l-3.21-2.318-3.391,2.388a1.029,1.029,0,0,1-1.355-.012,1.078,1.078,0,0,1-.24-1.223l1.22-3.844-3.554-2.705a.876.876,0,0,1-.153-1.065.858.858,0,0,1,.75-.557l4.411-.072,1.3-3.951a1,1,0,0,1,1.881-.115l1.364,4.066,3.907.051a1.809,1.809,0,0,1,.916.183" transform="translate(-110.891 -99.472)" fill="#f3dc45"/>
    <path id="Trazado_1390916" data-name="Trazado 1390916" d="M9.618,190.422c.144-.487,1.865-.191,2.281-.04.265-.011.38.131.423.408a5.81,5.81,0,0,1,1.561-.152c6.891.51,13.622,1,20.53.076a5.713,5.713,0,0,1,1.558.176,7.013,7.013,0,0,1,3-.785c.137.039.222.181.294.309-.03-.515.866-.634,1.045-.15,2.771,1.093,2.085,5.651-.775,6.306a101.089,101.089,0,0,1-37.94,1.25,4.116,4.116,0,0,1-.808-.246A7.474,7.474,0,0,1,0,197.208v-1.438a6.68,6.68,0,0,1,2.1-2.408l3.962-3.515c.038-.13.109-.321.209-.318a15.741,15.741,0,0,1,2.366.383q.845-.032.981.511" transform="translate(0 -119.95)" fill="#dc578f"/>
    <path id="Trazado_1390917" data-name="Trazado 1390917" d="M42.778,189.934l3.241,2.822c.975.066,3.217,2.261,3.143,3.209-.017.21-.066.3-.317.381a1.088,1.088,0,0,1,.01.906,2.88,2.88,0,0,1-2.08,2.637,96.346,96.346,0,0,1-15.861,2.329l-3.454.054a1.36,1.36,0,0,1-1.042,0,.957.957,0,0,1-.869,0,5.793,5.793,0,0,1-2.26,0,.952.952,0,0,1-.869,0c-.231.183-.729.1-1.046,0l-2.951-.04-2.594-.179a79.442,79.442,0,0,1-13.765-2.185A3.519,3.519,0,0,1,0,197.754v-.474a102.414,102.414,0,0,0,38.976-.845,3.28,3.28,0,0,0,2.566-2.134,3.113,3.113,0,0,0-.719-3.3c-.234-.229-.48-.394-.512-.666-.075-.485,1.734-.73,2.068-.691a.392.392,0,0,1,.4.287" transform="translate(0 -120.022)" fill="#d9387d"/>
    <path id="Trazado_1390918" data-name="Trazado 1390918" d="M65.506,224.047c.152.05.149.108,0,.175h-2.26c-.152-.05-.149-.108,0-.175Z" transform="translate(-39.956 -141.796)" fill="#e16c9f"/>
    <path id="Trazado_1390919" data-name="Trazado 1390919" d="M59.271,224.042c.15.054.146.112,0,.174-.347,0-.777.1-1.041-.174Z" transform="translate(-36.85 -141.793)" fill="#ea9bbd"/>
    <path id="Trazado_1390920" data-name="Trazado 1390920" d="M72.814,224.044c-.26.269-.69.173-1.037.174-.153-.045-.152-.1,0-.173Z" transform="translate(-45.354 -141.794)" fill="#ea99bc"/>
    <path id="Trazado_1390921" data-name="Trazado 1390921" d="M133.059,208.808l-.01-.906.174.019a1.228,1.228,0,0,1-.163.887" transform="translate(-84.205 -131.578)" fill="#e685ae"/>
    <path id="Trazado_1390922" data-name="Trazado 1390922" d="M61.934,224.044v.175l-.874,0,0-.174Z" transform="translate(-38.644 -141.793)" fill="#e582ac"/>
    <path id="Trazado_1390923" data-name="Trazado 1390923" d="M70.465,224.046l.005.173-.874,0v-.175Z" transform="translate(-44.046 -141.796)" fill="#e582ac"/>
    <path id="Trazado_1390924" data-name="Trazado 1390924" d="M104.876,157.337l-2.467.4-1.045.15-.348-.16-.029-9.928a16.979,16.979,0,0,0-2.8-8.939l-.072-.726a11.656,11.656,0,0,1,6.717,10.33Z" transform="translate(-62.099 -87.426)" fill="#70c5d9"/>
    <path id="Trazado_1390925" data-name="Trazado 1390925" d="M88.409,135.291a11.214,11.214,0,0,1,3.126,1.035,17.333,17.333,0,0,1,3.22,9.988l.025,9.765-3.3.476q-.24-.318.272-.6l-.044-10.031a31.261,31.261,0,0,0-.87-5.21l-.7-1.7q-1.212-1.815-2.432-3.574a.824.824,0,0,1,.694-.152" transform="translate(-55.514 -85.614)" fill="#6bbbd4"/>
    <path id="Trazado_1390926" data-name="Trazado 1390926" d="M63.689,127.078q-3.78.124-7.706.048l-.073-2.514c.007-.036.022-.09-.039-.115.415-.818,1.061-1.715,2.1-1.727l3.3-.036a2.376,2.376,0,0,1,2.43,2.419Z" transform="translate(-35.359 -77.677)" fill="#dc5790"/>
    <path id="Trazado_1390927" data-name="Trazado 1390927" d="M30.437,134.571c-4.586.7-7.568,6.232-7.6,10.608l-.039,7.88-.214.334-2.119-.093-.046,2.1-.353.238-3.556-.576.019-2.431.219-.334a23.793,23.793,0,0,0,2.988.112q-.058-4.192.136-8.435c.4-2.826,1.238-6.165,3.416-8.1a10.921,10.921,0,0,1,4.615-1.246Z" transform="translate(-10.45 -85.168)" fill="#70c5d9"/>
    <path id="Trazado_1390928" data-name="Trazado 1390928" d="M23.321,138.122a17.953,17.953,0,0,0-3.187,10.124l-.019,6.862-3.553-.227.072-7.05a12.016,12.016,0,0,1,6.687-9.709" transform="translate(-10.482 -87.415)" fill="#7acfde"/>
    <path id="Trazado_1390929" data-name="Trazado 1390929" d="M56.525,165.931a93.485,93.485,0,0,1-23.649-.1q-.562-.335-.333-1.522-.194-1.079.361-1.428a83.431,83.431,0,0,0,19.681-1.056,4.4,4.4,0,0,0,3.549-4.378l.005-3.845a21.611,21.611,0,0,0-.257-3.512,15.282,15.282,0,0,1,1.232,5.779l.03,9.722Z" transform="translate(-20.554 -94.989)" fill="#70c5d9"/>
    <path id="Trazado_1390930" data-name="Trazado 1390930" d="M28.93,184.616l-.028,2.95-2.7-.369.06-2.765Z" transform="translate(-16.58 -116.725)" fill="#6bbbd4"/>
    <path id="Trazado_1390931" data-name="Trazado 1390931" d="M41.128,134.236c0-.421.156-.477.2-.047q3.837-.046,7.607.109l1.213-.031c2.463.09,3.988,1.861,5.085,3.876.533-.17,1.117,1.37.7,1.7.474,2.263,1.12,6.93.26,9.146a4.657,4.657,0,0,1-3.181,2.866c-2.04.346-4.1.662-6.171.865-3.778.369-8.739.827-12.45.348a4.836,4.836,0,0,1-1.438-.433c-.135,0-.344-.036-.347-.119a73.648,73.648,0,0,1,.316-10.157c.893-3.716,3.4-8.143,7.67-8.212a.911.911,0,0,1,.536.095" transform="translate(-20.604 -84.739)" fill="#7acfde"/>
    <path id="Trazado_1390932" data-name="Trazado 1390932" d="M83.835,135.036c-.088.047-.244-.02-.447.13a9.967,9.967,0,0,1,2.185,3.6.956.956,0,0,1-.471-.446,8.438,8.438,0,0,0-4.614-3.43,18.1,18.1,0,0,1,3.347.15" transform="translate(-50.94 -85.359)" fill="#70c5d9"/>
    <path id="Trazado_1390933" data-name="Trazado 1390933" d="M63.711,130.317l.006.157-7.811-.061.026-2.561a9.1,9.1,0,0,1,.124,2.465Z" transform="translate(-35.382 -80.916)" fill="#da7ca7"/>
    <path id="Trazado_1390934" data-name="Trazado 1390934" d="M55.072,157.782,52,159.9a.985.985,0,0,1-1.107.123.884.884,0,0,1-.382-1.066l1.106-3.64-2.964-2.176a.921.921,0,0,1-.39-1.041.96.96,0,0,1,1.025-.636l3.618-.021,1.185-3.526a.884.884,0,0,1,.852-.671.833.833,0,0,1,.893.623l1.187,3.549,3.886.078a.849.849,0,0,1,.8.679.888.888,0,0,1-.37.91l-3.027,2.253,1.138,3.687a.9.9,0,0,1-.248.88.827.827,0,0,1-1.081.108Z" transform="translate(-30.522 -93.189)" fill="#f3dc45"/>
    <path id="Trazado_1390935" data-name="Trazado 1390935" d="M181.572,29.093a1.093,1.093,0,0,1-.207-.695l.018-13.728a1.312,1.312,0,0,1,1.344-1.338,1.38,1.38,0,0,1,1.343,1.509V30.517l4.063-4.1a10.153,10.153,0,0,0-.33-13.971l-8.683-8.68c-.256-.256-.653-.341-.653-.711,2.6.832,5.331,1.851,7.407,3.907l15.761,15.616a.8.8,0,0,1,.312.675c-.016.194-.128.314-.324.51l-12.448,12.41L182.352,29.4a.832.832,0,0,0-.779-.3" transform="translate(-112.951 -1.935)" fill="#b8e3ee"/>
    <path id="Trazado_1390936" data-name="Trazado 1390936" d="M173.867,74.946c.149,3.3.134,6.9.017,10.239l-.259.5a9.133,9.133,0,0,0-5.162,8.48l-.325.461h-1.365l.038-20.91A2.41,2.41,0,0,1,170.97,72Z" transform="translate(-105.549 -45.085)" fill="#b8e3ee"/>
    <path id="Trazado_1390937" data-name="Trazado 1390937" d="M186.261,91.491c.015.128-.035.156-.147.088L186.1,81.34l.163.034Z" transform="translate(-117.778 -51.479)" fill="#bfe5ef"/>
    <path id="Trazado_1390938" data-name="Trazado 1390938" d="M180.828,124.084l-2.981-.013a6.322,6.322,0,0,1,2.8-6.236l.2-.075s-.007,2.108-.019,6.324" transform="translate(-112.53 -74.529)" fill="#b8e3ee"/>
    <path id="Trazado_1390939" data-name="Trazado 1390939" d="M83.5,1.883l.378.428c1.644,12.777,19.588,12.784,21.226,0l.378-.43.095-.584a33.925,33.925,0,0,1,4.4.036,15.49,15.49,0,0,1-30.98,0,33.92,33.92,0,0,1,4.4-.037Z" transform="translate(-50.002 -0.784)" fill="#dc578f"/>
    <path id="Trazado_1390940" data-name="Trazado 1390940" d="M154.974,1.022l0,.17-4.206.022c-.163.07-.264.421-.294.527-.5.027-.506-.374-.042-.532-.151-.051-.148-.11,0-.175Z" transform="translate(-94.994 -0.647)" fill="#dea2c1"/>
    <path id="Trazado_1390941" data-name="Trazado 1390941" d="M83.546,1.04c.152.048.151.106,0,.175.5.056.434.457-.044.537-.028-.111-.127-.462-.291-.532L79.006,1.2l.006-.168Z" transform="translate(-50.002 -0.653)" fill="#dea2c1"/>
    <path id="Trazado_1390942" data-name="Trazado 1390942" d="M113.274,1.052l0,.176-.121.347H91.588l-.213-.348,0-.175Z" transform="translate(-57.829 -0.666)" fill="#aab1ca"/>
    <path id="Trazado_1390943" data-name="Trazado 1390943" d="M113.2,1.531l.042.532a11.006,11.006,0,0,1-21.982.006l.044-.537Z" transform="translate(-57.757 -0.969)" fill="#7acfde"/>
    <path id="Trazado_1390944" data-name="Trazado 1390944" d="M29.009.38c.15.052.146.108-.005.168l.357.538c1.478,19.272,28.784,19.29,30.266,0l.357-.539c-.153-.044-.152-.1,0-.17l.295-.345a18.465,18.465,0,0,1,5.071.678l.174.414a7.966,7.966,0,0,0,1.174.741l9.124,9.2a10.436,10.436,0,0,1,.3,12.823,45.253,45.253,0,0,1-4.686,4.875.63.63,0,0,1-.657-.3l-.016-15.789c-.287-1.242-1.668-1.287-1.975.007L68.762,26.45a.642.642,0,0,1-.14.708,1.1,1.1,0,0,1,.191,1.144,1.657,1.657,0,0,1-.331,1.594c-.068.142-.122.127-.163-.035l-.389.1-2.837-2.884c-1.59-1.23-3.274-.41-3.482,1.562l-.037,20.692-.348.211-.013.232q-.864.106-1.784.226-.851,8.188-1.517,16.465l-.365.18c-.475,1.462-1.985,2.543-3.244,3.409-1.918,1.319-5.279,2.858-7.609,2.948l-.675-.268c-.117.078-.295.192-.381.13a28.774,28.774,0,0,1-2.9-2.523l.037-.428-.348-.158q.119-5.4-.254-10.8c-.671-3.73-3.333-6.031-6.154-8.24a.99.99,0,0,1-.573.117,20.579,20.579,0,0,1-2.152-.723,1.027,1.027,0,0,1-.4-.428.468.468,0,0,0-.548.275,20.419,20.419,0,0,1-2.8-.425c-.046.527-1.1.531-1.213.031-.154-.029-.152-.082-.006-.157l-.347-.192a3.941,3.941,0,0,0-.685-3.3c-1.024-.7-3.72-.645-4.933-.443-.668.112-1.152.789-1.459,1.351l-.395,0-.347-.122q.012-9.6.025-19.2l.348-.213-.347-.161.006-14.583a.991.991,0,0,0-1.964.136L18.222,28.37l-.142.536.1.391-4.856,4.746a.975.975,0,0,1-1.456-.175L.259,22.34,0,21.593v-.7l.265-.751L15.479,5.119a17.122,17.122,0,0,1,6.015-3.692C23.065.835,26.877-.214,28.451.04a1.06,1.06,0,0,1,.559.34" transform="translate(0 -0.001)" fill="#d9f0f3"/>
    <path id="Trazado_1390945" data-name="Trazado 1390945" d="M102.316,81.572a1.07,1.07,0,0,0-1.4-.037l-4.4,3.233a1.552,1.552,0,0,1-1.76.187,1.446,1.446,0,0,1-.728-1.647l1.819-5.657a.866.866,0,0,0-.344-1.016L90.77,73.2a1.47,1.47,0,0,1-.435-1.785,1.566,1.566,0,0,1,1.512-.892l5.734.011a.809.809,0,0,0,.773-.61l1.788-5.5a1.509,1.509,0,0,1,2.884,0l1.789,5.5a.807.807,0,0,0,.774.608l5.907,0a1.459,1.459,0,0,1,1.383,1.022,1.485,1.485,0,0,1-.572,1.728L107.481,76.8a.817.817,0,0,0-.155.852l1.792,5.525a1.5,1.5,0,0,1-.592,1.716,1.556,1.556,0,0,1-1.866-.122Z" transform="translate(-57.09 -40.098)" fill="#f3dc45"/>
    <path id="Trazado_1390946" data-name="Trazado 1390946" d="M51.351,46.928c-.179-.1-.563-.209-.76-.008-.583.6-1.155,1.1-1.7,1.631a.229.229,0,0,1-.205-.212L48.7,32.384a1.338,1.338,0,1,1,2.676,0Z" transform="translate(-30.815 -19.646)" fill="#b8e3ee"/>
  </g>
</svg>
