<svg id="Grupo_1223996" data-name="Grupo 1223996" xmlns="http://www.w3.org/2000/svg" xmlns:xlink="http://www.w3.org/1999/xlink" width="81.836" height="68.657" viewBox="0 0 81.836 68.657">
  <defs>
    <clipPath id="clip-path">
      <rect id="Rectángulo_743335" data-name="Rectángulo 743335" width="81.836" height="68.657" fill="none"/>
    </clipPath>
  </defs>
  <g id="Grupo_1223980" data-name="Grupo 1223980" clip-path="url(#clip-path)">
    <path id="Trazado_1390596" data-name="Trazado 1390596" d="M81.835,30.612V80.974c-.154,2.814-2.516,4.18-5.028,4.473l-71.549,0C2.644,85.2.161,83.734.029,80.884q-.081-25.173.06-50.3l.153-.319,81.394.032Z" transform="translate(0 -16.793)" fill="#e4e8e9"/>
    <path id="Trazado_1390597" data-name="Trazado 1390597" d="M38.371,125.568c.142.03.139.082,0,.153.126.033.312.089.32.186a32.879,32.879,0,0,1,0,4.307q.148.74-.319.935c.136.044.128.088-.015.133l-23.168-.02-.006-5.682Z" transform="translate(-8.428 -69.681)" fill="#566368"/>
    <path id="Trazado_1390598" data-name="Trazado 1390598" d="M112.454,137.706v.168l-45.2-.035.014-.133.151-.319h44.835Z" transform="translate(-37.322 -76.24)" fill="#deb1bb"/>
    <path id="Trazado_1390599" data-name="Trazado 1390599" d="M83.553,44.122c.144,11.992.126,24.455.048,36.495a1.109,1.109,0,0,1-.2-.175q-22.548.066-45.031-.07l-.111.32L15.384,80.7l-.2-.319.019-36.257Z" transform="translate(-8.428 -24.485)" fill="#f93f68"/>
    <path id="Trazado_1390600" data-name="Trazado 1390600" d="M112.465,86.118c-.139-.049-.137-.105,0-.168l-.32-.186-.007-4.9q-22.322-.04-44.66-.02l-.2-.319,0-.153,45.182-.011V44.121c.043,0,.178,0,.166.194v41.6a.182.182,0,0,1-.16.208" transform="translate(-37.334 -24.483)" fill="#e4c6cd"/>
    <path id="Trazado_1390601" data-name="Trazado 1390601" d="M89.794,77.452l-12.47,7.193a2.838,2.838,0,0,1-2.912-.111,2.926,2.926,0,0,1-1.385-2.573l0-14.029a2.969,2.969,0,0,1,1.359-2.611,2.915,2.915,0,0,1,3.075-.055l12.32,7.114a2.941,2.941,0,0,1,.017,5.073" transform="translate(-40.522 -35.989)" fill="#fefefe"/>
    <path id="Trazado_1390602" data-name="Trazado 1390602" d="M112.471,131.336H67.288v-5.427l45.176,0Z" transform="translate(-37.34 -69.869)" fill="#d0d0d0"/>
    <path id="Trazado_1390603" data-name="Trazado 1390603" d="M4.982.217C28.714.083,53.407.083,77.151.217a4.573,4.573,0,0,1,3.871,2.064,3.172,3.172,0,0,1,.753,1.781q.083.372.163.793v9.029L.192,13.852l-.008-9a1.741,1.741,0,0,0,.127-.8A4.837,4.837,0,0,1,4.982.217" transform="translate(-0.102 -0.065)" fill="#d0d0d0"/>
    <path id="Trazado_1390604" data-name="Trazado 1390604" d="M183.651,9.767c-.235-.186-.17-.529-.163-.793l.163-.006Z" transform="translate(-101.815 -4.977)" fill="#d7d9d9"/>
    <path id="Trazado_1390605" data-name="Trazado 1390605" d="M83.133.153H10.964C10.973.1,11,.014,11.177,0H82.921c.179.013.2.1.213.152" transform="translate(-6.084 -0.001)" fill="#d8dada"/>
    <path id="Trazado_1390606" data-name="Trazado 1390606" d="M.184,9.761a4.3,4.3,0,0,1,.127-.8.757.757,0,0,1-.127.8" transform="translate(-0.102 -4.97)" fill="#d7d8d9"/>
    <path id="Trazado_1390607" data-name="Trazado 1390607" d="M37.183,8.639a3.156,3.156,0,1,1-2.115,4.032,3.142,3.142,0,0,1,2.115-4.032" transform="translate(-19.37 -4.721)" fill="#fbb55f"/>
    <path id="Trazado_1390608" data-name="Trazado 1390608" d="M14.9,8.671a3.134,3.134,0,0,1,3.924,2.281A3.159,3.159,0,0,1,12.7,12.5a3.124,3.124,0,0,1,2.2-3.829" transform="translate(-6.986 -4.746)" fill="#f93f68"/>
    <path id="Trazado_1390609" data-name="Trazado 1390609" d="M59.457,8.657a3.133,3.133,0,0,1,3.968,2.22,3.158,3.158,0,0,1-6.063,1.761,3.136,3.136,0,0,1,2.1-3.982" transform="translate(-31.746 -4.726)" fill="#47c87f"/>
  </g>
</svg>
