<svg id="Grupo_1224202" data-name="Grupo 1224202" xmlns="http://www.w3.org/2000/svg" xmlns:xlink="http://www.w3.org/1999/xlink" width="95.316" height="136.351" viewBox="0 0 95.316 136.351">
  <defs>
    <clipPath id="clip-path">
      <rect id="Rectángulo_744919" data-name="Rectángulo 744919" width="95.316" height="136.351" fill="none"/>
    </clipPath>
  </defs>
  <g id="Grupo_1224201" data-name="Grupo 1224201" clip-path="url(#clip-path)">
    <path id="Trazado_1390947" data-name="Trazado 1390947" d="M81.167,139.649l.113.577L66.092,151.252l-1.544.463-.5.327c.075.2.186.5.067.607-1.038.939-3.321,2.585-4.611,2.646l-1.04.75a.859.859,0,0,1-.307.851,12.054,12.054,0,0,1-4.264,2.55,4.561,4.561,0,0,1-1.321.591,2.687,2.687,0,0,1-.65-1.368q-.1-9.525.159-18.934l27.127-.008a19.524,19.524,0,0,0,1.958-.079" transform="translate(-9.203 -24.765)" fill="#8f9aa5"/>
    <path id="Trazado_1390948" data-name="Trazado 1390948" d="M100.062,51.8c.6.047.726.222.133.317q.1,5.562-.2,10.97c-.058.208-.155.521-.318.529a71.74,71.74,0,0,1-8.037-.085q-1.351.246-1.721-.55a104.356,104.356,0,0,1,.013-11.2Z" transform="translate(-15.921 -9.184)" fill="#dbe5ea"/>
    <path id="Trazado_1390949" data-name="Trazado 1390949" d="M96.251,123.825l.011.254a.993.993,0,0,1,.527.68L96.75,134.98a18.281,18.281,0,0,1-2.433,9.042c-1.091,1.9-2.752,4.4-4.9,4.937l-22.138-.144,16.619-12.066c1.012-.735,2.006-1.508,2-3.093l-.047-9.772.177-.533,9.911-.057Z" transform="translate(-11.931 -21.865)" fill="#fed408"/>
    <path id="Trazado_1390950" data-name="Trazado 1390950" d="M100.267,100.212V107.9c.772.828.1.8-.73.61,0,.206-.05.525-.18.532-1.111.064-8.857.34-9.164,0a1.86,1.86,0,0,1-.314-.533l-.008-8.334.182-.531,9.9.036Z" transform="translate(-15.937 -17.67)" fill="#dbe5ea"/>
    <path id="Trazado_1390951" data-name="Trazado 1390951" d="M100.309,93.7c-.025.183-.078.527-.18.532a69.846,69.846,0,0,1-8.813,0q-1.2.246-1.445-.533l-.081-8.276,10.424.023Z" transform="translate(-15.923 -15.149)" fill="#dbe5ea"/>
    <path id="Trazado_1390952" data-name="Trazado 1390952" d="M100.3,70.128l-.083,8.25L89.791,78.4l.075-8.279.179-.533,9.937,0Z" transform="translate(-15.923 -12.341)" fill="#dbe5ea"/>
    <path id="Trazado_1390953" data-name="Trazado 1390953" d="M100.331,115.106l-.077,7.151-10.405.059.032-7.215c0-.206.05-.525.18-.532a82.974,82.974,0,0,1,9.1,0q.975-.209,1.166.533" transform="translate(-15.934 -20.295)" fill="#dbe5ea"/>
    <path id="Trazado_1390954" data-name="Trazado 1390954" d="M100.323,95.489a1,1,0,0,0,.242.2c.317.977.535,2.738-.262,3.512l-.037.275-10.4-.038.016-3.954Z" transform="translate(-15.937 -16.933)" fill="#8f9aa5"/>
    <path id="Trazado_1390955" data-name="Trazado 1390955" d="M100.016,65.5a.378.378,0,0,0,.309.165c.772.7.42,2.565.21,3.477.276.015.3.1.065.262a.562.562,0,0,0-.286-.022l-10.431,0,.059-3.985Z" transform="translate(-15.939 -11.597)" fill="#8f9aa5"/>
    <path id="Trazado_1390956" data-name="Trazado 1390956" d="M99.539,110.421q.585,0,.755.247c.815.69.565,2.517.278,3.5a.8.8,0,0,0-.236.22l-10.449,0-.007-3.967Z" transform="translate(-15.939 -19.582)" fill="#909aa5"/>
    <path id="Trazado_1390957" data-name="Trazado 1390957" d="M55,113.687c.1.182.235.471.124.57a47.525,47.525,0,0,1-5.722,4.2l-1.434.411c-.165-.018-.457-.013-.466.334l17.243-.007a1.05,1.05,0,0,1,.248.674c-.044.411-2.128,3.236-2.873,3.258l-.509.015-1.069.533-18.407.006L34.6,129.132a2.3,2.3,0,0,1-1.251.248l-6.645,4.707a1.258,1.258,0,0,1-.526-1.046q-.242-9.587-.135-19.245l28.378.016c.046-.315.383-.258.573-.126" transform="translate(-4.613 -20.142)" fill="#8f9aa5"/>
    <path id="Trazado_1390958" data-name="Trazado 1390958" d="M74.227,25.9l-.021,9.377-.179.532-9.947.019-.316-.532,0-9.4Z" transform="translate(-11.307 -4.592)" fill="#dbe5ea"/>
    <path id="Trazado_1390959" data-name="Trazado 1390959" d="M51.9,158.689l-.119-18.855.278-.078Z" transform="translate(-9.183 -24.784)" fill="#afbac1"/>
    <path id="Trazado_1390960" data-name="Trazado 1390960" d="M74.206,37.294c.179-.077.247.226.016.2l.36.322q.439,12.476.165,25.028l-.431.5a.336.336,0,0,1-.123.193l-.181.532-9.937-.027-.313-.533,0-3.617,0-22.576Z" transform="translate(-11.307 -6.611)" fill="#40c0f9"/>
    <path id="Trazado_1390961" data-name="Trazado 1390961" d="M63.19,125.2a18.784,18.784,0,0,1-13.85,6.4l-13.868.066a.838.838,0,0,1-.539-.22l8.613-6.24Z" transform="translate(-6.195 -22.202)" fill="#dbe5ea"/>
    <path id="Trazado_1390962" data-name="Trazado 1390962" d="M74.193,69.19l-.007,9.163-10.372-.021-.052-9.17Z" transform="translate(-11.307 -12.265)" fill="#dbe5ea"/>
    <path id="Trazado_1390963" data-name="Trazado 1390963" d="M52.7,118.574l7.031-5.177a4.232,4.232,0,0,0,1.6-1.451l10.643.041a20.962,20.962,0,0,1-2.3,6.645Z" transform="translate(-9.345 -19.852)" fill="#dbe5ea"/>
    <path id="Trazado_1390964" data-name="Trazado 1390964" d="M73.851,28.35l.027,29.712.123.327c.2.03.5.085.529.237A13.131,13.131,0,0,1,74.5,61q.211,1.12-.553,1.371l.531.244-.067,7.476,9.359-.035.072-7.3.536-.379q.172-.336.286.022l.233-.268q1.186.037.887-1.681l-.631-.045-.763-1.745q-.252-5.569-.109-11.3l8.394,0a3.416,3.416,0,0,1,2.614,2.011q-.155,44.618.033,89.151c0,.812-1.162,2.359-2.178,2.361l-47.037.057a3.111,3.111,0,0,1-2.731-1.078.765.765,0,0,1,1.322-.591,12.336,12.336,0,0,0,4.206-2.5l.364-.9a.646.646,0,0,1,1.04-.75q8.084-.4,16.253-.235a15.325,15.325,0,0,0,8.624-2.456L55.169,132.4l-.322-.532c-.374-.649-.044-.81.5-.327l1.535-.522,20.283.132.319.535,1.23-.52,5.207.021a1.516,1.516,0,0,0,1.176-1.11l.017-21.824q-.381-.724-.782-1.448c-.237-.046-.234-.132-.011-.254-.207-.026-.519-.1-.53-.244a57.469,57.469,0,0,1,.069-6.528A.867.867,0,0,1,84.4,99.4c-.087-.262-.01-.336.235-.22-.086-.529.133-.553.333-.036q.728.015.842-.536-.37-.25-.062-.828c-.806-.021-1.218-1.311-.717-1.912a1.063,1.063,0,0,1-.7-1.048c-.208-.025-.516-.09-.533-.241a49.615,49.615,0,0,1,0-7.056l.532-.39c-.22-.109-.2-.2.037-.275a4.664,4.664,0,0,1,1.318-2.138c.239-.7.155-1.412-.744-1.318-.151.225-.256.208-.313-.055-.234.127-.314.058-.242-.2l-.535-.231-.086-7.457-9.359-.033.072,7.327-.528.391c.2.027.508.082.531.23a23.054,23.054,0,0,1-.013,3.361.887.887,0,0,1-.534.363c.208.025.519.091.532.239a60.227,60.227,0,0,1,.007,7.707l-.532.389c.206.026.512.081.533.227a18.92,18.92,0,0,1,.006,3.372l-.532.367c.206.026.507.086.531.242a45.635,45.635,0,0,1-.029,6.587l-.534.385.534.308.007,10.039c-.138,1.057-1.407,3.161-2.492,2.518l-1.754.611-27.008.008-.324-.532c-.016.246-.111.268-.278.077l-.305-.145-18.822.035c-.517-.346-1.2-.424-1.38-.993-.1-.183-.225-.477-.111-.573a48.12,48.12,0,0,1,5.063-3.586q.935-.979,1.694-.548l1.338-.316,13.828-.082a18.27,18.27,0,0,0,11.929-5.39L57,107.587c.018-.712.276-.68.509-.015l.75-.53,4.327-.007c2.921-1.608.258-3.613-2.136-2.871l-.317-.523a1.366,1.366,0,0,1-.814.533l-16.109.007c-1.281-.354-.62-1.928.146-.867l1.509-.527q7.752-.09,15.183.2a24.671,24.671,0,0,0,1.9-5.729l-9.651-.037q-.885,1.382-1.909.917l-.573.126-28.187-.069c-.125.333-.231.26-.324-.139q-9.338.238-18.88.13A2.481,2.481,0,0,1,.09,96.133L0,92.645l.246-.532,18.384-.022a21.674,21.674,0,0,0,10.284-2.65l1.643-.429c.039-.236.118-.234.234-.011l1.649-.541,5.142-.025c2.305-1.139.914-3.429-1.456-2.9l-.314-.547-.034-.9,2.554-4.022.809-.44c.059-.421.156-.462.3-.086a12.208,12.208,0,0,0,3.094-.13l.169-.552q1.509-1.119-.031-3.107a6.674,6.674,0,0,0-1.93-.231l-.429-.579a13.1,13.1,0,0,0,.424-4.266l.445-.536c.043-.242.137-.253.277-.043a.6.6,0,0,1,.4-.482c2.264-.611,2.191-2.49.006-2.953l-.253-.542c-.209-.021-.522-.086-.536-.231-.076-.852-.217-7.268-.085-7.626.075-.2.32-.3.529-.39l10.931.007c.2.025.468.063.533.225.132.334.207,3.4-.531,3.391l.533.178q-.089,4.31.2,8.462l9.018.017q.257-4.08.151-8.315l.533-.313c-.177-.135-.123-.2.123-.194a8.808,8.808,0,0,0,.82-1.714V37.177a7.794,7.794,0,0,0-.916-1.707c-.262.012-.272-.171-.016-.2-.206,0-.521-.049-.531-.181a58.911,58.911,0,0,1,.02-8.883l.533-.312,7.964-.009c1.181,0,2.954,1.058,2.967,2.461" transform="translate(-0.001 -4.591)" fill="#b8c2cc"/>
    <path id="Trazado_1390965" data-name="Trazado 1390965" d="M21.822,113.61v.267l-18.88-.137Z" transform="translate(-0.522 -20.147)" fill="#bfdcd6"/>
    <path id="Trazado_1390966" data-name="Trazado 1390966" d="M37.433,101.74a19.813,19.813,0,0,0,4.652-3.978l.369-.035,1.952.086c1.06.047,1.571,1.219,1.464,2.191a1.868,1.868,0,0,1-1.7,1.7Z" transform="translate(-6.638 -17.33)" fill="#5f6c75"/>
    <path id="Trazado_1390967" data-name="Trazado 1390967" d="M50.394,78.76l.155-3.978c1.47,0,2.512.857,2.373,2.263a2.028,2.028,0,0,1-2.528,1.714" transform="translate(-8.937 -13.262)" fill="#5f6c75"/>
    <path id="Trazado_1390968" data-name="Trazado 1390968" d="M115.807,143.586c-.086,0-.258-.056-.258-.336l.226-88.814Z" transform="translate(-20.491 -9.654)" fill="#bfc9d1"/>
    <path id="Trazado_1390969" data-name="Trazado 1390969" d="M110.781,51.958l-8.258.1-.026,11.2c-.254.5-.471.392-.309-.165l.065-11.287Z" transform="translate(-18.112 -9.187)" fill="#c6d1d9"/>
    <path id="Trazado_1390970" data-name="Trazado 1390970" d="M61.145,157.967l4.544-3.253,22.2.031a17.035,17.035,0,0,1-10.49,3.519l-15.71.02a.885.885,0,0,1-.549-.317" transform="translate(-10.843 -27.437)" fill="#dbe5e9"/>
    <path id="Trazado_1390971" data-name="Trazado 1390971" d="M94.186,149.129a18.058,18.058,0,0,0,6.8-13.987l.045-10.893a1.554,1.554,0,0,1,1.312,1.489l.025,21.411a2.05,2.05,0,0,1-2.1,2.045Z" transform="translate(-16.703 -22.034)" fill="#dcb808"/>
    <path id="Trazado_1390972" data-name="Trazado 1390972" d="M100.607,80.706a6.647,6.647,0,0,1-.125,3.514l-10.532.143,0-3.844Z" transform="translate(-15.951 -14.279)" fill="#909ba6"/>
    <path id="Trazado_1390973" data-name="Trazado 1390973" d="M54.325,162.981l4.57-3.4a1.557,1.557,0,0,1,.138,1.064c-.155.369-.631.352-.9.562L56.2,162.731c-.649.511-1.18.79-1.873.25" transform="translate(-9.634 -28.3)" fill="#b8c2cc"/>
    <path id="Trazado_1390974" data-name="Trazado 1390974" d="M103.111,95.78c.631-.459,1.264.846.744,1.317a2.053,2.053,0,0,1-1.317,2.139l-.069-2.939a.593.593,0,0,1,.33-.573.888.888,0,0,0,.313.056" transform="translate(-18.172 -16.968)" fill="#616e77"/>
    <path id="Trazado_1390975" data-name="Trazado 1390975" d="M103.94,67.515c.4.91-.118,2.066-1.184,1.687-.631-.978-.213-2.346-.211-3.477.969.109,1,1.219,1.394,1.79" transform="translate(-18.161 -11.655)" fill="#606d76"/>
    <path id="Trazado_1390976" data-name="Trazado 1390976" d="M103.2,110.852a10.7,10.7,0,0,1,.716,1.912c.409.57-.022,1.566-.78,1.365a.867.867,0,0,0-.333.036.6.6,0,0,1-.338-.567l.06-2.936q.137-.636.675.19" transform="translate(-18.171 -19.576)" fill="#606d76"/>
    <path id="Trazado_1390977" data-name="Trazado 1390977" d="M102.685,84.26a4.353,4.353,0,0,1,.125-3.514,2.131,2.131,0,0,1,.972,1.835,2.024,2.024,0,0,1-1.1,1.679" transform="translate(-18.155 -14.319)" fill="#626f78"/>
    <path id="Trazado_1390978" data-name="Trazado 1390978" d="M102.9,69.85a.365.365,0,0,0-.065-.262,3.078,3.078,0,0,0,1.185-1.687c.325.471.812.83.357,1.663a.994.994,0,0,1-1.477.286" transform="translate(-18.236 -12.041)" fill="#b8c2cc"/>
    <path id="Trazado_1390979" data-name="Trazado 1390979" d="M103.994,97.011l-.744-1.317c.063-.278.383-.555.633-.487a1.263,1.263,0,0,1,.647,1.6.546.546,0,0,1-.536.206" transform="translate(-18.31 -16.882)" fill="#b8c2cc"/>
    <path id="Trazado_1390980" data-name="Trazado 1390980" d="M103.281,114.642l.781-1.365c.173.22.62.479.549.914a1.279,1.279,0,0,1-.693.909c-.215.089-.562-.119-.637-.458" transform="translate(-18.316 -20.088)" fill="#b8c2cc"/>
    <path id="Trazado_1390981" data-name="Trazado 1390981" d="M103.052,110.727l-.675-.19c-.25-.1-.536-.073-.755-.248a2.634,2.634,0,0,0,.638-.066c.19-.048.271-.31.092-.545.514.16.529.717.7,1.048" transform="translate(-18.021 -19.45)" fill="#b8c2cc"/>
    <path id="Trazado_1390982" data-name="Trazado 1390982" d="M54.366,113.818l-28.245.067,0,19.161a.27.27,0,0,1-.269-.292V113.877c-.232-.076-.229-.165,0-.267Z" transform="translate(-4.554 -20.147)" fill="#a4afb8"/>
    <path id="Trazado_1390983" data-name="Trazado 1390983" d="M89.913,47.724,89.9,58.919a.274.274,0,0,1-.248-.306l.1-29.733Z" transform="translate(-15.899 -5.121)" fill="#d0d7de"/>
    <path id="Trazado_1390984" data-name="Trazado 1390984" d="M47.66,139.788l-19.127-.11,18.85-.179c.265,0,.26.184.277.289" transform="translate(-5.06 -24.738)" fill="#c2ccd4"/>
    <path id="Trazado_1390985" data-name="Trazado 1390985" d="M74.168,105.632c-.035.234-.1.225-.2-.007a.637.637,0,0,0-.609-.272l-9.591.044V98.684l10.342-.032Z" transform="translate(-11.308 -17.495)" fill="#dbe5ea"/>
    <path id="Trazado_1390986" data-name="Trazado 1390986" d="M74.191,92.126l-10.368,0-.064-6.715,10.423-.031Z" transform="translate(-11.307 -15.141)" fill="#dbe5ea"/>
    <path id="Trazado_1390987" data-name="Trazado 1390987" d="M76.572,63.388l-.094-25.852a1.769,1.769,0,0,1,1.445,1.674v22.5a1.775,1.775,0,0,1-1.351,1.681" transform="translate(-13.562 -6.657)" fill="#0992ce"/>
    <path id="Trazado_1390988" data-name="Trazado 1390988" d="M74.224,93.915c.819.494.658,3.222-.183,3.658l-10.26.047V93.812Z" transform="translate(-11.311 -16.636)" fill="#909ba6"/>
    <path id="Trazado_1390989" data-name="Trazado 1390989" d="M74.229,80.636c.819.476.653,3.2-.192,3.656l-10.257.06V80.543Z" transform="translate(-11.311 -14.283)" fill="#909ba6"/>
    <path id="Trazado_1390990" data-name="Trazado 1390990" d="M73.922,107.129l.2.007c.92.678.724,3.274-.342,3.782l-10.256-.1a11.282,11.282,0,0,0,.142-3.666Z" transform="translate(-11.266 -18.998)" fill="#909ba6"/>
    <path id="Trazado_1390991" data-name="Trazado 1390991" d="M69.9,124.309c.6-1.274,1.876-2.379,2.625-3.932a8.276,8.276,0,0,1,2.927.069,1.975,1.975,0,0,1,1.236,2.329,2.036,2.036,0,0,1-2,1.551Z" transform="translate(-12.396 -21.329)" fill="#5f6c75"/>
    <path id="Trazado_1390992" data-name="Trazado 1390992" d="M76,110.92a12.468,12.468,0,0,0,.342-3.783A1.915,1.915,0,0,1,76,110.92" transform="translate(-13.477 -18.999)" fill="#616e77"/>
    <path id="Trazado_1390993" data-name="Trazado 1390993" d="M76.252,97.6l.183-3.658c.943.009,1.489,1.152,1.441,1.9A1.73,1.73,0,0,1,76.252,97.6" transform="translate(-13.522 -16.659)" fill="#626f78"/>
    <path id="Trazado_1390994" data-name="Trazado 1390994" d="M76.248,84.312l.193-3.656c.952.008,1.477,1.121,1.432,1.911a1.741,1.741,0,0,1-1.625,1.745" transform="translate(-13.522 -14.303)" fill="#626f78"/>
    <path id="Trazado_1390995" data-name="Trazado 1390995" d="M41.521,64.757,41.613,73l-.184.533-31.087.042c-1.9.45-1.828,2.561.209,2.92l30.307-.007.322.532c.389,1.771-.092,3.553-.438,5.381a.947.947,0,0,1-.5.534l-29.808.076c-1.894.338-1.947,2.4-.146,2.885l28.539.078.32.534a40.479,40.479,0,0,1-3.328,5.367c.035.513-.165.524-.369.035l-1.069.531-18.92-.029c-1.984.243-2.385,2.023-.622,2.885l15.412.069.314.533a21.411,21.411,0,0,1-11.922,3.612L0,99.537,0,64.755Z" transform="translate(0 -11.483)" fill="#dbe5ea"/>
    <path id="Trazado_1390996" data-name="Trazado 1390996" d="M43.439,74.781c.79-.142.519,3.335.391,3.631l-.546.346-.277.043-30.513.01A2.019,2.019,0,0,1,10.3,76.768a1.944,1.944,0,0,1,1.951-1.944Z" transform="translate(-1.826 -13.261)" fill="#909aa5"/>
    <path id="Trazado_1390997" data-name="Trazado 1390997" d="M44.5,86.418q-.06.777-1.524.456a7.294,7.294,0,0,0-.861,2.7q1.67-.331,2.247.506c.03.2-.157.291-.439.285l-2.95-.068-28.643-.067a1.981,1.981,0,0,1-.1-3.961l30.338-.077c.619,0,1.384-.36,1.93.23" transform="translate(-1.827 -15.265)" fill="#909ba6"/>
    <path id="Trazado_1390998" data-name="Trazado 1390998" d="M38.3,97.763l-.085.912a8.324,8.324,0,0,1-4.567,3.066l-.234.012-15.367-.029A1.977,1.977,0,0,1,16.085,99.5,2.051,2.051,0,0,1,18.3,97.733Z" transform="translate(-2.85 -17.332)" fill="#8f9aa5"/>
    <path id="Trazado_1390999" data-name="Trazado 1390999" d="M51.137,86.469c.922.047,1.355,1.084,1.315,1.93-.035.738-.527,1.719-1.453,1.729l-3.258.039a34.478,34.478,0,0,0,1.41-3.8Z" transform="translate(-8.466 -15.316)" fill="#606d76"/>
    <path id="Trazado_1391000" data-name="Trazado 1391000" d="M59.258,0c1.676.406,2.165,1.753,2.163,3.472L61.389,21.3c.206,0,.518.046.533.18a58.853,58.853,0,0,1,0,8.907l-.533.314.533.184q0,11.032,0,22.07l-.533.323c0,.206-.051.526-.18.532-3.219.16-7.216.155-10.438-.006l-.313-.533L50.38,23.135l.42-.439q5.881,2.34,5.026-1.495l-.522-.5L50.812,19.51l-.234-.607-.158-1.59q.128-.626,1.06-.872,6.477-2.88,2.737-4.916A9.3,9.3,0,0,0,51.1,13.008l-.576-.285L50.471,0Z" transform="translate(-8.934)" fill="#62c288"/>
    <path id="Trazado_1391001" data-name="Trazado 1391001" d="M50.22,27.21a.261.261,0,0,0-.247-.2q-.816-.437-.293-2.2-.122-1.489.738-1.83l4.393,1.1a2.106,2.106,0,0,1-.921,4.111Z" transform="translate(-8.774 -4.075)" fill="#dcb807"/>
    <path id="Trazado_1391002" data-name="Trazado 1391002" d="M50.286,19.681a.556.556,0,0,1-.542-.352c-.129-.256-.321-3.814.43-3.924a.445.445,0,0,1,.217-.313l2.653-1.506a2.012,2.012,0,0,1,2.686.854,2.108,2.108,0,0,1-.807,2.9l-3.2,1.868a2.669,2.669,0,0,1-1.442.478" transform="translate(-8.8 -2.368)" fill="#dcb807"/>
    <path id="Trazado_1391003" data-name="Trazado 1391003" d="M41.537,0l.534.243q.025,5.891.05,11.789l-.53.691c.383.292.248.457-.217.314l-.2.622c-1.765.622-1.828,2.785.095,3.113l.22.541c.8-.077.9,1.386.159,1.59l-.364.479c-1.815.457-1.946,1.989-.342,2.98a.611.611,0,0,1,.262.57c.276-.162.359-.095.246.2l.534.322q.036,14.745.073,29.491l-.531.325-.187.532L.329,53.8,0,53.272.028,2.2C.028,1.04,1.507.438,2.247,0Z" fill="#72e39f"/>
    <path id="Trazado_1391004" data-name="Trazado 1391004" d="M45.914,14.129A2.063,2.063,0,1,1,41.9,13.2l1.061-4A2.1,2.1,0,0,1,45.293,7.54a2.019,2.019,0,0,1,1.694,2.479Z" transform="translate(-7.417 -1.333)" fill="#fed408"/>
    <path id="Trazado_1391005" data-name="Trazado 1391005" d="M49.96,20.123a2.042,2.042,0,0,1-2.169-2.247,2.523,2.523,0,0,1,2.057-2.03Z" transform="translate(-8.473 -2.81)" fill="#fcd409"/>
    <path id="Trazado_1391006" data-name="Trazado 1391006" d="M50.121,22.967,49.676,27a2.028,2.028,0,1,1,.445-4.029" transform="translate(-8.476 -4.064)" fill="#fcd409"/>
    <path id="Trazado_1391007" data-name="Trazado 1391007" d="M27.39,33.23c-.193.082-.489.181-.581.058a52.375,52.375,0,0,1-3.971-6.875l.267-.6a27.3,27.3,0,0,0,9.8-10.579,1.105,1.105,0,0,1,1.083-.657,1.154,1.154,0,0,1,.906.587l7.685,13.323a1.081,1.081,0,0,1-.167,1.139,1.36,1.36,0,0,1-1.095.384A27.057,27.057,0,0,0,27.39,33.23" transform="translate(-4.05 -2.584)" fill="#dbe5ea"/>
    <path id="Trazado_1391008" data-name="Trazado 1391008" d="M21.28,28.193l4.285,7.419a.916.916,0,0,1-.754,1.018c-.39.109-.624.595-.907.751.051.208.125.512-.008.614a44.931,44.931,0,0,1-4.89,2.714l-.591-.281a4.546,4.546,0,0,1-1.25.324c-.211.051-.531.118-.616-.019a76.676,76.676,0,0,1-4-7.355l.281-.6a1.621,1.621,0,0,1,.558-.666l6.767-3.9a.9.9,0,0,1,1.122-.026" transform="translate(-2.226 -4.967)" fill="#df4955"/>
    <path id="Trazado_1391009" data-name="Trazado 1391009" d="M25.17,39.4l5.783,5.619c1.3,1.286,4.039,1.346,2.758,2.572l-4.656,4.455c-.754.039-1.069-1.11-1.464-1.511L19.68,42.448Z" transform="translate(-3.49 -6.987)" fill="#c52430"/>
    <path id="Trazado_1391010" data-name="Trazado 1391010" d="M12.072,33.812l4.332,7.97-3.877,1.376a.974.974,0,0,1-1.181-.45L8.254,37.15Z" transform="translate(-1.464 -5.996)" fill="#dbe5ea"/>
  </g>
</svg>
