<svg xmlns="http://www.w3.org/2000/svg" xmlns:xlink="http://www.w3.org/1999/xlink" width="79.257" height="82.439" viewBox="0 0 79.257 82.439">
  <defs>
    <clipPath id="clip-path">
      <rect id="Rectángulo_745006" data-name="Rectángulo 745006" width="79.257" height="82.439" fill="none"/>
    </clipPath>
  </defs>
  <g id="Grupo_1224223" data-name="Grupo 1224223" transform="translate(0 0)">
    <g id="Grupo_1224222" data-name="Grupo 1224222" transform="translate(0 0)" clip-path="url(#clip-path)">
      <path id="Trazado_1391191" data-name="Trazado 1391191" d="M6.767,5.062l.323.178L7.1,7.552l-.322.225c.125.017.307.051.322.143a10.93,10.93,0,0,1-.01,1.73q.173.917-.328,1.193l-.04,3.8a1.354,1.354,0,0,1-1.1,1.1H1.135a1.341,1.341,0,0,1-1.1-1.1L0,12.314.348,12q2.033.468,2.819-.893L3.29.19,3.613,0,5.484.007A1.387,1.387,0,0,1,6.743,1.274Z" transform="translate(0 0)" fill="#e4e0e4"/>
      <path id="Trazado_1391192" data-name="Trazado 1391192" d="M3.613,0,3.536,10.783a1.676,1.676,0,0,1-1.757,1.572C1.12,12.35.565,12.329,0,12.313L.009,1.457A1.487,1.487,0,0,1,1.439.012Z" transform="translate(0 0)" fill="#eeecee"/>
      <path id="Trazado_1391193" data-name="Trazado 1391193" d="M19.789,8.539l-.026,3.072-12.246.059L7.533,8.6l.149-.323,11.91-.064Z" transform="translate(-0.757 -0.827)" fill="#c8bec7"/>
      <path id="Trazado_1391194" data-name="Trazado 1391194" d="M19.776,5.542,19.79,8.27,7.534,8.334,7.525,5.62Z" transform="translate(-0.757 -0.558)" fill="#d6cfd5"/>
      <path id="Trazado_1391195" data-name="Trazado 1391195" d="M81.056,11.572l.171-.389a3.315,3.315,0,0,0,2.327-3.028l.052-4.749.325-.228a3.2,3.2,0,0,1,3.34,2.577,23.148,23.148,0,0,1,.051,4.691,3.186,3.186,0,0,1-2.754,2.767,3.339,3.339,0,0,1-3.512-1.64" transform="translate(-8.159 -0.32)" fill="#e4e0e4"/>
      <path id="Trazado_1391196" data-name="Trazado 1391196" d="M83.839,3.178l-.048,4.7a3.671,3.671,0,0,1-2.827,3.693l-.259-.471-.389-.276c-.215-.508-.281-2.5.205-2.864L80.2,7.693c-.1-.559-.111-2.32.541-2.413a3.229,3.229,0,0,1,3.1-2.1" transform="translate(-8.067 -0.32)" fill="#eeecee"/>
      <path id="Trazado_1391197" data-name="Trazado 1391197" d="M79.788,8.457a12.758,12.758,0,0,0,.184,3.14l-7.106,0V8.538c0-.125.027-.318.1-.324,1.85-.118,4.174-.139,6.026-.069q.657-.147.791.313" transform="translate(-7.335 -0.816)" fill="#c8bec7"/>
      <path id="Trazado_1391198" data-name="Trazado 1391198" d="M80.005,5.515A8.131,8.131,0,0,0,79.788,8.2l-6.92.08,0-2.724Z" transform="translate(-7.335 -0.555)" fill="#d6cfd5"/>
      <path id="Trazado_1391199" data-name="Trazado 1391199" d="M66.011,3.718l-.144.323-4.544.011-.006,5.613-.322.19q-.152.333-.659.161c-1.345.022-2.738.038-4.108,0-.067,0-.13-.108-.194-.243H28.221L28,9.857a1.35,1.35,0,0,1-.179.666l-.02,4.954-.323.236.322.185-.005,3.712c.044.29.192.367.46.421l32.087,0a.609.609,0,0,1,.646.139l.322.112q0,25.015,0,25.014l-.322.2a.09.09,0,0,1,0,.092c-.016.126-.058.315-.147.321a36.412,36.412,0,0,1-4.1-.034.527.527,0,0,1-.231-.325l-.322-.147-.031-10.3-.228-.185q-2.169-.139-4.37-.105-.042-.322-.6-.26c-.107.213-.183.182-.231-.069l-.322-.141,0-2.758a5.868,5.868,0,0,0-6.035-5.537c-4.555.049-6.49,4.251-6.01,8.282l-.324.222-.143.322q-2.5-.046-4.984.058l-.295.544,0,9.9-.322.191-.149.322-10.688-.008-.192-.323c-.027.147-.085.154-.17.027l.012-34.438c-.124-.017-.307-.052-.321-.144a11.289,11.289,0,0,1,.015-1.817q-.163-.866.332-1.112-.525-.3-.329-1.4-.194-1,.316-1.326a1.866,1.866,0,0,1,1.851-1.752l42.849-.021c.163,0,.206.109.2.147" transform="translate(-2.087 -0.36)" fill="#fee077"/>
      <path id="Trazado_1391200" data-name="Trazado 1391200" d="M70.506,3.734a1.532,1.532,0,0,1,1.613,1.64l.322.181,0,2.319-.322.224c.124.016.306.049.322.141a10.815,10.815,0,0,1,0,1.724q.177.915-.322,1.191V45.523l-6.637-.01,0-25.325q.155-4.935-.088-9.915l.1-.4-.015-6.124Z" transform="translate(-6.582 -0.376)" fill="#fed05b"/>
      <path id="Trazado_1391201" data-name="Trazado 1391201" d="M61.748,10.539a1.341,1.341,0,0,1,.352.964l-.011,8.689a.821.821,0,0,1-.351.665,1.1,1.1,0,0,1-.634.183h-32a.8.8,0,0,1-.887-.835l.008-3.809.112-.323H55.229a1.41,1.41,0,0,0,1.238-.741c.094-.2.364-4.425.143-4.456l-27.664-.013-.2-.322c.013-.056.04-.141.209-.165l32.143,0a1.353,1.353,0,0,1,.647.16" transform="translate(-2.841 -1.045)" fill="#eeecee"/>
      <path id="Trazado_1391202" data-name="Trazado 1391202" d="M28.229,16.413l.022-5.213c0-.293.262-.642.5-.642l28.184,0-.005,4.189a1.677,1.677,0,0,1-1.777,1.671Z" transform="translate(-2.841 -1.063)" fill="#fefefe"/>
      <path id="Trazado_1391203" data-name="Trazado 1391203" d="M50.523,37.3l-7.865.072V34.978A4,4,0,0,1,46.246,30.9a3.915,3.915,0,0,1,4.26,3.587Z" transform="translate(-4.294 -3.109)" fill="#fee077"/>
      <path id="Trazado_1391204" data-name="Trazado 1391204" d="M57.8,49.01,57.8,61.3a.871.871,0,0,1-.834.973H34.309a.838.838,0,0,1-.767-.836l.018-4.313,18.421.018a.822.822,0,0,0,.791-.856V38.153l-.6-.083a16.271,16.271,0,0,1-.123,3.093.434.434,0,0,1-.324-.182,24.754,24.754,0,0,1-.03-2.805l.319-.234,4.966.042c.3,0,.8.275.8.635Z" transform="translate(-3.376 -3.819)" fill="#0ed18f"/>
      <path id="Trazado_1391205" data-name="Trazado 1391205" d="M52.657,36.964l.034,3.22a1.268,1.268,0,0,1-1.263,1.037,1.188,1.188,0,0,1-1.163-1.2l-.014-2.992-.324-.177L49.886,34a3.589,3.589,0,0,0-3.644-3.057c-3.25.076-3.818,3.327-3.534,5.939l-.322.221.009,2.773a1.222,1.222,0,0,1-1.257,1.343,1.256,1.256,0,0,1-1.175-1.348V37.031l.013-2.328a6.429,6.429,0,0,1,6.154-6.5,6.21,6.21,0,0,1,6.527,6.016Z" transform="translate(-4.023 -2.839)" fill="#fd5693"/>
      <path id="Trazado_1391206" data-name="Trazado 1391206" d="M39.319,37.978l.322.14.04,3.02c.407,1.068,1.578.926,1.747-.245l-.008-2.614.322-.23c.013-.126.055-.318.145-.324,2.021-.117,4.4-.112,6.436-.058.66-.122,1.088-.018,1.284.309l.323.141.013,2.834a.887.887,0,0,0,1.748.232l.355-.053.045-3.143a1.056,1.056,0,0,1,1,.245V56.263c-.167.826-.313.985-1.134,1.166l-18.2-.018-.2-.322.01-8.1,0-10.106a.87.87,0,0,1,.9-.909Z" transform="translate(-3.378 -3.787)" fill="#05e29b"/>
      <path id="Trazado_1391207" data-name="Trazado 1391207" d="M47.09,45.985c.885.324,1.175,1.54,1.287,2.417a5.322,5.322,0,0,1-4.056,5.9,1.743,1.743,0,0,1-1.707-.243,4.984,4.984,0,0,1,4.476-8.079" transform="translate(-4.178 -4.626)" fill="#fefefe"/>
      <path id="Trazado_1391208" data-name="Trazado 1391208" d="M42.738,54.066a4.854,4.854,0,0,0,4.873-2.527,5.248,5.248,0,0,0-.4-5.552A4.989,4.989,0,0,1,48.639,55.5a4.91,4.91,0,0,1-5.9-1.438" transform="translate(-4.302 -4.629)" fill="#eeecee"/>
      <path id="Trazado_1391209" data-name="Trazado 1391209" d="M69.488,50.163l0,22.625a1.424,1.424,0,0,1-.633,1.36L46.944,87.455h-1.45l-6.127-3.816-.072-.333L61.816,69.573a1.352,1.352,0,0,0,.7-1.153L62.53,50.44l.323-.2q-.186-.046,0-.092l.11-.322,6.338.01Z" transform="translate(-3.955 -5.016)" fill="#fd5693"/>
      <path id="Trazado_1391210" data-name="Trazado 1391210" d="M32.327,50.262c.127.014.317.059.321.149.094,2.114.112,4.757-.008,6.863q.162.878-.323,1.087l.32.187-.009,4.212a.525.525,0,0,0,.383.426l22.878-.018.253-.217q.174-6.222.088-12.506l.323-.2,4.477.038-.015,18.184a1.672,1.672,0,0,1-.85,1.416L37.544,83.681,21.914,74.2a1.208,1.208,0,0,1-.629-1.029c-.134-7.521-.143-15.415.013-22.917Z" transform="translate(-2.132 -5.058)" fill="#fd76a7"/>
      <path id="Trazado_1391211" data-name="Trazado 1391211" d="M21.279,73.17a.174.174,0,0,1-.159-.193V50.28l.17-.026Z" transform="translate(-2.126 -5.059)" fill="#fd9a9c"/>
      <path id="Trazado_1391212" data-name="Trazado 1391212" d="M56,75.228l-20.126.022a1.221,1.221,0,0,1-1.236-1.182,1.208,1.208,0,0,1,1.224-1.234l19.944.005a1.178,1.178,0,0,1,1.13,1.1c.047.419-.226,1.292-.937,1.293" transform="translate(-3.486 -7.331)" fill="#fefefe"/>
    </g>
  </g>
</svg>
