<svg xmlns="http://www.w3.org/2000/svg" xmlns:xlink="http://www.w3.org/1999/xlink" width="82.294" height="79.377" viewBox="0 0 82.294 79.377">
  <defs>
    <clipPath id="clip-path">
      <rect id="Rectángulo_745005" data-name="Rectángulo 745005" width="82.294" height="79.377" fill="none"/>
    </clipPath>
  </defs>
  <g id="Grupo_1224221" data-name="Grupo 1224221" transform="translate(0 0)">
    <g id="Grupo_1224220" data-name="Grupo 1224220" transform="translate(0 0)" clip-path="url(#clip-path)">
      <path id="Trazado_1391169" data-name="Trazado 1391169" d="M.281,65.272l7.733-.024a2.72,2.72,0,0,1,2.9,2.3l2.213,12.683c.08.459.306.946.829.947l4.989.005a.843.843,0,0,0,.822-1.017L8.786,17.779l-.4.006Q4.1,41.349,0,65.02Z" transform="translate(62.508 -1.826)" fill="#05e29b"/>
      <path id="Trazado_1391170" data-name="Trazado 1391170" d="M12.26,63.507l5.51.011,8.219-46.71a1.359,1.359,0,0,1,.285-.782L23.684,1.263c-.057-.327-.275-.4-.4-.552Z" transform="translate(45.019 -0.073)" fill="#0ed18f"/>
      <path id="Trazado_1391171" data-name="Trazado 1391171" d="M53.552,70.71l2.668,15.1a.83.83,0,0,0,.868.783l4.938.023a.807.807,0,0,0,.817-.97l-.44-2.442-.175-.323a17.42,17.42,0,0,1-2.464-.084l-.206-.18L57.418,70.83l-.351-.135Z" transform="translate(-28.613 -7.263)" fill="#0ed18f"/>
      <path id="Trazado_1391172" data-name="Trazado 1391172" d="M54.058,70.695l2.127,11.834a.851.851,0,0,0,.913.66l2.3.017L57.253,70.7Z" transform="translate(-25.604 -7.263)" fill="#05e29b"/>
      <path id="Trazado_1391173" data-name="Trazado 1391173" d="M66.21,77.587v1.445l.661.294,4.8.05a1.026,1.026,0,0,0,1.151-.977l2.325-13.078a2.465,2.465,0,0,1,2.41-1.873l.341-.086.7-4.223q-.711-.108-1.455-.189l-.168-.334a2.435,2.435,0,0,1-2.057-2.842L83.569,6.739a2.388,2.388,0,0,1,1.981-1.9l.168-.333a11.371,11.371,0,0,1,2.365-.116.423.423,0,0,0,.308-.179A37,37,0,0,0,89.1.285L88.821,0,81.806.024a2.5,2.5,0,0,0-2.221,2.235l-.469,2.718c-.159.918-.318,1.685-.483,2.628L74.424,31.63c-.084.481-.14.81-.215,1.241l-.441,2.511L69.215,61.16l-.56,3.166Z" transform="translate(-66.21 0)" fill="#ae66d9"/>
      <path id="Trazado_1391174" data-name="Trazado 1391174" d="M27.082,0,26.3,4.337l-1.926-.014a.523.523,0,0,0-.4.184l.186.317q20.16-.124,40.4-.054a2.471,2.471,0,0,1,2.278,2.818L58.192,56.673A2.432,2.432,0,0,1,55.8,58.679l-40.17-.043-.22.315c.256.248.66.182,1.176.109l-.763,4.389,13.589,0,.143.32,3.147-.013.225-.322.184.321a13.547,13.547,0,0,0,2.905-.1.457.457,0,0,0,.107-.214l16.489.081c1.431.007,2.217,1.581,2,2.833L52.534,78.1c-.1.548.1,1.241.779,1.243l4.984.013a.937.937,0,0,0,.809-.811L61.75,63.434l.344-.1L72.921,1.668a1.586,1.586,0,0,0-.145-1.03A1.223,1.223,0,0,0,71.746,0Z" transform="translate(-4.471 0)" fill="#bc7fe0"/>
      <path id="Trazado_1391175" data-name="Trazado 1391175" d="M32.97,5.015a2.694,2.694,0,0,0-2.483,2.27L21.856,56.233A2.765,2.765,0,0,0,24.4,59.459l1.63.051h38.66A2.789,2.789,0,0,0,67.5,57.242L76.14,8.249a2.811,2.811,0,0,0-2.775-3.3l-37.7,0Z" transform="translate(-13.463 -0.508)" fill="#ca96e6"/>
      <path id="Trazado_1391176" data-name="Trazado 1391176" d="M46.971,51.252l-1.76,10.043a.462.462,0,0,0,.49.545l29.465-.006.34-.092q.331-2.042.66-4.083l-.279-.284.029-.048c-.012-.126-.048-.316-.137-.324-.52-.051-4.429-.176-4.648-.1-.123.044-.188.191-.24.317a1.716,1.716,0,0,0-.774.536c-6.389.193-13.026.12-19.428.039a.949.949,0,0,1-.15-1.636l.107-.339.729-.165a22.565,22.565,0,0,0,.784-4.578.476.476,0,0,0-.2-.148q-2.417-.032-4.837.048Z" transform="translate(-34.433 -5.231)" fill="#fed05b"/>
      <path id="Trazado_1391177" data-name="Trazado 1391177" d="M48.9,50.861l-4.874-.022-.08.4A1.477,1.477,0,0,1,45.054,51l3.79-.016-.793,4.6-.433.229.112.321q9.7-.089,19.355.021l.779,1.058,5.026.1.349-.13q.515-3.007,1.033-6.016l-.276-.286Z" transform="translate(-31.405 -5.223)" fill="#fee077"/>
      <path id="Trazado_1391178" data-name="Trazado 1391178" d="M33.158,50.882l-1.105,6.432-.029.048.151.32,10.625-.1.189-.323,1.14-6.442Z" transform="translate(9.431 -5.221)" fill="#fd5693"/>
      <path id="Trazado_1391179" data-name="Trazado 1391179" d="M34.016,58.1l-.721,4.46,10.86-.017L44.982,58Z" transform="translate(7.438 -5.959)" fill="#fc3581"/>
      <path id="Trazado_1391180" data-name="Trazado 1391180" d="M51.885,56.375c-.633,0-.9.965-.811,1.359a1.214,1.214,0,0,0,1.194,1l18.7-.006a1.2,1.2,0,0,0,1.16-.951A1.185,1.185,0,0,0,71,56.322Z" transform="translate(-35.672 -5.786)" fill="#fefefe"/>
      <path id="Trazado_1391181" data-name="Trazado 1391181" d="M64.712,46.4l.048.153q2.425-.082,4.826-.131L76.324,7.638,71.538,7.7Z" transform="translate(-52.094 -0.785)" fill="#eeecee"/>
      <path id="Trazado_1391182" data-name="Trazado 1391182" d="M24.475,7.647l8.019,9.508L34.12,7.68Z" transform="translate(26.213 -0.785)" fill="#00f1a5"/>
      <path id="Trazado_1391183" data-name="Trazado 1391183" d="M33.309,7.638l-.343.1L26.288,46.172l.283.251.11.321,24.79.022.2-.321.149.32,10.632-.06.19-.322,5.147-29.229-.175-.707L60.381,7.877l-.615-.231Z" transform="translate(-9.079 -0.785)" fill="#fefefe"/>
      <path id="Trazado_1391184" data-name="Trazado 1391184" d="M37.956,29.252c.45,1.476,2.555,1.632,3.882,1.433.672-.1,1.982-.38,1.99-1.17q.48.242,1.083-.511c1.981,2.653,5.422,2.007,7.662.054a4.355,4.355,0,0,0,6.694.308,6.421,6.421,0,0,0,2.074-3.213,3.542,3.542,0,0,0-.416-3l-.291-.232a10.118,10.118,0,0,1-13.506-.568l-.563-.128-.39-.057c-1.6.9-3.687-.834-1.372-1.588l.152-.325.138-.511q-1.17-4.02-1.169-4.021l-.37.138a13.149,13.149,0,0,0-4.445,6.666c-2.195,1.714-2.878,4.825-1.153,6.73" transform="translate(-12.377 -1.615)" fill="#fed05b"/>
      <path id="Trazado_1391185" data-name="Trazado 1391185" d="M61.061,37.2l.061-.362q-5.081-.209-10.205-.125a1.152,1.152,0,0,1-1.14-.92l-.661-4.541-.351-.186c-1.226,1.059-4.289,1.485-5.872-.263l1.338,9.211a1.54,1.54,0,0,0,1.537,1.351H57.631a2.292,2.292,0,0,0,2.022-1.326Z" transform="translate(-17.314 -3.164)" fill="#fc3581"/>
      <path id="Trazado_1391186" data-name="Trazado 1391186" d="M39.458,30.975l.651,4.563a1.524,1.524,0,0,0,1.493,1.4l9.775.013a.453.453,0,0,1,.378.153L54.9,30.826c-2.335,1.558-5.22,1.61-6.7-.9A5.511,5.511,0,0,1,43.776,31.9a3.7,3.7,0,0,1-3.14-1.941Z" transform="translate(-8.007 -3.074)" fill="#fd5693"/>
      <path id="Trazado_1391187" data-name="Trazado 1391187" d="M54.814,20.768a1.3,1.3,0,0,0-1.472,1.2c.009.832.652,1.275,1.51,1.239.576-.024,1.214.011,1.572-.468a1.29,1.29,0,0,0,.115-1.316,1.234,1.234,0,0,0-1.062-.642Z" transform="translate(-22.236 -2.133)" fill="#fd5693"/>
      <path id="Trazado_1391188" data-name="Trazado 1391188" d="M37.61,15.53c.087.03.234.118.246.255a13.745,13.745,0,0,0,1.156,4.138l.12.324a1.414,1.414,0,0,1,1.227.336,5.545,5.545,0,0,1,.264,1.311,10.266,10.266,0,0,0,13.462,1.485,3.294,3.294,0,0,1,.9-.556,2.383,2.383,0,0,1-.393-1.611A8.613,8.613,0,0,0,46.4,12.566,12.607,12.607,0,0,0,37.61,15.53" transform="translate(-6.434 -1.288)" fill="#fee077"/>
      <path id="Trazado_1391189" data-name="Trazado 1391189" d="M43.293,20.865a1.161,1.161,0,0,0-.733,1.5c.248.731.95.852,1.684.845.693-.007,1.3-.185,1.528-.846a1.164,1.164,0,0,0-.79-1.521,3.636,3.636,0,0,0-1.689.021" transform="translate(-1.672 -2.132)" fill="#fd5693"/>
      <path id="Trazado_1391190" data-name="Trazado 1391190" d="M48.181,16.869a1.156,1.156,0,0,0-.926,1.454c.173.705.864.939,1.605.931s1.375-.1,1.644-.891a1.2,1.2,0,0,0-.749-1.466,3.612,3.612,0,0,0-1.574-.028" transform="translate(-10.626 -1.725)" fill="#fd5693"/>
    </g>
  </g>
</svg>
