<svg xmlns="http://www.w3.org/2000/svg" xmlns:xlink="http://www.w3.org/1999/xlink" width="91.68" height="80.947" viewBox="0 0 91.68 80.947">
  <defs>
    <clipPath id="clip-path">
      <rect id="Rectángulo_745008" data-name="Rectángulo 745008" width="91.68" height="80.947" transform="translate(0 0)" fill="none"/>
    </clipPath>
  </defs>
  <g id="Grupo_1224225" data-name="Grupo 1224225" transform="translate(0 0)">
    <g id="Grupo_1224224" data-name="Grupo 1224224" clip-path="url(#clip-path)">
      <path id="Trazado_1391213" data-name="Trazado 1391213" d="M4.113,78.12a4.048,4.048,0,0,1,2.878,0c.017-.14.061-.348.162-.358a37.166,37.166,0,0,1,4.581.007l.261.359.168-.357,9.465.064.213.36c.016-.141.062-.351.162-.358a30.481,30.481,0,0,1,4.59.123.5.5,0,0,1,.12.239q.213-.578,1.42-.371.974-.2,1.258.347l.125-.358,32.575.022.219.358.709-.358h9.459l.213.358.706-.358,8.22,0,.213.358L82,77.839l9.461,0,.215.358.008,1.285c.006,1-.665,1.463-1.663,1.463L.989,80.94,0,80.214V78.96a1.793,1.793,0,0,1,1.476-.841Z" fill="#fd92ba"/>
      <path id="Trazado_1391214" data-name="Trazado 1391214" d="M91.673,10.026V78.2l-9.843,0-.357-.2a20.35,20.35,0,0,1,.007-2.552.594.594,0,0,1,.359-.246l.151-.36,2.4-.027a1.341,1.341,0,0,0,1.248-1.356l.007-63.322.217-.184q2.942-.073,5.807.076" fill="#ae66d9"/>
      <path id="Trazado_1391215" data-name="Trazado 1391215" d="M91.68,9.848l-.007.178L86,10.037l0,63.335a1.713,1.713,0,0,1-1.676,1.8l-2.486.027c-.138,0-.35-.032-.358-.121a42.61,42.61,0,0,1,.006-5.234l.359-.773-.358-.167,0-9.139a2.084,2.084,0,0,1,.359-1.009c-.52.068-.439-2.428-.357-2.539a.6.6,0,0,1,.358-.247l-.358-.166q0-13.869,0-13.869l.359-.216c-.162-.03-.168-.091-.025-.18l-.358-.125V10.246l.358-.22c-.155-.043-.148-.093.009-.152L82,9.515l9.465-.025Z" fill="#bc80e0"/>
      <path id="Trazado_1391216" data-name="Trazado 1391216" d="M21.851,9.843c.154.059.149.12-.007.184l-.208.359-3.831.006-.042,25.529-.358.221-5.42-.072L12,9.89l.164-.358,9.474-.046Z" fill="#bc80e0"/>
      <path id="Trazado_1391217" data-name="Trazado 1391217" d="M21.844,10.027l.358.123v19l-.358.217,0,6.77-4.437.008.02-26.107Z" fill="#ae66d9"/>
      <path id="Trazado_1391218" data-name="Trazado 1391218" d="M91.68,9.848l-9.846.026c-16.249.115-33.32.148-49.588-.034-.09-.109-.21-.284-.148-.364a40.006,40.006,0,0,1,2.976-3.122l.726-.245c.042-.16.1-.162.189-.014l.75-.358,30.978,0L68.2,6.1q.213-.477.963-.15L86.621,5.9a.992.992,0,0,0-.359-1.931l-.3-.374c-.138-.02-.339-.06-.356-.165A30.971,30.971,0,0,1,85.652.261l.361-.252,4.2.052c.576.007,1.42.6,1.423,1.205Z" fill="#fed05b"/>
      <path id="Trazado_1391219" data-name="Trazado 1391219" d="M86.013.009,85.966,3.6l-.124.358-16.93.035c-.94.249-1.076,1.005-.533,1.752L68.2,6.1l-32.214,0-.171-.337,4.071-4.172a2.546,2.546,0,0,1,1.67-1.2Q41.433.09,41.9,0Z" fill="#fee077"/>
      <path id="Trazado_1391220" data-name="Trazado 1391220" d="M31.513,0c.155.054.151.113-.005.176.122.087.245.26.173.336-1.712,1.816-3.5,3.609-5.277,5.358l-.652.218c-.056.347-.2.346-.313.009l-.717.359-12.5.017L12,6.117l.046-4.685a1.854,1.854,0,0,1,1.4-1.4Z" fill="#fee077"/>
      <path id="Trazado_1391221" data-name="Trazado 1391221" d="M25.44,6.1c.09.109.209.287.146.365a26.449,26.449,0,0,1-2.755,2.875,1.758,1.758,0,0,1-.979.5L12,9.891l.008-3.774Z" fill="#fed05b"/>
      <path id="Trazado_1391222" data-name="Trazado 1391222" d="M41.9,0c-.058.178-.222.269-.338.387-3.2.2-6.6.271-9.836.148L31.508.177,31.513,0Z" fill="#ca94c9"/>
      <path id="Trazado_1391223" data-name="Trazado 1391223" d="M81.834,9.874l-.009.152H32.049c-.156-.051-.154-.11,0-.178.049-.159.115-.16.2-.009Z" fill="#feedba"/>
      <path id="Trazado_1391224" data-name="Trazado 1391224" d="M41.559.387l-5.57,5.708L35.8,6.11l-.715.356-9.119-.018-.214-.358L31.509.177h9.837a.211.211,0,0,1,.213.209" fill="#bc80e0"/>
      <path id="Trazado_1391225" data-name="Trazado 1391225" d="M85.966,3.6a1.509,1.509,0,0,1,1.66,1.1,1.317,1.317,0,0,1-1.16,1.578L69.12,6.3,68.2,6.1a1.624,1.624,0,0,1-.417-1.619,1.371,1.371,0,0,1,1.351-.863Z" fill="#fefefe"/>
      <path id="Trazado_1391226" data-name="Trazado 1391226" d="M25.752,6.09,35.8,6.11,32.245,9.84l-.2.009c-3.272.151-6.891.154-10.2-.006L25.439,6.1Z" fill="#ae66d9"/>
      <rect id="Rectángulo_745007" data-name="Rectángulo 745007" width="10.203" height="0.182" transform="translate(21.847 9.846)" fill="#e2c1c9"/>
      <path id="Trazado_1391227" data-name="Trazado 1391227" d="M29.479,52.438l.359.2q.01,1.483.019,2.968l-.357.256c.15.069.141.13-.02.184l.358.168q-.024,5.988-.047,11.98l-.359.215c-.017.138-.051.337-.155.359a9.072,9.072,0,0,1-1.626.01q-.757.159-.945-.352c-.017.14-.058.345-.161.358a31.02,31.02,0,0,1-4.438.009l-.262-.358c-.038.14-.1.346-.208.358a21.423,21.423,0,0,1-3.1,0q-.875.177-1.115-.357c-.018.139-.057.339-.162.357a34.022,34.022,0,0,1-4.994-.02l-.258-.359A31.31,31.31,0,0,1,6.983,68.4c.059.529-2.449.426-2.61.353a.6.6,0,0,1-.254-.359V62.742l17.009-.134.373-.235c4.149,1.077,5.781-5.019,2.135-6.771l-.131-.437a.786.786,0,0,1-.263-.557l.031-11.53c.76.117,1.244.163,1.543-.106l.05-.238c1.778-1.17.359-2.378-1.306-2.052l-.235-.361-.08-4.192c.016-.14.061-.352.159-.359a38.614,38.614,0,0,1,5.65.111,1.248,1.248,0,0,1,.754,1.14l.029,15.2Z" fill="#fc3581"/>
      <path id="Trazado_1391228" data-name="Trazado 1391228" d="M6.983,68.4c.158.038.153.1,0,.17l.358.164q0,4.584.008,9.17l-.358.213-2.878,0L4.119,68.4Z" fill="#fd76a7"/>
      <path id="Trazado_1391229" data-name="Trazado 1391229" d="M21.845,68.436c.141.037.351.1.358.209a41.48,41.48,0,0,1,0,5.6q.157.765-.358.958l.358.2q0,1.275,0,2.552l-.359.246L12,78.131c-.139-.018-.342-.055-.358-.156a21.712,21.712,0,0,1,0-2.516.593.593,0,0,1,.359-.25l.2-.36L15.95,74.8a1.365,1.365,0,0,0,1.108-1.311l0-4.789.359-.26Z" fill="#ae66d9"/>
      <path id="Trazado_1391230" data-name="Trazado 1391230" d="M29.432,68.409l.239.014q.2,3.212.107,6.564l-.358.209-.029,2.982-2.677.023-.357-.2a18.346,18.346,0,0,1,.018-2.555.586.586,0,0,1,.359-.245l-.358-.208q-.013-3.15-.027-6.3l.357-.264Z" fill="#fd76a7"/>
      <path id="Trazado_1391231" data-name="Trazado 1391231" d="M26.734,75.2l-.021,3-4.872,0,0-3c.038-.139.093-.343.2-.358a31.216,31.216,0,0,1,4.432,0Z" fill="#fed05b"/>
      <path id="Trazado_1391232" data-name="Trazado 1391232" d="M17.418,68.44v4.981a1.723,1.723,0,0,1-1.672,1.755L12,75.209V68.576c-.156-.044-.149-.1.009-.158Z" fill="#bc7fe0"/>
      <path id="Trazado_1391233" data-name="Trazado 1391233" d="M26.706,68.427l.029,6.773H21.844V68.436Z" fill="#fee077"/>
      <path id="Trazado_1391234" data-name="Trazado 1391234" d="M12.005,68.418,12,68.576H6.983V68.4Z" fill="#feaac9"/>
      <path id="Trazado_1391235" data-name="Trazado 1391235" d="M23.5,55.164a4.066,4.066,0,0,1,2.072,5.671,3.427,3.427,0,0,1-4.449,1.772,4.1,4.1,0,0,1-1.848-5.548A3.423,3.423,0,0,1,23.5,55.164" fill="#fefefe"/>
      <path id="Trazado_1391236" data-name="Trazado 1391236" d="M23.331,58.814c.047.772-.384,1.5-1.1,1.328-.513-.12-.674-.75-.689-1.161a1.224,1.224,0,0,1,.718-1.265c.609-.17,1.033.425,1.074,1.1" fill="#fd5995"/>
      <path id="Trazado_1391237" data-name="Trazado 1391237" d="M11.985,36.07c.018-.14.065-.348.165-.356a37.854,37.854,0,0,1,5,.067l.255.361c.038-.139.092-.337.208-.358a30.167,30.167,0,0,1,3.967-.008l.261.357c.063-.547,1.291-.527,1.4,0,.14.014.349.052.361.151a36.662,36.662,0,0,1,.073,3.78.587.587,0,0,1-.354.261l-.165.359-14.388.029c-1.167.331-1.14,1.679.123,1.953l15.7-.047.217.358q.075.762-1.14.523l-.015,11.3-.156.367-.352.265c-3.94-.765-5.414,4.861-2.123,6.728l.1.45-.12.359L4.339,63.1l-.22-.357V37.088a1.043,1.043,0,0,1,1.155-1.049Z" fill="#fd5693"/>
      <path id="Trazado_1391238" data-name="Trazado 1391238" d="M23.325,40.321l1.377.016a1.314,1.314,0,0,1,1.316,1.287,1.246,1.246,0,0,1-1.2,1.348l-15.854.049a1.339,1.339,0,0,1-1.382-1.386,1.311,1.311,0,0,1,1.236-1.284Z" fill="#fefefe"/>
      <path id="Trazado_1391239" data-name="Trazado 1391239" d="M15.5,61.221a1.338,1.338,0,0,1-2.5-.964l5.057-12.093a1.354,1.354,0,0,1,1.7-.837,1.316,1.316,0,0,1,.837,1.722Z" fill="#fefefe"/>
      <path id="Trazado_1391240" data-name="Trazado 1391240" d="M13.814,53.278a3.321,3.321,0,0,1-4.981.363,4.187,4.187,0,0,1-.2-5.787,3.329,3.329,0,0,1,4.819-.24,4.164,4.164,0,0,1,.365,5.664" fill="#fefefe"/>
      <path id="Trazado_1391241" data-name="Trazado 1391241" d="M12.046,50.41c.1.778-.31,1.614-1.054,1.452-.513-.112-.71-.746-.726-1.119a1.3,1.3,0,0,1,.547-1.253c.6-.293,1.139.2,1.233.92" fill="#fd5996"/>
      <path id="Trazado_1391242" data-name="Trazado 1391242" d="M37.8,47.274c.139.017.349.06.357.156.163,1.826.353,4.324-1.5,5.206a63.043,63.043,0,0,1-6.916.157l-.267-.355L29.45,37a.94.94,0,0,0-.968-.888l-5.237.018-1.4,0c-.141-.038-.352-.1-.358-.21a40.684,40.684,0,0,1,0-5.695q-.144-.7.358-.865l.165-.358,13.259.016a1.76,1.76,0,0,1,1.561.825q.045,8.523.09,17.051.732-.132.881.376" fill="#05e29b"/>
      <path id="Trazado_1391243" data-name="Trazado 1391243" d="M41.616,48.173l.013,7.584-.063.127L29.5,55.863l-.022-3.425,6.616-.073A1.783,1.783,0,0,0,37.782,50.5l.018-3.228c.037-.139.094-.347.2-.359.881-.094,3.467-.25,3.824.643.127.318.165.424-.208.615" fill="#0ed18f"/>
      <path id="Trazado_1391244" data-name="Trazado 1391244" d="M81.85,41.719l0,14.251-7.73-.06V52.4l.155-.359a4.916,4.916,0,0,0,3.212-.483l.286-.483q.138-4.551.1-9.14l.359-.212a15.338,15.338,0,0,1,3.615,0" fill="#0ed18f"/>
      <path id="Trazado_1391245" data-name="Trazado 1391245" d="M81.825,41.539l.024.181H78.235c-.153-.059-.148-.117.01-.176Z" fill="#0bd994"/>
      <path id="Trazado_1391246" data-name="Trazado 1391246" d="M78.245,41.543l-.01.176L78.2,50.654a1.773,1.773,0,0,1-1.775,1.731l-2.305.011.037-10.267c.188-.41.984-.58,1.373-.581Z" fill="#05e29b"/>
      <path id="Trazado_1391247" data-name="Trazado 1391247" d="M64.221,46.569q-.021,4.716-.125,9.387L49.239,55.9V52.461L49.4,52.1h9.321a1.461,1.461,0,0,0,1.4-1.281l.032-8.889.358-.212c1.655.1,3.689,2.736,3.707,4.848" fill="#fd5693"/>
      <path id="Trazado_1391248" data-name="Trazado 1391248" d="M64.285,55.857a.17.17,0,0,0-.188.1l0-9.21c0-.131.111-.2.123-.176Z" fill="#fea4c4"/>
      <path id="Trazado_1391249" data-name="Trazado 1391249" d="M60.515,41.721l-.023,8.934a1.837,1.837,0,0,1-1.939,1.813l-9.315-.007V45.845a5.4,5.4,0,0,1,2.679-3.782c.325-.183.72-.229.947-.593l.52-.082a6.533,6.533,0,0,0,6.8-.01Z" fill="#fd76a7"/>
      <path id="Trazado_1391250" data-name="Trazado 1391250" d="M60.515,41.721a1.656,1.656,0,0,0-.969.293,6.412,6.412,0,0,1-6.682-.544,5.543,5.543,0,0,1-1.676-2.041l.5-.181a6.085,6.085,0,0,0,6.5-1.381c1.977-2.039,1.834-4.007,1.294-6.562a.548.548,0,0,1,.129-.5A6.373,6.373,0,0,1,62.8,38.082c-.877,2.741-2.279,2.922-2.281,3.639" fill="#feaf9d"/>
      <path id="Trazado_1391251" data-name="Trazado 1391251" d="M57.3,30.2a6.9,6.9,0,0,1,1.911.44c.629.728.162,2.026-.214,2.857-1.246,2.76-5.144,4.918-8.042,3.587-.259-.119-.425-.208-.466-.55a1.206,1.206,0,0,1-.047-.915,6.007,6.007,0,0,1,3.916-5.068l1.511-.438Z" fill="#7a6d79"/>
      <path id="Trazado_1391252" data-name="Trazado 1391252" d="M59.608,30.811a6.526,6.526,0,0,1-1.167,7.307,6.452,6.452,0,0,1-7.253,1.312c-.125-.261-.377-.458-.455-.826l-.435-2.07c.055-.157.119-.154.192,0a6.278,6.278,0,0,0,6.147-.691,6.2,6.2,0,0,0,2.574-5.2Z" fill="#fecdbe"/>
      <path id="Trazado_1391253" data-name="Trazado 1391253" d="M57.3,30.2a2.168,2.168,0,0,1-1.431-.087A3.562,3.562,0,0,1,57.3,30.2" fill="#9e888c"/>
      <path id="Trazado_1391254" data-name="Trazado 1391254" d="M50.49,36.533H50.3c-.075-.359.12-.619.145-.915Z" fill="#b29798"/>
      <path id="Trazado_1391255" data-name="Trazado 1391255" d="M65.176,75.2q.174.627-.778,1.332A4.82,4.82,0,0,1,62.31,78.2l-32.919-.022c-.138-.019-.342-.06-.356-.162a20.574,20.574,0,0,1,.024-2.568.6.6,0,0,1,.361-.251l.124-.358,35.412.005Z" fill="#fed05b"/>
      <path id="Trazado_1391256" data-name="Trazado 1391256" d="M75.514,75.212q.258.521-.558,1.112A5.36,5.36,0,0,1,72.691,78.2H62.31l2.866-3c.006-.367.143-.386.312-.054l.715-.354,9.1.059Z" fill="#0ed190"/>
      <path id="Trazado_1391257" data-name="Trazado 1391257" d="M81.839,75.2l-.009,3-9.138,0,2.822-2.987c-.071-.34.066-.355.2-.023l.774-.356,5.086.008Z" fill="#fed05b"/>
      <path id="Trazado_1391258" data-name="Trazado 1391258" d="M81.846,69.071l-.3.81-5.014,5.005-.81.3-.2.023-10.027-.064L81.85,58.756Z" fill="#05e29b"/>
      <path id="Trazado_1391259" data-name="Trazado 1391259" d="M81.839,75.2l-6.122-.011,6.129-6.117Z" fill="#fee077"/>
      <path id="Trazado_1391260" data-name="Trazado 1391260" d="M49.24,55.9l.125-.358,14.516.05.216.359c.006-.162.05-.2.188-.1.016-.142.068-.354.168-.358,3.013-.1,6.442-.076,9.457.052l.212.359c0-.139.037-.353.124-.357,2.07-.092,4.662-.066,6.73.052q.735-.15.876.365l0,2.785-.27.777L66.265,74.877l-.776.271a.7.7,0,0,0-.313.054L29.42,75.2l.012-6.786.049-12.364q5.64-.161,11.419-.087a3,3,0,0,1,.818-.078c0-.139.035-.353.121-.358a58.889,58.889,0,0,1,6.331.02q.884-.169,1.07.362" fill="#fee077"/>
      <path id="Trazado_1391261" data-name="Trazado 1391261" d="M41.717,55.881a5.315,5.315,0,0,1-.893.176l-11.344-.01.02-.184,12.038,0,.077-7.692.36.116s.032,2.459.1,7.377Z" fill="#41dfab"/>
      <path id="Trazado_1391262" data-name="Trazado 1391262" d="M56.479,66.846l-19.045.011a1.347,1.347,0,0,1-1.465-1.237,1.319,1.319,0,0,1,1.321-1.45l19.239.005a1.336,1.336,0,0,1-.05,2.671" fill="#fefefe"/>
      <path id="Trazado_1391263" data-name="Trazado 1391263" d="M48.942,72.65l-11.684.015a1.335,1.335,0,0,1-1.293-1.321,1.3,1.3,0,0,1,1.277-1.351l11.636-.006a1.332,1.332,0,0,1,.064,2.663" fill="#fefefe"/>
    </g>
  </g>
</svg>
