<svg id="_2222" data-name="2222" xmlns="http://www.w3.org/2000/svg" width="95.424" height="85.723" viewBox="0 0 95.424 85.723">
  <g id="Grupo_1203562" data-name="Grupo 1203562">
    <g id="Grupo_1203548" data-name="Grupo 1203548" transform="translate(0 80.068)">
      <path id="Trazado_1255248" data-name="Trazado 1255248" d="M2.982,322.06c.234-.4.774-.528,1.616-.373q1.034-.2,1.344.371a.447.447,0,0,1,.164-.373,23.688,23.688,0,0,1,3,0l.264.373c-.067-.558.988-.52,1.071.01a.656.656,0,0,1-.354.737l0,3.712c.279.251.334.5.167.757H.747A1.3,1.3,0,0,1,0,326.9v-4.471a1.216,1.216,0,0,1,.739-.371H2.98Z" transform="translate(0 -321.621)" fill="#ee4424"/>
      <path id="Trazado_1255249" data-name="Trazado 1255249" d="M42.618,322.063c-.167-.56,2.392-.436,2.519-.378a.612.612,0,0,1,.256.373c.04-.144.1-.358.217-.373a19.558,19.558,0,0,1,2.646,0q1.1-.2,1.459.373.228-.6,1.484-.373c.677-.132,1.115-.01,1.31.371l.129-.373H66.766l.227.373c-.159-.563,2.41-.431,2.539-.371a.616.616,0,0,1,.259.373c.017-.144.06-.361.164-.373.351-.042,3.48-.08,3.647,0a.612.612,0,0,1,.264.373c.06-.159.122-.154.187.01l.209-.373h3.314l.261.373c-.045-.533,2.233-.468,2.475-.376l.264.373.212-.373q1.609,0,3.224,0l.266.373a.458.458,0,0,1,.162-.373c.119-.07,2.669-.167,2.636.371l.174-.373h13.976l.224.373c.052-.162.115-.159.187,0-.047-.533,2.223-.463,2.46-.373l.261.373.129-.373h14.118l.227.373c.229-.4.764-.525,1.6-.373q1.031-.2,1.332.373l1.89-.008c.256,0,1.013.115,1.021.443l.067,3.846a.888.888,0,0,1-.978.936H39.593c-.139-.2-.535-.446-.538-.772l0-3.682c0-.393.5-.6.722-.754-.149-.56,2.442-.436,2.582-.373a.609.609,0,0,1,.261.373Z" transform="translate(-29.328 -321.617)" fill="#fc5426"/>
    </g>
    <g id="Grupo_1203555" data-name="Grupo 1203555" transform="translate(0.002)">
      <g id="Grupo_1203550" data-name="Grupo 1203550" transform="translate(0 8.662)">
        <path id="Trazado_1255250" data-name="Trazado 1255250" d="M5.41,35.273c.017-.144.062-.363.167-.373a37.733,37.733,0,0,1,5.355-.015l.271.371c.022-.558.836-.5.929.015l-.162.423a2.621,2.621,0,0,0-1.877,2.226l-.017,14.1a.765.765,0,0,1-.209.864l-.055.137-3.876.022c-.047.147-.1.261-.157.266a23.472,23.472,0,0,1-2.684.035c-.075-.027-.117-.147-.149-.291A11.085,11.085,0,0,1,.391,53c-.209.383-.286.122-.381-.219V37.128c.461-.754,1.051-1.79,2.089-1.8l3.314-.05Z" transform="translate(-0.01 -34.794)" fill="#b4acce"/>
        <g id="Grupo_1203549" data-name="Grupo 1203549" transform="translate(9.679 0.033)">
          <path id="Trazado_1255251" data-name="Trazado 1255251" d="M49.324,35.311l.284.321a9.03,9.03,0,0,0-.866,3.214l.3.334q3.626.168,7.289.082l.635.371.129-.373q21.984.09,43.886-.124a20.836,20.836,0,0,0,1.394-3.585l.441-.132.349-.373L118.991,35l.229.371,2.828.007a2.614,2.614,0,0,1,2.539,2.427l.045,14.507a.912.912,0,0,1-.939.946l-2.051-.01-.212.371a20.79,20.79,0,0,1-2.47-.01.616.616,0,0,1-.259-.373c0,.144-.037.371-.129.373-4.145.117-8.873.182-13.008,0q-1.023.183-1.3-.373c-.017.144-.055.356-.157.373a16,16,0,0,1-2.343,0,.631.631,0,0,1-.256-.371c0,.144-.035.368-.124.373a61.442,61.442,0,0,1-6.772,0q-.922.179-1.115-.373c-.04.147-.1.361-.219.373a39.543,39.543,0,0,1-6.047,0l-.274-.373c-.02.144-.057.356-.162.373a16.764,16.764,0,0,1-2.378,0,.618.618,0,0,1-.256-.373l-.129.373H69.9l-.227-.373c-.017.144-.057.356-.162.373a16.425,16.425,0,0,1-2.378,0,.632.632,0,0,1-.259-.373l-.129.373H52.622l-.227-.371c-.017.144-.057.356-.162.373a16.391,16.391,0,0,1-2.375,0,.632.632,0,0,1-.259-.373l-.172.373H40.433l-.224-.373c.012.545-.61.538-.747.02a.678.678,0,0,1-.391-.274,2.967,2.967,0,0,1-.162-.846l-.02-13.6a3.053,3.053,0,0,1,2.447-3.167l.012-.249q3.805-.25,7.757-.184l.222.371Z" transform="translate(-38.89 -34.927)" fill="#cac3e4"/>
          <path id="Trazado_1255252" data-name="Trazado 1255252" d="M327.716,65.483l-8.442.025a1.386,1.386,0,0,1-1.374-1.359,1.411,1.411,0,0,1,1.541-1.439l8.024,0a1.4,1.4,0,0,1,1.461,1.275,1.322,1.322,0,0,1-1.212,1.494Z" transform="translate(-248.439 -55.793)" fill="#554e6f"/>
        </g>
      </g>
      <g id="Grupo_1203554" data-name="Grupo 1203554" transform="translate(5.395)">
        <g id="Grupo_1203551" data-name="Grupo 1203551" transform="translate(0 2.559)">
          <path id="Trazado_1255253" data-name="Trazado 1255253" d="M312.039,17l-16.409.052,2.333-6.552,12.552-.027a2.24,2.24,0,0,1,1.539,2.231Z" transform="translate(-227.429 -10.423)" fill="#554e6f"/>
          <path id="Trazado_1255254" data-name="Trazado 1255254" d="M54.832,10.282,52.594,16.8l-7.991.06-.929-.015c-.144-.04-.363-.1-.371-.217a27.658,27.658,0,0,1,.09-4.763,1.68,1.68,0,0,1,1.79-1.531l9.649-.055Z" transform="translate(-37.876 -10.28)" fill="#554e6f"/>
          <path id="Trazado_1255255" data-name="Trazado 1255255" d="M28.984,10.51a2.2,2.2,0,0,0-1.491,2.226l-.017,4.282-5.791.017,0-4.862a1.92,1.92,0,0,1,1.683-1.651l5.621-.012Z" transform="translate(-21.68 -10.453)" fill="#433f5c"/>
        </g>
        <g id="Grupo_1203553" data-name="Grupo 1203553" transform="translate(13.681)">
          <path id="Trazado_1255256" data-name="Trazado 1255256" d="M89.343.02c-.261.212-.583.406-.695.734L84.862,11.661a1.473,1.473,0,0,0,.443,1.753l-7.446.017a1.126,1.126,0,0,1-1.048-.533,1.164,1.164,0,0,1-.112-1l.971-2.808a.583.583,0,0,1-.232-.095C77.2,8.808,79,3.839,79.261,3.3c.055-.453.269-.695.645-.732l.5-1.546c.1-.311.393-.988.832-.991Z" transform="translate(-76.632 -0.015)" fill="#ee4424"/>
          <g id="Grupo_1203552" data-name="Grupo 1203552" transform="translate(7.753)">
            <path id="Trazado_1255257" data-name="Trazado 1255257" d="M156.874,2.634l.309.244q-1.087,3.058-2.176,6.114l-.466.194-1.18,3.416a1.094,1.094,0,0,1-1.09.789l-43.58.01c-1.071-.184-.971-.884-.836-1.748L111.691.6a1.2,1.2,0,0,1,1.041-.6l43.455,0a1.115,1.115,0,0,1,1.026.61,1.284,1.284,0,0,1-.022,1.1Z" transform="translate(-107.774)" fill="#fc5426"/>
            <path id="Trazado_1255258" data-name="Trazado 1255258" d="M154.642,24.071l-33.2.012a1.321,1.321,0,0,1-1.215-1.454A1.382,1.382,0,0,1,121.7,21.3h32.6a1.379,1.379,0,0,1,1.456,1.158C155.85,22.975,155.593,24.071,154.642,24.071Z" transform="translate(-117.123 -15.997)" fill="#fefefd"/>
          </g>
        </g>
      </g>
    </g>
    <g id="Grupo_1203561" data-name="Grupo 1203561" transform="translate(0.381 26.748)">
      <path id="Trazado_1255259" data-name="Trazado 1255259" d="M361.284,108.47v53.493h-2.933l-.373-.177V116.519l.373-.232-.373-.124q0-3.742-.007-7.484l.373-.219Z" transform="translate(-269.233 -108.206)" fill="#b4acce"/>
      <path id="Trazado_1255260" data-name="Trazado 1255260" d="M11.4,107.714l-.164.373-3.789,0q0,26.439.02,52.885l-.373.232H4.132v-53.51c-.926-.03-1.895.289-2.6-.127l9.475-.122c.159,0,.334-.01.391.274Z" transform="translate(-1.53 -107.44)" fill="#b4acce"/>
      <path id="Trazado_1255261" data-name="Trazado 1255261" d="M28.1,108.48l.747-.02.373.172v10.424l-.373.222a5.163,5.163,0,0,1-1,.164q-.205,4.78-.1,9.722.87-.007,1.083.446l.373.127.037,16.767-.371.227a2.253,2.253,0,0,1-.839,1.212l-.254.5a61.261,61.261,0,0,0-.159,7.628l-.371.274c.144.017.363.065.371.167.045.575.072,4.947-.02,5.188-.055.142-.227.209-.373.269H23.8l-.03-53.49,4.337.007Z" transform="translate(-18.233 -108.206)" fill="#98e5fb"/>
      <path id="Trazado_1255262" data-name="Trazado 1255262" d="M175.893,108.442l.373.177q0,26.544,0,53.1l-.373.232-3.7,0c-.147-.017-.363-.065-.373-.167a32.828,32.828,0,0,1,0-4.314q-.179-.926.371-1.183l-.373-.217.015-6.732c-.239-2.313-1.88-2.659-3.9-2.47l-.244-.368-.438-.134-1.658-4.934a6.117,6.117,0,0,0-3.911-3.8l-.269-.461-.373-.129V108.666l.373-.227H175.9Z" transform="translate(-121.329 -108.191)" fill="#c7eefd"/>
      <path id="Trazado_1255263" data-name="Trazado 1255263" d="M106.485,108.45l.373.129s0,9.406,0,28.219l-.373.229-.127.373-14.123.092L92,137.122l-.373-.129V108.679L92,108.45h14.484Z" transform="translate(-69.199 -108.198)" fill="#c7eefd"/>
      <path id="Trazado_1255264" data-name="Trazado 1255264" d="M53.523,108.46l.373.129q-.026,28.358-.027,28.356l-.373.227-.259.446a5.488,5.488,0,0,0-3.779,3.137q-1.031,3.073-2.3,6.04a25.548,25.548,0,0,0-2.664.2l-.336-.261-.04-17.121c.095-.588,1.145-.553,1.324-.035l.209-.376,3.861-.12q.12-4.7-.065-9.259-2.031-.049-4.1-.09a2.037,2.037,0,0,0-1.215-.453V108.462h9.391Z" transform="translate(-33.517 -108.206)" fill="#c7eefd"/>
      <path id="Trazado_1255265" data-name="Trazado 1255265" d="M152.67,108.45v28.734l.346.212c.112.1.194,2.751-.349,2.763l.376.515.022,3.261-.371.264.249,1.028c.214.667.122,1.088-.281,1.262l.373.172q0,4.668,0,9.336l-.373.222c.147.017.363.065.373.169a40.708,40.708,0,0,1,0,4.578q.172.825-.373.993h-2.8c-.147-.017-.363-.067-.373-.172a33.36,33.36,0,0,1,0-4.349c-.119-.62,0-1.018.373-1.19-.147-.015-.368-.067-.373-.172-.112-2.577-.139-5.768,0-8.333-.127-.677,0-1.1.373-1.257-.573-.07-.558-1.364-.015-1.491l-.371-.378a20.25,20.25,0,0,1,.01-2.4.63.63,0,0,1,.373-.259c-.51.137-.456-1.713-.376-1.872a.633.633,0,0,1,.371-.251c-.56.159-.436-2.412-.373-2.544a.636.636,0,0,1,.373-.259V108.45h2.8Z" transform="translate(-112.588 -108.199)" fill="#98e5fb"/>
      <path id="Trazado_1255266" data-name="Trazado 1255266" d="M223.511,108.455c.144,0,.368.035.373.124a64.511,64.511,0,0,1,0,6.9c.1.456-.025.727-.371.817l.373.177v45.248l-.373.232h-2.8l0-53.505,2.8,0Z" transform="translate(-166.152 -108.199)" fill="#b4acce"/>
      <path id="Trazado_1255267" data-name="Trazado 1255267" d="M291.539,108.427c.144,0,.368.035.373.124a65.173,65.173,0,0,1,.012,6.9c.1.456-.025.727-.371.817l-.022,16,.3.129.05,10.506-.371.227.373.127v18.445l-.373.224h-2.721q-.179-9.272-.112-18.714l-.3-.132V132.442l.291-.095q.09-8.062-.007-16.08c-.144,0-.366-.04-.371-.132a61.347,61.347,0,0,1,.1-6.6q-.164-.922.388-1.11l2.756-.007Z" transform="translate(-216.869 -108.176)" fill="#b4acce"/>
      <path id="Trazado_1255268" data-name="Trazado 1255268" d="M83.349,108.45v28.675q.583.258.351,1.369.179,1-.4,1.272.142,8.2.08,16.453c.134.012.251.037.3.11a50.5,50.5,0,0,1,.035,5.363l-.371.274h-2.8c-.147-.015-.366-.067-.371-.169-.035-.635-.164-5.36.055-5.529a.43.43,0,0,1,.306-.032l-.02-19.065.027-28.712h2.8Z" transform="translate(-60.547 -108.199)" fill="#98e5fb"/>
      <path id="Trazado_1255269" data-name="Trazado 1255269" d="M315.9,108.445l.007,7.827-.129.373-14.078.012-.227-.373-.012-7.845,14.439,0Z" transform="translate(-226.791 -108.191)" fill="#554e6f"/>
      <path id="Trazado_1255270" data-name="Trazado 1255270" d="M264.629,108.47l-.12,7.837-.127.373h-7.7l-.219-.371-.371-.132.147-7.5.376-.212h8.014Z" transform="translate(-192.716 -108.214)" fill="#554e6f"/>
      <path id="Trazado_1255271" data-name="Trazado 1255271" d="M238.47,108.46l-.154,7.842c0,.144-.035.366-.124.373a43.3,43.3,0,0,1-5.626,0c-.351.047-.523,0-.63-.373l0-7.845h6.54Z" transform="translate(-174.571 -108.206)" fill="#433f5c"/>
      <path id="Trazado_1255272" data-name="Trazado 1255272" d="M238.333,139.96h8.049q.116,8.163-.02,16.366a34.26,34.26,0,0,1-3.794.124l-.373.207q-.28,4.679-.1,9.425l.207.244a25.44,25.44,0,0,0,3.934.137l.162.254q.086,9.493-.075,18.906H231.95V139.967l6.381,0Z" transform="translate(-174.586 -131.864)" fill="#c7eefd"/>
      <path id="Trazado_1255273" data-name="Trazado 1255273" d="M315.832,139.9v45.676H301.36v-18.8l.207-.373,3.762-.035a.567.567,0,0,0,.393-.578l-.045-9.04-.2-.259a35.044,35.044,0,0,0-3.941-.124l-.154-.264.022-16.19,14.434-.015Z" transform="translate(-226.716 -131.819)" fill="#c7eefd"/>
      <g id="Grupo_1203556" data-name="Grupo 1203556" transform="translate(9.124 11.054)">
        <path id="Trazado_1255274" data-name="Trazado 1255274" d="M41.158,151.857a46.639,46.639,0,0,0,5.041.117.668.668,0,0,1,.767.645l-.052,9.448-4.441.087q-.657-.03-.578-.956l.087-8.626A4.118,4.118,0,0,0,40.4,152.4l-.237-.381a1.612,1.612,0,0,1,1-.164Z" transform="translate(-39.667 -151.843)" fill="#fc5426"/>
        <path id="Trazado_1255275" data-name="Trazado 1255275" d="M38.673,152.552l2.2.072-.1,8.721a3.008,3.008,0,0,0,.209,1.339l-1.324.035c-.373.01-1.17.1-1.446-.284l-.032-9.455a.476.476,0,0,1,.5-.431Z" transform="translate(-38.18 -152.373)" fill="#ee4424"/>
      </g>
      <g id="Grupo_1203557" data-name="Grupo 1203557" transform="translate(67.091 8.096)">
        <path id="Trazado_1255276" data-name="Trazado 1255276" d="M275.852,185.619h-.187V166.828H272.11a1,1,0,0,1-1.085-.971l0-8.738a.978.978,0,0,1,.983-1.048l3.645-.027.075-16.085c.03,0,.142.03.142.2l-.052,16.013v11.016l.04,18.435Z" transform="translate(-271.02 -139.958)" fill="#cac3e4"/>
        <path id="Trazado_1255277" data-name="Trazado 1255277" d="M301.2,166.822l-.05-10.732.092-16.13.047,16.085,3.68.025a.961.961,0,0,1,.976,1.036l-.007,8.756a.93.93,0,0,1-.931.949l-3.8.012Z" transform="translate(-293.649 -139.96)" fill="#cac3e4"/>
      </g>
      <g id="Grupo_1203560" data-name="Grupo 1203560" transform="translate(8.992 28.832)">
        <path id="Trazado_1255278" data-name="Trazado 1255278" d="M41.521,299.519c.144.017.354.055.373.164a35.718,35.718,0,0,1,.042,5.2l-.371.274H38.721l-1.071-.01.022-5.624c.017-.144.062-.361.167-.373a28.878,28.878,0,0,1,3.416,0,.6.6,0,0,1,.266.373Z" transform="translate(-37.65 -280.213)" fill="#433f5c"/>
        <path id="Trazado_1255279" data-name="Trazado 1255279" d="M93.1,240.647l.373.172.045,9.224,13.73,0,.224.373v5.709H92.992l-.037-5.8,0-16.4c.095-.162.147-.132.159.067.144.04.354.1.373.217a41.157,41.157,0,0,1,0,6.169l-.373.271Z" transform="translate(-79.183 -231.19)" fill="#c7eefd"/>
        <path id="Trazado_1255280" data-name="Trazado 1255280" d="M67.421,248.6H63.1c-.147-.017-.363-.065-.373-.169a37.962,37.962,0,0,1-.012-5.265l.371-.274.214-.373,3.675-.045v-9.124l.371-.222c-.147-.04-.361-.1-.373-.217-.067-.695-.129-5.345-.007-5.728l.373-.4-.368-.219a17.987,17.987,0,0,1,.047-2.5.849.849,0,0,1,.378-.256l.085,19.1-.057,5.7Z" transform="translate(-56.407 -223.671)" fill="#c7eefd"/>
        <path id="Trazado_1255281" data-name="Trazado 1255281" d="M166.6,299.023c.279.005.326.06.1.169q.071,2.823-.087,5.569l-4.073.005v-5.743c.015-.144.055-.353.159-.373a31.151,31.151,0,0,1,3.64,0l.264.373Z" transform="translate(-131.448 -279.838)" fill="#c7eefd"/>
        <path id="Trazado_1255282" data-name="Trazado 1255282" d="M182.979,306.04h-3.787a52.705,52.705,0,0,1-.09-5.674,22.662,22.662,0,0,1,3.9.01.475.475,0,0,1,.346.2,41.842,41.842,0,0,1,0,5.191l-.373.269Z" transform="translate(-143.841 -281.105)" fill="#433f5c"/>
        <path id="Trazado_1255283" data-name="Trazado 1255283" d="M185.559,299.117l.005,5.664-2.736,0v-5.629l-3.787.027v5.6l-.184-.01-.012-5.741a.592.592,0,0,1,.017-.249c.107-.309,5.828-.132,6.483-.045l.214.376Z" transform="translate(-143.69 -279.848)" fill="#554e6f"/>
        <path id="Trazado_1255284" data-name="Trazado 1255284" d="M55.934,299.105l.012,5.709-2.776,0-.045-5.631c-.06-.139-.01-.167.134-.1l.209-.371C53.959,298.615,55.782,298.58,55.934,299.105Z" transform="translate(-49.254 -279.883)" fill="#554e6f"/>
        <path id="Trazado_1255285" data-name="Trazado 1255285" d="M48.636,223.79l-.055,2.978a1.747,1.747,0,0,1-.861.968l-.515.677-1.578,4.469-.438.132q-.015.6-1.314.538a2.373,2.373,0,0,0-1.88,2.36l.035,6.732-.371.222c-.027.03-.09.1-.134.1H37.675L37.65,236.1a2.969,2.969,0,0,1,1.651-2.748,6.55,6.55,0,0,1,2.818-.207l2.069-5.733a5.883,5.883,0,0,1,4.449-3.617Z" transform="translate(-37.65 -223.656)" fill="#fbdc66"/>
        <path id="Trazado_1255286" data-name="Trazado 1255286" d="M168.8,233.191l-2.953-.017-.458-.192a22.61,22.61,0,0,0-2.024-5.091,2,2,0,0,1-.844-1.056V223.86a6.471,6.471,0,0,1,4.6,4.319l1.68,5.009Z" transform="translate(-131.433 -223.708)" fill="#fbdc66"/>
        <path id="Trazado_1255287" data-name="Trazado 1255287" d="M107.474,223.25v2.8l-.172.373H93.333l-.224-.373a.215.215,0,0,0-.159-.067l.045-2.639,14.479-.095Z" transform="translate(-79.183 -223.25)" fill="#fbdc66"/>
        <path id="Trazado_1255288" data-name="Trazado 1255288" d="M107.942,234.5l0,2.124-.376.3a4.47,4.47,0,0,0-5.236,3.55l-.411.251c-.194.366-.446.448-.891.448l-7.464-.02,0-6.657h14.367Z" transform="translate(-79.648 -231.699)" fill="#fefefe"/>
        <path id="Trazado_1255289" data-name="Trazado 1255289" d="M133.16,242.617l-.015,3.04-.334.256a1.687,1.687,0,0,0-2.532,1.08l-.383.152-2.191.03c-.349,0-.555-.152-.565-.453a4.834,4.834,0,0,1,6.02-4.1Z" transform="translate(-104.861 -237.69)" fill="#554e6f"/>
        <path id="Trazado_1255290" data-name="Trazado 1255290" d="M165.846,242.156l-2.572-.007-.383-.291-.341-2-.03-4.041a3.591,3.591,0,0,1,1.917,2.156Z" transform="translate(-131.433 -232.691)" fill="#fefefe"/>
        <path id="Trazado_1255291" data-name="Trazado 1255291" d="M141.459,254.178l.015,1.491-3.264,0a1.932,1.932,0,0,1,1.13-1.648A2.312,2.312,0,0,1,141.459,254.178Z" transform="translate(-113.175 -246.212)" fill="#fdfdfd"/>
        <path id="Trazado_1255292" data-name="Trazado 1255292" d="M163.267,254.328h-.757l.032-2.288A4.182,4.182,0,0,1,163.267,254.328Z" transform="translate(-131.425 -244.873)" fill="#585272"/>
        <path id="Trazado_1255293" data-name="Trazado 1255293" d="M71.306,235.75l.007,6.346-3.4-.1,1.4-4.133A3.292,3.292,0,0,1,71.306,235.75Z" transform="translate(-60.377 -232.638)" fill="#fefefe"/>
        <g id="Grupo_1203559" data-name="Grupo 1203559" transform="translate(3.968 9.018)">
          <path id="Trazado_1255294" data-name="Trazado 1255294" d="M163.274,259.938c-.137-.543,2.116-.446,2.315-.366l.256.373q.355-.6,1.613-.363,1-.19,1.339.381l1.529-.027a2.872,2.872,0,0,1,2.992,2.98l-.015,6.831-6.714-.082h-4.065l0-9.727c0-.545.63-.525.757,0Z" transform="translate(-135.401 -259.501)" fill="#feed99"/>
          <path id="Trazado_1255295" data-name="Trazado 1255295" d="M60.558,259.914v9.757l-4.26.007-2.674-.012L53.59,262.7a2.776,2.776,0,0,1,2.873-2.786l.692-.107.219-.336c.973-.008,1.952.012,2.933.055l.249.381Z" transform="translate(-53.59 -259.474)" fill="#feed99"/>
          <g id="Grupo_1203558" data-name="Grupo 1203558" transform="translate(9.951 0.009)">
            <path id="Trazado_1255296" data-name="Trazado 1255296" d="M104.676,259.936a.389.389,0,0,1,.055-.2c.174-.249,2.5-.224,2.948-.169l.259.373,0,9.762-14.372,0v-9.766l.127-.373q4.141.067,8.228-.057a13.994,13.994,0,0,0,2.5.055l.254.368Z" transform="translate(-93.56 -259.51)" fill="#feed99"/>
            <path id="Trazado_1255297" data-name="Trazado 1255297" d="M111.355,279.521h-6.56a1.386,1.386,0,0,1,.147-2.768l6.159-.012a1.407,1.407,0,0,1,1.519,1.272A1.362,1.362,0,0,1,111.355,279.521Z" transform="translate(-101.031 -272.451)" fill="#fefefe"/>
          </g>
        </g>
      </g>
    </g>
  </g>
</svg>
