<svg id="Grupo_1224275" data-name="Grupo 1224275" xmlns="http://www.w3.org/2000/svg" xmlns:xlink="http://www.w3.org/1999/xlink" width="53.917" height="82.158" viewBox="0 0 53.917 82.158">
  <defs>
    <clipPath id="clip-path">
      <rect id="Rectángulo_745116" data-name="Rectángulo 745116" width="53.916" height="82.158" fill="none"/>
    </clipPath>
  </defs>
  <g id="Grupo_1224274" data-name="Grupo 1224274" clip-path="url(#clip-path)">
    <path id="Trazado_1391466" data-name="Trazado 1391466" d="M4.821,55.5c.015-.125.054-.311.144-.321a32.445,32.445,0,0,1,4.919,0l.233.32-.1.325-4.941.2-.048,7.593-.322.187q.077,3.017-.023,5.985c-.014.125-.054.313-.145.321a25.308,25.308,0,0,1-3.259.008Q.427,70.281.171,69.8c-.062.134-.117.126-.163-.018l0-48.927c.033-.1.082-.1.146,0q2.306.1,4.587.146l.021,14.094a1.073,1.073,0,0,1,.274.383,36.469,36.469,0,0,1,0,4.115,1.031,1.031,0,0,1-.27.385L4.733,55.3Z" transform="translate(-0.002 -6.086)" fill="#d8b0ed"/>
    <path id="Trazado_1391467" data-name="Trazado 1391467" d="M76.039,79.4c-.045.14-.1.138-.155,0V79.24l-.321-.153q0-29.006-.009-58.021l.321-.2c.026-.146.083-.153.17-.028Z" transform="translate(-22.129 -6.077)" fill="#e4c8f1"/>
    <path id="Trazado_1391468" data-name="Trazado 1391468" d="M.169,99.547H.008V90.081l.163.018.321.149q0,4.55,0,9.1Z" transform="translate(-0.002 -26.384)" fill="#d2a3e9"/>
    <path id="Trazado_1391469" data-name="Trazado 1391469" d="M55.2,0c.117.253.363.222.66.313a6.374,6.374,0,0,1,4.484,5.931c.122,2.8.134,5.771-.019,8.544-.014.126-.054.313-.144.322-.494.045-4,.1-4.25.016l-.236-.32a.51.51,0,0,1-.012.214c-.087.26-4.881.184-5.436.117l-.19-.32-.112.321-27.28,0-.2-.321a2.182,2.182,0,0,1,.645-1.572l.958-2.006a1.9,1.9,0,0,1,.657-1.309c.022-.143.071-.142.144-.009l.112-.319q11.872.054,23.707-.064a2.611,2.611,0,0,0,1.126-.927A6.381,6.381,0,0,0,51.124,8.5c.585-.67,1.122-1.558-.04-2.012q-.792.118-.981-.353l-.322-.107q-.017-2.919-.035-5.838L50.067,0Z" transform="translate(-6.58)" fill="#fed05b"/>
    <path id="Trazado_1391470" data-name="Trazado 1391470" d="M76.178,17.347l-.17.028.019-8.544a.188.188,0,0,1,.151.187Z" transform="translate(-22.262 -2.587)" fill="#fee7a6"/>
    <path id="Trazado_1391471" data-name="Trazado 1391471" d="M50.112,0l.037,6.136L50,6.457l-11.037.021a.879.879,0,0,0-.032,1.749l12.045-.047.194.32c-.175.226-.638.219-1.108.094a1.813,1.813,0,0,1-1.891,1.327l-23.253,0-.223-.564A11.823,11.823,0,0,0,22.67.6L22.62,0Z" transform="translate(-6.625)" fill="#fee077"/>
    <path id="Trazado_1391472" data-name="Trazado 1391472" d="M56.455,8.677l.9.025a1.169,1.169,0,0,1,1.093,1.142,1.105,1.105,0,0,1-.968,1.2l-12.123.052a1.176,1.176,0,0,1-1.2-1.245,1.2,1.2,0,0,1,1.233-1.156Z" transform="translate(-12.932 -2.541)" fill="#fefefe"/>
    <path id="Trazado_1391473" data-name="Trazado 1391473" d="M38.795,11.117c-.9-.014-1.43-.523-1.421-1.275s.677-1.2,1.5-1.184A1.3,1.3,0,0,1,40.26,9.847a1.271,1.271,0,0,1-1.465,1.27" transform="translate(-10.946 -2.536)" fill="#fefefd"/>
    <path id="Trazado_1391474" data-name="Trazado 1391474" d="M16,0a12.121,12.121,0,0,1,2.3,9.917l-.145.01-.111.29Q9.21,10.27.364,10.245l-.2-.321c-.027.146-.083.151-.166.024L.058,6.633A6.838,6.838,0,0,1,5.462,0Z" transform="translate(-0.001)" fill="#05e29b"/>
    <path id="Trazado_1391475" data-name="Trazado 1391475" d="M18.149,14.037a11.708,11.708,0,0,1-2.26,4.887l-.15.321L5.028,19.219,4.836,18.9c-.062.37-.173.438-.231.069q-2.238.054-4.451-.089l-.146,0c-.013-.055-.02-.153.079-.164Q.024,16.34.168,14.034Z" transform="translate(0 -4.11)" fill="#0ed18f"/>
    <path id="Trazado_1391476" data-name="Trazado 1391476" d="M.087,18.716,0,14.058l.166-.024Z" transform="translate(-0.001 -4.11)" fill="#0ad796"/>
    <path id="Trazado_1391477" data-name="Trazado 1391477" d="M53.815,20.914l.009,58.375H.235l0-9.448,4.514-.011.322.181a29.862,29.862,0,0,0,.163,4.322l.273.154L27.1,74.5l.2.321L27.4,74.5l20.989,0c.423-.071.491-.173.56-.572L48.894,55.75l.32-.2.071-.2-.078-15.47a1,1,0,0,1-.279-.352,34.643,34.643,0,0,1,0-4.12c.007-.034.129-.045.286-.048l.1-14.344c-.143.32-.274.253-.134-.088Z" transform="translate(-0.069 -6.125)" fill="#ca96e6"/>
    <path id="Trazado_1391478" data-name="Trazado 1391478" d="M17.8,20.938l27.589,0A6.689,6.689,0,0,1,45.438,25l-.108.321-6.665.006c-1.143.155-1.348,1.206-.358,1.723l.2.347c.124,0,.315.028.321.107a32.669,32.669,0,0,1,.016,4.16q.156.779-.317.945c.124.016.3.049.321.143a22.7,22.7,0,0,1,0,2.394l-.322.227-.187.321-5.645,0-.235-.321c-.127-.011-.317-.053-.323-.141-.126-2.063-.158-4.574-.091-6.642q-.18-.925.3-1.171l.228-.346c1.015-.409.973-1.529-.185-1.739l-7.332.038c-1.153.636-.406,1.389.24,2.027.124,0,.316.028.322.107a34.243,34.243,0,0,1,.016,4.554c.042.3,0,.45-.319.542l.32.187-.021,2.36-.323.226c-.033.127-.09.315-.187.321a43.161,43.161,0,0,1-4.839,0q-.812.158-1.039-.32l-.322-.144q-.033-3.815-.066-7.633l.319-.193a.367.367,0,0,1,.176-.335c1.088-.594.984-1.542-.248-1.749l-7.2.04c-1.189.6-.476,1.373.168,2.032.126.013.315.053.322.141a35.189,35.189,0,0,1,.035,4.842c-.021.1-.133.179-.271.253a23.754,23.754,0,0,1-.109,2.729c-.013.126-.056.316-.144.322a41.369,41.369,0,0,1-5.078.008.529.529,0,0,1-.128-.243L6.656,21.106c-.188-.078-.139-.141.095-.194Z" transform="translate(-1.916 -6.125)" fill="#ae66d9"/>
    <path id="Trazado_1391479" data-name="Trazado 1391479" d="M67.087,20.939c-.018.033,0,.127.134.087L67.081,35.6q-2.519.168-5.1.1l-.236-.321-.322-.144q-.033-3.814-.066-7.632l.32-.192.211-.346a.881.881,0,0,0-.252-1.737L61.5,25a31.674,31.674,0,0,1-.045-4.055Z" transform="translate(-17.972 -6.133)" fill="#9757bc"/>
    <path id="Trazado_1391480" data-name="Trazado 1391480" d="M45.418,47.554c.124.013.312.048.322.136a29.486,29.486,0,0,1,.037,3.126.525.525,0,0,1-.318.231l-.107.321-7.048.064c-1.089.652-.408,1.358.225,2.01q.5.137.338,1.129.2.968-.3,1.29.14,2.425.063,4.924c.132.035.236.074.245.128a8.694,8.694,0,0,1,0,1.455q.155.8-.323.974l-6.064-.012c-.125-.034-.306-.085-.32-.186a27.052,27.052,0,0,1,.016-3.513l.322-.23-.293-.289q-.05-2.727-.029-5.462l.321-.189.193-.344c1.027-.559.793-1.594-.407-1.747l-7.131.041a.878.878,0,0,0-.023,1.684l.192.346c.124.014.307.045.323.136a14.726,14.726,0,0,1,.038,2.093.539.539,0,0,1-.317.233l.32.338a34.417,34.417,0,0,1-.009,4.381.517.517,0,0,1-.321.23,2.536,2.536,0,0,1,0,2.481l-6.044.043c-.239-.02-.281-.078-.091-.182a37.576,37.576,0,0,1,.069-3.808q-.445-.178-.33-.772L18.9,53.7l.318-.239a.364.364,0,0,1,.17-.336c.883-.5,1.047-1.146.1-1.7l-7.244-.042c-1.117.165-1.32,1.2-.369,1.719l.2.347c.124.014.307.045.323.134a14.237,14.237,0,0,1,.026,2.053.528.528,0,0,1-.317.227q.127,2.468.051,4.994c.129.03.232.066.247.124a16.937,16.937,0,0,1-.009,2.09l-.322.187h-5.3q-.142-7.834-.052-15.728l.164-.288,38.329,0Z" transform="translate(-1.96 -13.834)" fill="#ae66d9"/>
    <path id="Trazado_1391481" data-name="Trazado 1391481" d="M4.9,20.9,4.873,35.367l5.3-.012c.052-.139.107-.134.165.006l.013-.214q3.354-.186,6.835-.1l.187.321,6.067,0,.148-.321h6.826l.191.32,6.068,0,.148-.321,6.826,0,.191.321,5.336-.006.137-14.35L49.247,35.4c-.007,1.545-.011,2.925,0,4.47l.1,15.484a.188.188,0,0,1-.142.187l-.321-.109-.05-15.177a48.562,48.562,0,0,0-5.127-.1l-.189-.32H4.883V55.532a.178.178,0,0,1-.177-.181l.073-15.345c.008-1.684.006-3.2,0-4.883L4.709,21.042H.543c-.178,0-.294-.06-.326-.161Z" transform="translate(-0.064 -6.116)" fill="#bc80e0"/>
    <path id="Trazado_1391482" data-name="Trazado 1391482" d="M21.46,29.955l.069,7.97-7.035-.011a13.965,13.965,0,0,1-.029-2.959,21.164,21.164,0,0,1,2.821-.161,1.386,1.386,0,0,0,1.059-1.332L18.3,30.2l.317-.234a.433.433,0,0,1,.18-.322,18.351,18.351,0,0,1,2.44-.01Z" transform="translate(-4.218 -8.669)" fill="#fd5693"/>
    <path id="Trazado_1391483" data-name="Trazado 1391483" d="M18.579,29.952l.055,3.419a1.719,1.719,0,0,1-1.764,1.775l-2.412,0V37.9l-.165-.006c-.047-1.056.058-2.121.061-3.246l-.038-4.72c.034-.124.085-.307.185-.32a27.707,27.707,0,0,1,3.848.021Z" transform="translate(-4.183 -8.656)" fill="#fd76a7"/>
    <path id="Trazado_1391484" data-name="Trazado 1391484" d="M20.974,29.107l-2.848.011-4.261-.024A1.2,1.2,0,0,1,14,26.7h6.908a1.2,1.2,0,1,1,.065,2.406" transform="translate(-3.732 -7.82)" fill="#fc3581"/>
    <path id="Trazado_1391485" data-name="Trazado 1391485" d="M58.871,29.949l.069,7.968-7.166,0,.006-2.764.177-.323a16.022,16.022,0,0,0,3.138-.159l.528-.713a22.358,22.358,0,0,0,.087-3.761l.318-.229a.432.432,0,0,1,.18-.322,18.268,18.268,0,0,1,2.435-.012Z" transform="translate(-15.164 -8.668)" fill="#fed05b"/>
    <path id="Trazado_1391486" data-name="Trazado 1391486" d="M56.023,29.966l.037,3.264c0,.9-.468,1.872-1.438,1.887l-2.848.035-.021-5.211c.035-.125.089-.313.186-.32a25.845,25.845,0,0,1,3.979.132.445.445,0,0,1,.1.214" transform="translate(-15.158 -8.67)" fill="#fee077"/>
    <path id="Trazado_1391487" data-name="Trazado 1391487" d="M58.207,26.689A1.248,1.248,0,0,1,59.6,27.946a1.212,1.212,0,0,1-1.2,1.153l-2.843.015-4.269-.027a1.189,1.189,0,0,1-1.138-1.291,1.219,1.219,0,0,1,1.286-1.1Z" transform="translate(-14.685 -7.817)" fill="#fec244"/>
    <path id="Trazado_1391488" data-name="Trazado 1391488" d="M40.117,29.968l.11,7.954H33.061l.025-2.773.141-.32a16.376,16.376,0,0,0,3.061-.1l.329-.24a8.065,8.065,0,0,0,.309-4.282l.313-.25a.382.382,0,0,1,.143-.32,21.985,21.985,0,0,1,2.507,0Z" transform="translate(-9.683 -8.672)" fill="#05e29b"/>
    <path id="Trazado_1391489" data-name="Trazado 1391489" d="M39.643,29.12l-2.878-.006c-.035.124-.087.309-.186.32a30.032,30.032,0,0,1-3.755-.013l-.23-.322a1.2,1.2,0,0,1-1.15-1.149,1.167,1.167,0,0,1,1.2-1.237H39.7A1.169,1.169,0,0,1,40.881,28.1a1.252,1.252,0,0,1-1.238,1.02" transform="translate(-9.21 -7.824)" fill="#0ed18f"/>
    <path id="Trazado_1391490" data-name="Trazado 1391490" d="M37.241,30.1c.06,2.415.651,5.2-1.547,5.2l-2.6-.009-.019-5.2Z" transform="translate(-9.686 -8.812)" fill="#00f1a5"/>
    <path id="Trazado_1391491" data-name="Trazado 1391491" d="M24.542,86.948l.041.658a1.048,1.048,0,0,1,.578.778,8.453,8.453,0,0,0,2.877,1.725,2.75,2.75,0,0,1,1.141,1.168c.207.405.511,1.138-.015,1.327L7.572,92.61a.856.856,0,0,1-.919-.853l-.032-4.146.023-5.985.327.286.1,5.3q8.452.177,16.993.1a.451.451,0,0,1,.474-.362" transform="translate(-1.94 -23.907)" fill="#eeecee"/>
    <path id="Trazado_1391492" data-name="Trazado 1391492" d="M24.552,85.326a2.378,2.378,0,0,1-.278.683l-17.5,0-.117-6,1.693.552a2.314,2.314,0,0,0,2.84-1.068l1.2-2.331A2.158,2.158,0,0,1,14.5,76.095a2.255,2.255,0,0,1,1.894,1.224l1.074,2.14a2.3,2.3,0,0,0,2.806,1.1l2.05-.691a2.359,2.359,0,0,1,2.53.613,2.463,2.463,0,0,1,.452,2.54Z" transform="translate(-1.949 -22.286)" fill="#fefefe"/>
    <path id="Trazado_1391493" data-name="Trazado 1391493" d="M19.3,69.869l.185-.322,5.624-.04.236.32.109-.321h6.829l.19.32.188-.32,5.642.011.234.321a.515.515,0,0,1,.011-.214c.094-.29,5.4-.192,6.059-.167q.919-.175,1.157.31-.133,3.4-.057,6.885c.3.052.435.132.38.47l-.152.32-12.2-.062c-1.173.181-1.232,1.442-.153,1.756l11.634.032.192.321.32.178-.008,1.619c.282.09.426.143.366.487l-.151.319-7.557-.071c-1.125.124-1.427.829-.7,1.706l-.116.342-.149.32-12.63-.04-.191-.322q-.214-.068-.041-.658l-.262-.232c.973-2.12,1.661-5.363-1.765-4.949l-2.615.835a2.6,2.6,0,0,1-2.543-1.065c-.906-2.024-2.278-5.066-4.658-2.683-1.261,3-2.531,4.861-5.943,3.142l-.111-.368.051-8.132,5.358-.169c.211-.292.318-.218.143.105l6.9-.045c.065-.223.128-.189.19.062" transform="translate(-1.949 -20.329)" fill="#fee077"/>
    <path id="Trazado_1391494" data-name="Trazado 1391494" d="M58.525,69.732l.059,18.39a.863.863,0,0,1-.916.873L36.6,89a2.452,2.452,0,0,0-1.389-2.271l-1.934-.952A2.12,2.12,0,0,1,32.023,84l12.971.041.148-.32,8.2.013a.878.878,0,0,0,.161-1.638l.012-.351a1.74,1.74,0,0,0-.689-.171l.011-2.113.263-.339c1.1-.293,1.111-.868.453-1.65a.363.363,0,0,1-.038-.378,1.957,1.957,0,0,0-.7-.18l-.024-6.4c0-.389.1-.647.4-.776.033-.126.087-.31.187-.321a32.12,32.12,0,0,1,4.907-.006Z" transform="translate(-9.379 -20.303)" fill="#fed05b"/>
    <path id="Trazado_1391495" data-name="Trazado 1391495" d="M56.794,80.286a1.232,1.232,0,0,1,.751,1.488,1.375,1.375,0,0,1-1.428.88L44.47,82.636a1.213,1.213,0,0,1-1.253-1.284,1.234,1.234,0,0,1,1.378-1.133Z" transform="translate(-12.657 -23.495)" fill="#fefefe"/>
    <path id="Trazado_1391496" data-name="Trazado 1391496" d="M58.641,86.864a1.234,1.234,0,0,1,.8,1.218A1.175,1.175,0,0,1,58.247,89.2l-8.129-.037a1.518,1.518,0,0,1-.547-1.5,1.289,1.289,0,0,1,1.36-.866Z" transform="translate(-14.503 -25.42)" fill="#fefefd"/>
    <path id="Trazado_1391497" data-name="Trazado 1391497" d="M67.123,63.394l-5.33.006-.025-3.856-.311-.286q-.056-2.739-.078-5.479l.318-.192a.367.367,0,0,1,.17-.336c1.051-.593.955-1.5-.242-1.747l-.147-.327-.042-3.492,5.635,0Z" transform="translate(-17.977 -13.965)" fill="#9757bc"/>
    <path id="Trazado_1391498" data-name="Trazado 1391498" d="M40.215,63.759,40.2,67.688H33.07a16.768,16.768,0,0,1,0-2.481l.139-.32a8.45,8.45,0,0,0,3.243-.232,2.092,2.092,0,0,0,.539-2.094l.305-.24.3-.209,2.461,1.213Z" transform="translate(-9.673 -18.193)" fill="#eeecee"/>
    <path id="Trazado_1391499" data-name="Trazado 1391499" d="M39.752,55.042c-.016.124-.05.307-.142.321a12.2,12.2,0,0,1-1.963,0q-.7.142-.875-.32c-.035.125-.09.313-.187.32a33.06,33.06,0,0,1-3.778-.022.52.52,0,0,1-.231-.322,1.19,1.19,0,0,1,.063-2.378l6.9-.014a1.229,1.229,0,0,1,1.35,1.2,1.192,1.192,0,0,1-1.142,1.208" transform="translate(-9.21 -15.415)" fill="#fec244"/>
    <path id="Trazado_1391500" data-name="Trazado 1391500" d="M37.319,61.46a5.5,5.5,0,0,1-.05,1.733A1.585,1.585,0,0,1,35.7,64.347h-2.6L33.1,59.4c.068-.106.188-.258.269-.226.446.179,3.644,1.694,3.784,1.851Z" transform="translate(-9.693 -17.33)" fill="#fefefe"/>
    <path id="Trazado_1391501" data-name="Trazado 1391501" d="M41.826,56.041v5.938l-2.916-1.436-.325-.338s-.019-1.307-.057-3.922l.317-.24Z" transform="translate(-11.285 -16.414)" fill="#fed05b"/>
    <path id="Trazado_1391502" data-name="Trazado 1391502" d="M37.24,56.036l.064,4.5-4.216-2.062-.045-2.461Z" transform="translate(-9.678 -16.405)" fill="#fee077"/>
    <path id="Trazado_1391503" data-name="Trazado 1391503" d="M51.928,59.5l.319.342-.021,4.2c.1.187,3.835.281,3.49-1.3q-.138-.889.343-1.133l.3-.216,2.421,1.1.168.429c.124.014.311.05.322.139a19.175,19.175,0,0,1,.018,2.743q.159.77-.315.974l-7.226.071.019-7.48c.2-.233.29-.159.165.123" transform="translate(-15.155 -17.35)" fill="#eeecee"/>
    <path id="Trazado_1391504" data-name="Trazado 1391504" d="M58.187,52.627A1.254,1.254,0,0,1,59.6,53.838a1.184,1.184,0,0,1-1.194,1.2l-.18.322-2.442.01-.228-.32a.428.428,0,0,1-.187.32,36.79,36.79,0,0,1-3.883-.023l-.229-.322a1.187,1.187,0,0,1,.025-2.37Z" transform="translate(-14.686 -15.414)" fill="#fec244"/>
    <path id="Trazado_1391505" data-name="Trazado 1391505" d="M56.017,56.039c.125.015.309.051.322.143a28.119,28.119,0,0,1,.021,4.1l-.32.235a.363.363,0,0,1-.135.173,23.283,23.283,0,0,1-3.817-1.7l-.168-.435a.843.843,0,0,1-.164-.123l-.038-2.419Z" transform="translate(-15.148 -16.406)" fill="#fee077"/>
    <path id="Trazado_1391506" data-name="Trazado 1391506" d="M56.113,61.568c.143.034.144.086.011.156l-.013.981a1.714,1.714,0,0,1-1.725,1.781l-2.418-.009.026-4.866Z" transform="translate(-15.221 -17.459)" fill="#fefefe"/>
    <path id="Trazado_1391507" data-name="Trazado 1391507" d="M60.647,56.034l.071,5.958-2.888-1.316-.011-.156L57.8,56.045Z" transform="translate(-16.928 -16.412)" fill="#fed05b"/>
    <path id="Trazado_1391508" data-name="Trazado 1391508" d="M14.5,59.529l.319.344-.028,4.214c.1.182,3.753.264,3.516-1.172q-.171-.972.332-1.275c.068-.1.173-.254.264-.23.21.054,2.244,1.016,2.4,1.141l.064.385a39.172,39.172,0,0,1,.091,3.929l-7,.048c.032-.148-.156-.141-.143-.105l.033-7.4c.122-.078.172-.035.157.117" transform="translate(-4.19 -17.39)" fill="#eeecee"/>
    <path id="Trazado_1391509" data-name="Trazado 1391509" d="M21.6,68.363l-7.094-.017,6.913-.106V64.369c.049-.139.1-.135.16,0Z" transform="translate(-4.249 -18.823)" fill="#f1ede6"/>
    <path id="Trazado_1391510" data-name="Trazado 1391510" d="M20.99,55.04l-.18.322-2.447.011-.228-.32c-.035.124-.089.311-.187.32-.42.035-3.694.052-3.871-.025a.522.522,0,0,1-.228-.322,1.162,1.162,0,0,1-1.1-1.319,1.21,1.21,0,0,1,1.26-1.067l7.051.017a1.181,1.181,0,0,1,1.131,1.322,1.2,1.2,0,0,1-1.2,1.063" transform="translate(-3.731 -15.417)" fill="#fec244"/>
    <path id="Trazado_1391511" data-name="Trazado 1391511" d="M23.093,56.035l.072,5.928-.16,0-2.726-1.3c-.14-.032-.136-.076,0-.133l-.325-.339q-.02-1.953-.04-3.905l.319-.237Z" transform="translate(-5.834 -16.412)" fill="#fed05b"/>
    <path id="Trazado_1391512" data-name="Trazado 1391512" d="M18.594,56.041l.045,4.481c-.067.107-.184.259-.268.228a24.289,24.289,0,0,1-3.181-1.517.821.821,0,0,1-.694-.687.849.849,0,0,1-.156-.117l-.032-2.415Z" transform="translate(-4.19 -16.406)" fill="#fee077"/>
    <path id="Trazado_1391513" data-name="Trazado 1391513" d="M18.7,61.571l0,.133-.015,1.314a1.7,1.7,0,0,1-1.739,1.463l-2.42-.009.033-4.878Z" transform="translate(-4.255 -17.454)" fill="#fefefe"/>
    <path id="Trazado_1391514" data-name="Trazado 1391514" d="M8.354,111.837a.643.643,0,0,1-.641.648l-7.051-.029c-.38,0-.643-.622-.643-.925l0-2.41.168-.372,2.16-.087a1.316,1.316,0,0,0,1.09-1.234l0-3.543.32-.231a39.048,39.048,0,0,1,4.849-.047,1.036,1.036,0,0,1-.177.2q.066,4.033-.082,8.035" transform="translate(-0.006 -30.33)" fill="#ae66d9"/>
    <path id="Trazado_1391515" data-name="Trazado 1391515" d="M3.762,103.655v3.695a1.735,1.735,0,0,1-1.99,1.68,5.115,5.115,0,0,0-1.751.093l-.013-5.467a18.2,18.2,0,0,1,3.755,0" transform="translate(-0.002 -30.331)" fill="#bc80e0"/>
    <path id="Trazado_1391516" data-name="Trazado 1391516" d="M53.758,103.335c.1.047.1.1,0,.161H45.414l-36.9,0,0,7.866c0,.186-.057.3-.166.32V103.5H.008v-.161c.046-.14.1-.138.161,0l.154-.321H53.557Z" transform="translate(-0.002 -30.172)" fill="#ca9ce6"/>
    <path id="Trazado_1391517" data-name="Trazado 1391517" d="M72.568,103.654q.138,4.018.076,8.152c0,.34-.583.684-.868.682l-6.9-.033c-.375,0-.641-.619-.641-.924l0-2.414.17-.371,2.092-.071a1.4,1.4,0,0,0,1.156-1.316l0-3.475.32-.23a26.731,26.731,0,0,1,4.595,0" transform="translate(-18.813 -30.33)" fill="#ae66d9"/>
    <path id="Trazado_1391518" data-name="Trazado 1391518" d="M67.97,103.655l.01,3.533a1.776,1.776,0,0,1-2,1.842,5.3,5.3,0,0,0-1.744.088l-.013-5.462a18.151,18.151,0,0,1,3.749,0" transform="translate(-18.81 -30.331)" fill="#bc7fe0"/>
    <path id="Trazado_1391519" data-name="Trazado 1391519" d="M76.1,111.847l-.076-8.152h.155Z" transform="translate(-22.266 -30.371)" fill="#d3abea"/>
  </g>
</svg>
