<svg id="BACKGROUND" xmlns="http://www.w3.org/2000/svg" width="81.352" height="81.258" viewBox="0 0 81.352 81.258">
  <g id="Grupo_1203479" data-name="Grupo 1203479" transform="translate(0)">
    <g id="Grupo_1203465" data-name="Grupo 1203465" transform="translate(0.001)">
      <path id="Trazado_1254960" data-name="Trazado 1254960" d="M74.38,0c.123,0,.312.032.316.11a35.906,35.906,0,0,1-.057,5.29l-.32.182c-.013.138-.036.14-.068,0l-.013.212q-3.327.194-6.782.117L67.269,5.6c-.013.125-.059.314-.148.318-2.926.1-6.382.151-9.293,0q-.881.165-1.1-.318c-.013.125-.059.314-.146.318-2.979.1-6.392.125-9.369,0q-.941.169-1.2-.318l-.148.318H35.642L35.449,5.6l-.146.318H24.929L24.738,5.6l-.148.318q-5.1,0-10.2,0L14.2,5.6l-.146.318L3.642,5.97l-.193-.316-.167.32C2.763,6.057.568,6.1.22,5.724S.053.941.121.151L.687,0Z" transform="translate(-0.013)" fill="#a77b69"/>
      <path id="Trazado_1254961" data-name="Trazado 1254961" d="M357.056,0a.5.5,0,0,1,.477.477V5.239a2.076,2.076,0,0,1-1.266.479l-2.054-.006c-.057.081-.117.038-.176-.129-.034.123-.083.3-.182.318a28.108,28.108,0,0,1-3.134,0l-.231-.318L350.549,0Z" transform="translate(-276.183)" fill="#956a5b"/>
    </g>
    <path id="Trazado_1254962" data-name="Trazado 1254962" d="M33.841,95.824l.023,21.335H28.15L28.192,95.8l.458-.108a5.128,5.128,0,0,0,4.73.028l.46.106Z" transform="translate(-22.183 -75.402)" fill="#fed084"/>
    <path id="Trazado_1254963" data-name="Trazado 1254963" d="M330.154,96.118a11.918,11.918,0,0,0,3.112-.182,2.051,2.051,0,0,1,1.48-.316l.028,21.34H329.06l.009-21.333c.142-.466,1.2.034,1.088.492Z" transform="translate(-259.295 -75.205)" fill="#fed084"/>
    <g id="Grupo_1203467" data-name="Grupo 1203467" transform="translate(0 41.331)">
      <path id="Trazado_1254964" data-name="Trazado 1254964" d="M5.974,195.364c.034-.125.087-.307.187-.318a35.3,35.3,0,0,1,5.294,0l.233.318.146-.318s2.816,0,8.449-.006l1.086.316.146-.318,6.929.019.189.318c.513-.252,3.089-.549,3.426-.233a.439.439,0,0,1,.106.21l1.02-.318q7.6,0,15.193.006l.922.312.148-.316,6.946.021.189.318a9.225,9.225,0,0,1,3.28-.335.517.517,0,0,1,.229.316l1.086-.316q4.208,0,8.4,0l.191.318c.034-.123.083-.3.187-.318a35.581,35.581,0,0,1,5.294,0l.233.318c.015-.125.055-.312.142-.318a38.23,38.23,0,0,1,5.1,0c.369.021.579.28.632.78v4.762c-.089,1.049-2.273.852-3.1.757l-.221-.318a2.8,2.8,0,0,1-2.716-.047l-.666.316h-2.9l-.231-.318-.871.318H10.658l-.871-.318c-.015.123-.049.307-.138.318a8.807,8.807,0,0,1-3.679-.3,2.653,2.653,0,0,1-2.542.036c-.015.123-.047.307-.134.318-.545.078-2.8.14-3.129-.3a26.331,26.331,0,0,1,0-5.75,1.107,1.107,0,0,1,.717-.267l4.866.015.229.318Z" transform="translate(-0.007 -194.942)" fill="#fee7c1"/>
      <path id="Trazado_1254965" data-name="Trazado 1254965" d="M31.936,223.39a49.386,49.386,0,0,0,61.735,0h3.8c.074.1.174.257.121.326-.3.394-1.272,1.414-1.719,1.209a4.727,4.727,0,0,1-2.042,2.059,4.9,4.9,0,0,1-2.587,1.31c.034.123.085.31.006.367a21.746,21.746,0,0,1-2.71,1.609q-.541.49-.933.184l.011.348a35.584,35.584,0,0,1-3.6,1.743.512.512,0,0,1-.343-.187L79.7,233.9c.021.123.036.312-.047.346-.382.153-3.464,1.1-3.653,1.081a.516.516,0,0,1-.312-.24l-.112.348a34.552,34.552,0,0,1-3.857.81.524.524,0,0,1-.288-.263l-4.27.526c-.008.123-.038.31-.125.324a29.782,29.782,0,0,1-3.115.144.521.521,0,0,1-.24-.307,6.666,6.666,0,0,1-2.722.322,3.528,3.528,0,0,1-2.356-.483l-4.272-.528c-.057.114-.146.284-.244.274-.384-.042-3.392-.628-3.541-.731a.515.515,0,0,1-.161-.358,5.651,5.651,0,0,1-4.321-1.264l-3.973-1.546c-.066.106-.182.257-.267.225A33.7,33.7,0,0,1,38.4,230.94a.525.525,0,0,1-.072-.386,2.18,2.18,0,0,1-1.717-.568,4.583,4.583,0,0,1-2.09-1.692,55.606,55.606,0,0,1-6.4-4.887l3.816-.017Z" transform="translate(-22.16 -217.359)" fill="#f7f6f6"/>
      <g id="Grupo_1203466" data-name="Grupo 1203466" transform="translate(0.096 33.997)">
        <path id="Trazado_1254966" data-name="Trazado 1254966" d="M336.773,355.982v4.762c-.129.138-.352.469-.659.471l-11.625.006-.212-.013a53.676,53.676,0,0,1-.106-5.377l.318-.187c.006-.479,1.172-.437,1.276-.081q3.775.073,7.522-.051c.04-.14.091-.14.155,0l1.749-.013a2.378,2.378,0,0,1,1.582.488Z" transform="translate(-255.519 -355.292)" fill="#fed084"/>
        <path id="Trazado_1254967" data-name="Trazado 1254967" d="M3.784,356.379l.837.114,64.808-.006v5.574H1.3a.76.76,0,0,1-.835-.8l.051-4.4c.087-.32.759-.511,1.047-.509l2.226.017Z" transform="translate(-0.46 -356.133)" fill="#fee7c1"/>
      </g>
    </g>
    <g id="Grupo_1203468" data-name="Grupo 1203468" transform="translate(3.433 5.578)">
      <path id="Trazado_1254968" data-name="Trazado 1254968" d="M26.954,26.432l.318.146q.025,5.438.053,10.879l-.316.2a5.889,5.889,0,0,1-2.587,3.594,5.446,5.446,0,0,1-5.648-.028,5.159,5.159,0,0,1-2.523-4.45L16.2,26.483l10.751-.053Z" transform="translate(-16.2 -26.405)" fill="#fe6c87"/>
      <path id="Trazado_1254969" data-name="Trazado 1254969" d="M276.342,26.41l.318.146q.045,5.429.089,10.862l-.316.2a6.257,6.257,0,0,1-2.438,3.56,5.21,5.21,0,0,1-6.371-.388,5.693,5.693,0,0,1-1.968-3.3l-.316-.151q.07-5.368.142-10.739l.32-.187H276.34Z" transform="translate(-212.518 -26.389)" fill="#f7f6f6"/>
      <path id="Trazado_1254970" data-name="Trazado 1254970" d="M77.457,26.42l.32.142q.064,5.365.125,10.734l-.316.193a5.531,5.531,0,0,1-1.781,3.146,5.16,5.16,0,0,1-6.452.579,4.8,4.8,0,0,1-2.379-3.57l-.055-11.22,10.537,0Z" transform="translate(-56.166 -26.397)" fill="#f7f6f6"/>
      <path id="Trazado_1254971" data-name="Trazado 1254971" d="M127.333,26.412l.316.148q-.038,5.359-.078,10.724l-.318.187a4.643,4.643,0,0,1-1.821,3.307,5.1,5.1,0,0,1-5.546.833,4.987,4.987,0,0,1-3.136-4.13L116.62,26.41h10.713Z" transform="translate(-95.329 -26.389)" fill="#fe6c87"/>
      <path id="Trazado_1254972" data-name="Trazado 1254972" d="M226.367,26.41l-.146,11.076c-.03,2.591-2.627,4.522-5.152,4.58a5.243,5.243,0,0,1-5.309-4.584c-.125-.013-.316-.055-.318-.144-.129-3.119-.21-6.723-.1-9.833-.114-.585-.013-.948.307-1.094Z" transform="translate(-173.08 -26.389)" fill="#fe6c87"/>
      <path id="Trazado_1254973" data-name="Trazado 1254973" d="M177.412,26.42l.106,11.069a5.445,5.445,0,0,1-10.758-.008l.081-11.061H177.41Z" transform="translate(-134.839 -26.397)" fill="#f7f6f6"/>
      <path id="Trazado_1254974" data-name="Trazado 1254974" d="M324.2,26.352c.125.013.316.057.318.144.146,3.755.11,7.633-.081,11.387-.409,1.647-1.77,3.831-3.617,3.791l-1.088-.492a4.781,4.781,0,0,1-2.423-3.621l-.093-11.2,6.982-.011Z" transform="translate(-253.398 -26.342)" fill="#fe6c87"/>
      <path id="Trazado_1254975" data-name="Trazado 1254975" d="M341.214,26.31q.1,5.2.117,10.44a5.23,5.23,0,0,1-2.519,4.4,5.035,5.035,0,0,1-4.592.5,5.5,5.5,0,0,0,3.454-5.2L337.6,26.321l.068,0,3.547-.006Z" transform="translate(-266.794 -26.31)" fill="#e74f74"/>
      <path id="Trazado_1254976" data-name="Trazado 1254976" d="M367.394,26.442l-.059,10.31c-.013.019-.11-.045-.11-.163l0-10.277c.091-.008.176.008.176.129Z" transform="translate(-292.798 -26.311)" fill="#f595aa"/>
    </g>
    <g id="Grupo_1203469" data-name="Grupo 1203469" transform="translate(49.271 57.872)">
      <path id="Trazado_1254977" data-name="Trazado 1254977" d="M255.152,272.96l2.334,9.437a.437.437,0,0,1-.089.4.448.448,0,0,1-.339.119l-4.039-.761-.343-.064-1.87-7.522c-.081-.214.032-.356.333-.426Z" transform="translate(-246.884 -272.96)" fill="#fec750"/>
      <path id="Trazado_1254978" data-name="Trazado 1254978" d="M236.655,278.552a.587.587,0,0,0-.021.369l1.9,7.643-3.159,2.548a.4.4,0,0,1-.649-.212l-2.328-9.456,4.255-.895Z" transform="translate(-232.4 -277.365)" fill="#fedb64"/>
    </g>
    <g id="Grupo_1203470" data-name="Grupo 1203470" transform="translate(36.442 60.48)">
      <path id="Trazado_1254979" data-name="Trazado 1254979" d="M176.968,285.421q.175.41-.483.517l.011,7.542-.318.189-3.712,1.69a.376.376,0,0,1-.56-.3l-.015-9.8a35.574,35.574,0,0,0,5.076.161Z" transform="translate(-171.89 -285.26)" fill="#aeeea4"/>
      <path id="Trazado_1254980" data-name="Trazado 1254980" d="M196.343,285.262l-.008,9.657a.517.517,0,0,1-.146.4.412.412,0,0,1-.422.03l-3.7-1.686-.011-8.076a1.563,1.563,0,0,0,.8-.172l3.479-.161Z" transform="translate(-187.784 -285.26)" fill="#8be0a3"/>
    </g>
    <g id="Grupo_1203471" data-name="Grupo 1203471" transform="translate(21.548 57.872)">
      <path id="Trazado_1254981" data-name="Trazado 1254981" d="M108.32,274.224l.066.316-1.925,7.531-.354.1-3.861.744a.684.684,0,0,1-.488-.106.41.41,0,0,1-.1-.416l2.336-9.437a27.119,27.119,0,0,0,4.321,1.264Z" transform="translate(-101.641 -272.96)" fill="#fe6c87"/>
      <path id="Trazado_1254982" data-name="Trazado 1254982" d="M128.867,279.736l-2.326,9.458c-.053.214-.346.43-.545.273l-3.286-2.6,1.859-7.418c.066-.265.106-.437.352-.534l3.946.814Z" transform="translate(-118.243 -277.656)" fill="#e74f74"/>
    </g>
    <g id="Grupo_1203472" data-name="Grupo 1203472" transform="translate(3.429 47.365)">
      <path id="Trazado_1254983" data-name="Trazado 1254983" d="M18.711,223.47l.933.382,2.574,2.082a12.364,12.364,0,0,1,2.894,2.423l.214.278-4.508,8.589q1.876.235,3.907.286l.21.329.339-.081q1.228,1.67,2.521,3.208l4.518-8.532.369-.019c.059-.11.159-.267.248-.244a27.89,27.89,0,0,1,3.628,1.41l.1.38.274.221-2.309,9.384a35.35,35.35,0,0,0,3.859-.655l.288.267.31-.161q1.609,1.32,3.191,2.451l2.3-9.316.354-.11c.03-.121.087-.293.18-.3a27.5,27.5,0,0,1,3.9.481l.191.343.318.144.006,9.67q1.819-.741,3.626-1.6l.337.2.263-.229,3.662,1.626.028-9.615.318-.189c0-.125.015-.31.1-.333a27.811,27.811,0,0,1,3.9-.481l.269.286.343.068,2.3,9.346a33.333,33.333,0,0,0,3.115-2.4l.38.1.237-.278a34.283,34.283,0,0,0,3.933.647l-2.3-9.305.263-.263a.429.429,0,0,1,.055-.363,36.135,36.135,0,0,1,3.587-1.391l.329.214.35-.019,4.524,8.519a28.3,28.3,0,0,0,2.4-3.036l.39.008c.006-.125.036-.312.123-.324a37.109,37.109,0,0,1,4.058-.307l.339.112.318.146v9.515a5,5,0,0,1-2.29,4.251l5.958.034.187.318c-.174.189-.479.153-.793.153l-8.006-.021c-.013.127-.061.318-.153.318-21.528.108-43.864.019-65.344-.083l-.148-.341V223.506c.846-.011,1.7-.032,2.54-.036Z" transform="translate(-16.18 -223.455)" fill="#a77b69"/>
      <path id="Trazado_1254984" data-name="Trazado 1254984" d="M107.855,223.4a3.2,3.2,0,0,1-.674.935c-2.152,2.008-6.123,4.124-8.826,5.415A49.838,49.838,0,0,1,46.8,224.333a2.053,2.053,0,0,1-.373-.422,4.068,4.068,0,0,1-.305-.511Z" transform="translate(-39.772 -223.4)" fill="#a77b69"/>
      <path id="Trazado_1254985" data-name="Trazado 1254985" d="M339.371,223.465l-.006,28.131-.155,0-7.55-.034a4.722,4.722,0,0,0,3.377-4.573v-9.657c-.42-.049-.4-.191,0-.307l-.316-1.213.013-8.546a3.961,3.961,0,0,1,.32-2.315l1.6-1.533c.905,0,1.811.042,2.716.047Z" transform="translate(-264.773 -223.416)" fill="#956a5b"/>
      <path id="Trazado_1254986" data-name="Trazado 1254986" d="M330.459,242.714l-4.609-8.705a28.259,28.259,0,0,0,4.628-3.369Z" transform="translate(-260.194 -229.105)" fill="#a77b69"/>
    </g>
    <g id="Grupo_1203473" data-name="Grupo 1203473" transform="translate(7.756 52.267)">
      <path id="Trazado_1254987" data-name="Trazado 1254987" d="M45,248.78l.208.28q-1.911,3.463-3.823,6.931l-.369.011-4.1-.22a.4.4,0,0,1-.293-.539l4.573-8.722A35.957,35.957,0,0,0,45,248.778Z" transform="translate(-36.59 -246.52)" fill="#83caee"/>
      <path id="Trazado_1254988" data-name="Trazado 1254988" d="M65.217,258.98l-4.62,8.7a.364.364,0,0,1-.358.168A.448.448,0,0,1,60,267.7l-2.525-3.3,3.984-7.223,3.763,1.8Z" transform="translate(-53.043 -254.92)" fill="#70bce7"/>
    </g>
    <g id="Grupo_1203474" data-name="Grupo 1203474" transform="translate(61.509 52.21)">
      <path id="Trazado_1254989" data-name="Trazado 1254989" d="M315.882,255.017v.307a1.134,1.134,0,0,1-.905.312l-3.615.212c-.106.078-.286.136-.331.053-1.272-2.334-2.51-4.715-3.681-7.1l.284-.329,3.638-2.16c.117-.047.3-.1.35-.019,1.119,1.9,2.245,4.124,3.24,6.119a6.96,6.96,0,0,1,1.022,2.608Z" transform="translate(-303.697 -246.252)" fill="#70bce7"/>
      <path id="Trazado_1254990" data-name="Trazado 1254990" d="M297.784,264.1l-2.364,3.165a.471.471,0,0,1-.43.2.445.445,0,0,1-.3-.233l-4.567-8.606,3.935-1.9a1.444,1.444,0,0,0,.24.759l3.488,6.617Z" transform="translate(-290.12 -254.501)" fill="#83caee"/>
    </g>
    <g id="Grupo_1203478" data-name="Grupo 1203478" transform="translate(16.597 28.208)">
      <g id="Grupo_1203475" data-name="Grupo 1203475" transform="translate(28.088)">
        <path id="Trazado_1254991" data-name="Trazado 1254991" d="M232.551,152.354c.131-.008.314.04.307.134-.161,2.351-.356,4.726-.7,7.058a2.593,2.593,0,0,1-2.493,2.029l-7.283-.021-1.134-.77a3.741,3.741,0,0,1-.99-2.686l-.6-5.7.146-.318,12.551-.042.193.316Z" transform="translate(-217.775 -148.013)" fill="#e7e7e7"/>
        <path id="Trazado_1254992" data-name="Trazado 1254992" d="M273.043,152.178c.006.971-.163,2.16-.269,3.322l-.146,1.609c-.191,2.1-.1,3.229-2.269,4.276l-3.509.019a3.251,3.251,0,0,0,2.349-2.924l.536-6.295c.015-.123.051-.305.142-.318a14.65,14.65,0,0,1,2.2,0c.507-.1.827,0,.965.316Z" transform="translate(-254.96 -147.843)" fill="#d7d7d7"/>
        <path id="Trazado_1254993" data-name="Trazado 1254993" d="M225.55,133.124c.125.015.31.055.318.144.036.437.089,3.77,0,3.944a.514.514,0,0,1-.318.231l-12.891.042c-1.158,0-1.885-.025-1.885-.687v-3.026a.621.621,0,0,1,.649-.632l14.131-.021Z" transform="translate(-210.77 -133.105)" fill="#f7f6f6"/>
        <path id="Trazado_1254994" data-name="Trazado 1254994" d="M283.775,137.382l-3.305.006,0-4.321c.184,0,.371-.023.623-.019l4.113.072c.435.008.649.681.649,1.052v2.107c0,.409-.21,1.045-.649,1.058l-1.435.042Z" transform="translate(-265.692 -133.048)" fill="#e7e7e7"/>
      </g>
      <g id="Grupo_1203477" data-name="Grupo 1203477" transform="translate(0 0.024)">
        <g id="Grupo_1203476" data-name="Grupo 1203476" transform="translate(2.006 3.989)">
          <path id="Trazado_1254995" data-name="Trazado 1254995" d="M100.588,152.341l.307.134-.526,6.219c-.32,1.554-.818,2.733-2.6,2.858l-7.264-.019c-2.171-1.041-2.078-2.19-2.266-4.274l-.146-1.611-.165-1.73a7.084,7.084,0,0,1-.161-1.588l.146-.318q6.24.006,12.484.015l.191.318Z" transform="translate(-87.751 -152.003)" fill="#e7e7e7"/>
          <path id="Trazado_1254996" data-name="Trazado 1254996" d="M141.232,152.4l-.558,5.489c-.1,1.049-.053,2.222-.994,2.841l-1.128.768-3.532.021a3.278,3.278,0,0,0,2.283-2.89l.534-6.318c.019-.123.059-.3.148-.314a15.235,15.235,0,0,1,2.211.057q.817-.14,1.035.343Z" transform="translate(-124.998 -151.976)" fill="#d7d7d7"/>
        </g>
        <path id="Trazado_1254997" data-name="Trazado 1254997" d="M93.189,133.18c.123.017.31.059.316.148a35.6,35.6,0,0,1-.049,3.946.521.521,0,0,1-.32.229l-12.819-.015-1.378-.045c-.441-.015-.649-.651-.649-1.058v-2.118c0-.312.21-1.056.655-1.056l14.245-.032Z" transform="translate(-78.29 -133.176)" fill="#f7f6f6"/>
        <path id="Trazado_1254998" data-name="Trazado 1254998" d="M151.7,137.574l-3.4-.087.055-4.323,4.476,0c.416,0,.784.206.787.651l.011,2.866a.794.794,0,0,1-.24.645c-.411.314-1.075-.021-1.692.254Z" transform="translate(-133.457 -133.16)" fill="#e7e7e7"/>
      </g>
    </g>
  </g>
</svg>
