<svg id="BACKGROUND2222" xmlns="http://www.w3.org/2000/svg" xmlns:xlink="http://www.w3.org/1999/xlink" width="82.29" height="82.439" viewBox="0 0 82.29 82.439">
  <defs>
    <linearGradient id="linear-gradient" x1="-25.965" y1="16.78" x2="-24.676" y2="16.843" gradientUnits="objectBoundingBox">
      <stop offset="0" stop-color="#ee4424"/>
      <stop offset="0.19" stop-color="#fc5426"/>
      <stop offset="1" stop-color="#ee4424"/>
    </linearGradient>
  </defs>
  <g id="Grupo_1203520" data-name="Grupo 1203520" transform="translate(0 0)">
    <path id="Trazado_1255061" data-name="Trazado 1255061" d="M8.324,349.58v.159l-3.874,0a.178.178,0,0,1,.179-.155Z" transform="translate(-3.493 -274.383)" fill="#edc19f"/>
    <path id="Trazado_1255062" data-name="Trazado 1255062" d="M100.44-.008q.742.065.643.688l-.011,73.928a.835.835,0,0,1-.478.873,20.581,20.581,0,0,1-4.281.116l-.23-.325c0,.127-.034.321-.114.321-5,.09-10.366.08-15.412-.088-.073,0-.142-.1-.211-.226L74,75.183l-.112.323-28,.09-.2-.321-.2.321-14.771-.077-.151-.25a15.849,15.849,0,0,1-2.573-.088c-.417-.052-.671-.211-.757-.482l-.049-2.768-2.919.022c-.331-.056-.387-.215-.215-.512l.151-.318q35.35.2,70.968.1A1.681,1.681,0,0,0,96.889,69.5l0-63.838c-.1-1.142-.7-1.592-1.8-1.693q-35.188-.032-70.31.034l-.361-.321c-.1-.239-.071-.435.176-.467l2.592.024L27.245.478a.9.9,0,0,1,.82-.488h72.366Z" transform="translate(-18.805 0.01)" fill="#e99a58"/>
    <path id="Trazado_1255063" data-name="Trazado 1255063" d="M9.269,0c-.2.168-.521.387-.525.658L8.7,3.579,5.945,3.534A.344.344,0,0,0,5.61,3.7l-.138.329A1.626,1.626,0,0,0,4.027,5.672V69.594c.08.893.323,1.071,1.058,1.512a.361.361,0,0,1,.166.342.375.375,0,0,0,.372.2l3.08-.043.028,2.919c0,.295.3.508.46.658a24,24,0,0,1-4.36,0q-1.913.081-3.874.155c-.245-.037-.951-.2-.951-.684L0,.708A3.336,3.336,0,0,1,.323,0H9.267Z" transform="translate(0 0.002)" fill="#d78955"/>
    <g id="Grupo_1203518" data-name="Grupo 1203518" transform="translate(3.706 3.663)">
      <path id="Trazado_1255064" data-name="Trazado 1255064" d="M19.134,17.057c1.041-.011,1.953.052,3.132-.037H89.811a2.024,2.024,0,0,1,2.121,2.011l0,63.85a2.028,2.028,0,0,1-2.125,2.039H22.268l-3.489-.108a1.82,1.82,0,0,1-1.549-1.929V19.027a1.955,1.955,0,0,1,1.906-1.972Z" transform="translate(-17.23 -17.02)" fill="#febc85"/>
      <g id="Grupo_1203517" data-name="Grupo 1203517" transform="translate(2.411 2.401)">
        <path id="Trazado_1255065" data-name="Trazado 1255065" d="M45.708,190.521,73,190.512v14.046l-3.941-.03q-.161-2.423-.112-4.98a1.72,1.72,0,0,1-.733-.243l-10.785-.021a.494.494,0,0,1-.374-.482,9.831,9.831,0,0,0-.153-2.7c-4.272-.224-8.806-.159-13.117-.056a.835.835,0,0,1-.5.417.187.187,0,0,0-.155.185v7.84a1.557,1.557,0,0,1-.579.037l-.323-.11v-13.7l.323-.194a12.711,12.711,0,0,1,3.158,0Z" transform="translate(-39.264 -155.524)" fill="#fee4c1"/>
        <path id="Trazado_1255066" data-name="Trazado 1255066" d="M213.2,104.155h27.2l.017,14.158c-.015.127-.056.314-.146.323a25.455,25.455,0,0,1-3.577,0c-.493.1-.807-.009-.936-.323-.144-.024-.142-.073-.009-.146l-.323-.144-.019-5.328a2.25,2.25,0,0,0-1.437-.157l-.213-.32-.323-.142a27.809,27.809,0,0,0-.092-3.629H230a33.347,33.347,0,0,0-.077,3.541l-.323.23-.172.323c-.6.019-1.177.013-1.738-.013-.045.14-.1.138-.161,0a.537.537,0,0,1-.312.088c-.372.017-1.521,0-1.6-.391l-.323-.142a35.187,35.187,0,0,0-.077-3.635l-3.351.015a31.078,31.078,0,0,0-.075,3.534l-.323.23a.549.549,0,0,1-.013.215,5.776,5.776,0,0,1-1.966.1c-.138.2-.34.2-.607,0-.688.12-1.151.015-1.392-.321l-.323-.142a28.266,28.266,0,0,0-.09-3.633h-3.341a34.077,34.077,0,0,0-.075,3.547l-.323.23-.194.318a2.778,2.778,0,0,0-1.433.125q-.09,2.659.049,5.21,1.052-.213,1.433.293c.14.047.138.1,0,.166-.065.521-1.719.471-1.871-.009a2.849,2.849,0,0,0-1.532-.148l-.323-.11q0-6.86.006-13.721l.323-.194c.034-.125.086-.312.183-.323a21.277,21.277,0,0,1,2.986.006l.226.323Z" transform="translate(-170.53 -87.519)" fill="#fee4c1"/>
        <path id="Trazado_1255067" data-name="Trazado 1255067" d="M45.551,104.2c.069-.155.114-.144.138.03l27.161-.006L72.828,118.4c-.015.125-.056.314-.144.32a25.944,25.944,0,0,1-3.635-.022q-.732.142-.916-.327l-.32-.189.013-5.47a3.5,3.5,0,0,0-1.435-.1l-.215-.32-.323-.142q.055-1.836-.073-3.629l-3.356.011a31.578,31.578,0,0,0-.075,3.534l-.323.228-.013.215c-.54.052-1.086.131-1.643.234l-.333-.155c-.157.176-.387.185-.686.026q-.978.171-1.3-.316l-.323-.142a27.512,27.512,0,0,0-.09-3.633H54.3a32.861,32.861,0,0,0-.075,3.545l-.323.23-.172.323-1.783.049c-.589-.047-1.194-.065-1.813-.056l-.213-.321-.323-.142a35.06,35.06,0,0,0-.077-3.629l-3.351.015a30.964,30.964,0,0,0-.077,3.528l-.323.228a.3.3,0,0,1-.1.32,2.313,2.313,0,0,0-1.555.181L44.1,118.01l-.323.234H42.394l-.323-.11q-.019-6.856-.041-13.719l.32-.2.181-.323,2.788-.017.23.32Z" transform="translate(-39.107 -87.597)" fill="#fee4c1"/>
        <path id="Trazado_1255068" data-name="Trazado 1255068" d="M236.414,204.867l-.215-.013q-.119-3.552-.2-7.167l-.211-.166q-2.775-.071-5.569-.043l-.234-.323c0,.125-.03.316-.108.323-1.568.095-3.609.077-5.182,0-.611.11-.994,0-1.149-.323,0,.125-.03.318-.11.323a42.825,42.825,0,0,1-5.358,0q-.729.148-.878-.32l-.144.323h-5.472l-.428.174q-.216,3.475-.123,7.025l-.323.189h-.895l-.323-.11q.006-6.853.013-13.711l.323-.194h30.6V204.9l-4.012-.03Z" transform="translate(-170.546 -155.867)" fill="#fee4c1"/>
        <path id="Trazado_1255069" data-name="Trazado 1255069" d="M72.812,218.628q.077,2.526-.056,4.98l-.2.082L49.7,223.7c-.022.123-.052.224-.116.256-.123.06-2.493.183-2.42-.267l-.013-8.146a.759.759,0,0,1,.82-.815l12.538.021a.757.757,0,0,1,.721.792l.017,2.515,10.869.006c.28,0,.7.323.7.561Z" transform="translate(-43.125 -174.603)" fill="url(#linear-gradient)"/>
        <path id="Trazado_1255070" data-name="Trazado 1255070" d="M72.777,40.7c-.034.125-.086.312-.183.323a19.577,19.577,0,0,1-2.751,0c-.557.11-.912,0-1.065-.323l-.323-.187-.009-6.533a5.1,5.1,0,0,1-.368-.7q-2.746-.136-5.575-.065c-.136.312-.271.31-.409,0H43.928l-.228.08a5.371,5.371,0,0,1-.318.7v6.518l-.323.189c-.026.475-.617.443-.721,0l-.323-.148q-.029-6.04-.056-12.087l.321-.2,30.508-.011-.015,12.448Z" transform="translate(-39.052 -28.243)" fill="#fee4c1"/>
        <path id="Trazado_1255071" data-name="Trazado 1255071" d="M240.439,40.686c-.015.125-.043.286-.146.323-.241.082-3.79.039-4.283,0l-.237-.323-.323-.148-.026-8.225a27.229,27.229,0,0,0-3.934-.127l-.228-.323-.228.32q-1.7-.006-3.345-.017-.1,1.133-.088,2.287-2.207.136-4.444.116l-.239-.318a26.117,26.117,0,0,0-3.291-.077c-.211.269-.312.144-.428-.157a5.033,5.033,0,0,0-.123-1.8l-3.848-.026L215,31.858l-.228.32-2.841-.022-.234.144-.015,8.187-.323.194c.049.5-1.409.478-1.514,0l-.323-.151q-.006-6.043-.013-12.093l.323-.2h30.613l-.006,12.446Z" transform="translate(-170.562 -28.227)" fill="#fee4c1"/>
        <path id="Trazado_1255072" data-name="Trazado 1255072" d="M240.352,274.4v9.862l-4.67,0-.323-.142,0-2.719a2.291,2.291,0,0,0-2.338-2.069L232.8,279l-1.106.318q-2.9-.523-3.719,1.519l-.331.135c.015.312-.108.321-.2.017l-.333-.164c-.168-1.076-1.37-1.448-2.319-1.5l-.179-.327-.951.32a4.122,4.122,0,0,0-3.334.65,1.6,1.6,0,0,1-.792.869c-.088.133-.243.26-.361.194a2.763,2.763,0,0,0-1.609-1.572,1.082,1.082,0,0,1-1.024-.454l-1.095.325c-1.779-.088-3.639-.166-3.859,2.059l-.034,2.585-.325.219a4.967,4.967,0,0,1-1.751.065q-.116-4.746-.065-9.518l.323-.194,3.42-.09.112-.323,26.888-.054.2.323Z" transform="translate(-170.472 -221.187)" fill="#fee4c1"/>
        <path id="Trazado_1255073" data-name="Trazado 1255073" d="M72.812,274.333l.013,9.865-4.685.011-.325-.142-.06-4.691-3.945-.086-.23-.325-.232.318c-.14.049-2.611.075-2.94.043a.926.926,0,0,1-.387-.166c-.146.209-.383.256-.706.142l-3.577-.015-.232-.323-.23.32H51.958c-.028.138-.075.136-.136,0q-2.1.042-4.276.011l-.228-.323-.407.316a11.2,11.2,0,0,0-2.794.095l-.032,4.605-.323.232-1.433-.026-.32-.148q.023-4.682.045-9.366l.323-.189,3.338-.088.112-.323,26.784-.067.2.321Z" transform="translate(-39.091 -221.132)" fill="#fee4c1"/>
        <path id="Trazado_1255074" data-name="Trazado 1255074" d="M80.592,237.837c0,.049,0,.166.148.166l3.773-.034v4.065l-27.1.069a.137.137,0,0,0-.116-.08c-.125-.034-.314-.088-.323-.183a30.276,30.276,0,0,1,.006-3.76.579.579,0,0,1,.217-.142l23.024-.017.2-.082.056-4.98.112,4.98Z" transform="translate(-50.794 -188.833)" fill="#f5a86c"/>
        <path id="Trazado_1255075" data-name="Trazado 1255075" d="M229.468,255.092l.187-.323h5.821l.237.318q3.181-.113,6.47-.065a.367.367,0,0,1,.095-.258,57.371,57.371,0,0,1,6.124,0l.189.323h4.042v4.078l-27.2.056c-.125-.034-.308-.084-.323-.187a27.273,27.273,0,0,1-.011-3.678l.321-.234,4.044-.032Z" transform="translate(-182.755 -205.957)" fill="#f5a86c"/>
        <path id="Trazado_1255076" data-name="Trazado 1255076" d="M199.443,104.32l-.006,14.027-3.166.011.043-14.031L196.5,104l2.712,0,.232.323Z" transform="translate(-160.17 -87.691)" fill="#fdd1a3"/>
        <path id="Trazado_1255077" data-name="Trazado 1255077" d="M199.447,189.266l-.013,14.016-3.164.013.049-14.035a.847.847,0,0,1,.413-.353C197.188,188.75,199.1,188.84,199.447,189.266Z" transform="translate(-160.17 -154.278)" fill="#fdd1a3"/>
        <path id="Trazado_1255078" data-name="Trazado 1255078" d="M31.692,104.142l.043,14.022-3.285.024V104.133c.017-.125.052-.3.146-.323a26.524,26.524,0,0,1,2.865.006l.232.323Z" transform="translate(-28.448 -87.514)" fill="#fdd1a3"/>
        <path id="Trazado_1255079" data-name="Trazado 1255079" d="M31.735,190.872v14.007l-3.285.026V190.87Z" transform="translate(-28.448 -155.875)" fill="#fdd1a3"/>
        <path id="Trazado_1255080" data-name="Trazado 1255080" d="M31.679,28.28l.056,12.431-.183.323-2.876,0-.226-.323V28.286Z" transform="translate(-28.448 -28.258)" fill="#fdd1a3"/>
        <path id="Trazado_1255081" data-name="Trazado 1255081" d="M199.478,28.2l.015,12.437c-.015.125-.052.312-.14.323a19.677,19.677,0,0,1-2.781,0l-.226-.323L196.32,28.18l3.158.017Z" transform="translate(-160.209 -28.18)" fill="#fdd1a3"/>
        <path id="Trazado_1255082" data-name="Trazado 1255082" d="M199.479,276.1v9.669l1.493-.019c0,.092-.172.191-.331.189l-4.311-.075,0-9.8,3.145.041Z" transform="translate(-160.217 -222.741)" fill="#fdd1a3"/>
        <path id="Trazado_1255083" data-name="Trazado 1255083" d="M31.735,276.107l-.047,9.7-3.237.006V276.07Z" transform="translate(-28.448 -222.749)" fill="#fdd1a3"/>
        <path id="Trazado_1255084" data-name="Trazado 1255084" d="M58.078,256c0,.052-.011.161-.183.161H34.959l0,4.022-6.5.026.039-4.083,3.994-.041,2.915-.067L58.076,256Z" transform="translate(-28.448 -206.996)" fill="#e99a58"/>
        <g id="Grupo_1203498" data-name="Grupo 1203498" transform="translate(0.002 12.064)">
          <path id="Trazado_1255085" data-name="Trazado 1255085" d="M61.129,84.729c.041-.142.095-.142.161-.006L61.4,84.4H67.38l.189.323c.052-.138.105-.133.161.006l.108-.323H73.82l.189.323c.041-.142.095-.142.161-.006l.187-.323H80.31l.234.323,4,0-.013,4.029-26.769-.011a.363.363,0,0,0-.359.161.124.124,0,0,0-.138-.03,6.766,6.766,0,0,1,.03-4.149c.034-.125.084-.305.187-.323a26.583,26.583,0,0,1,3.414,0l.232.323Z" transform="translate(-50.824 -84.332)" fill="#f5a86c"/>
          <path id="Trazado_1255086" data-name="Trazado 1255086" d="M227.043,84.657c.015-.125.054-.314.144-.323a27.782,27.782,0,0,1,3.386,0c.6-.11,1,0,1.194.323.015-.125.054-.314.142-.323a21.653,21.653,0,0,1,3.035,0l.228.323c.015-.127.056-.314.146-.323a36.941,36.941,0,0,1,4.395,0l.234.323c.015-.125.052-.31.144-.323a14.845,14.845,0,0,1,2.231,0q.771-.155.977.323c.015-.125.054-.314.144-.323a28.218,28.218,0,0,1,3.386,0c.6-.11,1,0,1.194.323l4.666,0-.039,4.029-27.167-.009c-.125-.032-.29-.075-.323-.183-.073-.241-.043-3.216,0-3.612l.323-.23c.073-.5,1.435-.484,1.564,0Z" transform="translate(-182.812 -84.267)" fill="#f5a86c"/>
          <path id="Trazado_1255087" data-name="Trazado 1255087" d="M31.737,84.712h.721c.069-.325.4-.432,1-.318.716-.131,1.2-.022,1.461.325a37.618,37.618,0,0,1-.03,4.149l-3.2.019-3.242-.006V84.708l3.285,0Z" transform="translate(-28.45 -84.325)" fill="#e99a58"/>
          <path id="Trazado_1255088" data-name="Trazado 1255088" d="M199.6,84.7h1.514c.065-.518,1.719-.478,1.874,0v4.179l-3.394-.006-3.13.006L196.46,84.7H199.6Z" transform="translate(-160.321 -84.313)" fill="#e99a58"/>
        </g>
        <path id="Trazado_1255089" data-name="Trazado 1255089" d="M203.061,256.664l.011,4.1-6.522-.054v-4.07Z" transform="translate(-160.389 -207.498)" fill="#e99a58"/>
        <g id="Grupo_1203499" data-name="Grupo 1203499" transform="translate(0 30.386)">
          <path id="Trazado_1255090" data-name="Trazado 1255090" d="M247.976,170.22h4.661l-.006,4.05-27.2-.009c-.125-.034-.308-.084-.323-.183a27.646,27.646,0,0,1,0-3.607l.323-.23q6.953-.158,14.162-.088.226-.481.45,0,4.03-.068,7.937.069Z" transform="translate(-182.756 -169.812)" fill="#f5a86c"/>
          <path id="Trazado_1255091" data-name="Trazado 1255091" d="M41.286,169.842l.148-.323H49.18l.191.323.148-.323,7.752-.009.194.323,4.7.028-.011,4.042-27.073-.011c-.148,0-.2.105-.194.163H31.727c-.034.123-.084.31-.183.321a26.675,26.675,0,0,1-2.876,0,.515.515,0,0,1-.228-.323v-.159l.108-.323,5.982,0A26.688,26.688,0,0,0,34.6,170.1l.32-.23c0-.125.03-.318.108-.323a46.241,46.241,0,0,1,5.7-.03c.305-.041.46-.006.557.318Z" transform="translate(-28.44 -169.445)" fill="#f5a86c"/>
          <path id="Trazado_1255092" data-name="Trazado 1255092" d="M201.15,171.319l1.871.009v4.02l-3.222,0a.162.162,0,0,0-.172.157c-1.017,0-2.046-.11-3.128-.006l.013-4.2,4.638.017Z" transform="translate(-160.35 -170.901)" fill="#e99a58"/>
          <path id="Trazado_1255093" data-name="Trazado 1255093" d="M34.931,171.354l.024,4.016-6.5,0,0-4.044Z" transform="translate(-28.448 -170.924)" fill="#e99a58"/>
        </g>
        <g id="Grupo_1203502" data-name="Grupo 1203502" transform="translate(4.672 57.797)">
          <g id="Grupo_1203500" data-name="Grupo 1203500">
            <path id="Trazado_1255094" data-name="Trazado 1255094" d="M69.137,297.38a32.577,32.577,0,0,1-.015,4.913l-4.65.019c-.125-.015-.316-.056-.323-.144a31.043,31.043,0,0,1,0-4.45c.015-.381.043-.626.484-.647l4.018.011a.509.509,0,0,1,.488.3Z" transform="translate(-61.075 -297.029)" fill="#08a8f0"/>
            <path id="Trazado_1255095" data-name="Trazado 1255095" d="M107.114,297.244c.127.015.316.056.323.146a42.874,42.874,0,0,1,0,4.676.53.53,0,0,1-.323.237l-4.734-.011c-.127-.015-.316-.056-.323-.144a31.991,31.991,0,0,1,.125-4.973l.415-.125,3.721.015a1.607,1.607,0,0,1,.792.183Z" transform="translate(-90.857 -297.013)" fill="#08a8f0"/>
            <path id="Trazado_1255096" data-name="Trazado 1255096" d="M144.77,302.276l-4.724,0c-.125-.015-.316-.056-.323-.144a31.109,31.109,0,0,1,0-4.455c.019-.381.049-.626.49-.652l4.493.062.065,5.182Z" transform="translate(-120.393 -296.997)" fill="#08a8f0"/>
            <path id="Trazado_1255097" data-name="Trazado 1255097" d="M91.5,296.944a1.877,1.877,0,0,0-.226.989l.009,4.255-3.317-.021a32.437,32.437,0,0,1-.013-4.9.465.465,0,0,1,.48-.342l3.065.024Z" transform="translate(-79.757 -296.911)" fill="#0290ce"/>
            <path id="Trazado_1255098" data-name="Trazado 1255098" d="M53.718,296.918a1.793,1.793,0,0,0-.163.662l0,4.58-3.4.006.037-5.184a22.349,22.349,0,0,1,3.521-.065Z" transform="translate(-50.16 -296.878)" fill="#028fce"/>
            <path id="Trazado_1255099" data-name="Trazado 1255099" d="M129.292,296.92a1.88,1.88,0,0,0-.17.669l0,4.582-3.392.006,0-5.059a2.191,2.191,0,0,1,1.291-.228l2.269.032Z" transform="translate(-109.475 -296.886)" fill="#028fce"/>
            <path id="Trazado_1255100" data-name="Trazado 1255100" d="M87.743,303.414l-.163.009.013-4.913h.136Z" transform="translate(-79.531 -298.159)" fill="#24a3d9"/>
          </g>
          <g id="Grupo_1203501" data-name="Grupo 1203501" transform="translate(36.083 0.005)">
            <path id="Trazado_1255101" data-name="Trazado 1255101" d="M237.424,298.8l.26.4-.047,2.676-.329.359-4.715-.011-.323-.174c-.206-1.777-.219-5,2.16-5.083a2.578,2.578,0,0,1,2.611,1.448c.086.209.185.383.383.383Z" transform="translate(-229.114 -296.955)" fill="#fc5426"/>
            <path id="Trazado_1255102" data-name="Trazado 1255102" d="M312.857,302.2l-4.726-.006c-.125-.015-.312-.052-.323-.14-.206-1.785-.245-5.046,2.17-5.113a2.642,2.642,0,0,1,2.882,2.629l-.006,2.631Z" transform="translate(-288.402 -296.931)" fill="#fc5426"/>
            <path id="Trazado_1255103" data-name="Trazado 1255103" d="M275,298.94a12.038,12.038,0,0,1,.026,3.257l-4.64.019c-.125-.034-.312-.09-.32-.187-.17-1.8-.3-4.93,2.1-5.078,1.284,0,2.814.587,2.831,1.99Z" transform="translate(-258.784 -296.939)" fill="#fc5426"/>
            <path id="Trazado_1255104" data-name="Trazado 1255104" d="M223.225,296.97a2.811,2.811,0,0,0-1.846,2.783l.009,2.476c-1.162,0-2.332-.052-3.478-.069l.034-2.721a2.44,2.44,0,0,1,2.351-2.461l2.928,0Z" transform="translate(-217.91 -296.955)" fill="#ee4424"/>
            <path id="Trazado_1255105" data-name="Trazado 1255105" d="M261.169,296.926c-.832.48-1.738,1.108-1.749,2.173l-.03,3.093-3.409.009a21.536,21.536,0,0,1,.116-3.437,2.325,2.325,0,0,1,2.289-1.843l2.788,0Z" transform="translate(-247.783 -296.916)" fill="#ee4424"/>
            <path id="Trazado_1255106" data-name="Trazado 1255106" d="M298.985,296.909a2.736,2.736,0,0,0-1.85,2.624v2.629l-3.321-.006a12.175,12.175,0,0,1,.015-3.274,2.3,2.3,0,0,1,2.379-1.981Z" transform="translate(-277.406 -296.9)" fill="#ee4424"/>
            <path id="Trazado_1255107" data-name="Trazado 1255107" d="M293.491,309.386h-.163l-.028-3.257.206-.019Z" transform="translate(-277.084 -304.129)" fill="#f5603b"/>
          </g>
        </g>
        <g id="Grupo_1203506" data-name="Grupo 1203506" transform="translate(40.824 20.546)">
          <path id="Trazado_1255108" data-name="Trazado 1255108" d="M249.353,150.072l.009.146-22.551.019,0-.166,6.279,0h8.049V144.43h.163v5.644Z" transform="translate(-224.964 -139.971)" fill="#c9e9ed"/>
          <g id="Grupo_1203503" data-name="Grupo 1203503">
            <path id="Trazado_1255109" data-name="Trazado 1255109" d="M220.222,141.606c.034-.125.082-.308.183-.323a27.415,27.415,0,0,1,3.736,0l.23.323,1.344,0a1.122,1.122,0,0,1,.656.318l-.015,5.636a48.141,48.141,0,0,1-6.279,0l-1.848.039.045-5.834a4.863,4.863,0,0,1,1.947-.151Z" transform="translate(-218.23 -137.45)" fill="#c7eefd"/>
            <path id="Trazado_1255110" data-name="Trazado 1255110" d="M231.631,127.851H227.48V124.3a.55.55,0,0,1,.523-.592l3.009-.006a.582.582,0,0,1,.62.624l0,3.525Z" transform="translate(-225.49 -123.7)" fill="#b4acce"/>
          </g>
          <g id="Grupo_1203504" data-name="Grupo 1203504" transform="translate(16.238 0.004)">
            <path id="Trazado_1255111" data-name="Trazado 1255111" d="M295.731,141.642c.034-.125.086-.314.183-.323a36.589,36.589,0,0,1,3.736,0,.521.521,0,0,1,.23.323l1.346-.006a.6.6,0,0,1,.647.645l0,5.313q-4,.132-8.116.077-.087-2.894.065-5.72a.493.493,0,0,1,.475-.31h1.433Z" transform="translate(-293.722 -137.495)" fill="#c7eefd"/>
            <path id="Trazado_1255112" data-name="Trazado 1255112" d="M307.219,127.867H303.07v-3.551a.552.552,0,0,1,.529-.592l3.011,0a.585.585,0,0,1,.613.622Z" transform="translate(-301.059 -123.72)" fill="#b5acce"/>
          </g>
          <g id="Grupo_1203505" data-name="Grupo 1203505" transform="translate(7.739 0.004)">
            <path id="Trazado_1255113" data-name="Trazado 1255113" d="M256.588,141.61c.034-.125.082-.308.183-.323a27.392,27.392,0,0,1,3.734,0l.23.323h1.433a.492.492,0,0,1,.478.3q.126,2.81.1,5.72-4.111.065-8.152-.077c-.127-.034-.316-.092-.32-.189a48.505,48.505,0,0,1,.015-5.212.519.519,0,0,1,.323-.234.71.71,0,0,1,.626-.312h1.351Z" transform="translate(-254.208 -137.459)" fill="#98e5fb"/>
            <path id="Trazado_1255114" data-name="Trazado 1255114" d="M269.394,127.871h-4.147l-.006-3.53a.585.585,0,0,1,.613-.622l3.011,0a.552.552,0,0,1,.529.592v3.558Z" transform="translate(-262.867 -123.72)" fill="#b5acce"/>
          </g>
        </g>
        <g id="Grupo_1203510" data-name="Grupo 1203510" transform="translate(4.668 20.546)">
          <g id="Grupo_1203507" data-name="Grupo 1203507" transform="translate(15.869)">
            <path id="Trazado_1255115" data-name="Trazado 1255115" d="M126.295,141.73c.034-.125.086-.314.183-.323a24.254,24.254,0,0,1,3.859.105.441.441,0,0,1,.105.215h1.443a.5.5,0,0,1,.538.478l-.021,5.6-8.092.009c-.127-.034-.316-.09-.323-.189a38.16,38.16,0,0,1,0-4.653q-.152-.752.32-.949a1.125,1.125,0,0,1,.645-.3l1.344,0Z" transform="translate(-123.914 -137.578)" fill="#c7eefd"/>
            <path id="Trazado_1255116" data-name="Trazado 1255116" d="M139.114,127.849h-4.149l0-3.525a.584.584,0,0,1,.619-.624l3.009.006a.549.549,0,0,1,.523.592v3.551Z" transform="translate(-132.584 -123.7)" fill="#b4acce"/>
          </g>
          <g id="Grupo_1203508" data-name="Grupo 1203508" transform="translate(8.167 0.002)">
            <path id="Trazado_1255117" data-name="Trazado 1255117" d="M90.07,141.676c.034-.125.086-.312.183-.323a21.068,21.068,0,0,1,2.708,0c.635-.116,1.054-.011,1.254.323l1.2-.009a1.216,1.216,0,0,1,.792.3v5.79H88.119l-.009-5.709c0-.2.28-.374.521-.374h1.437Z" transform="translate(-88.11 -137.523)" fill="#98e5fb"/>
            <path id="Trazado_1255118" data-name="Trazado 1255118" d="M101.367,127.864H97.22v-3.558a.551.551,0,0,1,.529-.592l3.011,0a.587.587,0,0,1,.613.622l-.006,3.53Z" transform="translate(-95.26 -123.71)" fill="#b5acce"/>
          </g>
          <g id="Grupo_1203509" data-name="Grupo 1203509" transform="translate(0 0.004)">
            <path id="Trazado_1255119" data-name="Trazado 1255119" d="M52.134,141.587c.034-.125.084-.308.183-.323a27.075,27.075,0,0,1,3.736,0l.23.323,1.273-.013a.811.811,0,0,1,.753.389c.125,0,.314.028.323.11a35.773,35.773,0,0,1,.009,5.41l-.323.191-6.363.032c0-.1-.189-.217-.344-.168H50.144l0-5.311a.6.6,0,0,1,.65-.645l1.347.006Z" transform="translate(-50.14 -137.44)" fill="#c7eefd"/>
            <path id="Trazado_1255120" data-name="Trazado 1255120" d="M63.544,127.865H59.394l0-3.523A.586.586,0,0,1,60,123.72l3.011,0a.552.552,0,0,1,.529.592v3.551Z" transform="translate(-57.4 -123.72)" fill="#b5acce"/>
          </g>
        </g>
        <g id="Grupo_1203511" data-name="Grupo 1203511" transform="translate(40.157 41.289)">
          <path id="Trazado_1255121" data-name="Trazado 1255121" d="M287.189,227.841a.484.484,0,0,1-.032.133H274.278c-.14-.034-.129-.077.015-.127l.11-.323,6.053-.032-.024-7.169.32-.194,5.614,0a.825.825,0,0,1,.815.794l0,6.915Z" transform="translate(-261.477 -220.13)" fill="#fbdc66"/>
          <path id="Trazado_1255122" data-name="Trazado 1255122" d="M250.313,220.13l.323.148q-.01,3.685-.019,7.376l-.323.191-.015.127h-6.244l-.114-.127-.32-.151q.023-3.685.045-7.372l.323-.189,6.348,0Z" transform="translate(-237.476 -220.13)" fill="#fbdc66"/>
          <path id="Trazado_1255123" data-name="Trazado 1255123" d="M221.62,220.15l-.047,7.711H215.13l0-6.892a.84.84,0,0,1,.9-.82Z" transform="translate(-215.13 -220.146)" fill="#feed99"/>
          <path id="Trazado_1255124" data-name="Trazado 1255124" d="M281.169,220.13l.026,7.716H274.71l.021-7.716Z" transform="translate(-261.894 -220.13)" fill="#feed99"/>
        </g>
        <g id="Grupo_1203516" data-name="Grupo 1203516" transform="translate(4.009 3.609)">
          <g id="Grupo_1203512" data-name="Grupo 1203512" transform="translate(0 1.276)">
            <path id="Trazado_1255125" data-name="Trazado 1255125" d="M142.188,51.263a.725.725,0,0,1,.688.721l.011,6.7h-6.376q-.1-3.662-.131-7.488,2.914-.061,5.808.065Z" transform="translate(-117.172 -51.115)" fill="#028fce"/>
            <path id="Trazado_1255126" data-name="Trazado 1255126" d="M47.721,51.272a39.726,39.726,0,0,1,5.657,0,67.088,67.088,0,0,1,0,7.412H49.545l-2.465-.006,0-6.754a.689.689,0,0,1,.635-.654Z" transform="translate(-47.08 -51.111)" fill="#08a8f0"/>
            <path id="Trazado_1255127" data-name="Trazado 1255127" d="M74.427,51.038l-5.676.017v7.4l-.161.006-.215-.013q-.123-3.523-.2-7.079H62.5l-.189-.323q-.068.21-.161,0l-.108.323H56.058l-.189-.323c-.045.14-.1.138-.161,0H50.05a.221.221,0,0,1,.211-.161H74.049a.445.445,0,0,1,.376.146Z" transform="translate(-49.411 -50.89)" fill="#3dacd9"/>
            <path id="Trazado_1255128" data-name="Trazado 1255128" d="M112.955,59.062h-6.279a67.084,67.084,0,0,1,0-7.412h6.281v7.412Z" transform="translate(-93.777 -51.487)" fill="#08a8f0"/>
            <path id="Trazado_1255129" data-name="Trazado 1255129" d="M83.015,51.65a66.973,66.973,0,0,1,0,7.406H76.736a66.973,66.973,0,0,1,0-7.406Z" transform="translate(-70.277 -51.487)" fill="#028fce"/>
            <path id="Trazado_1255130" data-name="Trazado 1255130" d="M106.461,59.062l-.161-.006V51.65h.161Z" transform="translate(-93.562 -51.487)" fill="#34a6d5"/>
            <path id="Trazado_1255131" data-name="Trazado 1255131" d="M76.521,59.056l-.161.006V51.65h.161Z" transform="translate(-70.062 -51.487)" fill="#2cade3"/>
          </g>
          <g id="Grupo_1203515" data-name="Grupo 1203515" transform="translate(36.787)">
            <path id="Trazado_1255132" data-name="Trazado 1255132" d="M275.122,54.982h-4.775c-.125,0-.318-.03-.323-.108a46.717,46.717,0,0,1,0-5.782c-.041-.305,0-.456.323-.548l4.644-.054a5.923,5.923,0,0,1,.127-2.031l.323.146q0,4.091.006,8.182l-.323.189Z" transform="translate(-258.783 -46.137)" fill="#57bd91"/>
            <g id="Grupo_1203513" data-name="Grupo 1203513">
              <path id="Trazado_1255133" data-name="Trazado 1255133" d="M240.77,47.445l-.144.321-2.934-.017v5.943l-.325.189h-4.721c-.127-.013-.318-.058-.323-.146-.041-1.026-.176-8.241.112-8.557l.417-.118,4,.017a.537.537,0,0,1,.512.589l0,1.643,3.211-.03a.183.183,0,0,1,.185.166Z" transform="translate(-229.211 -45.038)" fill="#57bd91"/>
              <path id="Trazado_1255134" data-name="Trazado 1255134" d="M221.744,44.981a1.5,1.5,0,0,0-.209.609V53.8H218.1l0-8.311a.558.558,0,0,1,.576-.533Z" transform="translate(-218.1 -44.96)" fill="#22b17f"/>
            </g>
            <g id="Grupo_1203514" data-name="Grupo 1203514" transform="translate(16.333 0.002)">
              <path id="Trazado_1255135" data-name="Trazado 1255135" d="M312.955,53.883h-4.724c-.127-.013-.318-.058-.323-.148-.041-1.026-.174-8.247.116-8.561l.419-.114,4,.017a.541.541,0,0,1,.51.6l0,8.208Z" transform="translate(-304.871 -45.041)" fill="#57bd91"/>
              <path id="Trazado_1255136" data-name="Trazado 1255136" d="M297.6,44.989a1.424,1.424,0,0,0-.215.609v8.217h-3.351l-.006-8.52a.571.571,0,0,1,.512-.325l3.061.022Z" transform="translate(-294.03 -44.97)" fill="#22b17f"/>
            </g>
            <path id="Trazado_1255137" data-name="Trazado 1255137" d="M259.415,56.079l0,6.438h-3.4l0-6.457Z" transform="translate(-247.856 -53.672)" fill="#22b17f"/>
          </g>
        </g>
      </g>
    </g>
    <g id="Grupo_1203519" data-name="Grupo 1203519" transform="translate(4.729 75.193)">
      <path id="Trazado_1255138" data-name="Trazado 1255138" d="M278.694,349.668l-.011,6.5a.922.922,0,0,1-.652.647l-12.684,0a.914.914,0,0,1-.736-.424l-1.8-6.277q-2.988-.155-6.016-.234l-.181-.3,22.082.088Z" transform="translate(-206.142 -349.576)" fill="#a34f3e"/>
      <path id="Trazado_1255139" data-name="Trazado 1255139" d="M26.448,349.56l17.692.092-1.876,6.563c-.06.213-.277.583-.555.583l-12.033.006q-.784-.077-.845-.607l-.058-6.152H22.282l-.191-.323c-.14-.045-.138-.1,0-.159h4.36Z" transform="translate(-21.986 -349.56)" fill="#a34f3e"/>
      <path id="Trazado_1255140" data-name="Trazado 1255140" d="M30.057,357.4H23.281a.773.773,0,0,1-.811-.809V350.32h7.036l.022,6.44c0,.305.379.512.527.643Z" transform="translate(-22.366 -350.156)" fill="#883f2e"/>
      <path id="Trazado_1255141" data-name="Trazado 1255141" d="M265.347,356.81l-6.277,0c-.2,0-.458-.295-.51-.473l-1.951-6.763,6.427.17,1.874,6.528C264.977,356.5,265.242,356.668,265.347,356.81Z" transform="translate(-206.142 -349.568)" fill="#883f2e"/>
    </g>
  </g>
</svg>
