<svg id="Grupo_1224189" data-name="Grupo 1224189" xmlns="http://www.w3.org/2000/svg" xmlns:xlink="http://www.w3.org/1999/xlink" width="81.532" height="75.521" viewBox="0 0 81.532 75.521">
  <defs>
    <clipPath id="clip-path">
      <rect id="Rectángulo_744914" data-name="Rectángulo 744914" width="81.532" height="75.521" fill="none"/>
    </clipPath>
  </defs>
  <g id="Grupo_1224181" data-name="Grupo 1224181" clip-path="url(#clip-path)">
    <path id="Trazado_1390907" data-name="Trazado 1390907" d="M185.864,117.424l.016,5.763-.167.143.007-5.545a.174.174,0,0,0-.173-.179Z" transform="translate(-123.147 -77.934)" fill="#bfe5ee"/>
    <path id="Trazado_1390908" data-name="Trazado 1390908" d="M135.135,190.421H128.1c-.061.133-.114.125-.159-.018a2.464,2.464,0,0,0-.916-1.78l-1.673-1.509a15.9,15.9,0,0,0,10.56-5.578Z" transform="translate(-83.196 -120.485)" fill="#b8e3ee"/>
    <path id="Trazado_1390909" data-name="Trazado 1390909" d="M173.244,133.777l.327.084q.485,5.893.971,11.789l-.3.219-.344.2q-2.123-.039-4.228-.181a38.35,38.35,0,0,1-1.425-3.927.592.592,0,0,0-1.075.126q-.577,1.929-1.337,3.785a39.055,39.055,0,0,1-4.272.172.627.627,0,0,0-.335.881q1.745,1.258,3.362,2.665a39.7,39.7,0,0,1-1.124,3.9c-.057.68.384.9.979.617q1.605-1.2,3.307-2.233a36.993,36.993,0,0,1,3.38,2.283.583.583,0,0,0,.885-.606q-.67-1.954-1.155-3.951a31.911,31.911,0,0,1,3.081-2.4l.371.121c.123-.012.316,0,.328.077.263,1.818.815,6.09.553,7.761-.514,3.271-2.9,4.889-6,5.27l-15.351.066-.194-.318.195-1.726-.3-.174q.333-3.97.712-7.939l.369-.772,1.324-15.089a.661.661,0,0,1,.717-.579h1.33c.058-.487,1.151-.466,1.25,0,.07-.459,1.669-.4,2.064-.317.239-.043.361.072.434.318.016-.123.051-.305.142-.318a20.4,20.4,0,0,1,2.365.01.528.528,0,0,1,.224.319c.022-.109.041-.175.167-.144.014-.125.058-.315.146-.318,2.384-.092,5.4-.141,7.759.013q.59-.126.7.32" transform="translate(-101.903 -88.509)" fill="#dc578f"/>
    <path id="Trazado_1390910" data-name="Trazado 1390910" d="M173.617,133.982q.317-.5,1.388-.268.889-.139,1.133.36a12.31,12.31,0,0,1,2.731-.006c.226.071.572.21.606.6l2.288,26.012c.106,1.2.3,2.653-.022,2.819-.114.059-.411-.047-.493.211l-27.2-.009c-.189-.169-.638-.092-.641-.458l-.013-1.43.159-.789v-.663l15.372-.065a5.915,5.915,0,0,0,5.9-6.424l-.611-6.368a11.642,11.642,0,0,0-.07-1.447l-1-12.091c0-.459.369-.417.468.021" transform="translate(-101.808 -88.693)" fill="#d9387d"/>
    <path id="Trazado_1390911" data-name="Trazado 1390911" d="M187.448,116.365c.139.028.13.067-.011.117l-2.521-.091-.3-.356a5.684,5.684,0,0,0-8.324-5.332l-.467-.11q-.108.526-.317.182l-.106.441a5.5,5.5,0,0,0-2.168,4.917l-.29.354h-2.5a8.676,8.676,0,0,1,5.264-8.649c0-.049.085-.082.135-.08a8.256,8.256,0,0,1,3.768-.593,8.554,8.554,0,0,1,7.839,9.2" transform="translate(-113.107 -71.101)" fill="#f3dc45"/>
    <path id="Trazado_1390912" data-name="Trazado 1390912" d="M182.538,223.032l-27.2-.009Z" transform="translate(-103.099 -148.019)" fill="#edaac7"/>
    <path id="Trazado_1390913" data-name="Trazado 1390913" d="M223.752,134.644l-2.731.006.011-.117a11.529,11.529,0,0,1,2.719.111" transform="translate(-146.691 -89.27)" fill="#da4584"/>
    <path id="Trazado_1390914" data-name="Trazado 1390914" d="M153.369,215.851c0-.269-.078-.606.159-.789,0,.268.071.606-.159.789" transform="translate(-101.782 -142.736)" fill="#db4d89"/>
    <path id="Trazado_1390915" data-name="Trazado 1390915" d="M188.627,161.674a.825.825,0,0,1,.42.712.842.842,0,0,1-.35.735l-3.183,2.356,1.165,3.688a.9.9,0,0,1-.521,1.138,1.031,1.031,0,0,1-1.056-.225l-2.941-2.124-3.106,2.187a.943.943,0,0,1-1.242-.011.988.988,0,0,1-.22-1.12l1.118-3.521-3.256-2.478a.8.8,0,0,1-.14-.976.786.786,0,0,1,.687-.51l4.041-.066,1.195-3.619a.913.913,0,0,1,1.723-.106l1.249,3.725,3.579.047a1.657,1.657,0,0,1,.839.168" transform="translate(-116.289 -104.315)" fill="#f3dc45"/>
    <path id="Trazado_1390916" data-name="Trazado 1390916" d="M8.81,190.347c.132-.446,1.709-.175,2.09-.037.243-.01.348.12.387.374a5.322,5.322,0,0,1,1.43-.139c6.312.467,12.479.917,18.807.07a5.232,5.232,0,0,1,1.428.161,6.425,6.425,0,0,1,2.75-.719c.125.035.2.166.269.283-.027-.471.793-.58.957-.138,2.538,1,1.91,5.177-.71,5.777a92.605,92.605,0,0,1-34.756,1.145,3.769,3.769,0,0,1-.74-.226A6.845,6.845,0,0,1,0,196.563v-1.318a6.12,6.12,0,0,1,1.923-2.206l3.63-3.22c.035-.119.1-.294.191-.292a14.421,14.421,0,0,1,2.168.351q.774-.029.9.468" transform="translate(0 -125.789)" fill="#dc578f"/>
    <path id="Trazado_1390917" data-name="Trazado 1390917" d="M39.188,189.91l2.969,2.585c.893.06,2.947,2.071,2.879,2.94-.015.193-.061.275-.291.349a1,1,0,0,1,.009.83,2.639,2.639,0,0,1-1.905,2.416,88.261,88.261,0,0,1-14.53,2.133l-3.164.05a1.246,1.246,0,0,1-.954,0,.876.876,0,0,1-.8,0,5.307,5.307,0,0,1-2.07,0,.872.872,0,0,1-.8,0c-.212.167-.668.09-.958,0l-2.7-.037-2.376-.164a72.776,72.776,0,0,1-12.61-2A3.224,3.224,0,0,1,0,197.073v-.434a93.819,93.819,0,0,0,35.705-.774,3,3,0,0,0,2.35-1.955,2.852,2.852,0,0,0-.658-3.021c-.214-.21-.44-.361-.469-.61-.069-.444,1.588-.669,1.895-.633a.359.359,0,0,1,.365.263" transform="translate(0 -125.865)" fill="#d9387d"/>
    <path id="Trazado_1390918" data-name="Trazado 1390918" d="M65.307,224.047c.139.045.137.1,0,.16h-2.07c-.139-.045-.137-.1,0-.16Z" transform="translate(-41.901 -148.699)" fill="#e16c9f"/>
    <path id="Trazado_1390919" data-name="Trazado 1390919" d="M59.183,224.042c.137.049.134.1,0,.16-.318,0-.712.087-.954-.159Z" transform="translate(-38.644 -148.696)" fill="#ea9bbd"/>
    <path id="Trazado_1390920" data-name="Trazado 1390920" d="M72.718,224.044c-.238.247-.632.158-.95.159-.14-.041-.14-.094,0-.158Z" transform="translate(-47.562 -148.697)" fill="#ea99bc"/>
    <path id="Trazado_1390921" data-name="Trazado 1390921" d="M133.058,208.732l-.009-.83.159.018a1.125,1.125,0,0,1-.15.812" transform="translate(-88.304 -137.984)" fill="#e685ae"/>
    <path id="Trazado_1390922" data-name="Trazado 1390922" d="M61.861,224.044v.16l-.8,0,0-.16Z" transform="translate(-40.525 -148.696)" fill="#e582ac"/>
    <path id="Trazado_1390923" data-name="Trazado 1390923" d="M70.392,224.046l0,.158-.8,0v-.16Z" transform="translate(-46.191 -148.699)" fill="#e582ac"/>
    <path id="Trazado_1390924" data-name="Trazado 1390924" d="M104.309,155.726l-2.26.37-.957.138-.319-.147-.027-9.1a15.554,15.554,0,0,0-2.561-8.189l-.066-.665a10.678,10.678,0,0,1,6.154,9.463Z" transform="translate(-65.122 -91.682)" fill="#70c5d9"/>
    <path id="Trazado_1390925" data-name="Trazado 1390925" d="M88.351,135.29a10.273,10.273,0,0,1,2.863.948,15.878,15.878,0,0,1,2.949,9.149l.023,8.946-3.019.436q-.219-.292.249-.55l-.04-9.189a28.636,28.636,0,0,0-.8-4.773l-.637-1.554q-1.11-1.663-2.228-3.274a.755.755,0,0,1,.636-.139" transform="translate(-58.216 -89.781)" fill="#6bbbd4"/>
    <path id="Trazado_1390926" data-name="Trazado 1390926" d="M63.033,126.714q-3.463.114-7.059.044l-.067-2.3c.006-.033.02-.082-.036-.106.38-.749.972-1.571,1.921-1.582l3.019-.033a2.177,2.177,0,0,1,2.226,2.216Z" transform="translate(-37.081 -81.458)" fill="#dc5790"/>
    <path id="Trazado_1390927" data-name="Trazado 1390927" d="M29.268,134.571c-4.2.642-6.933,5.709-6.962,9.718l-.035,7.218-.2.306-1.941-.085-.042,1.927-.323.218-3.258-.528.017-2.227.2-.306a21.8,21.8,0,0,0,2.737.1q-.053-3.84.124-7.727c.368-2.589,1.134-5.648,3.13-7.423a10,10,0,0,1,4.228-1.141Z" transform="translate(-10.958 -89.314)" fill="#70c5d9"/>
    <path id="Trazado_1390928" data-name="Trazado 1390928" d="M22.754,138.122a16.446,16.446,0,0,0-2.92,9.275l-.017,6.286-3.255-.208.066-6.459a11.007,11.007,0,0,1,6.126-8.894" transform="translate(-10.992 -91.671)" fill="#7acfde"/>
    <path id="Trazado_1390929" data-name="Trazado 1390929" d="M54.506,164.6a85.64,85.64,0,0,1-21.664-.092q-.515-.307-.305-1.394-.178-.988.331-1.309a76.429,76.429,0,0,0,18.03-.968,4.029,4.029,0,0,0,3.251-4.011l0-3.522a19.8,19.8,0,0,0-.235-3.217,14,14,0,0,1,1.129,5.294l.028,8.906Z" transform="translate(-21.554 -99.613)" fill="#70c5d9"/>
    <path id="Trazado_1390930" data-name="Trazado 1390930" d="M28.7,184.6l-.025,2.7-2.477-.338.055-2.533Z" transform="translate(-17.388 -122.407)" fill="#6bbbd4"/>
    <path id="Trazado_1390931" data-name="Trazado 1390931" d="M40.409,134.208c0-.385.143-.437.187-.043q3.515-.042,6.969.1l1.111-.029c2.257.082,3.654,1.7,4.658,3.55.488-.156,1.023,1.255.637,1.554.434,2.073,1.026,6.348.238,8.378a4.266,4.266,0,0,1-2.914,2.625c-1.869.317-3.755.607-5.653.792a56.117,56.117,0,0,1-11.4.319,4.43,4.43,0,0,1-1.318-.4c-.124,0-.315-.033-.318-.109a67.467,67.467,0,0,1,.289-9.3c.818-3.4,3.119-7.46,7.026-7.523a.835.835,0,0,1,.491.087" transform="translate(-21.607 -88.864)" fill="#7acfde"/>
    <path id="Trazado_1390932" data-name="Trazado 1390932" d="M83.554,135.023c-.081.043-.223-.018-.409.119a9.131,9.131,0,0,1,2,3.294.876.876,0,0,1-.431-.409,7.73,7.73,0,0,0-4.227-3.142,16.585,16.585,0,0,1,3.066.138" transform="translate(-53.42 -89.514)" fill="#70c5d9"/>
    <path id="Trazado_1390933" data-name="Trazado 1390933" d="M63.056,130.11l.005.144-7.156-.056.024-2.346a8.337,8.337,0,0,1,.114,2.258Z" transform="translate(-37.104 -84.855)" fill="#da7ca7"/>
    <path id="Trazado_1390934" data-name="Trazado 1390934" d="M54.5,156.9l-2.813,1.941a.9.9,0,0,1-1.014.112.81.81,0,0,1-.35-.977l1.013-3.334-2.716-1.994a.843.843,0,0,1-.357-.953.88.88,0,0,1,.939-.582l3.314-.02,1.086-3.23a.81.81,0,0,1,.781-.615.763.763,0,0,1,.818.57l1.087,3.251,3.559.071a.778.778,0,0,1,.734.622.813.813,0,0,1-.339.834l-2.773,2.064,1.042,3.377a.828.828,0,0,1-.227.806.757.757,0,0,1-.99.1Z" transform="translate(-32.008 -97.726)" fill="#f3dc45"/>
    <path id="Trazado_1390935" data-name="Trazado 1390935" d="M181.312,26.908a1,1,0,0,1-.189-.637l.017-12.576a1.2,1.2,0,0,1,1.231-1.225,1.264,1.264,0,0,1,1.23,1.382V28.213l3.722-3.753a9.3,9.3,0,0,0-.3-12.8l-7.954-7.952c-.235-.235-.6-.312-.6-.651a16.373,16.373,0,0,1,6.785,3.579l14.439,14.305a.735.735,0,0,1,.286.619c-.015.178-.117.288-.3.467L188.279,33.4l-6.253-6.21a.763.763,0,0,0-.714-.279" transform="translate(-118.449 -2.03)" fill="#b8e3ee"/>
    <path id="Trazado_1390936" data-name="Trazado 1390936" d="M173.272,74.635c.137,3.022.123,6.318.016,9.38l-.237.458a8.367,8.367,0,0,0-4.729,7.768l-.3.423h-1.25l.035-19.155a2.207,2.207,0,0,1,3.81-1.575Z" transform="translate(-110.687 -47.28)" fill="#b8e3ee"/>
    <path id="Trazado_1390937" data-name="Trazado 1390937" d="M186.247,90.639c.013.117-.032.143-.135.08l-.016-9.38.149.031Z" transform="translate(-123.512 -53.985)" fill="#bfe5ef"/>
    <path id="Trazado_1390938" data-name="Trazado 1390938" d="M180.575,123.554l-2.73-.012a5.791,5.791,0,0,1,2.565-5.713l.183-.069s-.006,1.931-.018,5.794" transform="translate(-118.009 -78.157)" fill="#b8e3ee"/>
    <path id="Trazado_1390939" data-name="Trazado 1390939" d="M83.127,1.829l.346.392c1.506,11.7,17.944,11.711,19.445,0l.346-.394.087-.535a31.078,31.078,0,0,1,4.035.033,14.19,14.19,0,0,1-28.38,0,31.074,31.074,0,0,1,4.033-.034Z" transform="translate(-52.436 -0.823)" fill="#dc578f"/>
    <path id="Trazado_1390940" data-name="Trazado 1390940" d="M154.565,1.022l0,.156-3.853.02c-.15.064-.242.385-.269.483-.455.025-.463-.342-.038-.487-.139-.047-.136-.1,0-.161Z" transform="translate(-99.618 -0.678)" fill="#dea2c1"/>
    <path id="Trazado_1390941" data-name="Trazado 1390941" d="M83.165,1.039c.14.044.138.1,0,.16.458.051.4.419-.04.492-.026-.1-.116-.423-.266-.488l-3.854-.018.005-.154Z" transform="translate(-52.436 -0.685)" fill="#dea2c1"/>
    <path id="Trazado_1390942" data-name="Trazado 1390942" d="M111.436,1.052l0,.161-.111.318H91.57l-.195-.318,0-.16Z" transform="translate(-60.645 -0.698)" fill="#aab1ca"/>
    <path id="Trazado_1390943" data-name="Trazado 1390943" d="M111.358,1.531l.039.487a10.083,10.083,0,0,1-20.137.005l.04-.492Z" transform="translate(-60.568 -1.016)" fill="#7acfde"/>
    <path id="Trazado_1390944" data-name="Trazado 1390944" d="M26.575.348c.138.048.134.1,0,.154L26.9.994c1.354,17.655,26.369,17.671,27.726,0L54.95.5c-.14-.041-.14-.093,0-.156l.27-.316a16.916,16.916,0,0,1,4.645.621l.159.38a7.3,7.3,0,0,0,1.076.679l8.359,8.426a9.56,9.56,0,0,1,.273,11.747,41.455,41.455,0,0,1-4.293,4.466.578.578,0,0,1-.6-.272L64.818,11.61c-.263-1.138-1.528-1.179-1.809.006L62.991,24.23a.588.588,0,0,1-.128.649,1,1,0,0,1,.175,1.048,1.518,1.518,0,0,1-.3,1.461c-.062.13-.111.116-.149-.032l-.356.092-2.6-2.642c-1.456-1.127-3-.376-3.19,1.431l-.034,18.955-.319.193-.012.212q-.791.1-1.634.207-.78,7.5-1.39,15.083l-.334.164c-.436,1.34-1.818,2.33-2.972,3.123a15.927,15.927,0,0,1-6.97,2.7l-.619-.246c-.107.072-.27.176-.349.119a26.359,26.359,0,0,1-2.654-2.311l.034-.392-.319-.145q.109-4.946-.233-9.9c-.614-3.417-3.053-5.525-5.638-7.548a.907.907,0,0,1-.525.107A18.851,18.851,0,0,1,30.5,45.9a.941.941,0,0,1-.366-.392.428.428,0,0,0-.5.252,18.7,18.7,0,0,1-2.564-.39c-.042.483-1,.486-1.111.029-.141-.027-.139-.075-.005-.144l-.318-.176a3.61,3.61,0,0,0-.628-3.023c-.938-.641-3.408-.591-4.519-.406-.612.1-1.055.723-1.336,1.237l-.362,0-.318-.111q.011-8.795.023-17.593l.319-.195-.318-.148L18.5,11.486a.908.908,0,0,0-1.8.125l-.007,14.378-.13.491.089.358L12.2,31.185a.894.894,0,0,1-1.334-.161L.237,20.465,0,19.781v-.637l.243-.688L14.18,4.689a15.685,15.685,0,0,1,5.51-3.382C21.129.765,24.621-.2,26.063.037a.971.971,0,0,1,.512.311" transform="translate(0 -0.001)" fill="#d9f0f3"/>
    <path id="Trazado_1390945" data-name="Trazado 1390945" d="M101.3,80.044a.98.98,0,0,0-1.286-.034L95.98,82.972a1.422,1.422,0,0,1-1.612.172,1.324,1.324,0,0,1-.667-1.509l1.666-5.182a.794.794,0,0,0-.315-.931l-4.33-3.151a1.347,1.347,0,0,1-.4-1.635,1.434,1.434,0,0,1,1.385-.817l5.253.01a.741.741,0,0,0,.708-.559l1.638-5.04a1.383,1.383,0,0,1,2.642,0l1.638,5.04a.74.74,0,0,0,.709.557l5.411,0a1.337,1.337,0,0,1,1.267.936,1.36,1.36,0,0,1-.524,1.583l-4.42,3.219a.748.748,0,0,0-.142.781l1.641,5.062a1.377,1.377,0,0,1-.542,1.572,1.425,1.425,0,0,1-1.709-.111Z" transform="translate(-59.87 -42.05)" fill="#f3dc45"/>
    <path id="Trazado_1390946" data-name="Trazado 1390946" d="M51.127,45.595c-.164-.093-.516-.192-.7-.007-.534.547-1.058,1.01-1.554,1.494a.21.21,0,0,1-.188-.194L48.7,32.271a1.226,1.226,0,1,1,2.452,0Z" transform="translate(-32.315 -20.602)" fill="#b8e3ee"/>
  </g>
</svg>
