<svg id="Grupo_1224188" data-name="Grupo 1224188" xmlns="http://www.w3.org/2000/svg" xmlns:xlink="http://www.w3.org/1999/xlink" width="81.532" height="74.731" viewBox="0 0 81.532 74.731">
  <defs>
    <clipPath id="clip-path">
      <rect id="Rectángulo_744906" data-name="Rectángulo 744906" width="81.532" height="74.731" fill="none"/>
    </clipPath>
  </defs>
  <g id="Grupo_1224176" data-name="Grupo 1224176" clip-path="url(#clip-path)">
    <path id="Trazado_1390859" data-name="Trazado 1390859" d="M59.986,38.374l.389.031a2.8,2.8,0,0,0,1.655,1.622,39.308,39.308,0,0,0,6.133.066,2.189,2.189,0,0,0,1.749-.931q.428-1.1.955-.778l.362.125a2.112,2.112,0,0,0,2.042,1.567l4.482.114.238.346.02,21.643L65.385,62.2l-.34-.157-.035-12.285H55.073q-.186,6.022-.1,12.239l-.34.2L42,62.181l.011-21.644.145-.343,4.587-.105a2.354,2.354,0,0,0,2.145-1.826l.383-.112.374.112a2.365,2.365,0,0,0,2.1,1.813,39.706,39.706,0,0,0,6.236-.059,2.61,2.61,0,0,0,1.612-1.6Z" transform="translate(-19.24 -17.474)" fill="#fff"/>
    <rect id="Rectángulo_744905" data-name="Rectángulo 744905" width="10.756" height="12.782" transform="translate(35.39 31.945)" fill="#415a6b"/>
    <path id="Trazado_1390860" data-name="Trazado 1390860" d="M78.551,14.617q-15.823.154-32.008.081-.291.5-.58,0-5.337.076-10.491-.082L41.031,0H73Z" transform="translate(-16.247)" fill="#415a6b"/>
    <path id="Trazado_1390861" data-name="Trazado 1390861" d="M105.556,27.185l-.043,5.765c-.011,1.514-1.57,2.566-3.553,2.515l-4.735-.121a2.422,2.422,0,0,1-2.388-2.031l-.357-.149q-.2-2.858-.127-5.732l.34-.249c3.5-.142,7.327-.14,10.863,0" transform="translate(-43.208 -12.403)" fill="#ef5540"/>
    <path id="Trazado_1390862" data-name="Trazado 1390862" d="M46.268,32.12c.508-.061.472.888-.014.958a2.753,2.753,0,0,1-2.514,2.278l-4.747.109c-1.959.045-3.533-1-3.544-2.516l-.043-5.765c3.545-.133,7.35-.133,10.979-.054a1.149,1.149,0,0,1-.184.2q-.063,2.4.066,4.785" transform="translate(-16.218 -12.402)" fill="#cdd5df"/>
    <path id="Trazado_1390863" data-name="Trazado 1390863" d="M78.521,26.969a.409.409,0,0,1,.044.165H67.7l-.157.339H57.189l-.2-.339-.156.339-10.2.017-.02,4.339-.341.242a.39.39,0,0,1-.157-.34l0-4.6-10.706,0a.5.5,0,0,1,.035-.166Z" transform="translate(-16.218 -12.352)" fill="#c38d8a"/>
    <path id="Trazado_1390864" data-name="Trazado 1390864" d="M85.577,27.273l.007,4.757L85.72,33.4a.51.51,0,0,0-.324.336,2.632,2.632,0,0,1-2.376,1.712l-5.79-.025c-1.184,0-1.97-1.08-2.392-2.034a.532.532,0,0,1-.227-.014c-.282-.1-.166-5.309-.092-5.907l.34-.2Z" transform="translate(-34.093 -12.492)" fill="#cdd5df"/>
    <path id="Trazado_1390865" data-name="Trazado 1390865" d="M66.153,27.272l-.022,6.119a2.783,2.783,0,0,1-2.354,2.022l-5.785.021a2.719,2.719,0,0,1-2.571-2.267l.014-.958.023-4.938Z" transform="translate(-25.385 -12.491)" fill="#ef5540"/>
    <path id="Trazado_1390866" data-name="Trazado 1390866" d="M134.451,112.51a.459.459,0,0,1,.3-.2,5.471,5.471,0,0,0,4.288-5.407l-.017-19.011a5.4,5.4,0,0,0-4.136-5.2l2.964-.214a5.45,5.45,0,0,1,5.265,4.73v20.526a5.7,5.7,0,0,1-4.965,4.736Z" transform="translate(-61.583 -37.779)" fill="#e7465e"/>
    <path id="Trazado_1390867" data-name="Trazado 1390867" d="M22.765,82.2l.158-.339,12.264.019.2.34.157-.339H45.942l.2.34.158-.34,12.263-.02.206.339,17.5,0q-.29.574-1.47.449a5.668,5.668,0,0,1,2.937,4.247l.021,20.444c-.433,2.7-2.093,4.648-4.887,4.889l-67.853,0A5.625,5.625,0,0,1,0,107.474V86.924a5.618,5.618,0,0,1,5-4.746Z" transform="translate(0 -37.496)" fill="#f15e6c"/>
    <path id="Trazado_1390868" data-name="Trazado 1390868" d="M31.529,110.715l-.192,4.06-5.219-1.467-5.272,1.451-.214-5.5-2.981-4.453,3.746-1.377a15.85,15.85,0,0,0,9.963,8.445c-.012-.422-.087-.869.168-1.159" transform="translate(-8.085 -47.374)" fill="#f1b74c"/>
    <path id="Trazado_1390869" data-name="Trazado 1390869" d="M34.634,106.689a3.836,3.836,0,0,0-.117,1.265.79.79,0,0,1-.379.14c-.912.069-3.921-1.716-4.784-2.344-1.234-.9-5-4.588-4.922-5.984A1.572,1.572,0,0,1,24.5,99.4l1.43-.551,3.317-4.212L32.6,98.9l5.083,1.883-2.952,4.471c-.262.4-.052,1.054-.1,1.435" transform="translate(-11.19 -43.349)" fill="#fdd34c"/>
    <path id="Trazado_1390870" data-name="Trazado 1390870" d="M118.375,107.936a1.636,1.636,0,0,1-.348.133c-1.561.358-6.008-3.146-7.155-4.381-.655-.706-2.634-3.114-2.594-3.91a1.6,1.6,0,0,1,.07-.366l1.382-.526,3.343-4.244,3.4,4.276,5.046,1.857-2.908,4.479Z" transform="translate(-49.595 -43.349)" fill="#fdd34c"/>
    <path id="Trazado_1390871" data-name="Trazado 1390871" d="M105.235,103.443a16.171,16.171,0,0,0,10.028,8.525l-.016,2.821L110,113.3l-5.241,1.48c-.2-1.8-.173-3.53-.219-5.367l-3.061-4.612Z" transform="translate(-46.482 -47.38)" fill="#f1b74c"/>
    <path id="Trazado_1390872" data-name="Trazado 1390872" d="M76.519,105.713l-.093,2.267a.854.854,0,0,1-.372.163c-1.178.129-4.919-2.367-5.923-3.24-.944-.821-3.885-4-3.835-5.085a1.616,1.616,0,0,1,.069-.364l1.378-.527,3.368-4.193,3.484,4.1,4.943,2.032-2.658,3.966a3.09,3.09,0,0,0-.36.88" transform="translate(-30.365 -43.391)" fill="#fdd34c"/>
    <path id="Trazado_1390873" data-name="Trazado 1390873" d="M63.318,103.442a15.992,15.992,0,0,0,10.025,8.441,8.25,8.25,0,0,1,.13-2.182l-.122,5.041-5.264-1.288-5.2,1.269-.421-5.369-2.825-4.545Z" transform="translate(-27.319 -47.38)" fill="#f1b74c"/>
  </g>
</svg>
