<svg id="Grupo_1203407" data-name="Grupo 1203407" xmlns="http://www.w3.org/2000/svg" width="81.532" height="73.43" viewBox="0 0 81.532 73.43">
  <g id="BACKGROUND" transform="translate(1.844 1.844)" opacity="0.5">
    <g id="Grupo_1203288" data-name="Grupo 1203288">
      <g id="Grupo_1203274" data-name="Grupo 1203274" transform="translate(0 66.864)">
        <path id="Trazado_1254790" data-name="Trazado 1254790" d="M2.491,321.988c.2-.337.647-.441,1.349-.312q.864-.168,1.123.31a.373.373,0,0,1,.137-.312,19.781,19.781,0,0,1,2.509,0l.22.312c-.056-.466.825-.435.894.008a.548.548,0,0,1-.3.615l0,3.1c.233.21.279.42.139.632H.624a1.086,1.086,0,0,1-.624-.31V322.3a1.016,1.016,0,0,1,.617-.31H2.489Z" transform="translate(0 -321.621)" fill="#61ccee"/>
        <path id="Trazado_1254791" data-name="Trazado 1254791" d="M42.029,321.99c-.139-.468,2-.364,2.1-.316a.511.511,0,0,1,.214.312c.033-.121.083-.3.181-.312a16.33,16.33,0,0,1,2.21,0q.92-.168,1.218.312.19-.5,1.239-.312c.565-.11.931-.008,1.094.31l.108-.312H62.2l.189.312c-.133-.47,2.012-.36,2.121-.31a.514.514,0,0,1,.216.312c.015-.121.05-.3.137-.312.293-.035,2.906-.067,3.046,0a.511.511,0,0,1,.22.312c.05-.133.1-.129.156.008l.175-.312h2.767l.218.312c-.037-.445,1.865-.391,2.067-.314l.22.312.177-.312q1.344,0,2.692,0l.222.312a.382.382,0,0,1,.135-.312c.1-.058,2.229-.139,2.2.31l.146-.312H90.973l.187.312c.044-.135.1-.133.156,0-.04-.445,1.857-.387,2.054-.312l.218.312.108-.312h11.79l.189.312c.191-.337.638-.439,1.337-.312q.861-.168,1.112.312l1.578-.006c.214,0,.846.1.852.37l.056,3.212a.741.741,0,0,1-.817.782H39.5c-.116-.164-.447-.372-.449-.645l0-3.075c0-.328.418-.5.6-.63-.125-.468,2.039-.364,2.156-.312a.508.508,0,0,1,.218.312Z" transform="translate(-30.932 -321.617)" fill="#61ccee"/>
      </g>
      <g id="Grupo_1203281" data-name="Grupo 1203281" transform="translate(0.002)">
        <g id="Grupo_1203276" data-name="Grupo 1203276" transform="translate(0 7.234)">
          <path id="Trazado_1254792" data-name="Trazado 1254792" d="M4.519,35.194c.015-.121.052-.3.139-.312a31.511,31.511,0,0,1,4.472-.012l.227.31c.019-.466.7-.418.775.012L10,35.545A2.189,2.189,0,0,0,8.43,37.4L8.415,49.175a.639.639,0,0,1-.175.721l-.046.114-3.237.019c-.04.123-.081.218-.131.222a19.6,19.6,0,0,1-2.241.029c-.062-.023-.1-.123-.125-.243A9.257,9.257,0,0,1,.328,50c-.175.32-.239.1-.318-.183V36.743c.385-.63.877-1.495,1.744-1.507l2.767-.042Z" transform="translate(-0.01 -34.794)" fill="#61ccee"/>
          <g id="Grupo_1203275" data-name="Grupo 1203275" transform="translate(8.083 0.028)">
            <path id="Trazado_1254793" data-name="Trazado 1254793" d="M47.6,35.248l.237.268a7.541,7.541,0,0,0-.723,2.684l.247.279q3.028.14,6.087.069l.53.31.108-.312q18.359.075,36.648-.1A17.4,17.4,0,0,0,91.9,35.448l.368-.11.291-.312,13.22-.042.191.31,2.362.006a2.183,2.183,0,0,1,2.121,2.027l.037,12.114a.762.762,0,0,1-.784.79L108,50.223l-.177.31a17.361,17.361,0,0,1-2.062-.008.514.514,0,0,1-.216-.312c0,.121-.031.31-.108.312-3.462.1-7.41.152-10.863,0q-.854.153-1.087-.312c-.015.121-.046.3-.131.312a13.36,13.36,0,0,1-1.956,0,.527.527,0,0,1-.214-.31c0,.121-.029.308-.1.312a51.309,51.309,0,0,1-5.655,0q-.77.15-.931-.312c-.033.123-.085.3-.183.312a33.021,33.021,0,0,1-5.05,0l-.229-.312c-.017.121-.048.3-.135.312a14,14,0,0,1-1.985,0,.516.516,0,0,1-.214-.312l-.108.312H64.79l-.189-.312c-.015.121-.048.3-.135.312a13.717,13.717,0,0,1-1.985,0,.528.528,0,0,1-.216-.312l-.108.312h-11.8l-.189-.31c-.015.121-.048.3-.135.312a13.687,13.687,0,0,1-1.983,0,.528.528,0,0,1-.216-.312l-.143.312H40.179l-.187-.312c.01.455-.509.449-.624.017A.566.566,0,0,1,39.042,50a2.478,2.478,0,0,1-.135-.707L38.89,37.944A2.55,2.55,0,0,1,40.934,35.3l.01-.208q3.178-.209,6.478-.154l.185.31Z" transform="translate(-38.89 -34.927)" fill="#61ccee"/>
            <path id="Trazado_1254794" data-name="Trazado 1254794" d="M326.1,65.026l-7.05.021a1.157,1.157,0,0,1-1.148-1.135,1.179,1.179,0,0,1,1.287-1.2l6.7,0a1.17,1.17,0,0,1,1.22,1.064,1.1,1.1,0,0,1-1.012,1.247Z" transform="translate(-259.894 -56.934)" fill="#61ccee"/>
          </g>
        </g>
        <g id="Grupo_1203280" data-name="Grupo 1203280" transform="translate(4.505)">
          <g id="Grupo_1203277" data-name="Grupo 1203277" transform="translate(0 2.137)">
            <path id="Trazado_1254795" data-name="Trazado 1254795" d="M309.333,15.921l-13.7.044,1.948-5.472,10.482-.023a1.87,1.87,0,0,1,1.285,1.863Z" transform="translate(-238.676 -10.43)" fill="#61ccee"/>
            <path id="Trazado_1254796" data-name="Trazado 1254796" d="M52.922,10.282l-1.869,5.443-6.674.05-.775-.012c-.121-.033-.3-.087-.31-.181a23.1,23.1,0,0,1,.075-3.977,1.4,1.4,0,0,1,1.495-1.279l8.058-.046Z" transform="translate(-38.762 -10.28)" fill="#61ccee"/>
            <path id="Trazado_1254797" data-name="Trazado 1254797" d="M27.78,10.51a1.834,1.834,0,0,0-1.245,1.859l-.015,3.576-4.836.015,0-4.06a1.6,1.6,0,0,1,1.405-1.378l4.694-.01Z" transform="translate(-21.68 -10.462)" fill="#61ccee"/>
          </g>
          <g id="Grupo_1203279" data-name="Grupo 1203279" transform="translate(11.424)">
            <path id="Trazado_1254798" data-name="Trazado 1254798" d="M87.247.02c-.218.177-.486.339-.58.613L83.5,9.741a1.23,1.23,0,0,0,.37,1.464l-6.218.015a.94.94,0,0,1-.875-.445.972.972,0,0,1-.094-.838L77.5,7.592a.487.487,0,0,1-.193-.079c-.2-.154,1.308-4.3,1.522-4.753.046-.378.225-.58.538-.611L79.781.858c.083-.26.328-.825.694-.827Z" transform="translate(-76.632 -0.016)" fill="#61ccee"/>
            <g id="Grupo_1203278" data-name="Grupo 1203278" transform="translate(6.474)">
              <path id="Trazado_1254799" data-name="Trazado 1254799" d="M148.777,2.2l.258.2q-.907,2.554-1.817,5.106l-.389.162-.985,2.852a.913.913,0,0,1-.911.659l-36.393.008c-.894-.154-.811-.738-.7-1.459L111.045.5a1,1,0,0,1,.869-.5L148.2,0a.931.931,0,0,1,.857.509,1.072,1.072,0,0,1-.019.919Z" transform="translate(-107.774)" fill="#61ccee"/>
              <path id="Trazado_1254800" data-name="Trazado 1254800" d="M148.966,23.614l-27.727.01a1.1,1.1,0,0,1-1.015-1.214,1.154,1.154,0,0,1,1.233-1.11h27.224a1.152,1.152,0,0,1,1.216.967C149.974,22.7,149.76,23.614,148.966,23.614Z" transform="translate(-117.635 -16.872)" fill="#61ccee"/>
            </g>
          </g>
        </g>
      </g>
      <g id="Grupo_1203287" data-name="Grupo 1203287" transform="translate(0.318 22.337)">
        <path id="Trazado_1254801" data-name="Trazado 1254801" d="M360.737,108.468V153.14h-2.449l-.312-.148v-37.8l.312-.193-.312-.1q0-3.125-.006-6.249l.312-.183,2.455.008Z" transform="translate(-283.866 -108.248)" fill="#61ccee"/>
        <path id="Trazado_1254802" data-name="Trazado 1254802" d="M9.771,107.669l-.137.312-3.164,0q0,22.079.017,44.164l-.312.193H3.7V107.648c-.773-.025-1.582.241-2.173-.106l7.913-.1c.133,0,.279-.008.326.229Z" transform="translate(-1.53 -107.44)" fill="#61ccee"/>
        <path id="Trazado_1254803" data-name="Trazado 1254803" d="M27.387,108.477l.624-.017.312.143v8.7l-.312.185a4.311,4.311,0,0,1-.832.137q-.172,3.992-.081,8.118.727-.006.9.372l.312.106.031,14-.31.189a1.881,1.881,0,0,1-.7,1.012l-.212.414a51.16,51.16,0,0,0-.133,6.37l-.31.229c.121.015.3.054.31.139.037.48.06,4.131-.017,4.333-.046.118-.189.175-.312.225H23.795L23.77,108.47l3.622.006Z" transform="translate(-19.146 -108.248)" fill="#61ccee"/>
        <path id="Trazado_1254804" data-name="Trazado 1254804" d="M173.443,108.442l.312.148q0,22.166,0,44.341l-.312.193-3.089,0c-.123-.015-.3-.054-.312-.139a27.414,27.414,0,0,1,0-3.6q-.15-.773.31-.988l-.312-.181.012-5.622c-.2-1.931-1.57-2.22-3.256-2.062l-.2-.308-.366-.112-1.385-4.121a5.108,5.108,0,0,0-3.266-3.173l-.225-.385-.312-.108v-23.7l.312-.189h12.093Z" transform="translate(-127.878 -108.232)" fill="#61ccee"/>
        <path id="Trazado_1254805" data-name="Trazado 1254805" d="M104.035,108.45l.312.108s0,7.854,0,23.565l-.312.191-.106.312-11.794.077-.191-.31-.312-.108V108.641l.31-.191h12.1Z" transform="translate(-72.898 -108.24)" fill="#61ccee"/>
        <path id="Trazado_1254806" data-name="Trazado 1254806" d="M51.972,108.46l.312.108q-.022,23.682-.023,23.68l-.312.189-.216.372a4.583,4.583,0,0,0-3.156,2.62q-.861,2.567-1.919,5.044a21.337,21.337,0,0,0-2.225.164l-.281-.218-.033-14.3c.079-.491.956-.462,1.106-.029l.175-.314,3.225-.1q.1-3.923-.054-7.732-1.7-.041-3.426-.075a1.7,1.7,0,0,0-1.015-.378v-9.031h7.842Z" transform="translate(-35.266 -108.248)" fill="#61ccee"/>
        <path id="Trazado_1254807" data-name="Trazado 1254807" d="M152.131,108.45v24l.289.177c.094.081.162,2.3-.291,2.308l.314.43.019,2.723-.31.22.208.859c.179.557.1.909-.235,1.054l.312.143q0,3.9,0,7.8l-.312.185c.123.015.3.054.312.141a33.993,33.993,0,0,1,0,3.823q.143.689-.312.83h-2.337c-.123-.015-.3-.056-.312-.143a27.859,27.859,0,0,1,0-3.632c-.1-.518,0-.85.312-.994-.123-.012-.308-.056-.312-.143-.094-2.152-.116-4.817,0-6.958-.106-.565,0-.915.312-1.05-.478-.058-.466-1.139-.012-1.245l-.31-.316a16.911,16.911,0,0,1,.008-2.006.526.526,0,0,1,.312-.216c-.426.114-.38-1.43-.314-1.563a.528.528,0,0,1,.31-.21c-.468.133-.364-2.015-.312-2.125a.531.531,0,0,1,.312-.216V108.45h2.337Z" transform="translate(-118.659 -108.24)" fill="#61ccee"/>
        <path id="Trazado_1254808" data-name="Trazado 1254808" d="M223.051,108.454c.121,0,.308.029.312.1a53.866,53.866,0,0,1,0,5.765c.081.38-.021.607-.31.682l.312.148v37.786l-.312.193h-2.335l0-44.682,2.335,0Z" transform="translate(-175.151 -108.24)" fill="#61ccee"/>
        <path id="Trazado_1254809" data-name="Trazado 1254809" d="M291,108.426c.121,0,.308.029.312.1a54.414,54.414,0,0,1,.01,5.765c.083.38-.021.607-.31.682l-.019,13.362.254.108.042,8.773-.31.189.312.106v15.4l-.312.187H288.7q-.15-7.743-.094-15.628l-.249-.11V128.48l.243-.079q.075-6.733-.006-13.428c-.121,0-.306-.033-.31-.11a51.223,51.223,0,0,1,.083-5.509q-.137-.77.324-.927l2.3-.006Z" transform="translate(-228.641 -108.216)" fill="#61ccee"/>
        <path id="Trazado_1254810" data-name="Trazado 1254810" d="M82.815,108.45V132.4q.486.215.293,1.143.15.839-.331,1.062.118,6.845.067,13.74c.112.01.21.031.249.091a42.173,42.173,0,0,1,.029,4.478l-.31.229H80.478c-.123-.012-.306-.056-.31-.141a32.832,32.832,0,0,1,.046-4.617.359.359,0,0,1,.256-.027l-.017-15.921.023-23.977H82.81Z" transform="translate(-63.773 -108.24)" fill="#61ccee"/>
        <path id="Trazado_1254811" data-name="Trazado 1254811" d="M313.518,108.444l.006,6.536-.108.312-11.757.01-.189-.312-.01-6.551,12.058,0Z" transform="translate(-239.105 -108.232)" fill="#61ccee"/>
        <path id="Trazado_1254812" data-name="Trazado 1254812" d="M263.221,108.47l-.1,6.545-.106.312h-6.432l-.183-.31-.31-.11.123-6.26.314-.177h6.692Z" transform="translate(-203.167 -108.256)" fill="#61ccee"/>
        <path id="Trazado_1254813" data-name="Trazado 1254813" d="M237.392,108.46l-.129,6.549c0,.121-.029.306-.1.312a36.16,36.16,0,0,1-4.7,0c-.293.039-.437,0-.526-.312l0-6.551h5.462Z" transform="translate(-184.03 -108.248)" fill="#61ccee"/>
        <path id="Trazado_1254814" data-name="Trazado 1254814" d="M237.281,139.96H244q.1,6.817-.017,13.667a28.608,28.608,0,0,1-3.168.1l-.312.173q-.234,3.907-.081,7.871l.173.2a21.245,21.245,0,0,0,3.285.114l.135.212q.072,7.927-.062,15.788h-12V139.966l5.328,0Z" transform="translate(-184.046 -133.199)" fill="#61ccee"/>
        <path id="Trazado_1254815" data-name="Trazado 1254815" d="M313.445,139.9v38.143H301.36v-15.7l.173-.312,3.141-.029a.474.474,0,0,0,.328-.482l-.037-7.549-.168-.216a29.263,29.263,0,0,0-3.291-.1l-.129-.22.019-13.52,12.054-.012Z" transform="translate(-239.026 -133.152)" fill="#61ccee"/>
        <g id="Grupo_1203282" data-name="Grupo 1203282" transform="translate(7.619 9.231)">
          <path id="Trazado_1254816" data-name="Trazado 1254816" d="M40.994,151.855a38.953,38.953,0,0,0,4.21.1.558.558,0,0,1,.64.538l-.044,7.89-3.709.073q-.549-.025-.482-.8l.073-7.2a3.439,3.439,0,0,0-1.324-.143l-.2-.318a1.346,1.346,0,0,1,.832-.137Z" transform="translate(-39.748 -151.843)" fill="#61ccee"/>
          <path id="Trazado_1254817" data-name="Trazado 1254817" d="M38.592,152.552l1.838.06-.083,7.283a2.512,2.512,0,0,0,.175,1.119l-1.106.029c-.312.008-.977.083-1.208-.237l-.027-7.9a.4.4,0,0,1,.414-.36Z" transform="translate(-38.18 -152.402)" fill="#61ccee"/>
        </g>
        <g id="Grupo_1203283" data-name="Grupo 1203283" transform="translate(56.027 6.761)">
          <path id="Trazado_1254818" data-name="Trazado 1254818" d="M275.055,178.089H274.9V162.4h-2.969a.838.838,0,0,1-.906-.811l0-7.3a.816.816,0,0,1,.821-.875l3.044-.023.062-13.432c.025,0,.118.025.118.164l-.044,13.372v9.2l.033,15.395Z" transform="translate(-271.02 -139.958)" fill="#61ccee"/>
          <path id="Trazado_1254819" data-name="Trazado 1254819" d="M301.192,162.392l-.042-8.963.077-13.47.039,13.432,3.073.021a.8.8,0,0,1,.815.865l-.006,7.312a.777.777,0,0,1-.778.792l-3.177.01Z" transform="translate(-294.886 -139.96)" fill="#61ccee"/>
        </g>
        <g id="Grupo_1203286" data-name="Grupo 1203286" transform="translate(7.509 24.077)">
          <path id="Trazado_1254820" data-name="Trazado 1254820" d="M40.883,299.449c.121.015.3.046.312.137a29.828,29.828,0,0,1,.035,4.339l-.31.229H38.544l-.894-.008.019-4.7c.015-.121.052-.3.139-.312a24.1,24.1,0,0,1,2.852,0,.5.5,0,0,1,.222.312Z" transform="translate(-37.65 -283.327)" fill="#61ccee"/>
          <path id="Trazado_1254821" data-name="Trazado 1254821" d="M93.079,239.522l.312.143.037,7.7,11.466,0,.187.312v4.767h-12.1l-.031-4.842,0-13.692c.079-.135.123-.11.133.056.121.033.3.081.312.181a34.37,34.37,0,0,1,0,5.152l-.312.227Z" transform="translate(-81.453 -231.624)" fill="#61ccee"/>
          <path id="Trazado_1254822" data-name="Trazado 1254822" d="M66.63,244.515H63.021c-.123-.015-.3-.054-.312-.141a31.7,31.7,0,0,1-.01-4.4l.31-.229.179-.312,3.069-.037v-7.619l.31-.185c-.123-.033-.3-.085-.312-.181-.056-.58-.108-4.464-.006-4.784l.312-.335-.308-.183a15.021,15.021,0,0,1,.039-2.087.709.709,0,0,1,.316-.214l.071,15.948-.048,4.759Z" transform="translate(-57.432 -223.694)" fill="#61ccee"/>
          <path id="Trazado_1254823" data-name="Trazado 1254823" d="M165.931,298.952c.233,0,.272.05.083.141q.059,2.358-.073,4.651l-3.4,0v-4.8c.012-.121.046-.3.133-.312a26,26,0,0,1,3.039,0l.22.312Z" transform="translate(-136.575 -282.932)" fill="#61ccee"/>
          <path id="Trazado_1254824" data-name="Trazado 1254824" d="M182.33,305.091h-3.162a44.017,44.017,0,0,1-.075-4.738,18.93,18.93,0,0,1,3.256.008.4.4,0,0,1,.289.168,34.942,34.942,0,0,1,0,4.335l-.312.225Z" transform="translate(-149.646 -284.268)" fill="#61ccee"/>
          <path id="Trazado_1254825" data-name="Trazado 1254825" d="M184.451,299.033l0,4.73-2.285,0v-4.7l-3.162.023v4.676l-.154-.008-.01-4.794a.494.494,0,0,1,.015-.208c.089-.258,4.867-.11,5.414-.037l.179.314Z" transform="translate(-149.487 -282.941)" fill="#61ccee"/>
          <path id="Trazado_1254826" data-name="Trazado 1254826" d="M55.466,299.031l.01,4.767-2.318,0-.037-4.7c-.05-.116-.008-.139.112-.081l.175-.31C53.818,298.622,55.34,298.592,55.466,299.031Z" transform="translate(-49.888 -282.979)" fill="#61ccee"/>
          <path id="Trazado_1254827" data-name="Trazado 1254827" d="M46.824,223.79l-.046,2.486a1.459,1.459,0,0,1-.719.809l-.43.565-1.318,3.732-.366.11q-.012.5-1.1.449a1.982,1.982,0,0,0-1.57,1.971l.029,5.622-.31.185c-.023.025-.075.081-.112.081H37.671l-.021-5.734a2.48,2.48,0,0,1,1.378-2.3,5.468,5.468,0,0,1,2.353-.173l1.728-4.788a4.913,4.913,0,0,1,3.715-3.021Z" transform="translate(-37.65 -223.678)" fill="#61ccee"/>
          <path id="Trazado_1254828" data-name="Trazado 1254828" d="M167.763,231.652l-2.466-.015-.383-.16a18.881,18.881,0,0,0-1.69-4.252,1.668,1.668,0,0,1-.7-.881V223.86a5.4,5.4,0,0,1,3.84,3.607l1.4,4.183Z" transform="translate(-136.56 -223.733)" fill="#61ccee"/>
          <path id="Trazado_1254829" data-name="Trazado 1254829" d="M105.079,223.25v2.341l-.143.312H93.27l-.187-.312a.179.179,0,0,0-.133-.056l.037-2.2,12.091-.079Z" transform="translate(-81.453 -223.25)" fill="#61ccee"/>
          <path id="Trazado_1254830" data-name="Trazado 1254830" d="M105.572,234.5l0,1.773-.314.252a3.733,3.733,0,0,0-4.372,2.965l-.343.21c-.162.306-.372.374-.744.374l-6.233-.017,0-5.559h12Z" transform="translate(-81.944 -232.161)" fill="#61ccee"/>
          <path id="Trazado_1254831" data-name="Trazado 1254831" d="M132.167,242.594l-.012,2.538-.279.214a1.409,1.409,0,0,0-2.114.9l-.32.127-1.83.025c-.291,0-.464-.127-.472-.378a4.037,4.037,0,0,1,5.027-3.426Z" transform="translate(-108.535 -238.479)" fill="#61ccee"/>
          <path id="Trazado_1254832" data-name="Trazado 1254832" d="M165.3,241.111l-2.148-.006-.32-.243-.285-1.667-.025-3.374a3,3,0,0,1,1.6,1.8Z" transform="translate(-136.56 -233.207)" fill="#61ccee"/>
          <path id="Trazado_1254833" data-name="Trazado 1254833" d="M140.923,254.12l.012,1.245-2.726,0a1.614,1.614,0,0,1,.944-1.376A1.931,1.931,0,0,1,140.923,254.12Z" transform="translate(-117.304 -247.467)" fill="#61ccee"/>
          <path id="Trazado_1254834" data-name="Trazado 1254834" d="M163.142,253.951h-.632l.027-1.911A3.492,3.492,0,0,1,163.142,253.951Z" transform="translate(-136.552 -246.055)" fill="#61ccee"/>
          <path id="Trazado_1254835" data-name="Trazado 1254835" d="M70.746,235.75l.006,5.3-2.842-.083,1.17-3.451A2.749,2.749,0,0,1,70.746,235.75Z" transform="translate(-61.619 -233.151)" fill="#61ccee"/>
          <g id="Grupo_1203285" data-name="Grupo 1203285" transform="translate(3.314 7.531)">
            <path id="Trazado_1254836" data-name="Trazado 1254836" d="M163.15,259.867c-.114-.453,1.767-.372,1.933-.306l.214.312q.3-.5,1.347-.3.836-.159,1.118.318l1.277-.023a2.4,2.4,0,0,1,2.5,2.489l-.012,5.7-5.607-.069h-3.4l0-8.123c0-.455.526-.439.632,0Z" transform="translate(-139.874 -259.502)" fill="#61ccee"/>
            <path id="Trazado_1254837" data-name="Trazado 1254837" d="M59.409,259.841v8.148l-3.557.006-2.233-.01-.029-5.813a2.318,2.318,0,0,1,2.4-2.326l.578-.089.183-.281c.813-.006,1.63.01,2.449.046l.208.318Z" transform="translate(-53.59 -259.474)" fill="#61ccee"/>
            <g id="Grupo_1203284" data-name="Grupo 1203284" transform="translate(8.31 0.008)">
              <path id="Trazado_1254838" data-name="Trazado 1254838" d="M102.843,259.866a.325.325,0,0,1,.046-.166,7.627,7.627,0,0,1,2.462-.141l.216.312,0,8.152-12,0V259.87l.106-.312q3.458.056,6.871-.048a11.681,11.681,0,0,0,2.091.046l.212.308Z" transform="translate(-93.56 -259.51)" fill="#61ccee"/>
              <path id="Trazado_1254839" data-name="Trazado 1254839" d="M110.061,279.062h-5.478a1.158,1.158,0,0,1,.123-2.312l5.143-.01a1.175,1.175,0,0,1,1.268,1.062,1.137,1.137,0,0,1-1.056,1.26Z" transform="translate(-101.439 -273.158)" fill="#61ccee"/>
            </g>
          </g>
        </g>
      </g>
    </g>
  </g>
  <g id="BACKGROUND-2" data-name="BACKGROUND" transform="translate(0 0)">
    <g id="Grupo_1203288-2" data-name="Grupo 1203288">
      <g id="Grupo_1203274-2" data-name="Grupo 1203274" transform="translate(0 66.864)">
        <path id="Trazado_1254790-2" data-name="Trazado 1254790" d="M2.491,321.988c.2-.337.647-.441,1.349-.312q.864-.168,1.123.31a.373.373,0,0,1,.137-.312,19.781,19.781,0,0,1,2.509,0l.22.312c-.056-.466.825-.435.894.008a.548.548,0,0,1-.3.615l0,3.1c.233.21.279.42.139.632H.624a1.086,1.086,0,0,1-.624-.31V322.3a1.016,1.016,0,0,1,.617-.31H2.489Z" transform="translate(0 -321.621)" fill="#ee4424"/>
        <path id="Trazado_1254791-2" data-name="Trazado 1254791" d="M42.029,321.99c-.139-.468,2-.364,2.1-.316a.511.511,0,0,1,.214.312c.033-.121.083-.3.181-.312a16.33,16.33,0,0,1,2.21,0q.92-.168,1.218.312.19-.5,1.239-.312c.565-.11.931-.008,1.094.31l.108-.312H62.2l.189.312c-.133-.47,2.012-.36,2.121-.31a.514.514,0,0,1,.216.312c.015-.121.05-.3.137-.312.293-.035,2.906-.067,3.046,0a.511.511,0,0,1,.22.312c.05-.133.1-.129.156.008l.175-.312h2.767l.218.312c-.037-.445,1.865-.391,2.067-.314l.22.312.177-.312q1.344,0,2.692,0l.222.312a.382.382,0,0,1,.135-.312c.1-.058,2.229-.139,2.2.31l.146-.312H90.973l.187.312c.044-.135.1-.133.156,0-.04-.445,1.857-.387,2.054-.312l.218.312.108-.312h11.79l.189.312c.191-.337.638-.439,1.337-.312q.861-.168,1.112.312l1.578-.006c.214,0,.846.1.852.37l.056,3.212a.741.741,0,0,1-.817.782H39.5c-.116-.164-.447-.372-.449-.645l0-3.075c0-.328.418-.5.6-.63-.125-.468,2.039-.364,2.156-.312a.508.508,0,0,1,.218.312Z" transform="translate(-30.932 -321.617)" fill="#fc5426"/>
      </g>
      <g id="Grupo_1203281-2" data-name="Grupo 1203281" transform="translate(0.002)">
        <g id="Grupo_1203276-2" data-name="Grupo 1203276" transform="translate(0 7.234)">
          <path id="Trazado_1254792-2" data-name="Trazado 1254792" d="M4.519,35.194c.015-.121.052-.3.139-.312a31.511,31.511,0,0,1,4.472-.012l.227.31c.019-.466.7-.418.775.012L10,35.545A2.189,2.189,0,0,0,8.43,37.4L8.415,49.175a.639.639,0,0,1-.175.721l-.046.114-3.237.019c-.04.123-.081.218-.131.222a19.6,19.6,0,0,1-2.241.029c-.062-.023-.1-.123-.125-.243A9.257,9.257,0,0,1,.328,50c-.175.32-.239.1-.318-.183V36.743c.385-.63.877-1.495,1.744-1.507l2.767-.042Z" transform="translate(-0.01 -34.794)" fill="#b4acce"/>
          <g id="Grupo_1203275-2" data-name="Grupo 1203275" transform="translate(8.083 0.028)">
            <path id="Trazado_1254793-2" data-name="Trazado 1254793" d="M47.6,35.248l.237.268a7.541,7.541,0,0,0-.723,2.684l.247.279q3.028.14,6.087.069l.53.31.108-.312q18.359.075,36.648-.1A17.4,17.4,0,0,0,91.9,35.448l.368-.11.291-.312,13.22-.042.191.31,2.362.006a2.183,2.183,0,0,1,2.121,2.027l.037,12.114a.762.762,0,0,1-.784.79L108,50.223l-.177.31a17.361,17.361,0,0,1-2.062-.008.514.514,0,0,1-.216-.312c0,.121-.031.31-.108.312-3.462.1-7.41.152-10.863,0q-.854.153-1.087-.312c-.015.121-.046.3-.131.312a13.36,13.36,0,0,1-1.956,0,.527.527,0,0,1-.214-.31c0,.121-.029.308-.1.312a51.309,51.309,0,0,1-5.655,0q-.77.15-.931-.312c-.033.123-.085.3-.183.312a33.021,33.021,0,0,1-5.05,0l-.229-.312c-.017.121-.048.3-.135.312a14,14,0,0,1-1.985,0,.516.516,0,0,1-.214-.312l-.108.312H64.79l-.189-.312c-.015.121-.048.3-.135.312a13.717,13.717,0,0,1-1.985,0,.528.528,0,0,1-.216-.312l-.108.312h-11.8l-.189-.31c-.015.121-.048.3-.135.312a13.687,13.687,0,0,1-1.983,0,.528.528,0,0,1-.216-.312l-.143.312H40.179l-.187-.312c.01.455-.509.449-.624.017A.566.566,0,0,1,39.042,50a2.478,2.478,0,0,1-.135-.707L38.89,37.944A2.55,2.55,0,0,1,40.934,35.3l.01-.208q3.178-.209,6.478-.154l.185.31Z" transform="translate(-38.89 -34.927)" fill="#cac3e4"/>
            <path id="Trazado_1254794-2" data-name="Trazado 1254794" d="M326.1,65.026l-7.05.021a1.157,1.157,0,0,1-1.148-1.135,1.179,1.179,0,0,1,1.287-1.2l6.7,0a1.17,1.17,0,0,1,1.22,1.064,1.1,1.1,0,0,1-1.012,1.247Z" transform="translate(-259.894 -56.934)" fill="#554e6f"/>
          </g>
        </g>
        <g id="Grupo_1203280-2" data-name="Grupo 1203280" transform="translate(4.505)">
          <g id="Grupo_1203277-2" data-name="Grupo 1203277" transform="translate(0 2.137)">
            <path id="Trazado_1254795-2" data-name="Trazado 1254795" d="M309.333,15.921l-13.7.044,1.948-5.472,10.482-.023a1.87,1.87,0,0,1,1.285,1.863Z" transform="translate(-238.676 -10.43)" fill="#554e6f"/>
            <path id="Trazado_1254796-2" data-name="Trazado 1254796" d="M52.922,10.282l-1.869,5.443-6.674.05-.775-.012c-.121-.033-.3-.087-.31-.181a23.1,23.1,0,0,1,.075-3.977,1.4,1.4,0,0,1,1.495-1.279l8.058-.046Z" transform="translate(-38.762 -10.28)" fill="#554e6f"/>
            <path id="Trazado_1254797-2" data-name="Trazado 1254797" d="M27.78,10.51a1.834,1.834,0,0,0-1.245,1.859l-.015,3.576-4.836.015,0-4.06a1.6,1.6,0,0,1,1.405-1.378l4.694-.01Z" transform="translate(-21.68 -10.462)" fill="#433f5c"/>
          </g>
          <g id="Grupo_1203279-2" data-name="Grupo 1203279" transform="translate(11.424)">
            <path id="Trazado_1254798-2" data-name="Trazado 1254798" d="M87.247.02c-.218.177-.486.339-.58.613L83.5,9.741a1.23,1.23,0,0,0,.37,1.464l-6.218.015a.94.94,0,0,1-.875-.445.972.972,0,0,1-.094-.838L77.5,7.592a.487.487,0,0,1-.193-.079c-.2-.154,1.308-4.3,1.522-4.753.046-.378.225-.58.538-.611L79.781.858c.083-.26.328-.825.694-.827Z" transform="translate(-76.632 -0.016)" fill="#ee4424"/>
            <g id="Grupo_1203278-2" data-name="Grupo 1203278" transform="translate(6.474)">
              <path id="Trazado_1254799-2" data-name="Trazado 1254799" d="M148.777,2.2l.258.2q-.907,2.554-1.817,5.106l-.389.162-.985,2.852a.913.913,0,0,1-.911.659l-36.393.008c-.894-.154-.811-.738-.7-1.459L111.045.5a1,1,0,0,1,.869-.5L148.2,0a.931.931,0,0,1,.857.509,1.072,1.072,0,0,1-.019.919Z" transform="translate(-107.774)" fill="#fc5426"/>
              <path id="Trazado_1254800-2" data-name="Trazado 1254800" d="M148.966,23.614l-27.727.01a1.1,1.1,0,0,1-1.015-1.214,1.154,1.154,0,0,1,1.233-1.11h27.224a1.152,1.152,0,0,1,1.216.967C149.974,22.7,149.76,23.614,148.966,23.614Z" transform="translate(-117.635 -16.872)" fill="#fefefd"/>
            </g>
          </g>
        </g>
      </g>
      <g id="Grupo_1203287-2" data-name="Grupo 1203287" transform="translate(0.318 22.337)">
        <path id="Trazado_1254801-2" data-name="Trazado 1254801" d="M360.737,108.468V153.14h-2.449l-.312-.148v-37.8l.312-.193-.312-.1q0-3.125-.006-6.249l.312-.183,2.455.008Z" transform="translate(-283.866 -108.248)" fill="#b4acce"/>
        <path id="Trazado_1254802-2" data-name="Trazado 1254802" d="M9.771,107.669l-.137.312-3.164,0q0,22.079.017,44.164l-.312.193H3.7V107.648c-.773-.025-1.582.241-2.173-.106l7.913-.1c.133,0,.279-.008.326.229Z" transform="translate(-1.53 -107.44)" fill="#b4acce"/>
        <path id="Trazado_1254803-2" data-name="Trazado 1254803" d="M27.387,108.477l.624-.017.312.143v8.7l-.312.185a4.311,4.311,0,0,1-.832.137q-.172,3.992-.081,8.118.727-.006.9.372l.312.106.031,14-.31.189a1.881,1.881,0,0,1-.7,1.012l-.212.414a51.16,51.16,0,0,0-.133,6.37l-.31.229c.121.015.3.054.31.139.037.48.06,4.131-.017,4.333-.046.118-.189.175-.312.225H23.795L23.77,108.47l3.622.006Z" transform="translate(-19.146 -108.248)" fill="#98e5fb"/>
        <path id="Trazado_1254804-2" data-name="Trazado 1254804" d="M173.443,108.442l.312.148q0,22.166,0,44.341l-.312.193-3.089,0c-.123-.015-.3-.054-.312-.139a27.414,27.414,0,0,1,0-3.6q-.15-.773.31-.988l-.312-.181.012-5.622c-.2-1.931-1.57-2.22-3.256-2.062l-.2-.308-.366-.112-1.385-4.121a5.108,5.108,0,0,0-3.266-3.173l-.225-.385-.312-.108v-23.7l.312-.189h12.093Z" transform="translate(-127.878 -108.232)" fill="#c7eefd"/>
        <path id="Trazado_1254805-2" data-name="Trazado 1254805" d="M104.035,108.45l.312.108s0,7.854,0,23.565l-.312.191-.106.312-11.794.077-.191-.31-.312-.108V108.641l.31-.191h12.1Z" transform="translate(-72.898 -108.24)" fill="#c7eefd"/>
        <path id="Trazado_1254806-2" data-name="Trazado 1254806" d="M51.972,108.46l.312.108q-.022,23.682-.023,23.68l-.312.189-.216.372a4.583,4.583,0,0,0-3.156,2.62q-.861,2.567-1.919,5.044a21.337,21.337,0,0,0-2.225.164l-.281-.218-.033-14.3c.079-.491.956-.462,1.106-.029l.175-.314,3.225-.1q.1-3.923-.054-7.732-1.7-.041-3.426-.075a1.7,1.7,0,0,0-1.015-.378v-9.031h7.842Z" transform="translate(-35.266 -108.248)" fill="#c7eefd"/>
        <path id="Trazado_1254807-2" data-name="Trazado 1254807" d="M152.131,108.45v24l.289.177c.094.081.162,2.3-.291,2.308l.314.43.019,2.723-.31.22.208.859c.179.557.1.909-.235,1.054l.312.143q0,3.9,0,7.8l-.312.185c.123.015.3.054.312.141a33.993,33.993,0,0,1,0,3.823q.143.689-.312.83h-2.337c-.123-.015-.3-.056-.312-.143a27.859,27.859,0,0,1,0-3.632c-.1-.518,0-.85.312-.994-.123-.012-.308-.056-.312-.143-.094-2.152-.116-4.817,0-6.958-.106-.565,0-.915.312-1.05-.478-.058-.466-1.139-.012-1.245l-.31-.316a16.911,16.911,0,0,1,.008-2.006.526.526,0,0,1,.312-.216c-.426.114-.38-1.43-.314-1.563a.528.528,0,0,1,.31-.21c-.468.133-.364-2.015-.312-2.125a.531.531,0,0,1,.312-.216V108.45h2.337Z" transform="translate(-118.659 -108.24)" fill="#98e5fb"/>
        <path id="Trazado_1254808-2" data-name="Trazado 1254808" d="M223.051,108.454c.121,0,.308.029.312.1a53.866,53.866,0,0,1,0,5.765c.081.38-.021.607-.31.682l.312.148v37.786l-.312.193h-2.335l0-44.682,2.335,0Z" transform="translate(-175.151 -108.24)" fill="#b4acce"/>
        <path id="Trazado_1254809-2" data-name="Trazado 1254809" d="M291,108.426c.121,0,.308.029.312.1a54.414,54.414,0,0,1,.01,5.765c.083.38-.021.607-.31.682l-.019,13.362.254.108.042,8.773-.31.189.312.106v15.4l-.312.187H288.7q-.15-7.743-.094-15.628l-.249-.11V128.48l.243-.079q.075-6.733-.006-13.428c-.121,0-.306-.033-.31-.11a51.223,51.223,0,0,1,.083-5.509q-.137-.77.324-.927l2.3-.006Z" transform="translate(-228.641 -108.216)" fill="#b4acce"/>
        <path id="Trazado_1254810-2" data-name="Trazado 1254810" d="M82.815,108.45V132.4q.486.215.293,1.143.15.839-.331,1.062.118,6.845.067,13.74c.112.01.21.031.249.091a42.173,42.173,0,0,1,.029,4.478l-.31.229H80.478c-.123-.012-.306-.056-.31-.141a32.832,32.832,0,0,1,.046-4.617.359.359,0,0,1,.256-.027l-.017-15.921.023-23.977H82.81Z" transform="translate(-63.773 -108.24)" fill="#98e5fb"/>
        <path id="Trazado_1254811-2" data-name="Trazado 1254811" d="M313.518,108.444l.006,6.536-.108.312-11.757.01-.189-.312-.01-6.551,12.058,0Z" transform="translate(-239.105 -108.232)" fill="#554e6f"/>
        <path id="Trazado_1254812-2" data-name="Trazado 1254812" d="M263.221,108.47l-.1,6.545-.106.312h-6.432l-.183-.31-.31-.11.123-6.26.314-.177h6.692Z" transform="translate(-203.167 -108.256)" fill="#554e6f"/>
        <path id="Trazado_1254813-2" data-name="Trazado 1254813" d="M237.392,108.46l-.129,6.549c0,.121-.029.306-.1.312a36.16,36.16,0,0,1-4.7,0c-.293.039-.437,0-.526-.312l0-6.551h5.462Z" transform="translate(-184.03 -108.248)" fill="#433f5c"/>
        <path id="Trazado_1254814-2" data-name="Trazado 1254814" d="M237.281,139.96H244q.1,6.817-.017,13.667a28.608,28.608,0,0,1-3.168.1l-.312.173q-.234,3.907-.081,7.871l.173.2a21.245,21.245,0,0,0,3.285.114l.135.212q.072,7.927-.062,15.788h-12V139.966l5.328,0Z" transform="translate(-184.046 -133.199)" fill="#c7eefd"/>
        <path id="Trazado_1254815-2" data-name="Trazado 1254815" d="M313.445,139.9v38.143H301.36v-15.7l.173-.312,3.141-.029a.474.474,0,0,0,.328-.482l-.037-7.549-.168-.216a29.263,29.263,0,0,0-3.291-.1l-.129-.22.019-13.52,12.054-.012Z" transform="translate(-239.026 -133.152)" fill="#c7eefd"/>
        <g id="Grupo_1203282-2" data-name="Grupo 1203282" transform="translate(7.619 9.231)">
          <path id="Trazado_1254816-2" data-name="Trazado 1254816" d="M40.994,151.855a38.953,38.953,0,0,0,4.21.1.558.558,0,0,1,.64.538l-.044,7.89-3.709.073q-.549-.025-.482-.8l.073-7.2a3.439,3.439,0,0,0-1.324-.143l-.2-.318a1.346,1.346,0,0,1,.832-.137Z" transform="translate(-39.748 -151.843)" fill="#fc5426"/>
          <path id="Trazado_1254817-2" data-name="Trazado 1254817" d="M38.592,152.552l1.838.06-.083,7.283a2.512,2.512,0,0,0,.175,1.119l-1.106.029c-.312.008-.977.083-1.208-.237l-.027-7.9a.4.4,0,0,1,.414-.36Z" transform="translate(-38.18 -152.402)" fill="#ee4424"/>
        </g>
        <g id="Grupo_1203283-2" data-name="Grupo 1203283" transform="translate(56.027 6.761)">
          <path id="Trazado_1254818-2" data-name="Trazado 1254818" d="M275.055,178.089H274.9V162.4h-2.969a.838.838,0,0,1-.906-.811l0-7.3a.816.816,0,0,1,.821-.875l3.044-.023.062-13.432c.025,0,.118.025.118.164l-.044,13.372v9.2l.033,15.395Z" transform="translate(-271.02 -139.958)" fill="#cac3e4"/>
          <path id="Trazado_1254819-2" data-name="Trazado 1254819" d="M301.192,162.392l-.042-8.963.077-13.47.039,13.432,3.073.021a.8.8,0,0,1,.815.865l-.006,7.312a.777.777,0,0,1-.778.792l-3.177.01Z" transform="translate(-294.886 -139.96)" fill="#cac3e4"/>
        </g>
        <g id="Grupo_1203286-2" data-name="Grupo 1203286" transform="translate(7.509 24.077)">
          <path id="Trazado_1254820-2" data-name="Trazado 1254820" d="M40.883,299.449c.121.015.3.046.312.137a29.828,29.828,0,0,1,.035,4.339l-.31.229H38.544l-.894-.008.019-4.7c.015-.121.052-.3.139-.312a24.1,24.1,0,0,1,2.852,0,.5.5,0,0,1,.222.312Z" transform="translate(-37.65 -283.327)" fill="#433f5c"/>
          <path id="Trazado_1254821-2" data-name="Trazado 1254821" d="M93.079,239.522l.312.143.037,7.7,11.466,0,.187.312v4.767h-12.1l-.031-4.842,0-13.692c.079-.135.123-.11.133.056.121.033.3.081.312.181a34.37,34.37,0,0,1,0,5.152l-.312.227Z" transform="translate(-81.453 -231.624)" fill="#c7eefd"/>
          <path id="Trazado_1254822-2" data-name="Trazado 1254822" d="M66.63,244.515H63.021c-.123-.015-.3-.054-.312-.141a31.7,31.7,0,0,1-.01-4.4l.31-.229.179-.312,3.069-.037v-7.619l.31-.185c-.123-.033-.3-.085-.312-.181-.056-.58-.108-4.464-.006-4.784l.312-.335-.308-.183a15.021,15.021,0,0,1,.039-2.087.709.709,0,0,1,.316-.214l.071,15.948-.048,4.759Z" transform="translate(-57.432 -223.694)" fill="#c7eefd"/>
          <path id="Trazado_1254823-2" data-name="Trazado 1254823" d="M165.931,298.952c.233,0,.272.05.083.141q.059,2.358-.073,4.651l-3.4,0v-4.8c.012-.121.046-.3.133-.312a26,26,0,0,1,3.039,0l.22.312Z" transform="translate(-136.575 -282.932)" fill="#c7eefd"/>
          <path id="Trazado_1254824-2" data-name="Trazado 1254824" d="M182.33,305.091h-3.162a44.017,44.017,0,0,1-.075-4.738,18.93,18.93,0,0,1,3.256.008.4.4,0,0,1,.289.168,34.942,34.942,0,0,1,0,4.335l-.312.225Z" transform="translate(-149.646 -284.268)" fill="#433f5c"/>
          <path id="Trazado_1254825-2" data-name="Trazado 1254825" d="M184.451,299.033l0,4.73-2.285,0v-4.7l-3.162.023v4.676l-.154-.008-.01-4.794a.494.494,0,0,1,.015-.208c.089-.258,4.867-.11,5.414-.037l.179.314Z" transform="translate(-149.487 -282.941)" fill="#554e6f"/>
          <path id="Trazado_1254826-2" data-name="Trazado 1254826" d="M55.466,299.031l.01,4.767-2.318,0-.037-4.7c-.05-.116-.008-.139.112-.081l.175-.31C53.818,298.622,55.34,298.592,55.466,299.031Z" transform="translate(-49.888 -282.979)" fill="#554e6f"/>
          <path id="Trazado_1254827-2" data-name="Trazado 1254827" d="M46.824,223.79l-.046,2.486a1.459,1.459,0,0,1-.719.809l-.43.565-1.318,3.732-.366.11q-.012.5-1.1.449a1.982,1.982,0,0,0-1.57,1.971l.029,5.622-.31.185c-.023.025-.075.081-.112.081H37.671l-.021-5.734a2.48,2.48,0,0,1,1.378-2.3,5.468,5.468,0,0,1,2.353-.173l1.728-4.788a4.913,4.913,0,0,1,3.715-3.021Z" transform="translate(-37.65 -223.678)" fill="#fbdc66"/>
          <path id="Trazado_1254828-2" data-name="Trazado 1254828" d="M167.763,231.652l-2.466-.015-.383-.16a18.881,18.881,0,0,0-1.69-4.252,1.668,1.668,0,0,1-.7-.881V223.86a5.4,5.4,0,0,1,3.84,3.607l1.4,4.183Z" transform="translate(-136.56 -223.733)" fill="#fbdc66"/>
          <path id="Trazado_1254829-2" data-name="Trazado 1254829" d="M105.079,223.25v2.341l-.143.312H93.27l-.187-.312a.179.179,0,0,0-.133-.056l.037-2.2,12.091-.079Z" transform="translate(-81.453 -223.25)" fill="#fbdc66"/>
          <path id="Trazado_1254830-2" data-name="Trazado 1254830" d="M105.572,234.5l0,1.773-.314.252a3.733,3.733,0,0,0-4.372,2.965l-.343.21c-.162.306-.372.374-.744.374l-6.233-.017,0-5.559h12Z" transform="translate(-81.944 -232.161)" fill="#fefefe"/>
          <path id="Trazado_1254831-2" data-name="Trazado 1254831" d="M132.167,242.594l-.012,2.538-.279.214a1.409,1.409,0,0,0-2.114.9l-.32.127-1.83.025c-.291,0-.464-.127-.472-.378a4.037,4.037,0,0,1,5.027-3.426Z" transform="translate(-108.535 -238.479)" fill="#554e6f"/>
          <path id="Trazado_1254832-2" data-name="Trazado 1254832" d="M165.3,241.111l-2.148-.006-.32-.243-.285-1.667-.025-3.374a3,3,0,0,1,1.6,1.8Z" transform="translate(-136.56 -233.207)" fill="#fefefe"/>
          <path id="Trazado_1254833-2" data-name="Trazado 1254833" d="M140.923,254.12l.012,1.245-2.726,0a1.614,1.614,0,0,1,.944-1.376A1.931,1.931,0,0,1,140.923,254.12Z" transform="translate(-117.304 -247.467)" fill="#fdfdfd"/>
          <path id="Trazado_1254834-2" data-name="Trazado 1254834" d="M163.142,253.951h-.632l.027-1.911A3.492,3.492,0,0,1,163.142,253.951Z" transform="translate(-136.552 -246.055)" fill="#585272"/>
          <path id="Trazado_1254835-2" data-name="Trazado 1254835" d="M70.746,235.75l.006,5.3-2.842-.083,1.17-3.451A2.749,2.749,0,0,1,70.746,235.75Z" transform="translate(-61.619 -233.151)" fill="#fefefe"/>
          <g id="Grupo_1203285-2" data-name="Grupo 1203285" transform="translate(3.314 7.531)">
            <path id="Trazado_1254836-2" data-name="Trazado 1254836" d="M163.15,259.867c-.114-.453,1.767-.372,1.933-.306l.214.312q.3-.5,1.347-.3.836-.159,1.118.318l1.277-.023a2.4,2.4,0,0,1,2.5,2.489l-.012,5.7-5.607-.069h-3.4l0-8.123c0-.455.526-.439.632,0Z" transform="translate(-139.874 -259.502)" fill="#feed99"/>
            <path id="Trazado_1254837-2" data-name="Trazado 1254837" d="M59.409,259.841v8.148l-3.557.006-2.233-.01-.029-5.813a2.318,2.318,0,0,1,2.4-2.326l.578-.089.183-.281c.813-.006,1.63.01,2.449.046l.208.318Z" transform="translate(-53.59 -259.474)" fill="#feed99"/>
            <g id="Grupo_1203284-2" data-name="Grupo 1203284" transform="translate(8.31 0.008)">
              <path id="Trazado_1254838-2" data-name="Trazado 1254838" d="M102.843,259.866a.325.325,0,0,1,.046-.166,7.627,7.627,0,0,1,2.462-.141l.216.312,0,8.152-12,0V259.87l.106-.312q3.458.056,6.871-.048a11.681,11.681,0,0,0,2.091.046l.212.308Z" transform="translate(-93.56 -259.51)" fill="#feed99"/>
              <path id="Trazado_1254839-2" data-name="Trazado 1254839" d="M110.061,279.062h-5.478a1.158,1.158,0,0,1,.123-2.312l5.143-.01a1.175,1.175,0,0,1,1.268,1.062,1.137,1.137,0,0,1-1.056,1.26Z" transform="translate(-101.439 -273.158)" fill="#fefefe"/>
            </g>
          </g>
        </g>
      </g>
    </g>
  </g>
</svg>
