<svg id="BACKGROUND" xmlns="http://www.w3.org/2000/svg" width="95.484" height="88.787" viewBox="0 0 95.484 88.787">
  <g id="Grupo_1203536" data-name="Grupo 1203536" transform="translate(0 0)">
    <g id="Grupo_1203521" data-name="Grupo 1203521" transform="translate(32.081 74.729)">
      <path id="Trazado_1255142" data-name="Trazado 1255142" d="M334.314,334.274l5.045-.015a1.452,1.452,0,0,1,1.109.389v4.474c-.182.067-.473.361-.78.361L326.7,339.5c-.145-.017-.364-.067-.371-.172a28.234,28.234,0,0,1,.025-3.976c-.11-.571.015-.929.379-1.076l.217-.374h7.1Z" transform="translate(-277.064 -325.445)" fill="#57bd91"/>
      <path id="Trazado_1255143" data-name="Trazado 1255143" d="M132.548,300.4h2.745l.209-.374h3.445l.262.374.127-.374h8.5l.219.374h2.765v8.391c.147.017.364.067.371.172a38.264,38.264,0,0,1-.025,4.781l-.374.272H129.17l-.374-.172v-8.57l.371-.224c-.145-.042-.356-.1-.369-.222a33.05,33.05,0,0,1,.1-4.18l.379-.257c.072-.566,1.689-.424,2.28-.369q.8-.161.989.376Z" transform="translate(-128.771 -299.962)" fill="#ee4424"/>
    </g>
    <g id="Grupo_1203523" data-name="Grupo 1203523" transform="translate(0 56.873)">
      <path id="Trazado_1255144" data-name="Trazado 1255144" d="M49.324,319.254v8.964H23.394q-.9-.086-.957-.71l-.007-8.034.374-.219.13-.374H49.1Z" transform="translate(-16.842 -296.311)" fill="#f5a86c"/>
      <path id="Trazado_1255145" data-name="Trazado 1255145" d="M6.732,282.7c.164.04.159.1,0,.172a4.165,4.165,0,0,1-.386.787l0,7.935-.374.219c-.017.147-.062.366-.167.374a36.258,36.258,0,0,1-4.711.01c-.571.115-.932-.007-1.079-.371v-8.206a.748.748,0,0,1,.745-.747,18.473,18.473,0,0,1,3-.092l.2-.379,2.491-.067.274.366Z" transform="translate(-0.015 -268.867)" fill="#f5a86c"/>
      <path id="Trazado_1255146" data-name="Trazado 1255146" d="M5.962,320.372v8.216c0,.361.409.6.59.747l-5.8,0a.739.739,0,0,1-.747-.75l0-8.206,5.957-.015Z" transform="translate(0 -297.43)" fill="#e99a58"/>
      <path id="Trazado_1255147" data-name="Trazado 1255147" d="M6,283.867l-3,.092a.183.183,0,0,1,.194-.179Z" transform="translate(-2.251 -269.955)" fill="#f9af76"/>
      <path id="Trazado_1255148" data-name="Trazado 1255148" d="M50.55,287.205l-.107,4.659H23.922l0-8.184a.775.775,0,0,1,.757-.757,2.09,2.09,0,0,1,1.046-.067l.11-.309,8.456-.02.167.306,12.265.045c-.035-.144.1-.15.14-.082.022-.145.07-.359.172-.369.737-.062,3.181-.037,3.642.473.429.473.346,3.276.254,4.048l-.376.254Z" transform="translate(-17.961 -268.921)" fill="#febc85"/>
      <g id="Grupo_1203522" data-name="Grupo 1203522" transform="translate(3.749)">
        <path id="Trazado_1255149" data-name="Trazado 1255149" d="M20.6,258.908l.2.448a5.668,5.668,0,0,0-1.241,2.015l-.107,3.376a2.632,2.632,0,0,1-1.428-.025l-2.967.082.015-3.254a3.55,3.55,0,0,1,2.389-2.987c.062-.174.127-.177.2,0a3.575,3.575,0,0,1,2.942.346Z" transform="translate(-15.05 -250.893)" fill="#ee4424"/>
        <path id="Trazado_1255150" data-name="Trazado 1255150" d="M34.162,257.882a.666.666,0,0,1,.364-.269,3.51,3.51,0,0,1,.947.541,2.363,2.363,0,0,1,1.066,2.691l.376.154.062,2.529,3.5-.01.272.371,8.239.14-11.776.02-10.264.022V263.9a8.4,8.4,0,0,1,1.111.047v-2.863c0-1.6,1.188-2.19,1.47-3a1.014,1.014,0,0,1,.254.219,9.572,9.572,0,0,0,1.719-.767c.827-.234,2.262-.541,2.658.351Z" transform="translate(-23.985 -250.064)" fill="#fc5426"/>
        <path id="Trazado_1255151" data-name="Trazado 1255151" d="M60.535,238.578a4.365,4.365,0,0,1,1.746,5.107l-.436.187a3.4,3.4,0,0,0-4.9,2.29l-.426.2a3.36,3.36,0,0,0-2.377-2.96c-1.019-.61-.5-2.748.042-3.655.3-.506.86-1.348,1.457-.982A5.624,5.624,0,0,0,57.259,238l.329.279A3.945,3.945,0,0,1,60.535,238.578Z" transform="translate(-43.965 -235.581)" fill="#fd7d43"/>
        <path id="Trazado_1255152" data-name="Trazado 1255152" d="M71.2,259.075a4,4,0,0,0-1.522,2.561l-.027,3.156-4.136.03-.077-3.072a4,4,0,0,1,2.135-2.892,3.8,3.8,0,0,1,3.63.219Z" transform="translate(-52.886 -250.971)" fill="#ee4424"/>
        <path id="Trazado_1255153" data-name="Trazado 1255153" d="M43.34,238.321c.311-.551,1.191-.032.867.506a4.074,4.074,0,0,0-1.5,4.636,4.332,4.332,0,0,0-3.924.745.837.837,0,0,1-.453-.329,3.306,3.306,0,0,0,.1-1.308,3.927,3.927,0,0,1,2.489-4.218A4.207,4.207,0,0,1,43.34,238.321Z" transform="translate(-32.53 -235.645)" fill="#fc6930"/>
        <path id="Trazado_1255154" data-name="Trazado 1255154" d="M61.245,230.987a5.833,5.833,0,0,0-1.375.815,1.744,1.744,0,0,1-.573-.331,1.872,1.872,0,0,0-.867-.506l.012-1.161a1.437,1.437,0,0,1,1.213-1.5,1.3,1.3,0,0,1,1.552,1.129l.035,1.555Z" transform="translate(-47.623 -228.289)" fill="#a44f3e"/>
      </g>
    </g>
    <g id="Grupo_1203530" data-name="Grupo 1203530" transform="translate(4.076)">
      <g id="Grupo_1203526" data-name="Grupo 1203526" transform="translate(0 15.806)">
        <g id="Grupo_1203524" data-name="Grupo 1203524" transform="translate(0.002)">
          <path id="Trazado_1255155" data-name="Trazado 1255155" d="M78.486,63.9c.04-.144.1-.356.214-.374a31.545,31.545,0,0,1,4.367,0l.269.374.13-.374h20.528l.227.374c.04-.144.1-.356.214-.374a31.9,31.9,0,0,1,4.365,0l.269.374h7.287a2,2,0,0,1,1.44.787l5.772,13.76c-.017.144-.062.364-.167.374a29.305,29.305,0,0,1-3.772.012c-.66.125-1.089,0-1.286-.369-.017.147-.062.364-.169.374a37.564,37.564,0,0,1-5.346.01l-.219-.374c-.017.144-.062.364-.164.374a38.35,38.35,0,0,1-4.993,0l-.267-.374c-.017.147-.065.364-.169.374a29.858,29.858,0,0,1-4.143-.007q-.86.168-1.084-.376c-.04.144-.1.364-.214.374a27.681,27.681,0,0,1-3.989,0q-.845.172-1.056-.374c-.017.147-.062.364-.169.374a37.124,37.124,0,0,1-5.341.007L90.8,78.47c-.017.144-.065.366-.164.374a40.707,40.707,0,0,1-4.993,0l-.267-.374c-.017.147-.065.364-.169.374a29.86,29.86,0,0,1-4.143-.007c-.573.112-.932-.012-1.084-.376-.037.144-.1.364-.214.374a33.644,33.644,0,0,1-4.923-.125.51.51,0,0,1-.122-.249c-.017.147-.062.364-.169.374a37.158,37.158,0,0,1-5.344.007l-.219-.374c-.017.145-.062.366-.164.374a34.492,34.492,0,0,1-5.005-.12.535.535,0,0,1-.125-.249c-.017.144-.062.361-.169.374a34.312,34.312,0,0,1-5.087-.012l-.272-.374c-.04.145-.1.364-.214.374a28.111,28.111,0,0,1-3.994,0q-.845.172-1.056-.374c-.017.147-.065.364-.169.374-.588.047-5.032.1-5.279.007-.142-.052-.214-.224-.274-.374-.017.144-.062.361-.164.374a33.482,33.482,0,0,1-3.543,0,.616.616,0,0,1-.264-.374l-.279-.3q2.485-6.005,4.97-12.018l.431-.067.61.135a10.88,10.88,0,0,0,9.778,3.48l1.308.07.394-.516a11.1,11.1,0,0,0,6.156-5.082l.578-.3,11.333.032Z" transform="translate(-36.313 -63.446)" fill="#57bd91"/>
          <path id="Trazado_1255156" data-name="Trazado 1255156" d="M26.888,64.842a12.507,12.507,0,0,0,1.5,2.282L23.266,79.511c.1.563-1.281.605-1.405.065-.02.144-.072.364-.174.369a31.832,31.832,0,0,1-4.25-.087q-.856.153-1.066-.394l5.8-13.6a1.555,1.555,0,0,1,1.3-.927l3.411-.1Z" transform="translate(-16.37 -64.493)" fill="#22b17f"/>
        </g>
        <g id="Grupo_1203525" data-name="Grupo 1203525" transform="translate(0 14.974)">
          <path id="Trazado_1255157" data-name="Trazado 1255157" d="M21.853,123.662l.379.2.154,5.067a5.182,5.182,0,0,0,2.167,3.8l.042.491-.351.207c-.082.745-1.024.864-1.694.944-1.178.14-3.458-.169-3.869-1.393-.095.274-.172.237-.234-.115l-1.271-1.35a6.24,6.24,0,0,1-.752-2.187l-.065-5.78,5.491.112Z" transform="translate(-16.36 -123.55)" fill="#ee4424"/>
          <path id="Trazado_1255158" data-name="Trazado 1255158" d="M349.357,123.652l.007,5.563a5.4,5.4,0,0,1-2.04,3.707l-.71.4c-.927.192-1.806-1.193-2.217-1.986-.9-1.744-.847-5.369-.64-7.4l.379-.262,5.222-.017Z" transform="translate(-262.096 -123.625)" fill="#fee4c1"/>
          <path id="Trazado_1255159" data-name="Trazado 1255159" d="M151.809,123.722l.369.222-.08,4.415a5.872,5.872,0,0,0,2.135,4.5l.072.533a5.32,5.32,0,0,1-5.324.047,6.109,6.109,0,0,1-2.922-4.033c-.145-.017-.359-.062-.371-.169A34.623,34.623,0,0,1,145.7,124l.374-.272,5.733-.01Z" transform="translate(-113.4 -123.678)" fill="#fdd1a3"/>
          <path id="Trazado_1255160" data-name="Trazado 1255160" d="M64.49,123.712l.369.222-.07,4.417a5.878,5.878,0,0,0,2.105,4.484l.085.546a5.265,5.265,0,0,1-5.326.04,5.149,5.149,0,0,1-2.8-4.108c-.147-.015-.366-.057-.376-.159-.055-.578-.184-4.92-.087-5.16a.6.6,0,0,1,.369-.274l5.723-.01Z" transform="translate(-47.896 -123.67)" fill="#fdd1a3"/>
          <path id="Trazado_1255161" data-name="Trazado 1255161" d="M239.4,123.722l.369.224-.087,4.42a5.776,5.776,0,0,0,2.138,4.489l.08.533a5.321,5.321,0,0,1-5.321.055,6.074,6.074,0,0,1-2.93-4.026c-.145-.017-.364-.065-.371-.169A39.512,39.512,0,0,1,233.3,124l.374-.272,5.73-.01Z" transform="translate(-179.177 -123.678)" fill="#fdd1a3"/>
          <path id="Trazado_1255162" data-name="Trazado 1255162" d="M326.912,123.73l-.1,4.44a6.115,6.115,0,0,0,2.579,5.212,5.408,5.408,0,0,1-5.3.077,6.37,6.37,0,0,1-2.952-3.879c-.145-.017-.364-.067-.371-.172a40.387,40.387,0,0,1,.037-5.4l.374-.269,5.735-.01Z" transform="translate(-244.875 -123.685)" fill="#fdd1a3"/>
          <path id="Trazado_1255163" data-name="Trazado 1255163" d="M283.25,123.747c.361.035.536.135.526.3l.03,4.853a4.85,4.85,0,0,0,2.23,3.9l.087.488a5.227,5.227,0,0,1-5.264.249,5.361,5.361,0,0,1-2.93-3.886c-.145,0-.364-.027-.374-.122a36.527,36.527,0,0,1-.07-5.571l.371-.224,5.4.01Z" transform="translate(-212.372 -123.693)" fill="#ee4424"/>
          <path id="Trazado_1255164" data-name="Trazado 1255164" d="M195.727,123.732c.364.032.541.132.528.3l.032,4.853a4.89,4.89,0,0,0,2.225,3.909l.087.486a5.2,5.2,0,0,1-5.135.3,5.431,5.431,0,0,1-3.032-3.777c-.144,0-.366-.03-.376-.12a38.148,38.148,0,0,1-.092-5.481c-.062-.282.09-.376.364-.481l5.4.01Z" transform="translate(-146.663 -123.678)" fill="#ee4424"/>
          <path id="Trazado_1255165" data-name="Trazado 1255165" d="M108.28,123.752l.376.162.072,5.169a5.171,5.171,0,0,0,2.177,3.8l.04.491a5.448,5.448,0,0,1-8.062-3.52c-.149.035-.356.035-.394-.075a32.546,32.546,0,0,1-.112-5.765l.374-.272,5.526.015Z" transform="translate(-80.895 -123.693)" fill="#ee4424"/>
          <path id="Trazado_1255166" data-name="Trazado 1255166" d="M263.076,123.73l.075,5.917a6.249,6.249,0,0,1-2.835,3.752,6.157,6.157,0,0,1-2.588-5.227l.092-4.44h5.259Z" transform="translate(-197.595 -123.685)" fill="#fee4c1"/>
          <path id="Trazado_1255167" data-name="Trazado 1255167" d="M88,123.722V129.1l.132.735a.258.258,0,0,0-.309.192,5.281,5.281,0,0,1-2.6,3.363,6.261,6.261,0,0,1-2.566-5.234l.072-4.435H88Z" transform="translate(-66.141 -123.678)" fill="#fee4c1"/>
          <path id="Trazado_1255168" data-name="Trazado 1255168" d="M175.532,123.73l.1,6.081a6.713,6.713,0,0,1-2.865,3.588,6.262,6.262,0,0,1-2.581-5.234l.085-4.435Z" transform="translate(-131.864 -123.685)" fill="#fee4c1"/>
          <path id="Trazado_1255169" data-name="Trazado 1255169" d="M131.582,123.76l-.017,5.675a4.983,4.983,0,0,1-2.611,3.949,5.583,5.583,0,0,1-2.593-4.444l-.07-5.174,5.294,0Z" transform="translate(-98.903 -123.708)" fill="#fc5426"/>
          <path id="Trazado_1255170" data-name="Trazado 1255170" d="M306.284,123.77l-.04,5.837a4.864,4.864,0,0,1-2.511,3.71,5.215,5.215,0,0,1-2.693-4.552l-.007-4.487a.762.762,0,0,0-.172-.506h5.424Z" transform="translate(-229.982 -123.715)" fill="#fc5426"/>
          <path id="Trazado_1255171" data-name="Trazado 1255171" d="M218.719,123.76l-.022,5.688a4.934,4.934,0,0,1-2.531,3.864,5.253,5.253,0,0,1-2.688-4.554l-.012-4.489a.738.738,0,0,0-.174-.5h5.426Z" transform="translate(-164.229 -123.708)" fill="#fc5426"/>
          <path id="Trazado_1255172" data-name="Trazado 1255172" d="M39.815,123.74l3.971.007.092,5.593a5.778,5.778,0,0,1-2.725,4.026,5.578,5.578,0,0,1-2.588-4.447L38.41,123.8Z" transform="translate(-32.917 -123.693)" fill="#fc5426"/>
        </g>
      </g>
      <g id="Grupo_1203527" data-name="Grupo 1203527" transform="translate(35.788 0.024)">
        <path id="Trazado_1255173" data-name="Trazado 1255173" d="M221.173,11.333c-.04.144-.1.364-.217.371a38.54,38.54,0,0,1-4.385-.022.6.6,0,0,1-.267-.374l-.13.374-19.2-.025-.227-.374a4.162,4.162,0,0,1-2.91-1.243c-.68-.648-1.878-2.083-1.343-2.947l.13-.374h26.911c1.345-.3,1.355-1.786-.1-2.053l-26.734.02-.227-.374c-.488-.59.252-1.594.673-2.157A4.611,4.611,0,0,1,197.087.1l25.945.007a5.724,5.724,0,0,1,4.711,6.57,5.857,5.857,0,0,1-6.57,4.654Z" transform="translate(-184.266 -0.1)" fill="#fc5426"/>
        <path id="Trazado_1255174" data-name="Trazado 1255174" d="M172.831.1a5.986,5.986,0,0,0-4.611,4.213l-.224.4c-1.278.747-.486,1.622.249,2.377a6.069,6.069,0,0,0,4.25,4.188c-.065.561-1.211.546-1.335,0-.035.144-.085.329-.212.374-.239.085-4.014.06-4.517.022l-.272-.371a5.855,5.855,0,0,1-4.783-1.956,5.544,5.544,0,0,1-.9-5.877C161.144,1.9,162.841.14,164.9.132L172.833.1Z" transform="translate(-160.011 -0.1)" fill="#ee4424"/>
        <path id="Trazado_1255175" data-name="Trazado 1255175" d="M189.673,45c.147.015.364.057.376.162.055.491.162,4.387.082,4.6-.052.142-.222.217-.369.279l-4.851.007,0-4.5a.71.71,0,0,0-.247-.526l5-.025Z" transform="translate(-178.527 -33.814)" fill="#cac3e4"/>
        <path id="Trazado_1255176" data-name="Trazado 1255176" d="M292.249,45.115l.065,5-4.848,0c-.145-.015-.364-.057-.376-.159a27.74,27.74,0,0,1-.062-3.587q-.2-.979.351-1.273Z" transform="translate(-255.343 -33.882)" fill="#cac3e4"/>
        <path id="Trazado_1255177" data-name="Trazado 1255177" d="M189.143,16.952l26.879-.022a1.4,1.4,0,0,1,1.53,1.472,1.384,1.384,0,0,1-1.413,1.325H189.168a1.377,1.377,0,0,1-1.29-1.33,1.358,1.358,0,0,1,1.268-1.445Z" transform="translate(-180.934 -12.737)" fill="#fd7c43"/>
      </g>
      <g id="Grupo_1203529" data-name="Grupo 1203529" transform="translate(9.33)">
        <path id="Trazado_1255178" data-name="Trazado 1255178" d="M96.022,17.266a11.471,11.471,0,0,1-7.128,5.894c-2.17.2-4.385-1.51-5.745-3.094-.69-.8-1.856-2.21-1.5-3.219a1.161,1.161,0,0,1,1.2.147l5,.623.282-.411c5.374-.79,5.84-10.1-.436-9.166l-.406-.272-.366-.244c.359-2.539-2.262-2.593-2.133-.03l-.391.184a1.66,1.66,0,0,1-1.445.2,1.761,1.761,0,0,1-1.428-.047.992.992,0,0,1-.127-.638c.516-2.185,4.821-5.984,7.245-5.8a11.219,11.219,0,0,1,7.387,15.872Z" transform="translate(-74.509 -1.04)" fill="#fee4c1"/>
        <path id="Trazado_1255179" data-name="Trazado 1255179" d="M68.24.359A11.518,11.518,0,0,0,61.125,6.8l-.115.483c-2.813,1.741-2.322,6.154.144,8.01l.095.518a10.391,10.391,0,0,0,7.25,6.313A11.152,11.152,0,0,1,56.8,18.44a2.1,2.1,0,0,1-1.5-2.282,8.881,8.881,0,0,1-.974-3.824,6.034,6.034,0,0,1-.035-2.177A11.015,11.015,0,0,1,63.678.174,3.258,3.258,0,0,1,64.971.087a7.824,7.824,0,0,1,3.266.269Z" transform="translate(-54.112 -0.003)" fill="#fdd1a3"/>
        <path id="Trazado_1255180" data-name="Trazado 1255180" d="M54.025,42.937a3.107,3.107,0,0,1-.035-2.177Z" transform="translate(-53.812 -30.606)" fill="#fed9b0"/>
        <path id="Trazado_1255181" data-name="Trazado 1255181" d="M93.513.093c-.391.08-.77.02-1.293.087C92.529-.087,93.057.015,93.513.093Z" transform="translate(-82.651 -0.006)" fill="#fdd7ad"/>
        <g id="Grupo_1203528" data-name="Grupo 1203528" transform="translate(4.626 4.203)">
          <path id="Trazado_1255182" data-name="Trazado 1255182" d="M93.827,36.2c-3.787-.254-5.578-5.339-3.764-8.348.294-.488.812-1.318,1.388-.934q.654-.37,1.355-.777l.466.212a4.055,4.055,0,0,1,3.829.64,4.4,4.4,0,0,1,1.527,3.473,5.435,5.435,0,0,1-4.8,5.735Z" transform="translate(-85.122 -23.823)" fill="#fc5426"/>
          <path id="Trazado_1255183" data-name="Trazado 1255183" d="M77.638,25.992c.386-.538,1.3.01,1.069.655a4.183,4.183,0,0,0-1.7,3.53c-.072,2.955,1.532,4.711,4.073,5.752-2.115.2-4.609.249-6.2-.77a5.645,5.645,0,0,1-2.509-4.978,4.314,4.314,0,0,1,2.384-4.036,4.258,4.258,0,0,1,2.872-.154Z" transform="translate(-72.379 -23.556)" fill="#ee4424"/>
          <path id="Trazado_1255184" data-name="Trazado 1255184" d="M96.377,19.4c-.9.3-1.216,1.029-1.819.566a2.135,2.135,0,0,0-1.069-.655c.11-1.246.14-2.245,1.315-2.422a1.353,1.353,0,0,1,1.522,1.019A6.366,6.366,0,0,1,96.377,19.4Z" transform="translate(-88.231 -16.872)" fill="#a4503f"/>
        </g>
      </g>
    </g>
    <g id="Grupo_1203535" data-name="Grupo 1203535" transform="translate(6.156 36.427)">
      <path id="Trazado_1255185" data-name="Trazado 1255185" d="M38.906,200.543l-.172.374-7.788.037.125,8.764-.369.229-.127.461c-1.741.817-2.195,2.574-1.971,4.355.05.506-.115.745-.493.71-.291.2-.406.1-.254-.219a1.817,1.817,0,0,1-1.415-.115,2.2,2.2,0,0,1-1.53-.232q-.1-7.138-.192-14.367v-.177c.08-.154.14-.142.187.027l13.61-.027c.224,0,.331.06.386.182Z" transform="translate(-24.718 -186.794)" fill="#f2effe"/>
      <path id="Trazado_1255186" data-name="Trazado 1255186" d="M222.761,335.4l.007,5.227-5.588-.007.027-5.222Z" transform="translate(-169.23 -288.269)" fill="#57bd91"/>
      <path id="Trazado_1255187" data-name="Trazado 1255187" d="M24.907,215.767a.522.522,0,0,0-.2,0l0-14.37a.2.2,0,0,1,.184.212Z" transform="translate(-24.71 -187.652)" fill="#f6f4fe"/>
      <g id="Grupo_1203531" data-name="Grupo 1203531" transform="translate(0.005)">
        <path id="Trazado_1255188" data-name="Trazado 1255188" d="M57.942,150.283a1.655,1.655,0,0,1,.927-1.166,7.984,7.984,0,0,0,1.562-2.633.35.35,0,0,1,.414.247l.431.222a5.1,5.1,0,0,0,7.143,3.139l.486.157.037-.463a4.668,4.668,0,0,0,2.187-3.234l.386-.252.446.247a5.236,5.236,0,0,0,7.307,3.58l.493.159a1.467,1.467,0,0,1,.827-1.074l1.116-1.43a1.489,1.489,0,0,1,.922-1.081l.424.214a5.145,5.145,0,0,0,7.275,3.144l.468.12q-.019-.609.777-1.074l1.153-1.654a1.388,1.388,0,0,1,.6-1.136l.446.247a5.24,5.24,0,0,0,7.312,3.565l.493.159.125-.516a5.885,5.885,0,0,0,2.24-2.982l.473-.254.414.232a5.127,5.127,0,0,0,7.312,3.291l.468.117q-.045-.6.752-1.049l1.156-1.582a1.308,1.308,0,0,1,.605-1.079l.466.234a5.25,5.25,0,0,0,7.295,3.4l.491.164c-.321-.463.384-.795.71-.4l.03,43.481h-7.586l-.374-.127V159.439a1.925,1.925,0,0,0-1.859-2.015L96.9,157.409a1.953,1.953,0,0,0-2.048,1.826l-.012,33.889-.374.229c-.017.144-.062.361-.169.374a34.323,34.323,0,0,1-5.112,0l-.274-.374-.249-.015q-.22-4.006-.127-8.159l.374-.219-.374-.13,0-25.5a1.916,1.916,0,0,0-1.956-1.916L47.02,157.4l-.232-.374c-.214.02-.319-.02-.374-.217-.087-.316-.142-5.737-.037-6.021l.364-.339c-.157-.381,0-.371.351-.207l.107-.508a5.413,5.413,0,0,0,2.177-3.231l.441-.286.389.259a5.134,5.134,0,0,0,7.242,3.652l.491.157Z" transform="translate(-40.941 -146.22)" fill="#c7eefd"/>
        <path id="Trazado_1255189" data-name="Trazado 1255189" d="M24.969,161.057l.369.473q-.052,6.286-.052,6.288l-.376.269c0,.067-.112.144-.179.149l0-7.3c.055.057.179.082.234.115Z" transform="translate(-24.73 -157.273)" fill="#a9e8fa"/>
        <path id="Trazado_1255190" data-name="Trazado 1255190" d="M31.073,161.858l.047,6.577-5.67,0,.06-7.03A5.28,5.28,0,0,0,31.073,161.858Z" transform="translate(-25.271 -157.626)" fill="#98e5fb"/>
      </g>
      <path id="Trazado_1255191" data-name="Trazado 1255191" d="M56.521,201.41,56.5,211.1a1.933,1.933,0,0,1-1.467-.065,1.912,1.912,0,0,1-1.48-.234.347.347,0,0,1-.376-.107c.528-2.912-2.4-3.039-2.063-.149l-.376.234a1.121,1.121,0,0,1-1.223.209,1.232,1.232,0,0,1-1.2-.179l-.135-9.4h8.338Z" transform="translate(-42.333 -187.66)" fill="#fefefe"/>
      <g id="Grupo_1203532" data-name="Grupo 1203532" transform="translate(0.002 10.352)">
        <path id="Trazado_1255192" data-name="Trazado 1255192" d="M30.58,188.231l39.794.012a2.319,2.319,0,0,1,2.324,2.384l0,25.531c-.017.144-.055.356-.159.374a16.066,16.066,0,0,1-2.352,0,.615.615,0,0,1-.254-.374l-.374-.13L69.541,191.4l-8.239-.027-.219-.374-.209.374-3.316,0-.01,24.559-.374.227c-.02.142-.052.351-.157.374a9,9,0,0,1-1.639,0q-.774.157-.949-.374l-.374-.13q-.007-12.31-.017-24.627l.374-.229q-4.324-.172-8.722-.09l-.172.306a18.278,18.278,0,0,0-3.433.137v13.784c1.1-.259,3.064-.7,3.513.58.605-.416,1.32.585,1.639,1.111a7.956,7.956,0,0,1,.608,4.479l-.374.262c.1.217-.007.272-.14.082q-4.144.026-8.239-.14l-.371-.212c-.135-1.243-.11-3.421.543-4.492.259-.424.869-1.273,1.378-1.011l-.259-.284a4.087,4.087,0,0,0-1.45-4.36l-.04-.461-.371-.409q.011-4.533.025-9.063l.374-.219q-4.088-.164-8.259-.082c-.062.162-.125.287-.192.289-1.642.065-3.7.117-5.324.01l-.227-.374q-.09-.744-.189-1.522v-1.109c.027-.142.087-.192.182-.149.017-.145.062-.364.167-.374a39.813,39.813,0,0,1,5.229,0l.272.374Z" transform="translate(-24.728 -187.774)" fill="#fc5426"/>
        <path id="Trazado_1255193" data-name="Trazado 1255193" d="M24.909,196.195l-.184-.027,0-1.5c.311.414.179,1.009.189,1.522Z" transform="translate(-24.72 -192.952)" fill="#fa957e"/>
        <path id="Trazado_1255194" data-name="Trazado 1255194" d="M178.368,225.865h-8.844l-.374-.13q0-12.4-.01-24.809l.374-.227,8.867.03Z" transform="translate(-133.16 -197.48)" fill="#fefefe"/>
        <path id="Trazado_1255195" data-name="Trazado 1255195" d="M116.16,201.085l.017,24.985-3.269-.007.06-3.53a.8.8,0,0,0-.755-.78l-3-.1.01-2.863a3.9,3.9,0,0,0-1.883-2.99l-.374-.349.02-14.278.257-.179q4.469-.075,8.914.087Z" transform="translate(-86.479 -197.685)" fill="#fefefe"/>
        <path id="Trazado_1255196" data-name="Trazado 1255196" d="M158.859,200.7l.01,25.165H154.95l0-25.16Z" transform="translate(-122.506 -197.48)" fill="#f2effe"/>
        <path id="Trazado_1255197" data-name="Trazado 1255197" d="M105.588,200.857l-8.8-.022-.017,14.744a3.813,3.813,0,0,0-3.884.085V200.717l12.3-.047a.435.435,0,0,1,.4.187Z" transform="translate(-75.907 -197.457)" fill="#f2effe"/>
      </g>
      <g id="Grupo_1203534" data-name="Grupo 1203534" transform="translate(53.09 10.815)">
        <path id="Trazado_1255198" data-name="Trazado 1255198" d="M260.308,225.948l-.032,5.224H238.258c-.147-.015-.364-.062-.374-.167a28.662,28.662,0,0,1,0-3.979c-.115-.568.01-.929.371-1.079l0-33.914a2.346,2.346,0,0,1,2.424-2.4l17.3.012a2.314,2.314,0,0,1,2.324,2.384v33.922Z" transform="translate(-237.812 -189.63)" fill="#fc5426"/>
        <path id="Trazado_1255199" data-name="Trazado 1255199" d="M267.068,325.425l-12.753,0a1.389,1.389,0,0,1,0-2.775l12.479-.025a1.428,1.428,0,0,1,1.557,1.238,1.356,1.356,0,0,1-1.286,1.557Z" transform="translate(-249.209 -289.496)" fill="#fd7d43"/>
        <g id="Grupo_1203533" data-name="Grupo 1203533" transform="translate(3.776 3.498)">
          <path id="Trazado_1255200" data-name="Trazado 1255200" d="M266.132,229.754l-10.725.025a2.373,2.373,0,0,1-2.437-2.436V206.1a2.381,2.381,0,0,1,2.437-2.434l10.63.01a2.346,2.346,0,0,1,2.322,2.424V227.34A2.294,2.294,0,0,1,266.132,229.754Z" transform="translate(-252.97 -203.67)" fill="#fd7d43"/>
          <path id="Trazado_1255201" data-name="Trazado 1255201" d="M273.241,235.426l-.371-.132q.075-10.079.147-20.162l.374-.224,7.113-.007v20.526h-7.262Z" transform="translate(-267.912 -212.102)" fill="#fefefe"/>
          <path id="Trazado_1255202" data-name="Trazado 1255202" d="M266.873,214.93l-.15,20.518-2.534-.012v-20.5Z" transform="translate(-261.395 -212.125)" fill="#f2effe"/>
        </g>
      </g>
    </g>
  </g>
</svg>
