<svg id="BACKGROUND" xmlns="http://www.w3.org/2000/svg" width="143.505" height="139" viewBox="0 0 143.505 139">
  <g id="Grupo_1203464" data-name="Grupo 1203464" transform="translate(0)">
    <g id="Grupo_1203447" data-name="Grupo 1203447" transform="translate(0 127.079)">
      <path id="Trazado_1254910" data-name="Trazado 1254910" d="M6.735,358.127l.318-.562,3.766-.007.4.562c.116-.857,2.059-.812,2.243.008l.318-.562a26.817,26.817,0,0,1,3.766,0,.925.925,0,0,1,.4.562l.187-.562H28.824l.329.562.318-.562a26.817,26.817,0,0,1,3.766,0,.925.925,0,0,1,.4.562c0-.217.052-.554.187-.562a81.362,81.362,0,0,1,10.067,0c.532-.067.794-.007.955.562q.539-.91,2.449-.565c1.041-.2,1.722-.019,2.037.558l.266-.562h86.821l.348.562,5.009.045c.835.008,1.3.861,1.718,1.355V361.2c-.431.412-.824,1.4-1.786,1.4L1.789,362.59c-1.292,0-1.831-1.524-1.8-2.34a2.017,2.017,0,0,1,1.745-2.07l5-.056Z" transform="translate(0.013 -350.677)" fill="#6d555c"/>
      <path id="Trazado_1254911" data-name="Trazado 1254911" d="M164.063,340.018l1.247-.562h10.7a4.584,4.584,0,0,1,2.055.562q.152-.792,1.426-.431h12.291q1.112-.331,1.419.416l1.254-.547,12.149.127.329.565.318-.562a26.312,26.312,0,0,1,3.766,0,.946.946,0,0,1,.4.562h6.728v6.732H130.716c-.217-.022-.547-.09-.562-.243a52.308,52.308,0,0,1,0-6.088.911.911,0,0,1,.562-.4H135.2q.539-.91,2.449-.562c1.041-.2,1.722-.015,2.037.558.026-.217.082-.532.24-.562a15.837,15.837,0,0,1,2.8-.007c.786-.161,1.269.022,1.453.558l.509-.554a14.678,14.678,0,0,1,4.264.371l.3-.52q7.2.365,14.437.06l.389.528Z" transform="translate(-81.362 -339.43)" fill="#a36b4f"/>
    </g>
    <g id="Grupo_1203450" data-name="Grupo 1203450" transform="translate(2.229 11.101)">
      <g id="Grupo_1203448" data-name="Grupo 1203448" transform="translate(0 12.89)">
        <path id="Trazado_1254912" data-name="Trazado 1254912" d="M309.916,76.9,309.9,88.1a13.119,13.119,0,0,1-4.556,5.466c-.367,1.569-3,1.9-4.47,1.831-3.755-.168-6.477-2.98-8.319-6.031-4.5,7.866-12.868,8.068-17.349.049a15.132,15.132,0,0,1-4.882,4.871l-.782-.247-.007-17.016.191-.562s13.283-.045,39.854-.131l.344.558Z" transform="translate(-170.844 -71.744)" fill="#ef4f6b"/>
        <path id="Trazado_1254913" data-name="Trazado 1254913" d="M10.414,64.728c.03-.217.086-.532.243-.558a33.591,33.591,0,0,1,3.9.022.943.943,0,0,1,.386.562l.191-.562,30.85-.112.344.558v4.6l-.191.562h-33.4c-1.045.172-1.46.382-1.707,1.475l-.026,14.2-.562.333A12.918,12.918,0,0,1,5.94,80.418L6.067,68.4c.022-2.156,2.523-3.684,4.343-3.673Z" transform="translate(-5.94 -64.08)" fill="#fe778a"/>
        <path id="Trazado_1254914" data-name="Trazado 1254914" d="M305.405,65.81a4.562,4.562,0,0,1,4.5,4.5l-40.389.131V65.836L305.4,65.81Z" transform="translate(-170.838 -65.162)" fill="#fe778a"/>
        <path id="Trazado_1254915" data-name="Trazado 1254915" d="M53.878,77.86l-.011,17.009c-2.482-.977-4.141-3.126-5.59-5.732a15.962,15.962,0,0,1-3.95,4.942,7.326,7.326,0,0,1-9.622-.146,15.033,15.033,0,0,1-3.8-4.785C28.936,92.7,26.21,95.629,22.5,95.782A7.219,7.219,0,0,1,18,94.434L18.019,80.1a2.194,2.194,0,0,1,2.258-2.239H53.882Z" transform="translate(-13.485 -72.701)" fill="#ef4f6b"/>
      </g>
      <g id="Grupo_1203449" data-name="Grupo 1203449" transform="translate(4.474)">
        <path id="Trazado_1254916" data-name="Trazado 1254916" d="M305.39,41l.015,8.94-.195.562q-17.668.011-35.346.026l-.344-.562.011-8.832.191-.562s11.775-.045,35.32-.131l.344.558Z" transform="translate(-175.312 -36.4)" fill="#fdecb1"/>
        <path id="Trazado_1254917" data-name="Trazado 1254917" d="M53.813,29.65,53.8,34.158l-.195.562-30.614.12-.007,7.967-.558.408-4.534-.026.049-13.426Z" transform="translate(-17.89 -29.65)" fill="#fef9d1"/>
        <path id="Trazado_1254918" data-name="Trazado 1254918" d="M305.39,34.435l-35.855.135-.015-4.508,35.852-.112Z" transform="translate(-175.312 -29.838)" fill="#fef9d1"/>
        <path id="Trazado_1254919" data-name="Trazado 1254919" d="M61.374,41.69l.011,8.944L30,50.747l0-8.97Z" transform="translate(-25.466 -37.182)" fill="#fdecb1"/>
      </g>
    </g>
    <g id="Grupo_1203460" data-name="Grupo 1203460" transform="translate(6.744 40.089)">
      <path id="Trazado_1254920" data-name="Trazado 1254920" d="M60.413,130.142l.374.094c.221,1.288.79,2,1.7,2.142q27.282.112,54.5-.075l1-.865c.071-.625.329-1,.775-1.116l.479-.73a18.463,18.463,0,0,0,5.107-3.081c5.305,4.788,12.055,4.811,17.368.011,3.482,2.834,7.608,4.564,12.082,3.089l.809.307V206.94c-.022.217-.09.547-.243.562a45.822,45.822,0,0,1-6.084,0l-.4-.562-.562-.2v-67c-.2-1.28-.475-1.546-1.745-1.741H73.962c-1.179.183-1.516.4-1.741,1.614L72.214,206.6l-.562.348-.318.562a32.341,32.341,0,0,1-3.766,0,.921.921,0,0,1-.4-.562l-.562-.2L66.6,139.617c-.206-1.2-.58-1.4-1.711-1.61H33.461c-1.2.236-1.415.58-1.595,1.737v66.847l-.562.348c-.109.857-2.055.827-2.243.007l-.562-.27q0-37.789,0-75.593l.562-.348a5.074,5.074,0,0,1,2.894-1.063,18.1,18.1,0,0,0,5.515-3.164c5.324,4.762,12.025,4.766,17.349,0a16.826,16.826,0,0,0,5.167,2.965l.427.663Z" transform="translate(-24.569 -119.235)" fill="#c8bfc2"/>
      <path id="Trazado_1254921" data-name="Trazado 1254921" d="M22.509,136.039V212.25l-.326.562-3.766-.007-.4-.562v-77.02a2.878,2.878,0,0,1,2.471.09,2.343,2.343,0,0,1,2.018.726Z" transform="translate(-18.013 -124.537)" fill="#d7d1d3"/>
      <path id="Trazado_1254922" data-name="Trazado 1254922" d="M305.349,113.349l.06,4.957a12.015,12.015,0,0,1-12.879-2.943,11.966,11.966,0,0,1-17.375-.011,11.892,11.892,0,0,1-5.586,3.355l-.019-4.886c2.5-1.093,4.13-3.268,5.6-5.863a16.034,16.034,0,0,0,3.789,4.815,7.362,7.362,0,0,0,9.48.243,15.528,15.528,0,0,0,4.107-5.066,15.9,15.9,0,0,0,3.8,4.826,7.38,7.38,0,0,0,9.034.573Z" transform="translate(-175.372 -107.624)" fill="#b9aeb2"/>
      <path id="Trazado_1254923" data-name="Trazado 1254923" d="M22.5,341.357c.217.06.535.15.562.326a46.907,46.907,0,0,1,0,5.983l-.562.408-4.485.008V341.35Z" transform="translate(-18.006 -253.641)" fill="#b07f68"/>
      <path id="Trazado_1254924" data-name="Trazado 1254924" d="M22.5,123.339c.213.03.528.082.562.24a14.573,14.573,0,0,1,0,2.557q.27,1.37-.562,1.722a12.6,12.6,0,0,1-4.485-.816L18,121.987a3.023,3.023,0,0,1,2.419.55,2.972,2.972,0,0,1,2.082.8Z" transform="translate(-18 -116.356)" fill="#c8bfc2"/>
      <path id="Trazado_1254925" data-name="Trazado 1254925" d="M61.38,113.148l-.022,4.837a10.666,10.666,0,0,1-5.578-3.171,12.012,12.012,0,0,1-17.364,0,12.518,12.518,0,0,1-8.405,3.77v-4.523l.487-.6c3.276-.419,5.56-3.092,7.14-5.792.734-.711.958-.88,1.614.067,4.261,7.967,11.906,7.413,16.02-.382.607-.5.824-.281,1.322.326a11.219,11.219,0,0,0,4.515,4.732l.277.73Z" transform="translate(-25.514 -107.079)" fill="#b9aeb2"/>
      <g id="Grupo_1203455" data-name="Grupo 1203455" transform="translate(47.083 18.214)">
        <path id="Trazado_1254926" data-name="Trazado 1254926" d="M219.99,225.221l-4.485.007-.562-.195V165.026l.558-.344-.562-.314-.022-3.583q-32.943-.028-65.9-.011l-.21.21v63.893l-.565.348H143.76l0-67.207a2.184,2.184,0,0,1,2.291-2.288h71.64a2.187,2.187,0,0,1,2.291,2.288v67.207Z" transform="translate(-143.76 -155.73)" fill="#f7d170"/>
        <path id="Trazado_1254927" data-name="Trazado 1254927" d="M229.555,178.7v60.546l-13.729-.146-.045-.382q2.954-4.24-4.931-3.4l-.386-.562c-.217-.06-.535-.154-.558-.329a49.73,49.73,0,0,1,.034-5.987l.562-.4.191-.562h11.43l-7.63-26.342,2.98-7.492a5.979,5.979,0,0,0-4.437-7.447l-.3-.625c-.857-.12-.812-2.067.007-2.254q-.814-.124-.61-1.8h-7.754l-.022,3.478-.558.4-.292.644a6.236,6.236,0,0,0-4.38,7.742q1.561,3.723,2.924,7.5l-7.619,26.211,3.407.007.386.562.4-.562q3.487-.006,6.979-.015l.408.558.562.322.034,5.987-.558.412-.24.562-4.38.007a1.7,1.7,0,0,0-.726,3.19l-.022.6h-14l-.049-.382q2.954-4.257-4.931-3.418l-.386-.562-.562-.262q.039-17.331.037-17.331l.562-.337.243-.562h5.9l.015-14.9,1.906-9.4A5.6,5.6,0,0,0,184,186.1l-.4-.558c-.857-.1-.831-2.04-.011-2.228q-.814-.124-.61-1.8h-7.746l-.03,3.433-.562.389-.382.584c-3.856.614-5.68,3.186-5.286,7l1.726,8.169.007,14.994a14.249,14.249,0,0,0,3.527.18l.4.562c.112-.857,2.055-.82,2.243,0l.562.258q.017,8.66.037,17.331l-.562.341-.24.562-4.38.008a1.67,1.67,0,0,0-.738,3.13l.007.6a19.365,19.365,0,0,1-4.773.183l-.562-.2V179.061a.911.911,0,0,1,.756-.91l62.227-.011.344.562Z" transform="translate(-157.81 -169.75)" fill="#fdecb1"/>
        <path id="Trazado_1254928" data-name="Trazado 1254928" d="M223.006,172.158l-62.77.011,0,60.52-4.489.007,0-65.009,67.222-.007Z" transform="translate(-151.261 -163.206)" fill="#fbdd90"/>
        <g id="Grupo_1203452" data-name="Grupo 1203452" transform="translate(10.474 11.202)">
          <path id="Trazado_1254929" data-name="Trazado 1254929" d="M183.484,328.252c.127-.809,2.939-.711,3.639-.562.419-.075.636.127.764.562l4.534.007a2.2,2.2,0,0,1,2.19,1.85,2.262,2.262,0,0,1-1.355,2.5l-1.4.127-12.351.015-1.378-.21a2.118,2.118,0,0,1-1.374-2.437,2.188,2.188,0,0,1,2.194-1.85Z" transform="translate(-174.856 -274.448)" fill="#6d555c"/>
          <path id="Trazado_1254930" data-name="Trazado 1254930" d="M191.372,229.183l-.318.562h-3.766l-.4-.558h-2.243l-.562-.258V213.567l-1.715-8.072a6.647,6.647,0,0,1,.064-3.01c.262-1.045,1.06-3.164,2.273-2.857l.644.213a3.986,3.986,0,0,0,3.744,2.894c0,.457.2.562.58.52l.307-.621c2.022-.453,2.984-2.374,3.066-4.32l.569-.412a6.148,6.148,0,0,1,6.267,7.3l-1.79,8.566.008,15.41h-6.728Z" transform="translate(-178.301 -193.312)" fill="#c8bfc2"/>
          <path id="Trazado_1254931" data-name="Trazado 1254931" d="M178.09,197.35c.839-.026.865,1.76.052,1.932a6.274,6.274,0,0,0-1.786,5.762l1.722,8.128V228.84l-4.481-.011V213.171l-1.722-8.128a6.441,6.441,0,0,1,6.219-7.694Z" transform="translate(-171.735 -192.969)" fill="#d7d1d3"/>
          <path id="Trazado_1254932" data-name="Trazado 1254932" d="M199.155,281.46l-.041,17.933h-4.4l-.041-17.933Z" transform="translate(-186.083 -245.59)" fill="#7b636b"/>
          <g id="Grupo_1203451" data-name="Grupo 1203451" transform="translate(6.348)">
            <path id="Trazado_1254933" data-name="Trazado 1254933" d="M197.645,188.009l-.333.554-3.583-.086q-.028,3.718-.015,7.117a4.544,4.544,0,0,1-4.972-3.632l-.052-1.932v-4.38h8.929l.019,2.359Z" transform="translate(-188.69 -185.65)" fill="#87747c"/>
            <path id="Trazado_1254934" data-name="Trazado 1254934" d="M205.09,191.769,205.1,194c.015,2.662-1.292,5.013-3.942,5.357-.019-.052-.3-.022-.4-.094a.885.885,0,0,1-.168-.58l.019-7.02,4.474.109Z" transform="translate(-196.135 -189.41)" fill="#7b636b"/>
          </g>
        </g>
        <g id="Grupo_1203454" data-name="Grupo 1203454" transform="translate(35.874 11.206)">
          <path id="Trazado_1254935" data-name="Trazado 1254935" d="M261.336,328.252c.127-.809,2.939-.711,3.639-.562.419-.075.636.127.764.562l4.534.007a2.2,2.2,0,0,1,2.19,1.85,2.233,2.233,0,0,1-1.359,2.49l-1.393.146H257.364l-1.4-.131a2.246,2.246,0,0,1-1.359-2.5,2.182,2.182,0,0,1,2.194-1.85l4.534-.007Z" transform="translate(-248.963 -274.452)" fill="#6d555c"/>
          <path id="Trazado_1254936" data-name="Trazado 1254936" d="M263.185,240.453l-.318.562H259.1l-.4-.558-7.791.015-.483-.341,7.727-26.526a54.9,54.9,0,0,1-3.171-8.233c-.116-1.554.034-4.534,1.767-4.815a3.651,3.651,0,0,1,1.831,1.464l1.03.577a1.371,1.371,0,0,1,1.333.8l.352-.577a4.09,4.09,0,0,0,3.587-4.4l.535-.427a6.538,6.538,0,0,1,5.054,8.866l-2.756,6.717,7.84,26.892H263.193Z" transform="translate(-246.368 -193.374)" fill="#ef4f6b"/>
          <path id="Trazado_1254937" data-name="Trazado 1254937" d="M249.692,197.474c.775.2.816,2.288.27,2.748a6.72,6.72,0,0,0-.764,6.458l2.7,6.574-7.78,26.885-4.541-.011,7.84-26.877-2.7-6.578a6.8,6.8,0,0,1,4.976-9.2Z" transform="translate(-239.58 -193.048)" fill="#fe778a"/>
          <g id="Grupo_1203453" data-name="Grupo 1203453" transform="translate(10.096)">
            <path id="Trazado_1254938" data-name="Trazado 1254938" d="M275.507,188.015l-.333.554-3.587-.086v6.788l-.562.4a4.612,4.612,0,0,1-4.193-2.834,6.541,6.541,0,0,1-.27-2.748l-.011-4.433h8.937l.019,2.362Z" transform="translate(-266.546 -185.66)" fill="#88747c"/>
            <path id="Trazado_1254939" data-name="Trazado 1254939" d="M282.991,191.769l-.007,2.254c.273,2.905-1.621,5.391-4.474,5.4V191.66Z" transform="translate(-274.031 -189.414)" fill="#7b636b"/>
          </g>
          <path id="Trazado_1254940" data-name="Trazado 1254940" d="M277.005,311.41l-.041,6.72h-4.4l-.041-6.72Z" transform="translate(-260.188 -264.33)" fill="#7b636b"/>
        </g>
      </g>
      <g id="Grupo_1203459" data-name="Grupo 1203459" transform="translate(4.489 18.218)">
        <rect id="Rectángulo_413249" data-name="Rectángulo 413249" width="11.209" height="11.22" transform="translate(6.728 65.005)" fill="#fdecb1"/>
        <rect id="Rectángulo_413250" data-name="Rectángulo 413250" width="11.209" height="11.22" transform="translate(22.422 65.005)" fill="#fdecb1"/>
        <g id="Grupo_1203458" data-name="Grupo 1203458">
          <path id="Trazado_1254941" data-name="Trazado 1254941" d="M70.747,225.231v6.728l-4.485.007-.562-.187V221.461q-4.88-.275-9.936-.154-.27,5.082-.154,10.329l-.562.329H50.564L50,231.779V221.461q-4.88-.275-9.936-.154-.27,5.082-.153,10.329l-.562.329H34.866c-.217-.026-.539-.086-.562-.243a50.092,50.092,0,0,1,0-6.091l.562-.4V158.024a2.189,2.189,0,0,1,2.265-2.284H68.475a2.193,2.193,0,0,1,2.261,2.284v67.211Z" transform="translate(-32.631 -155.74)" fill="#f7d170"/>
          <g id="Grupo_1203457" data-name="Grupo 1203457" transform="translate(0 4.485)">
            <path id="Trazado_1254942" data-name="Trazado 1254942" d="M32.233,341.35v6.732l-2.243-.008v-6.717Z" transform="translate(-29.99 -276.345)" fill="#a36b4f"/>
            <g id="Grupo_1203456" data-name="Grupo 1203456" transform="translate(6.724)">
              <path id="Trazado_1254943" data-name="Trazado 1254943" d="M74.849,172.31l-.262.558L53.2,172.752a12.612,12.612,0,0,0-.273,3.53l-.569.386-4.4.015.007-8.963H74.849v4.586Z" transform="translate(-47.956 -167.72)" fill="#986047"/>
              <path id="Trazado_1254944" data-name="Trazado 1254944" d="M59.17,214.8l-11.22.03V203.61H59.163Z" transform="translate(-47.95 -190.173)" fill="#fdecb1"/>
              <path id="Trazado_1254945" data-name="Trazado 1254945" d="M101.09,214.8l-11.22.03V203.61h11.213Z" transform="translate(-74.176 -190.173)" fill="#fdecb1"/>
              <path id="Trazado_1254946" data-name="Trazado 1254946" d="M59.17,256.714l-11.22.026V245.524l11.213,0Z" transform="translate(-47.95 -216.392)" fill="#fdecb1"/>
              <path id="Trazado_1254947" data-name="Trazado 1254947" d="M101.09,256.714l-11.22.026V245.524l11.213,0Z" transform="translate(-74.176 -216.392)" fill="#fdecb1"/>
              <path id="Trazado_1254948" data-name="Trazado 1254948" d="M59.17,298.634l-11.22.026V287.444l11.213,0Z" transform="translate(-47.95 -242.618)" fill="#fdecb1"/>
              <path id="Trazado_1254949" data-name="Trazado 1254949" d="M101.09,298.634l-11.22.026V287.444l11.213,0Z" transform="translate(-74.176 -242.618)" fill="#fdecb1"/>
              <path id="Trazado_1254950" data-name="Trazado 1254950" d="M82.193,179.774l0,4.369-22.49-.011.1-4.481Z" transform="translate(-55.301 -175.184)" fill="#a36b4f"/>
            </g>
          </g>
        </g>
      </g>
    </g>
    <g id="Grupo_1203463" data-name="Grupo 1203463" transform="translate(41.906)">
      <path id="Trazado_1254951" data-name="Trazado 1254951" d="M170.923,11.325c.213.026.505.071.562.24a32.647,32.647,0,0,1,.015,3.882l-.558.389c.217.026.543.1.562.255a54.516,54.516,0,0,1-.011,8.165l-.562.412c.217.026.539.09.562.247a23.028,23.028,0,0,1,0,3.969l-.562.393c.221.022.554.1.562.258.18,4.392.109,9.266.007,13.688a3.918,3.918,0,0,1-.558,3.07l.562.311.015,4.186-.558.389a2.4,2.4,0,0,1-2.587,2.651l-53.718-.037c-1.535,0-2.052-1.591-2.048-2.793l-.558-.322a31.9,31.9,0,0,1,.019-4.118.936.936,0,0,1,.562-.4l-.562-.618q0-8.025.011-16.054l.562-.333c-.217-.026-.535-.086-.562-.243a30.992,30.992,0,0,1,0-3.961.935.935,0,0,1,.562-.393c-.217-.026-.543-.09-.562-.251a55.142,55.142,0,0,1-.011-8.285l.562-.4c-.217-.03-.535-.086-.558-.243a33.36,33.36,0,0,1,.011-3.882.943.943,0,0,1,.562-.386l-.011-8.858A2.14,2.14,0,0,1,114.914,0h53.733a2.147,2.147,0,0,1,2.288,2.239l-.011,9.083Z" transform="translate(-111.918)" fill="#f7d170"/>
      <path id="Trazado_1254952" data-name="Trazado 1254952" d="M175.122,16.619l-44.841-.157-.067,40.359-4.414-.026V11.98l49.3,0Z" transform="translate(-120.603 -7.495)" fill="#edf5f5"/>
      <g id="Grupo_1203462" data-name="Grupo 1203462" transform="translate(9.05 8.409)">
        <path id="Trazado_1254953" data-name="Trazado 1254953" d="M181.56,23.175l.007,40.213-44.916-.007-.562-.2.067-39.816a.911.911,0,0,1,.76-.906l44.3.153.344.562Z" transform="translate(-136.09 -22.46)" fill="#f9fbfb"/>
        <g id="Grupo_1203461" data-name="Grupo 1203461" transform="translate(2.875 2.779)">
          <path id="Trazado_1254954" data-name="Trazado 1254954" d="M163.921,40.864l.577.322a3.934,3.934,0,0,0,7.836,0l.577-.322c.022-.221.1-.55.251-.562,1.883-.109,10.2-.195,11.37.386l1.011.921a11.163,11.163,0,0,1,.756,5.983h-6.675l0,20.18-17.948-.026-.562-.262.015-19.139a12.834,12.834,0,0,0-3.459-.172l-.393-.558-2.325-.056c-1.164-.85.139-3.283.887-4.283a7.494,7.494,0,0,1,5.092-2.917C161.686,40.22,163.722,40.029,163.921,40.864Z" transform="translate(-150.476 -36.35)" fill="#7b636b"/>
          <path id="Trazado_1254955" data-name="Trazado 1254955" d="M166.2,80.082H161.72l.082-20.131,4.41-.011Z" transform="translate(-154.999 -48.687)" fill="#87747c"/>
          <path id="Trazado_1254956" data-name="Trazado 1254956" d="M157.21,29.935q.887.421.562,2.164c.217,1.149.034,1.917-.558,2.3l-1.966-.007a6.821,6.821,0,0,0-7,6.7l-4.459.026-.019-2.265a8.881,8.881,0,0,1,8.121-8.884c1.864-.168,3.605-.034,5.316-.034Z" transform="translate(-143.769 -29.884)" fill="#87747c"/>
          <path id="Trazado_1254957" data-name="Trazado 1254957" d="M215.264,35.222a10.824,10.824,0,0,0-3.95-.753h-8.682l-.562-.314a27.125,27.125,0,0,1,0-3.748.925.925,0,0,1,.562-.4l5.305.034a8.943,8.943,0,0,1,7.323,5.174Z" transform="translate(-180.202 -29.963)" fill="#88747c"/>
          <path id="Trazado_1254958" data-name="Trazado 1254958" d="M188.669,30.02v4.463c-.03.217-.1.543-.255.562a54.7,54.7,0,0,1-8.326,0l-.408-.562V30.02Z" transform="translate(-166.235 -29.969)" fill="#7b636b"/>
          <path id="Trazado_1254959" data-name="Trazado 1254959" d="M188.665,41.94a4.493,4.493,0,0,1-8.985,0h8.985Z" transform="translate(-166.235 -37.426)" fill="#6d555c"/>
        </g>
      </g>
    </g>
  </g>
</svg>
