<svg id="Grupo_1224204" data-name="Grupo 1224204" xmlns="http://www.w3.org/2000/svg" xmlns:xlink="http://www.w3.org/1999/xlink" width="140.562" height="136.179" viewBox="0 0 140.562 136.179">
  <defs>
    <clipPath id="clip-path">
      <rect id="Rectángulo_744920" data-name="Rectángulo 744920" width="140.562" height="136.179" fill="none"/>
    </clipPath>
  </defs>
  <g id="Grupo_1224203" data-name="Grupo 1224203" clip-path="url(#clip-path)">
    <path id="Trazado_1391011" data-name="Trazado 1391011" d="M132.838,112.326l.536.709-.242,11.681c-.5,2.651-2.224,3.678-4.739,3.986l-30.408,0-.335-.549-.549-.191,0-36.62.549-.335a17.263,17.263,0,0,1,21.317,14.082l.12,5.807a16.281,16.281,0,0,1,13.749,1.427" transform="translate(-1.033 -0.962)" fill="#05e29b"/>
    <path id="Trazado_1391012" data-name="Trazado 1391012" d="M97.632,137.365l.023-8.972,30.734,0a4.178,4.178,0,0,0,4.245-4.037l.21-11.791a17.547,17.547,0,0,1,8.62,12.787l.137,7.717c.027,1.532-1.124,4.17-3.25,4.177Z" transform="translate(-1.039 -1.197)" fill="#0ed18f"/>
    <path id="Trazado_1391013" data-name="Trazado 1391013" d="M62.668,113.808l.873.15a41.765,41.765,0,0,1,2.518,3.816,14.335,14.335,0,0,1,9.511-1.628c1.369.249,3.574.659,4.017,2.02a1.275,1.275,0,0,1,.853-.13c2.255.747,6.407,6.767,6.3,9.139a1.259,1.259,0,0,1-.424.741c.042.61-.171.936-.794.879L.34,128.7,0,128.148.071,126.8c1.709-8.849,10.163-14.377,18.952-11.591a9.619,9.619,0,0,1-.151-4.686,14.5,14.5,0,0,1,28.731.237,13.673,13.673,0,0,1,15.065,3.044" transform="translate(0 -1.044)" fill="#00f1a5"/>
    <path id="Trazado_1391014" data-name="Trazado 1391014" d="M86.43,128.5c.215.023.535.088.551.241a56.66,56.66,0,0,1,.066,8.376l-.546.4-81.779.021c-2.315,0-3.986-.981-4.721-3.036v-6.038l85.595.1a.863.863,0,0,0,.715-.33c.233-.034.266.059.12.265" transform="translate(0 -1.364)" fill="#05e29b"/>
    <path id="Trazado_1391015" data-name="Trazado 1391015" d="M80.339,104.605l-.079,13.628a13.575,13.575,0,0,0-13.9.468,16.369,16.369,0,0,0-3.018-4.827,16.054,16.054,0,0,1,14.278-9.44,24.753,24.753,0,0,0,2.719.17" transform="translate(-0.674 -1.111)" fill="#05e29b"/>
    <path id="Trazado_1391016" data-name="Trazado 1391016" d="M64.248,57.445l-.07,9.87a4.693,4.693,0,0,1-4.561,4.373l-5.7.023c-.212-.029-.524-.089-.547-.241a29.782,29.782,0,0,1,.043-3.81.911.911,0,0,1,.553-.373l5.892.036V57.445a13.74,13.74,0,0,1,4.392,0" transform="translate(-0.567 -0.609)" fill="#e4e0e4"/>
    <path id="Trazado_1391017" data-name="Trazado 1391017" d="M28.744,57.4l0,10.188a5.354,5.354,0,0,1-4.143,4.145l-6.1-.012c-.211-.029-.522-.085-.547-.237A32.292,32.292,0,0,1,17.98,67.7a.91.91,0,0,1,.551-.373l5.544-.025c.366,0,.546-.739.546-1.069l0-8.238a.821.821,0,0,0-.243-.621c1.434,0,2.926-.386,4.363.025" transform="translate(-0.191 -0.609)" fill="#e4e0e4"/>
    <path id="Trazado_1391018" data-name="Trazado 1391018" d="M12.642,64.671c.215.056.535.148.55.314a56,56,0,0,1,.015,6.413.892.892,0,0,1-.548.4l-6.575,0c-.463,0-1.334-.3-1.33-.81L4.785,66.6A2.247,2.247,0,0,1,6.66,64.726Z" transform="translate(-0.051 -0.688)" fill="#fee077"/>
    <path id="Trazado_1391019" data-name="Trazado 1391019" d="M48.021,64.691c.214.057.534.149.548.314a48.69,48.69,0,0,1,0,6.38l-.549.392L40.9,71.643c-1.354-.025-1.7-6.2,1.084-6.818,1.98-.438,4.117-.071,6.037-.135" transform="translate(-0.424 -0.687)" fill="#fee077"/>
    <path id="Trazado_1391020" data-name="Trazado 1391020" d="M53.91,67.364l-.048,4.424-5.75-.012,0-7.087a15.214,15.214,0,0,1,3.946.111,3.072,3.072,0,0,1,1.856,2.563" transform="translate(-0.512 -0.687)" fill="#fed05b"/>
    <path id="Trazado_1391021" data-name="Trazado 1391021" d="M18.476,67.4,18.453,71.8l-5.71,0-.017-7.123,3.049.013a2.768,2.768,0,0,1,2.7,2.72" transform="translate(-0.135 -0.688)" fill="#fed05b"/>
    <path id="Trazado_1391022" data-name="Trazado 1391022" d="M134.994,57.436l-.013,10.421c-.458,1.874-2.1,3.781-4.1,3.8l-6.067.052q-.889-.531-.54-2.4-.291-1.532.557-1.993l6-.062.054-9.807a13.31,13.31,0,0,1,4.111-.01" transform="translate(-1.321 -0.609)" fill="#e4e0e4"/>
    <path id="Trazado_1391023" data-name="Trazado 1391023" d="M118.928,64.677c.215.056.535.148.549.314a49.036,49.036,0,0,1,.011,6.4l-.548.4-6.59.009a1.326,1.326,0,0,1-1.375-1.375V67.366c0-1.183.911-2.652,2.181-2.658Z" transform="translate(-1.181 -0.688)" fill="#fee076"/>
    <path id="Trazado_1391024" data-name="Trazado 1391024" d="M124.771,67.394l-.017,4.393-5.727,0-.013-7.113,3.583.026c1.348.009,2.178,1.533,2.174,2.691" transform="translate(-1.266 -0.688)" fill="#fed05b"/>
    <path id="Trazado_1391025" data-name="Trazado 1391025" d="M83.5,71.857l.308-.549,4.315,0,.384.55.549.192v54.413c-.2,1.046-.738,2.461-1.779,1.43a.909.909,0,0,1-.12-.265,13.711,13.711,0,0,0-6.724-9.75l-.545-.6q.036-6.352.073-12.705l.551-.322-.073-32.393c.2-.868,2.786-.831,3.062,0" transform="translate(-0.85 -0.758)" fill="#d6cfd5"/>
    <path id="Trazado_1391026" data-name="Trazado 1391026" d="M88.516,57.445c.214.03.533.1.543.257a42.832,42.832,0,0,1-.136,6.007q.223,1.255-.584,1.559-.491.423-1.434-.106L83.9,65.144l-.365-.55c.307.74-2.17.68-2.559.555-.295-.094-.47-.195-.525-.547l.007-7.157a47.863,47.863,0,0,1,8.059,0" transform="translate(-0.856 -0.609)" fill="#d6cfd5"/>
    <path id="Trazado_1391027" data-name="Trazado 1391027" d="M80.4,64.681l3.085-.008c.215.058.535.152.548.318a49.067,49.067,0,0,1-.022,6.405l-.551.393H80.394l-3.945-.117c-1.245-.342-.939-1.679-1.007-2.6-.141-1.91.244-3.842,2.278-4.357Z" transform="translate(-0.802 -0.688)" fill="#fee077"/>
    <path id="Trazado_1391028" data-name="Trazado 1391028" d="M97.512,70.961,97.548,90.8l0,37.147c.215.025.538.1.548.246.062.969.217,7.989-.022,8.331a.891.891,0,0,1-.549.395L87.43,136.91l-.071-9.019a1.312,1.312,0,0,0,1.231-1.447V71.857c.145-.767.472-.748.728-.022l.232-.553,6.139-.13a1.987,1.987,0,0,1,1.823-.191" transform="translate(-0.929 -0.753)" fill="#c8bec7"/>
    <path id="Trazado_1391029" data-name="Trazado 1391029" d="M99.758,57.447l-.081,9.535a5,5,0,0,1-2.151,3.837,4.1,4.1,0,0,1-1.978.752l-6.216.122c-.827.229-.635-3.571-.544-3.767a.917.917,0,0,1,.549-.383l.235-.551,5.192-.057.133-9.1.553-.392Z" transform="translate(-0.944 -0.611)" fill="#e4e0e4"/>
    <path id="Trazado_1391030" data-name="Trazado 1391030" d="M88.373,65.348c1-.566,2,1.986.91,2.274l-.006,4.148-.728.022-5.006,0,.025-7.114,3.242.013a2.571,2.571,0,0,1,1.563.662" transform="translate(-0.889 -0.688)" fill="#fed05b"/>
    <path id="Trazado_1391031" data-name="Trazado 1391031" d="M95.447,57.447l-.115,10.031-6,.066a3.123,3.123,0,0,0-.91-2.274l.176-7.824Z" transform="translate(-0.941 -0.611)" fill="#c8bec7"/>
    <path id="Trazado_1391032" data-name="Trazado 1391032" d="M93.173.019l.3,1.162c-4.318,20.71,13.549,39.636,34.47,36.491l1.135.373c.214.058.533.148.549.313.261,2.722.7,8.339-2.883,8.751l-51.16.068-.339-.549L74.8,45.92a15.969,15.969,0,0,0-.1-4.97,2.041,2.041,0,0,1-1.106-.905l-.552-.3c.713-6.625-2.054-13.027-9.113-14.433l-.776-.667c-.063.214-.167.532-.333.54a60.069,60.069,0,0,1-6.425-.219L43.536,12.423a14.785,14.785,0,0,0-9-3.471L.333,8.8,0,8.252V1.939c.487-.571,1.123-1.9,2.287-1.9Z" transform="translate(0 0)" fill="#fee077"/>
    <path id="Trazado_1391033" data-name="Trazado 1391033" d="M99.5,57.164c.239.078.236.17,0,.275a.748.748,0,0,1-.307.549c-.181.116-4.024.241-4-.55-.057.214-.145.531-.313.549a33.547,33.547,0,0,1-4.709,0q-1.426.282-1.824-.549H64.363c-.239-.077-.236-.169,0-.274l.191-.549H99.162Z" transform="translate(-0.683 -0.602)" fill="#fee498"/>
    <path id="Trazado_1391034" data-name="Trazado 1391034" d="M64.159,57.163v.275H45.22c-.241-.076-.239-.169,0-.28h.271l1.235-.549,17.112,0Z" transform="translate(-0.479 -0.602)" fill="#fee498"/>
    <path id="Trazado_1391035" data-name="Trazado 1391035" d="M138.578,57.012a63.591,63.591,0,0,1-8.538-.09c-9.936.239-20.705.239-30.74,0H64.165l-18.673,0a12.473,12.473,0,0,0,4.62-9.062l.188-.549,10.036.007.326.549.251-.548,13.452.008a3.726,3.726,0,0,1,1.368-.335l50.953-.028a2.838,2.838,0,0,0,2.874-2.919l.006-5.636c0,.081.147-.074.222-.056a5.448,5.448,0,0,1,3.025-1.243l4.676-1.891a6.4,6.4,0,0,1,3.525-1.33L141,54.714c0,1.4-1.4,2.054-2.422,2.3" transform="translate(-0.484 -0.36)" fill="#fed05b"/>
    <path id="Trazado_1391036" data-name="Trazado 1391036" d="M130.619,57.17c.241.073.239.165,0,.275H99.877V57.17Z" transform="translate(-1.063 -0.608)" fill="#fee498"/>
    <path id="Trazado_1391037" data-name="Trazado 1391037" d="M139.487,57.26a18.739,18.739,0,0,1-4.42.175l-4.111.01-.007-.275Z" transform="translate(-1.393 -0.608)" fill="#fee499"/>
    <path id="Trazado_1391038" data-name="Trazado 1391038" d="M141.918,33.525a30.619,30.619,0,0,1-11.228,4.463,1.224,1.224,0,0,1-.22-.916l-.2-23.624a.632.632,0,0,1,.271-.573c1.385-.843,1.655-1.917.221-2.918l-.3-.591.026-9.348L138.949,0c1.19,0,2.939.772,2.94,2.224Z" transform="translate(-1.386 0)" fill="#ae66d9"/>
    <path id="Trazado_1391039" data-name="Trazado 1391039" d="M130.1.018c.215.058.532.151.548.323a56.892,56.892,0,0,1-.024,8.626l-.55.4-.255.549-20.2-.028a1.506,1.506,0,0,0-.089,3l20.023.015.333.549c.214,0,.546.051.55.185.248,7.818.257,16.06.215,23.888l-.347.467c-.01.256-.083.274-.221.056A31.182,31.182,0,0,1,94.165.019Z" transform="translate(-0.993 0)" fill="#bc80e0"/>
    <path id="Trazado_1391040" data-name="Trazado 1391040" d="M130.226,9.468a1.992,1.992,0,0,1,1.758,2.236,2.013,2.013,0,0,1-1.951,1.845l-20.165-.006a2.052,2.052,0,0,1-.019-4.1Z" transform="translate(-1.147 -0.1)" fill="#fefefe"/>
    <path id="Trazado_1391041" data-name="Trazado 1391041" d="M124.647,22.97l-14.784,0a2.049,2.049,0,0,1-.022-4.1l14.809.012a2.012,2.012,0,0,1,1.971,2.043,2.035,2.035,0,0,1-1.974,2.04" transform="translate(-1.147 -0.201)" fill="#fefefe"/>
    <path id="Trazado_1391042" data-name="Trazado 1391042" d="M25.919,47.977a4.653,4.653,0,0,1,.988,2.723l.947,2.274L27.7,53.8a9.988,9.988,0,0,1,3.136,2.959.815.815,0,0,1-.373.576l-1.91-.043-.513.442a15.539,15.539,0,0,0-3.415.071l-.434-.538L3.114,57.3A3.77,3.77,0,0,1,0,55.419v-7.41l.188-.55,25.4-.03Z" transform="translate(0 -0.505)" fill="#fed05b"/>
    <path id="Trazado_1391043" data-name="Trazado 1391043" d="M27.16,42.187a4.754,4.754,0,0,1-.437,2.9,4.714,4.714,0,0,1-.8,2.834L0,47.952V42.188Z" transform="translate(0 -0.449)" fill="#fc3581"/>
    <path id="Trazado_1391044" data-name="Trazado 1391044" d="M18.217,19.077c-.023.217-.1.544-.255.549-5.057.174-11.032.267-16.065.011Q.374,19.922,0,19.09V12.5l17.462.122c.514,0,.755.5.755.953Z" transform="translate(0 -0.133)" fill="#00f1a5"/>
    <path id="Trazado_1391045" data-name="Trazado 1391045" d="M18.217,19.148c0,1.15.408,2.477-.355,3.571L0,22.728V19.161Z" transform="translate(0 -0.204)" fill="#05e29b"/>
    <path id="Trazado_1391046" data-name="Trazado 1391046" d="M74.114,40.31c-.175.812-2.7.687-3.5.568l-.375-.546-.25.548H62.111a15.384,15.384,0,0,0-1.329.789l0,3.05a.749.749,0,0,1,.508.165c.106.118.123,3.056-.589,2.885L50.149,47.76a12.107,12.107,0,0,0-1.193-5.681l3.068-.2.1-4.018a2.888,2.888,0,0,1,2.743-3.013l9.979-.06c.5-.689.3-1.4.339-2.1a14.391,14.391,0,0,0-1.509-7.779A11.735,11.735,0,0,1,74.066,35.667Z" transform="translate(-0.521 -0.265)" fill="#fc3581"/>
    <path id="Trazado_1391047" data-name="Trazado 1391047" d="M74.241,40.476c.481,0,1.516.083,1.658.876a17.147,17.147,0,0,1,0,5.706c-.093.542-.85.884-1.4.884l-13.669-.007.084-6.1q1.039.684.643,2.523l7.343.011q1.448-.712.921-3.491l.547-.378Z" transform="translate(-0.647 -0.431)" fill="#eeecee"/>
    <path id="Trazado_1391048" data-name="Trazado 1391048" d="M70.363,40.5l.013,2.783a1.574,1.574,0,0,1-1.642,1.642l-7.79-.012a10.356,10.356,0,0,0-.035-3.078A1.38,1.38,0,0,1,62.4,40.489Z" transform="translate(-0.648 -0.431)" fill="#fefefe"/>
    <path id="Trazado_1391049" data-name="Trazado 1391049" d="M48.733,42.2a2.871,2.871,0,0,1,1.48,2.657,2.886,2.886,0,0,1-.287,3.023c1.023,1.269-.128,3.87-.854,5.268-.8,1.543-1.987,3.448-3.767,3.793-.08.184-.17.18-.271,0q-6.933.144-13.994.281l-.28-.007C30.6,56.3,29.235,55.69,28,53.679l.721-.4a12.852,12.852,0,0,0,6.336-.445l1.487.155.539-.434a5.229,5.229,0,0,0,5.755-7.206l.294-.634a24.335,24.335,0,0,1-.871-5.2l-.346-1.17q-1.38-2.453.1-2.094A11.708,11.708,0,0,1,48.733,42.2" transform="translate(-0.298 -0.385)" fill="#685e68"/>
    <path id="Trazado_1391050" data-name="Trazado 1391050" d="M45.067,57.164l0,.28h-14a.278.278,0,0,1,.3-.273Z" transform="translate(-0.331 -0.608)" fill="#a0979d"/>
    <path id="Trazado_1391051" data-name="Trazado 1391051" d="M41.993,36.242c-.169.006-.346.206-.29.364,1.554,2.819,1.393,5.143,1.408,8.1L42.4,44.6c-5.966-7.2-14.455,3.647-6.112,7.735l.232.651c-2.963.832-5.214,1.521-8.543.69A11.762,11.762,0,0,1,26.2,47.851a11.849,11.849,0,0,1,15.8-11.609" transform="translate(-0.279 -0.379)" fill="#7a6d79"/>
    <path id="Trazado_1391052" data-name="Trazado 1391052" d="M43.176,44.774a5.761,5.761,0,0,1-6.589,8.274,5.758,5.758,0,1,1,6.589-8.274" transform="translate(-0.344 -0.444)" fill="#908290"/>
    <path id="Trazado_1391053" data-name="Trazado 1391053" d="M37.819,45.918A1.626,1.626,0,0,1,39.7,47.063a1.585,1.585,0,0,1-1.089,2,1.626,1.626,0,1,1-.8-3.149" transform="translate(-0.388 -0.488)" fill="#fcfcfc"/>
    <path id="Trazado_1391054" data-name="Trazado 1391054" d="M63.153,24.733a1.785,1.785,0,0,1,.96.716c1.176,1.666,1.658,7.673.511,9.554q-5.543.188-11.082.385L52.75,36a10.27,10.27,0,0,0-.689,5.338c-.107,1.238-3.037,1.433-3.626.568l-.77-.287a11.182,11.182,0,0,0-5.578-4.941l-.373-.722-.758.339a11.392,11.392,0,0,0-13.019,5.245l-.778.291-.517.549H.336L0,41.828V22.614l.255-.549,17.275-.01a4.413,4.413,0,0,0,.162-2.446l.524-.576-.549-.245a46.8,46.8,0,0,0-.138-5.654l-17.2-.125L0,12.458,0,8.341l34.171.145a15.639,15.639,0,0,1,11.082,4.835L56.575,24.565Z" transform="translate(0 -0.089)" fill="#fd5693"/>
    <path id="Trazado_1391055" data-name="Trazado 1391055" d="M22.718,13.16l.55.242.032,5.1,11.162-.009q3.111-1.41-1.856-5.165l-8.88-.029-.4-.55c.158-.256.562-.267,1.05-.261l10.412.122a10.7,10.7,0,0,1,7.387,3.244l5.5,5.49c.188.187.107.695.034.861a.828.828,0,0,1-.832.466l-23.542-.013a.91.91,0,0,1-.822-.85l-.054-7.948a1.166,1.166,0,0,1,.254-.7" transform="translate(-0.239 -0.133)" fill="#05e29b"/>
    <path id="Trazado_1391056" data-name="Trazado 1391056" d="M23.331,12.746l9.525.031,2.783,2.757a2.062,2.062,0,0,1,.541,2.216A1.97,1.97,0,0,1,34.5,19.037l-11.746.041-.037-5.916c0-.335.3-.417.611-.416" transform="translate(-0.242 -0.136)" fill="#00f1a5"/>
  </g>
</svg>
