<svg xmlns="http://www.w3.org/2000/svg" xmlns:xlink="http://www.w3.org/1999/xlink" width="84.705" height="67.174" viewBox="0 0 84.705 67.174">
  <defs>
    <clipPath id="clip-path">
      <rect id="Rectángulo_745105" data-name="Rectángulo 745105" width="66.537" height="56.212" fill="none"/>
    </clipPath>
    <clipPath id="clip-path-2">
      <rect id="Rectángulo_745106" data-name="Rectángulo 745106" width="51.437" height="33.3" fill="none"/>
    </clipPath>
  </defs>
  <g id="Grupo_1224257" data-name="Grupo 1224257" transform="translate(-180.295 -2171)">
    <g id="Grupo_1224254" data-name="Grupo 1224254" transform="translate(180.295 2171)">
      <rect id="Rectángulo_745099" data-name="Rectángulo 745099" width="59.651" height="36.466" transform="translate(3.443 15.156)" fill="#d9ccbc"/>
      <rect id="Rectángulo_745100" data-name="Rectángulo 745100" width="29.826" height="27.535" transform="translate(27.532 24.089)" fill="#9bfbff"/>
      <rect id="Rectángulo_745101" data-name="Rectángulo 745101" width="66.537" height="4.588" transform="translate(0 51.623)" fill="#806749"/>
      <g id="Grupo_1224253" data-name="Grupo 1224253" transform="translate(0 0)">
        <g id="Grupo_1224252" data-name="Grupo 1224252" clip-path="url(#clip-path)">
          <path id="Trazado_1391326" data-name="Trazado 1391326" d="M66.751,4.581l-.1.287-5.512.009-.17-.287c-.013.113-.052.283-.132.287-1.877.087-4.16.089-6.035,0q-.6.126-.716-.287c-.013.113-.052.283-.132.287-1.877.087-4.16.089-6.035,0q-.6.126-.716-.287c-.013.113-.052.283-.132.287-1.877.087-4.16.089-6.035,0q-.595.126-.716-.287c-.012.113-.052.283-.132.287-1.877.087-4.16.089-6.035,0Q33.561,5,33.44,4.59c-.012.113-.052.283-.132.287-1.877.087-4.16.089-6.035,0q-.595.126-.716-.287c-.012.113-.052.283-.132.287-1.877.087-4.16.089-6.035,0Q19.8,5,19.674,4.59c-.013.113-.053.283-.133.287-1.877.087-4.16.089-6.035,0q-.595.126-.716-.287l-.1.287L7.181,4.868l-.169-.287L7.068,0H66.694Z" transform="translate(-3.613 -0.001)" fill="#787680"/>
          <path id="Trazado_1391327" data-name="Trazado 1391327" d="M11.883,9.457l.287.133v7.437l-.287.173c0,.111-.028.283-.1.287-1.805.087-4.028.087-5.831,0q-.589.124-.706-.287L6.1,9.448Z" transform="translate(-2.704 -4.868)" fill="#fe9711"/>
          <path id="Trazado_1391328" data-name="Trazado 1391328" d="M123.794,9.449l.855,7.751-.1.287h-6.368l-.169-.287-.287-.133V9.631l.287-.173Z" transform="translate(-60.656 -4.868)" fill="#fe9711"/>
          <path id="Trazado_1391329" data-name="Trazado 1391329" d="M124.622,25.438c.215,1.946.73,3.882-.905,5.175a3.511,3.511,0,0,1-3.407.659,3.572,3.572,0,0,1-2.178-2.374c-.211-.024-.229-.3-.122-.447-.111-.029-.277-.073-.288-.159-.033-.258-.072-2.528-.018-2.649a.469.469,0,0,1,.285-.2Z" transform="translate(-60.63 -13.106)" fill="#fe5023"/>
          <path id="Trazado_1391330" data-name="Trazado 1391330" d="M11.619,25.439l.285.164q-.017,1.321-.032,2.643l-.289.2c.131.149.1.456-.113.454A3.342,3.342,0,0,1,9.3,31.272a3.51,3.51,0,0,1-3.408-.659c-1.634-1.293-1.119-3.229-.906-5.175Z" transform="translate(-2.44 -13.106)" fill="#fe5023"/>
          <path id="Trazado_1391331" data-name="Trazado 1391331" d="M96.463,25.13l.286.162q-.006,1.321-.011,2.644l-.288.2c.078.137.062.41-.124.451a3.4,3.4,0,0,1-3.236,2.564,3.44,3.44,0,0,1-3.372-2.562c-.21-.023-.222-.3-.116-.449-.111-.029-.279-.074-.288-.159a18.919,18.919,0,0,1-.018-2.652l.286-.2.132-.287,6.577,0Z" transform="translate(-45.988 -12.798)" fill="#fe5023"/>
          <path id="Trazado_1391332" data-name="Trazado 1391332" d="M68.066,25.13c.111.031.277.079.285.164a14.156,14.156,0,0,1-.127,2.748.405.405,0,0,1-.192.091c.13.152.108.46-.107.458A3.383,3.383,0,0,1,64.7,31.154a3.439,3.439,0,0,1-3.372-2.563c-.211-.023-.222-.3-.116-.449-.112-.029-.279-.074-.288-.159a18.937,18.937,0,0,1-.018-2.648l.286-.2.132-.287,6.575,0Z" transform="translate(-31.358 -12.8)" fill="#fe5023"/>
          <path id="Trazado_1391333" data-name="Trazado 1391333" d="M39.712,25.042,40,25.2q-.006,1.321-.011,2.644l-.288.2c.078.137.062.41-.124.451a3.4,3.4,0,0,1-3.236,2.564A3.439,3.439,0,0,1,32.968,28.5c-.21-.023-.222-.3-.116-.449l-.288-.159q-.009-1.323-.018-2.648l.286-.2c.013-.113.052-.283.132-.287a51.451,51.451,0,0,1,5.953,0q.658-.134.8.287" transform="translate(-16.768 -12.709)" fill="#fe5023"/>
          <path id="Trazado_1391334" data-name="Trazado 1391334" d="M110.983,25.042,111,28.054a.576.576,0,0,1-.159.443,3.409,3.409,0,0,1-6.607,0q-.19-.028-.153-.45l.013-3.007c.012-.113.052-.283.132-.287a51.385,51.385,0,0,1,5.955,0q.658-.134.8.287" transform="translate(-53.625 -12.709)" fill="#fe9711"/>
          <path id="Trazado_1391335" data-name="Trazado 1391335" d="M82.569,25.126l.021,3.015a.605.605,0,0,1-.159.445,3.41,3.41,0,0,1-6.607,0,.644.644,0,0,1-.176-.457l.034-3,.132-.287H82.4Z" transform="translate(-38.976 -12.798)" fill="#fe9711"/>
          <path id="Trazado_1391336" data-name="Trazado 1391336" d="M54.193,25.135l.02,3.011a.6.6,0,0,1-.159.444,3.409,3.409,0,0,1-6.607,0q-.189-.028-.153-.45l.013-3.007.132-.287h6.581Z" transform="translate(-24.364 -12.802)" fill="#fe9711"/>
          <path id="Trazado_1391337" data-name="Trazado 1391337" d="M25.779,25.135l.02,3.011a.6.6,0,0,1-.159.444,3.409,3.409,0,0,1-6.607,0,.591.591,0,0,1-.175-.453l.037-3,.132-.287h6.58Z" transform="translate(-9.716 -12.802)" fill="#fe9711"/>
          <path id="Trazado_1391338" data-name="Trazado 1391338" d="M75.712,32.085h-.283a2.841,2.841,0,0,0,.107-.458c.262.07.145.321.176.457" transform="translate(-38.863 -16.295)" fill="#f1a94d"/>
          <path id="Trazado_1391339" data-name="Trazado 1391339" d="M104.114,32.092h-.277c.033-.141-.026-.334.124-.451.239.063.122.314.153.45" transform="translate(-53.499 -16.303)" fill="#f1a94d"/>
          <path id="Trazado_1391340" data-name="Trazado 1391340" d="M18.914,32.09h-.288a3.879,3.879,0,0,0,.112-.454c.261.065.144.316.175.452" transform="translate(-9.597 -16.301)" fill="#f1a94d"/>
          <path id="Trazado_1391341" data-name="Trazado 1391341" d="M47.322,32.092h-.276c.033-.141-.026-.334.124-.451.239.063.122.314.153.45" transform="translate(-24.239 -16.303)" fill="#f1a94d"/>
          <path id="Trazado_1391342" data-name="Trazado 1391342" d="M61.517,32.1l-.275,0c.031-.127-.088-.384.159-.444Z" transform="translate(-31.552 -16.307)" fill="#f0aa4f"/>
          <path id="Trazado_1391343" data-name="Trazado 1391343" d="M89.912,32.1l-.275,0c.031-.127-.088-.384.159-.444Z" transform="translate(-46.181 -16.307)" fill="#f0aa4f"/>
          <path id="Trazado_1391344" data-name="Trazado 1391344" d="M118.313,32.1l-.281,0c.031-.127-.088-.384.159-.443Z" transform="translate(-60.812 -16.308)" fill="#f0aa4f"/>
          <path id="Trazado_1391345" data-name="Trazado 1391345" d="M33.121,32.1l-.275,0c.03-.127-.089-.384.159-.444Z" transform="translate(-16.921 -16.307)" fill="#f0aa4f"/>
          <path id="Trazado_1391346" data-name="Trazado 1391346" d="M53.906,9.467l.287.13v7.444l-.287.169H47.023l-.287-.133q0-3.717,0-7.437l.287-.173Z" transform="translate(-24.079 -4.878)" fill="#fe5023"/>
          <path id="Trazado_1391347" data-name="Trazado 1391347" d="M25.816,9.467l.287.13v7.444l-.287.169H18.933V9.467Z" transform="translate(-9.755 -4.878)" fill="#fe5023"/>
          <rect id="Rectángulo_745102" data-name="Rectángulo 745102" width="6.882" height="7.743" transform="translate(16.062 4.59)" fill="#fe9711"/>
          <path id="Trazado_1391348" data-name="Trazado 1391348" d="M68.41,9.467,68.7,9.6q0,3.716,0,7.435l-.287.173-6.879,0,0-7.743Z" transform="translate(-31.7 -4.878)" fill="#fe9711"/>
          <path id="Trazado_1391349" data-name="Trazado 1391349" d="M82.605,9.467l.287.133q0,3.714,0,7.433l-.287.173-6.886,0,0-7.74Z" transform="translate(-39.013 -4.878)" fill="#fe5023"/>
          <path id="Trazado_1391350" data-name="Trazado 1391350" d="M96.806,9.467l.287.133q0,3.717,0,7.437l-.286.173-6.881,0V9.467Z" transform="translate(-46.33 -4.878)" fill="#fe9711"/>
          <rect id="Rectángulo_745103" data-name="Rectángulo 745103" width="6.883" height="7.743" transform="translate(50.475 4.59)" fill="#fe5023"/>
          <rect id="Rectángulo_745104" data-name="Rectángulo 745104" width="12.948" height="21.323" transform="translate(8.407 30.112)" fill="#a78966"/>
        </g>
      </g>
    </g>
    <g id="Grupo_1224256" data-name="Grupo 1224256" transform="translate(213.563 2204.874)">
      <g id="Grupo_1224255" data-name="Grupo 1224255" transform="translate(0 0)" clip-path="url(#clip-path-2)">
        <path id="Trazado_1391351" data-name="Trazado 1391351" d="M72.551,15.631l-12.645-.007,0-12.674,5.712-.013a5.117,5.117,0,0,1,5.2,3.989Z" transform="translate(-27.819 -1.364)" fill="#00d6de"/>
        <path id="Trazado_1391352" data-name="Trazado 1391352" d="M8.858,47.925a5.2,5.2,0,0,0-.538,3.768l-5.2.028,0-3.8Z" transform="translate(-1.447 -22.254)" fill="#88878f"/>
        <path id="Trazado_1391353" data-name="Trazado 1391353" d="M89.184,47.919v3.8l-3.971.076a5.176,5.176,0,0,0-.469-3.8Z" transform="translate(-39.355 -22.254)" fill="#88878f"/>
        <path id="Trazado_1391354" data-name="Trazado 1391354" d="M72.552,26.327c.014-.123.052-.309.139-.317a7.544,7.544,0,0,1,2.924.21,13,13,0,0,1,1.9,2.474.331.331,0,0,1-.062.189c.541.042,1.541,1.163,1.732,1.63a26.8,26.8,0,0,1,.042,3.181l-.316.229,0,3.79-1.269.011c-.012.124-.05.31-.138.319a23.758,23.758,0,0,1-3.545.058.66.66,0,0,1-.757-.3l-.429-.1a4.763,4.763,0,0,0-7.958-.069l-.438.1-.34.316-3.882-.009-.232-.317-.022-11.4L60.054,26l12.307.007Z" transform="translate(-27.821 -12.06)" fill="#abaab0"/>
        <path id="Trazado_1391355" data-name="Trazado 1391355" d="M76.209,45.8c.672.116.816,1.1.9,1.726.089.648.208,1.791-.434,2.079a5.079,5.079,0,0,1-9.833-.1c-.634-.3-.489-1.44-.388-2.086s.253-1.579.927-1.689a5.073,5.073,0,0,1,8.826.067" transform="translate(-30.821 -20.059)" fill="#3e3d42"/>
        <path id="Trazado_1391356" data-name="Trazado 1391356" d="M21.786,45.8c.673.121.815,1.092.9,1.725s.208,1.791-.433,2.079a5.078,5.078,0,0,1-9.833-.1c-.631-.3-.487-1.44-.386-2.085s.251-1.575.924-1.683a5.072,5.072,0,0,1,8.827.066" transform="translate(-5.548 -20.058)" fill="#3e3d42"/>
        <path id="Trazado_1391357" data-name="Trazado 1391357" d="M46.189,47.91l4.454.01a5.192,5.192,0,0,0-.54,3.775l-19.316.1a5.178,5.178,0,0,0-.469-3.8Z" transform="translate(-14.08 -22.25)" fill="#88878f"/>
        <path id="Trazado_1391358" data-name="Trazado 1391358" d="M10.539.323h6.337l.11-.317L31.869,0a.934.934,0,0,1,.214,1.586l.317.148,0,12.335-.317.192c.125.013.314.059.317.147.108,3.581.116,7.476.022,11.06l-.317.193L32,25.978l-15.463.076-.3-.315L15.8,25.63a4.761,4.761,0,0,0-7.96-.052l-.433.095-.287.288q-2.63.047-5.27.021l-.186-.317L.4,25.654l0-3.79c-.124-.014-.309-.054-.317-.142a33.852,33.852,0,0,1,0-4.7l.317-.23-.317-.11L.081.511A.492.492,0,0,1,.546,0l9.8.006Z" transform="translate(0 0)" fill="#c5c4c9"/>
        <path id="Trazado_1391359" data-name="Trazado 1391359" d="M31.254,13.932,17.311,13.8l.005-3.746H31.249Z" transform="translate(-8.039 -4.671)" fill="#feea98"/>
        <path id="Trazado_1391360" data-name="Trazado 1391360" d="M31.253,16.907V26.978H17.31V16.78l.113-.315,13.639.124Z" transform="translate(-8.039 -7.647)" fill="#fed944"/>
        <path id="Trazado_1391361" data-name="Trazado 1391361" d="M25.852,29.153l-3.8.006V26.621l3.8,0Z" transform="translate(-10.24 -12.362)" fill="#fefefe"/>
      </g>
    </g>
  </g>
</svg>
