<svg id="Grupo_1224273" data-name="Grupo 1224273" xmlns="http://www.w3.org/2000/svg" xmlns:xlink="http://www.w3.org/1999/xlink" width="77.773" height="82.439" viewBox="0 0 77.773 82.439">
  <defs>
    <clipPath id="clip-path">
      <rect id="Rectángulo_745115" data-name="Rectángulo 745115" width="77.773" height="82.439" fill="none"/>
    </clipPath>
  </defs>
  <g id="Grupo_1224272" data-name="Grupo 1224272" transform="translate(0 0)" clip-path="url(#clip-path)">
    <path id="Trazado_1391396" data-name="Trazado 1391396" d="M89.043,19.287l.3.459A10.3,10.3,0,0,0,95.6,29.62l.294.461c.141.045.141.1,0,.167l.321.191-.023,6.9-.323.189-.15.321-9.444-.031a.884.884,0,0,0,.094,1.738l.25.346.357.11,1.4,6.031a37.6,37.6,0,0,0,5.208.018l1.321-6.058.355-.118c.008-.463.394-.446.519-.008l.323.11q.048,7.431.094,14.867l-.321.2a1.015,1.015,0,0,1-.857.082l-8.31.016-.443.2a1.978,1.978,0,0,1-.588.753c-.165.266-.263.192-.147-.111a31.865,31.865,0,0,0-3.632-.077c-.109.2-.184.163-.231-.081l0-35.55a.959.959,0,0,1,.971-.993Z" transform="translate(-23.72 -5.601)" fill="#fee077"/>
    <path id="Trazado_1391397" data-name="Trazado 1391397" d="M100.213,35.332q.085,14.757.165,29.62c-.031.174-.344.443-.509.568q-3.244.067-6.414-.081-5.564.173-11.261.1c-.053-.175-.323-.332-.417-.44l.007-4.717a30.825,30.825,0,0,1,3.783.065l.146.111.219.034a1.2,1.2,0,0,0,.846.76l8.457.007a.887.887,0,0,0,.575-1.516l.1-.336-.1-15.175a2.78,2.78,0,0,0,.647-1.181,3.844,3.844,0,0,0-.561-1.169l.025-7.283a3.593,3.593,0,0,1,2.018.144,4.9,4.9,0,0,1,2.266.49" transform="translate(-23.751 -10.053)" fill="#fed05b"/>
    <path id="Trazado_1391398" data-name="Trazado 1391398" d="M102.556,19.344l-.132.326-3.194.14-.011,10.077-.323.193a10.6,10.6,0,0,1-6.852-10.793Z" transform="translate(-26.722 -5.601)" fill="#fd76a7"/>
    <path id="Trazado_1391399" data-name="Trazado 1391399" d="M106.169,30.9c-.048.14-.1.138-.165,0a13.882,13.882,0,0,1-4.284-.634l0-.167.011-10.627,3.647-.109a1.3,1.3,0,0,1,.789.487Z" transform="translate(-29.541 -5.625)" fill="#fd5693"/>
    <path id="Trazado_1391400" data-name="Trazado 1391400" d="M107.923,65.246c-.059.008-.161-.04-.161-.191l0-29.429h.165Z" transform="translate(-31.296 -10.347)" fill="#fed463"/>
    <path id="Trazado_1391401" data-name="Trazado 1391401" d="M93.626,78.055c.142.045.141.1,0,.171-.055.138-.111.132-.165-.01.071.476-2.158.381-2.289.32a.539.539,0,0,1-.223-.322l-2.157,0-6.431-.063Z" transform="translate(-23.921 -22.669)" fill="#fed463"/>
    <path id="Trazado_1391402" data-name="Trazado 1391402" d="M85.539,70.949l-3.706,0L81.749,75.6l-.072-4.809,3.549-.01a.388.388,0,0,1,.313.168" transform="translate(-23.721 -20.557)" fill="#fed462"/>
    <path id="Trazado_1391403" data-name="Trazado 1391403" d="M104.649,78.135l-6.41.09,0-.171Z" transform="translate(-28.53 -22.669)" fill="#fed463"/>
    <path id="Trazado_1391404" data-name="Trazado 1391404" d="M97.295,48.187,95.869,54.72l-5.232.05c-.154,0-.472-.127-.51-.3L88.65,48.2l.148-.323,8.3-.016Z" transform="translate(-25.746 -13.902)" fill="#0b96fb"/>
    <path id="Trazado_1391405" data-name="Trazado 1391405" d="M97.347,44.975c.6,0,.927.834.878,1.261-.059.514-.383,1.08-.964,1.088l-.519.008-8.645.016a1.261,1.261,0,0,1-1.348-1.22,1.217,1.217,0,0,1,1.226-1.208Z" transform="translate(-25.195 -13.046)" fill="#fefefe"/>
    <path id="Trazado_1391406" data-name="Trazado 1391406" d="M97.524,69.6a1.2,1.2,0,0,1,.38,1.428,1.183,1.183,0,0,1-1.1.745l-8.3,0a1.159,1.159,0,0,1-1.176-1.121,1.143,1.143,0,0,1,1.14-1.279l8.213-.011a1.408,1.408,0,0,1,.846.239" transform="translate(-25.361 -20.143)" fill="#fefefe"/>
    <path id="Trazado_1391407" data-name="Trazado 1391407" d="M93.386,92.76c0,.312-.118.3-.182-.014-.017.124-.049.3-.143.321a8.119,8.119,0,0,1-1.462,0q-.683.136-.847-.325c.071.461-1.629.409-1.9.331-.18-.052-.282-.109-.322-.321l-6.191-.009c-.328,0-.665-.494-.664-.762l.006-2.451.113-.321,13.435.014.224-.149a21.614,21.614,0,0,0,.261-2.9l.357-.167L99.556,86a.875.875,0,0,1,.79.791l0,5a.964.964,0,0,1-.967.966Z" transform="translate(-23.72 -24.977)" fill="#fd5693"/>
    <path id="Trazado_1391408" data-name="Trazado 1391408" d="M88.652,85.9c-.021-.518,1.853-.351,2-.2a.465.465,0,0,1,.1.216c.073-.466,1.7-.431,2.1-.349.242-.047.37.067.448.316.023-.282.081-.293.182-.024l2.581.006c-.389,1.934.4,3.577-1.2,3.578l-13.19-.058,0-2.563a.964.964,0,0,1,.968-.965Z" transform="translate(-23.721 -24.838)" fill="#fd76a7"/>
    <path id="Trazado_1391409" data-name="Trazado 1391409" d="M88.182,112.615c-.021-.518,1.864-.365,2.015-.211a.469.469,0,0,1,.1.215q.3-.522,1.382-.324.889-.173,1.151.321c.014-.279.107-.292.189-.012l7.279.065c.573.006.719.785.72,1.151s-.146,1.183-.73,1.183l-19.369.011c-.636,0-.89-.8-.873-1.186s.151-1.154.728-1.158Z" transform="translate(-23.248 -32.598)" fill="#c8bec7"/>
    <path id="Trazado_1391410" data-name="Trazado 1391410" d="M93.558,95.5l.322.111q.01,5.975.019,11.954l-.321.2-2.118,0-.126-12.246Z" transform="translate(-26.526 -27.734)" fill="#e4e0e4"/>
    <path id="Trazado_1391411" data-name="Trazado 1391411" d="M93.585,78.246c.125,0,.315.029.322.109a35.171,35.171,0,0,1,0,5.239l-.322.189-2.1-.018-.057-5.516a7.189,7.189,0,0,1,2.158,0" transform="translate(-26.553 -22.702)" fill="#e4e0e4"/>
    <path id="Trazado_1391412" data-name="Trazado 1391412" d="M98.082,107.744l-.189.012-.324-.148q-.049-5.95-.1-11.9l.32-.2.183.013Z" transform="translate(-28.308 -27.738)" fill="#ded9de"/>
    <path id="Trazado_1391413" data-name="Trazado 1391413" d="M98.074,83.759l-.182.024c-.126-.033-.316-.089-.324-.187a47.38,47.38,0,0,1-.038-5.076.521.521,0,0,1,.321-.239l.165.01Z" transform="translate(-28.308 -22.735)" fill="#ded9de"/>
    <path id="Trazado_1391414" data-name="Trazado 1391414" d="M96.919,95.5l.1,12.25-2.534,0-.019-12.261Z" transform="translate(-27.436 -27.734)" fill="#d6cfd5"/>
    <path id="Trazado_1391415" data-name="Trazado 1391415" d="M96.98,78.281l.041,5.5-2.552.033V78.279Z" transform="translate(-27.436 -22.735)" fill="#d6cfd5"/>
    <path id="Trazado_1391416" data-name="Trazado 1391416" d="M29.5,108.955a18.473,18.473,0,0,0,1.092,5.122L.539,114.062C.194,113.982,0,113.229,0,112.94l.034-3.981Z" transform="translate(0 -31.644)" fill="#fd5693"/>
    <path id="Trazado_1391417" data-name="Trazado 1391417" d="M74.432,79.837l-.16,0v-.148l-.28-.2q-.075-6.968-.04-13.959l.322-.2.16,0Z" transform="translate(-21.474 -18.977)" fill="#fe92b9"/>
    <path id="Trazado_1391418" data-name="Trazado 1391418" d="M70.144,65.171a.388.388,0,0,1,.139-.321c.084-.085,2.256-.114,2.238.335l0,14.35A18.03,18.03,0,0,0,68.007,78.4c-.065.01-.162-.016-.051,0l-.044-13.219c.016-.123.043-.3.137-.323.369-.1,1.992-.137,2.095.307" transform="translate(-19.722 -18.819)" fill="#fd5693"/>
    <path id="Trazado_1391419" data-name="Trazado 1391419" d="M16.748,65.181l.194-.322,14.589-.006.194.322.112-.322,16.171,0,.2.322c.126,0,.321.032.322.111.116,3.825.2,8.157.04,11.975q.162.888-.317,1.134l-.581.264a16.485,16.485,0,0,0-17.853,16.9l-.3.563-.113.322-29.157,0-.2-.321.123-.861L.162,65.17c.016-.124.045-.3.14-.322.409-.094,1.983-.128,2.112.321q.2-.518,1.286-.319.834-.162,1.134.326l.009-.215q2.736-.228,5.6-.187l.193.319q.18-.416.8-.224l5.073-.01Z" transform="translate(-0.014 -18.81)" fill="#fd76a7"/>
    <path id="Trazado_1391420" data-name="Trazado 1391420" d="M29.5,80.194c-.485.139-.374-2.08-.322-2.193a.539.539,0,0,1,.322-.223l10.671-.006a1.217,1.217,0,1,1-.006,2.427Z" transform="translate(-8.459 -22.587)" fill="#ba5d4c"/>
    <path id="Trazado_1391421" data-name="Trazado 1391421" d="M29.48,74.12q-.518-.191-.329-1.272-.176-.874.315-1.126l10.843-.007a1.2,1.2,0,0,1,0,2.395Z" transform="translate(-8.451 -20.828)" fill="#ba5d4c"/>
    <path id="Trazado_1391422" data-name="Trazado 1391422" d="M16.132,71.255c.124.015.308.047.324.136a14.239,14.239,0,0,1,.018,2.056.535.535,0,0,1-.32.226c.512.123.491,1.743,0,1.911.124.016.3.048.322.14a7.944,7.944,0,0,1,0,1.441q.137.677-.322.836l.322.18q0,1.422,0,2.845l-.322.226-2.415,0-.006-3.261a.385.385,0,0,1-.321-.139c-.087-.087-.127-2.284.322-2.276l.009-1.9c-.486.14-.36-2.071-.309-2.178a.539.539,0,0,1,.324-.219,1.2,1.2,0,0,1,1.159-1.1,1.153,1.153,0,0,1,1.215,1.079" transform="translate(-3.879 -20.381)" fill="#fed05b"/>
    <path id="Trazado_1391423" data-name="Trazado 1391423" d="M28.48,71.275l.014,2.4.01,1.9v2.415L28.5,81.25l-2.415,0-.322-.18V78.224L26.083,78a.384.384,0,0,1-.322-.139c-.087-.087-.127-2.284.322-2.276-.512-.124-.489-1.743,0-1.911q-.516-.2-.311-1.288-.163-.881.332-1.131a1.152,1.152,0,0,1,1.215-1.078,1.2,1.2,0,0,1,1.159,1.1" transform="translate(-7.466 -20.381)" fill="#fed05b"/>
    <path id="Trazado_1391424" data-name="Trazado 1391424" d="M22.295,71.25c.124.016.3.045.323.137a8.033,8.033,0,0,1,.011,1.446q.144.677-.315.842c.514.116.514,1.736.026,1.91.124.016.307.05.321.14a14.215,14.215,0,0,1,0,2.054.534.534,0,0,1-.322.223c.124.035.309.087.321.183a26.371,26.371,0,0,1-.027,2.845.528.528,0,0,1-.324.222H19.924l-.324-.177-.026-2.845.32-.228a.385.385,0,0,1-.322-.139c-.073-.1-.138-2.3.32-2.278-.51-.131-.465-1.748.027-1.909q-.517-.205-.312-1.291-.165-.883.331-1.135a1.183,1.183,0,0,1,2.356,0" transform="translate(-5.669 -20.381)" fill="#fed05b"/>
    <path id="Trazado_1391425" data-name="Trazado 1391425" d="M19.284,71.687l-.018,2.427c-.145.513-1.787.489-1.976,0l-.021-2.418Z" transform="translate(-5.015 -20.82)" fill="#bc5f4c"/>
    <path id="Trazado_1391426" data-name="Trazado 1391426" d="M25.444,71.694l-.021,2.419c-.143.513-1.785.491-1.974,0l-.018-2.425Z" transform="translate(-6.805 -20.82)" fill="#bc5f4c"/>
    <path id="Trazado_1391427" data-name="Trazado 1391427" d="M13.3,71.717l-.015,2.4a1.35,1.35,0,0,1-1.336-.578,1.21,1.21,0,0,1,.067-1.358,1.321,1.321,0,0,1,1.284-.461" transform="translate(-3.418 -20.823)" fill="#bb5d4c"/>
    <path id="Trazado_1391428" data-name="Trazado 1391428" d="M25.439,77.644v2.415H23.49l0-2.417c.135-.513,1.768-.49,1.947,0" transform="translate(-6.822 -22.441)" fill="#bc5f4c"/>
    <path id="Trazado_1391429" data-name="Trazado 1391429" d="M26.133,95.607l-1.572,6.911a1.042,1.042,0,0,1-1.007.754H15.312c-.695,0-.991-.552-1.116-1.135l-.465-2.172q-.066-.575.348-.549l6.349-.049.316-.341.746-3.259.365-.15.183-.322,3.865-.008Z" transform="translate(-3.985 -27.674)" fill="#fed05b"/>
    <path id="Trazado_1391430" data-name="Trazado 1391430" d="M21.981,89.063c.12.041.293.117.285.209a29.567,29.567,0,0,1-.913,4.282l-.364.162-.147.322H12.087l-.19-.322-.925-4.242q-.549-.688.2-.734H21.789Z" transform="translate(-3.119 -25.773)" fill="#fefefe"/>
    <path id="Trazado_1391431" data-name="Trazado 1391431" d="M12.277,85.628c-.138-.485,2.081-.371,2.193-.319a.538.538,0,0,1,.222.322c.145-.514,1.789-.491,1.98,0-.145-.485,2.055-.373,2.163-.322a.538.538,0,0,1,.22.322c.145-.514,1.789-.491,1.979,0q.2-.518,1.283-.324.879-.171,1.132.321h2.628a1.24,1.24,0,0,1,1.328,1.2,1.188,1.188,0,0,1-1.172,1.218h-.639l-.185.322-3.9,0-.233-.321H10.316a.594.594,0,0,0-.047.412c-.238-.676-1.948-.159-1.949-1.632a1.241,1.241,0,0,1,1.329-1.2Z" transform="translate(-2.416 -24.76)" fill="#e4e0e4"/>
    <path id="Trazado_1391432" data-name="Trazado 1391432" d="M21.462,95.753l-.778,3.412a.918.918,0,0,1-.87.707h-6.1a.444.444,0,0,0-.377.23l-.967-4.346Z" transform="translate(-3.593 -27.809)" fill="#fee077"/>
    <path id="Trazado_1391433" data-name="Trazado 1391433" d="M30.491,89.187l-1.029,4.649-4.279.009.993-4.653Z" transform="translate(-7.314 -25.903)" fill="#eeecee"/>
    <path id="Trazado_1391434" data-name="Trazado 1391434" d="M13.271,77.776v2.415a1.324,1.324,0,0,1-1.32-.558,1.217,1.217,0,0,1,.044-1.367,1.347,1.347,0,0,1,1.276-.49" transform="translate(-3.416 -22.585)" fill="#bb5d4d"/>
    <path id="Trazado_1391435" data-name="Trazado 1391435" d="M19.25,81.05l.029,3.251H17.3V81.051c.136-.513,1.77-.491,1.951,0" transform="translate(-5.024 -23.43)" fill="#fd77a6"/>
    <path id="Trazado_1391436" data-name="Trazado 1391436" d="M25.427,81.047V84.3h-1.98l.031-3.251c.136-.513,1.768-.492,1.949,0" transform="translate(-6.81 -23.429)" fill="#fd77a6"/>
    <path id="Trazado_1391437" data-name="Trazado 1391437" d="M19.248,77.643l0,2.417H17.3V77.644c.135-.513,1.768-.491,1.948,0" transform="translate(-5.024 -22.441)" fill="#bc5f4c"/>
    <path id="Trazado_1391438" data-name="Trazado 1391438" d="M19.274,75.107l-.027,1.908H17.3V75.1Z" transform="translate(-5.024 -21.813)" fill="#fd77a5"/>
    <path id="Trazado_1391439" data-name="Trazado 1391439" d="M25.431,75.1v1.911H23.483L23.458,75.1Z" transform="translate(-6.813 -21.813)" fill="#fd77a5"/>
    <path id="Trazado_1391440" data-name="Trazado 1391440" d="M64.773,85.009c.107.035.1.085,0,.148q.162,10.372.114,20.9c0,.306-.467.678-.766.678l-21.551-.006a1.792,1.792,0,0,1-.308-.228,10.019,10.019,0,0,1-.976-4.575,1.669,1.669,0,0,1,.193-.32l.109-.322q9.073.023,18.069-.205l.2-.495.087-16.512.323-.2a2.281,2.281,0,0,1,2.007.014l2.144.651Z" transform="translate(-11.976 -24.295)" fill="#fed05b"/>
    <path id="Trazado_1391441" data-name="Trazado 1391441" d="M74.522,106.63l-.114-20.9c.043-.141.1-.14.16,0Z" transform="translate(-21.61 -24.868)" fill="#fee194"/>
    <path id="Trazado_1391442" data-name="Trazado 1391442" d="M60.3,83.926l.05,0-.088,16.726a.835.835,0,0,1-.783.9l-17.911.109A16.777,16.777,0,0,1,60.3,83.926" transform="translate(-12.063 -24.339)" fill="#fee077"/>
    <path id="Trazado_1391443" data-name="Trazado 1391443" d="M57.335,0c.387.385,1.1.829,1.1,1.457q-.054,6.123-.136,12.228c-12.836.114-26.487.162-39.356-.051A2.511,2.511,0,0,1,19.7,12.1l1.04-2.1a1.91,1.91,0,0,1,.7-1.3l.11-.278q8.032-.1,16.1-.086l.576.32a1.008,1.008,0,0,1,.969.155q6.415.213,12.845.043A2.028,2.028,0,0,0,53.416,5.9l.165-.346-.311-.706q.038-2.33.077-4.663L53.671,0Z" transform="translate(-5.502 0)" fill="#fed05b"/>
    <path id="Trazado_1391444" data-name="Trazado 1391444" d="M53.995,0,53.9,5.554a1.857,1.857,0,0,1-1.377-.878c-.539-.1-1.5-.251-1.8.178l-10.968.06A1.989,1.989,0,0,0,38.117,7l-.3.216a1.555,1.555,0,0,1,.739,1.44L21.764,8.7l-.221-.534A10.878,10.878,0,0,0,20.058.573L20.07,0Z" transform="translate(-5.825 0)" fill="#fee077"/>
    <path id="Trazado_1391445" data-name="Trazado 1391445" d="M74.525,14.441h-.158c-.141-.045-.138-.1,0-.161V2.222c0-.125.1-.187.136-.17Z" transform="translate(-21.568 -0.595)" fill="#fee195"/>
    <path id="Trazado_1391446" data-name="Trazado 1391446" d="M58.263,19.265v.161l-.181.322c-.46.089-2.005.135-2.17-.322q-.222.506-1.2.322-.872.169-1.122-.322l-.112.322H19.009l-.2-.321a.422.422,0,0,0,.094-.211Z" transform="translate(-5.464 -5.581)" fill="#fed567"/>
    <path id="Trazado_1391447" data-name="Trazado 1391447" d="M59.794,6.55a1.926,1.926,0,0,1,1.377.878,2.366,2.366,0,0,1,.112,2.452A2.4,2.4,0,0,1,59.125,11.1l-11.581,0a2.542,2.542,0,0,1-1.723-.571,2.312,2.312,0,0,1-.74-1.44l.15-.323L56.88,8.7c.934-.3.962-1.279.9-2.1a4.087,4.087,0,0,1,2.017-.049" transform="translate(-13.093 -1.873)" fill="#fd5693"/>
    <path id="Trazado_1391448" data-name="Trazado 1391448" d="M59.786,6.516,58.053,6.51c.229,1.065-.166,2.492-1.375,2.5l-11.605.048A2.317,2.317,0,0,1,47.387,6.4l11.246-.031c.431,0,.869-.145,1.153.145" transform="translate(-13.084 -1.84)" fill="#fd76a7"/>
    <path id="Trazado_1391449" data-name="Trazado 1391449" d="M14.272,0a11.173,11.173,0,0,1,1.694,8.7l-.2.322L.288,9.005l-.2-.322L.218,1.15C.227.592.809.294,1.144,0Z" transform="translate(-0.027 0)" fill="#fd76a7"/>
    <path id="Trazado_1391450" data-name="Trazado 1391450" d="M15.965,12.254a10.744,10.744,0,0,1-2.5,4.934q.395.133-.094.211l-.147.322H5.036l-.19-.322c-.067.132-.121.121-.161-.026a2.164,2.164,0,0,1-2.278-.006c.1.47-1.944.4-2.065.341a.539.539,0,0,1-.222-.32L.091,12.237Z" transform="translate(-0.026 -3.554)" fill="#fd5693"/>
    <path id="Trazado_1391451" data-name="Trazado 1391451" d="M2.419,19.469l.322.112q.01,16.113.019,32.233l-.322.2H.185L.132,19.49Z" transform="translate(-0.038 -5.654)" fill="#e4e0e4"/>
    <path id="Trazado_1391452" data-name="Trazado 1391452" d="M5.633,19.453q.08,16.144.161,32.388V52l-2.42-.008L3.355,19.447a12.4,12.4,0,0,1,2.278.006" transform="translate(-0.974 -5.632)" fill="#d6cfd5"/>
    <path id="Trazado_1391453" data-name="Trazado 1391453" d="M6.727,51.865c-.058,0-.162-.043-.162-.2V19.477l.161.026Z" transform="translate(-1.907 -5.657)" fill="#d8d2d8"/>
    <path id="Trazado_1391454" data-name="Trazado 1391454" d="M22.171,56.912l-1.283,5.958-5.322.01c-.311,0-.589-.1-.788-.1L14.3,60.319,14.484,60a21.24,21.24,0,0,0,3.808-.154l.468-.309a7.485,7.485,0,0,0,.681-2.63,10.308,10.308,0,0,1,2.73.009" transform="translate(-4.153 -16.501)" fill="#0ed18f"/>
    <path id="Trazado_1391455" data-name="Trazado 1391455" d="M13.694,53.238l.108-.322,6.3-.011.189.322,1.295-.021a1.234,1.234,0,0,1,1.13,1.5,1.324,1.324,0,0,1-1.457,1.071,10.783,10.783,0,0,0-2.333-.067l-.233.276-5.875.068-.24-.319a1.417,1.417,0,0,1-1.373-.961,1.269,1.269,0,0,1,.95-1.51,4.737,4.737,0,0,1,1.541-.026" transform="translate(-3.238 -15.365)" fill="#00f1a5"/>
    <path id="Trazado_1391456" data-name="Trazado 1391456" d="M21.839,56.883l-2.415-.016-.366,2.068a1.745,1.745,0,0,1-1.874,1.343l-3.214.011-.81-3.449,5.784-.062,2.6-.064c.143,0,.314.03.3.169" transform="translate(-3.822 -16.471)" fill="#05e29b"/>
    <path id="Trazado_1391457" data-name="Trazado 1391457" d="M21.2,45.469l-.143.321-2.064-.02-.221-.324-.185.323c-.7.044-5.529.164-5.786.031a.52.52,0,0,1-.236-.321,1.409,1.409,0,0,1-1.4-1.225,1.377,1.377,0,0,1,1.452-1.339l8.722.026a1.281,1.281,0,0,1,1.4,1.474c-.078.686-.764,1.062-1.541,1.054" transform="translate(-3.242 -12.464)" fill="#b2d9fd"/>
    <path id="Trazado_1391458" data-name="Trazado 1391458" d="M22.078,46.505l-.563,3.08a5.679,5.679,0,0,0-.341,1.775l-6.594.011a16.352,16.352,0,0,1-.381-1.834l.178-.326,3.488-.092q1.436-.407,1.429-2.487l.357-.15Z" transform="translate(-4.124 -13.5)" fill="#0592fb"/>
    <path id="Trazado_1391459" data-name="Trazado 1391459" d="M19.341,46.482l-.329,1.707a1.6,1.6,0,0,1-1.52,1.255l-3.6.094-.755-3.023Z" transform="translate(-3.814 -13.5)" fill="#26a5fd"/>
    <path id="Trazado_1391460" data-name="Trazado 1391460" d="M74.438,51.993c-.049.139-.1.136-.16,0l-.322-.112q0-16.1,0-32.209l.321-.2c.045-.14.1-.138.158,0Z" transform="translate(-21.479 -5.624)" fill="#e4e1e4"/>
    <path id="Trazado_1391461" data-name="Trazado 1391461" d="M73.305,19.513V52.032l-2.376-.013-.322-.113s.009-10.732.026-32.2l.322-.2Z" transform="translate(-20.506 -5.667)" fill="#d6cfd5"/>
    <path id="Trazado_1391462" data-name="Trazado 1391462" d="M70.116,19.513l-.026,32.505-2.232.016-.01-7.56c-.156,0-.17-.057-.05-.166V19.513Z" transform="translate(-19.667 -5.667)" fill="#e4e0e4"/>
    <path id="Trazado_1391463" data-name="Trazado 1391463" d="M61.159,54.649l.322.148q.005,3.608.01,7.219l-.322.193-16.481,0V58.818l.147-.323q5.877.049,11.707-.119l1.1-1.12.007-2.674a25,25,0,0,1,3.513.067" transform="translate(-12.978 -15.843)" fill="#fed05b"/>
    <path id="Trazado_1391464" data-name="Trazado 1391464" d="M57.564,54.456c.369.05.446.158.081.226l-.009,2.546a1.571,1.571,0,0,1-1.543,1.527l-11.408.035,0-3.688a1.117,1.117,0,0,1,.983-.644Z" transform="translate(-12.976 -15.816)" fill="#fee077"/>
    <path id="Trazado_1391465" data-name="Trazado 1391465" d="M66.38,54.457a.606.606,0,0,0,.05.166L63,54.617l-.087,2.612-.072-2.772Z" transform="translate(-18.25 -15.816)" fill="#feda72"/>
  </g>
</svg>
