<svg id="Grupo_1224208" data-name="Grupo 1224208" xmlns="http://www.w3.org/2000/svg" xmlns:xlink="http://www.w3.org/1999/xlink" width="159.863" height="136.718" viewBox="0 0 159.863 136.718">
  <defs>
    <clipPath id="clip-path">
      <rect id="Rectángulo_744925" data-name="Rectángulo 744925" width="159.863" height="136.718" fill="none"/>
    </clipPath>
  </defs>
  <g id="Grupo_1224207" data-name="Grupo 1224207" clip-path="url(#clip-path)">
    <path id="Trazado_1391057" data-name="Trazado 1391057" d="M132.647,108.268l.024-.416q7.026-.37,14.3-.207l.366.624c.088-.272.191-.269.312,0q4.164.305,8.444.212a4.243,4.243,0,0,1,3.651,3.838l.088,9.689a1.221,1.221,0,0,1-1.342,1.246l-156.533,0A2.334,2.334,0,0,1,0,122.628l0-6.992.3-.624,141.575.038c1.638.357,1.243-5.736.935-5.85l-129.777.006c-.74.028-.978-.269-.6-.936l.3-.624,119.526,0Z" transform="translate(0 13.464)" fill="#d6cfd5"/>
    <path id="Trazado_1391058" data-name="Trazado 1391058" d="M12.178,108.3c.033-.278.119-.278.257-.02a.764.764,0,0,0,.213.312l130.9-.006.045,5.335a1.635,1.635,0,0,1-1.689,1.762L.005,115.65l0-3.933c.316-4.88,8.1-4.362,11.733-4.038Z" transform="translate(0 13.45)" fill="#e4e0e4"/>
    <path id="Trazado_1391059" data-name="Trazado 1391059" d="M132.919,99.49c-.089.272-.192.269-.312,0-.028.246-.115.617-.289.624-3.984.19-8.851.19-12.833,0q-1.3.273-1.561-.623c-.272-.09-.269-.2,0-.318l.289-.624q6.969.135,13.771-.169V85.81l.624-.367.317.007Z" transform="translate(14.731 10.692)" fill="#c5bcc4"/>
    <path id="Trazado_1391060" data-name="Trazado 1391060" d="M131.344,109.478h-.312a.985.985,0,0,1-.416-.024c-.462-.155-.28-8.611-.208-9.677q-.3-1.527.624-1.849h.313Z" transform="translate(16.306 12.254)" fill="#d3cbd2"/>
    <path id="Trazado_1391061" data-name="Trazado 1391061" d="M139.674,108.406l-8.137.108a.283.283,0,0,1-.307-.321Z" transform="translate(16.42 13.538)" fill="#ded8de"/>
    <path id="Trazado_1391062" data-name="Trazado 1391062" d="M131.3,98a.984.984,0,0,1,.416.025c.455.153.267,8.436.2,9.5q.309,1.652-.626,2.025l-120.214,0-.255.02,0-11.572c.117-.709.348-.856.492-.154Q71.389,97.71,131.3,98" transform="translate(1.354 12.186)" fill="#d6cfd5"/>
    <rect id="Rectángulo_744923" data-name="Rectángulo 744923" width="14.687" height="11.548" transform="translate(132.652 110.184)" fill="#c8bec7"/>
    <path id="Trazado_1391063" data-name="Trazado 1391063" d="M131.3,99.175v.318l-120.479,0V85.449l.313-.006.624.209.011,12.732q59.441.311,119.142.167Z" transform="translate(1.354 10.692)" fill="#d3cbd2"/>
    <path id="Trazado_1391064" data-name="Trazado 1391064" d="M131.258,85.444l.416.024q.373,6.547.215,13.341l-.623.368-120.155.006L11.1,85.444Z" transform="translate(1.389 10.692)" fill="#c8bec7"/>
    <rect id="Rectángulo_744924" data-name="Rectángulo 744924" width="14.687" height="13.733" transform="translate(132.651 96.135)" fill="#b9aeb8"/>
    <path id="Trazado_1391065" data-name="Trazado 1391065" d="M154.81,95.96l-149.825,0a.767.767,0,0,1-.908.439C2.033,96.2-.083,93.507,0,91.453L0,76.926a8.739,8.739,0,0,1,6.651.01l.626.356.03,8.211a3.236,3.236,0,0,0,3.038,3.249l138.781.011c2.044-.174,3.167-1.122,3.4-3.2l-.02-75.355a3.272,3.272,0,0,0-2.383-2.773L140.044,7.31l-.455-.627a6.94,6.94,0,0,1-.1-6.683l14.429.012a5.927,5.927,0,0,1,5.892,5.946l.053,83.253c0,3.417-1.712,6.211-5.053,6.749" transform="translate(0)" fill="#d6cfd5"/>
    <path id="Trazado_1391066" data-name="Trazado 1391066" d="M139.489,0a43.619,43.619,0,0,0,.1,6.683l-.3.624L10.758,7.314C8.685,7.487,7.545,8.4,7.3,10.513L7.279,76.552l-.624.385c-2.258.054-4.46.081-6.651-.01V4.675C.891,2.672,2.61.038,5.381.037Z" transform="translate(0)" fill="#e4e0e4"/>
    <path id="Trazado_1391067" data-name="Trazado 1391067" d="M154.256,85.288l-7.155.182c-.1.27-.2.264-.317-.007a.985.985,0,0,1-.024.416c-.21.627-11.725.277-13.139.208q-1.279.27-1.528-.624l-.3.624H12.323l-.388-.624c-.084.273-.19.271-.313,0l-7.191-.182Z" transform="translate(0.554 10.672)" fill="#dad3d9"/>
    <path id="Trazado_1391068" data-name="Trazado 1391068" d="M138.848,5.94l9.83.043a3.864,3.864,0,0,1,3.741,3.955l-.007,74.726a3.909,3.909,0,0,1-4.012,3.982l-138.455,0a3.9,3.9,0,0,1-4-3.875l-.033-8.58.02-66.257a3.924,3.924,0,0,1,4.073-3.99Z" transform="translate(0.74 0.743)" fill="#c8bec7"/>
    <path id="Trazado_1391069" data-name="Trazado 1391069" d="M135.529,10.276l-.273.626-8.146.034-.032,63.285c-.278,1.165-.864,2.733-2.027,1.556-.088.276-.2.275-.335.01l-.978-.414a9.777,9.777,0,0,0-7.785-4.331L105.75,71a2.144,2.144,0,0,1-1.862-1.223,38.689,38.689,0,0,1-.32-7.146l.619-.65.231-.883a12.887,12.887,0,0,0,4.793-6.05l.812-.422.334-.619c6.616,1.291,10.614-5.9,5.294-10.323l-.036-.774-.395-.982a18.665,18.665,0,0,0-9.441-20.624l-.468-.939a1.065,1.065,0,0,1,.446-1.334l-.372-.782a9.3,9.3,0,0,0-.762-7.138l.267-.827c-.279-.019-.285-.109-.036-.264l21.394.029,8.479-.071a1.131,1.131,0,0,1,.8.295" transform="translate(12.951 1.249)" fill="#bc7fe0"/>
    <path id="Trazado_1391070" data-name="Trazado 1391070" d="M133.166,10.243V83.416l-9.492.007a6.917,6.917,0,0,1-.592-3.652l-.7-3.05.3-.977a1.5,1.5,0,0,0,1.406-1.6l0-63.861Z" transform="translate(15.314 1.282)" fill="#ae66d9"/>
    <path id="Trazado_1391071" data-name="Trazado 1391071" d="M80.859,68.468l.275.861a15.092,15.092,0,0,0-1.076,6.16l-.622.657-69.169-.011.026-7.677Z" transform="translate(1.285 8.566)" fill="#ae66d9"/>
    <path id="Trazado_1391072" data-name="Trazado 1391072" d="M28.388,10.108,10.1,28.394l0-18.292Z" transform="translate(1.263 1.264)" fill="#fee077"/>
    <path id="Trazado_1391073" data-name="Trazado 1391073" d="M100.85,10.128l.21.909a9.633,9.633,0,0,0-.262,8.425l-.257.9-.461.93a18.471,18.471,0,0,0-9.436,20.58l-.387.97-.07.777C84.722,48,88.777,55.165,95.376,53.974l.406.63.834.461A12.672,12.672,0,0,0,99.7,59.641l.123.941q2.042.424,1.69,1.406l.624.651a44.276,44.276,0,0,1-.2,7.007,2.066,2.066,0,0,1-1.809,1.325l-10.207.044a9.413,9.413,0,0,0-7.851,4.5l-.728.254c-.071.6-.315.6-.451,0l-.6.624q-34.735-.128-69.348.142l-.021,6.452-.626.45a.966.966,0,0,1-.311-.714l.064-6.947.056-47.383.455-1.338,16.5-16.493,1.338-.455Z" transform="translate(1.25 1.265)" fill="#bc7fe0"/>
    <path id="Trazado_1391074" data-name="Trazado 1391074" d="M66.036,49.8a2.358,2.358,0,0,1,2.539,2.239,2.3,2.3,0,0,1-2.2,2.433h-24.4a2.331,2.331,0,0,1,.187-4.656Z" transform="translate(4.98 6.232)" fill="#fefefe"/>
    <path id="Trazado_1391075" data-name="Trazado 1391075" d="M65.3,61.894l-14.551.026a2.328,2.328,0,0,1-.235-4.648L65.1,57.236a2.389,2.389,0,0,1,2.388,2.023A2.267,2.267,0,0,1,65.3,61.894" transform="translate(6.053 7.162)" fill="#fefefe"/>
    <path id="Trazado_1391076" data-name="Trazado 1391076" d="M22.077,58.846q-.312-1.175,2.052-.646c4.2-.182,6.327-3.622,5.666-7.573q.177-.474.941-.177a6.354,6.354,0,0,1,3.594,7.013,6.479,6.479,0,0,1-5.424,5.228,6.364,6.364,0,0,1-6.828-3.846" transform="translate(2.758 6.299)" fill="#fed05b"/>
    <path id="Trazado_1391077" data-name="Trazado 1391077" d="M30.791,50.506a.524.524,0,0,0-.366.656,6.294,6.294,0,0,1-1.807,5.914,6.423,6.423,0,0,1-6.035,1.618.567.567,0,0,0-.451.208,6.438,6.438,0,0,1,8.659-8.4" transform="translate(2.703 6.243)" fill="#fee077"/>
    <path id="Trazado_1391078" data-name="Trazado 1391078" d="M21.605,36.382l.218-.624L60,35.819c1.781.458,1.22-5.835.946-6.036H22.926l-.38-.623a.434.434,0,0,1,.42-.313l47.343.007a1.611,1.611,0,0,1,1.516,1.6l.022,10.86a1.781,1.781,0,0,1-1.864,1.822l-46.672-.007c-2.366,0-1.719-3.193-1.706-6.751" transform="translate(2.692 3.61)" fill="#eeecee"/>
    <path id="Trazado_1391079" data-name="Trazado 1391079" d="M21.595,36.347l.021-5.981c0-.569.44-1.241.919-1.241H61.771l-.034,5.634a1.593,1.593,0,0,1-1.719,1.649Z" transform="translate(2.702 3.644)" fill="#fefefe"/>
    <path id="Trazado_1391080" data-name="Trazado 1391080" d="M128.691,68.54l.334-.01a15.138,15.138,0,0,1,.987,7.679l-58.268.008a15.67,15.67,0,0,1,1.423-7.678l.45,0,.6-.555q26.8-.125,53.626-.066Z" transform="translate(8.977 8.496)" fill="#eb7f6b"/>
    <path id="Trazado_1391081" data-name="Trazado 1391081" d="M106.619,10.018l.036.264c-.029.241-.1.6-.272.624a54.442,54.442,0,0,1-6.311.009l-.442-.623a2.02,2.02,0,0,0-.055,1.648c1.08.28,1,2.3.939,3.329a7.817,7.817,0,0,1-.651,3.04c-.485.014-.656.27-.537.754a24.843,24.843,0,0,0-7.661,1.521l-1.059-.213a10.282,10.282,0,0,1,.308-10.233Z" transform="translate(11.186 1.254)" fill="#908290"/>
    <path id="Trazado_1391082" data-name="Trazado 1391082" d="M107.748,10.253A9.918,9.918,0,0,1,108.615,19a3.088,3.088,0,0,0-.729,1.248l-.837.341-5.007-1.309a22.349,22.349,0,0,1,4.544,7.291c.659,1.841,1.655,4.936.467,6.5l-2.3-.276H95.393a9.351,9.351,0,0,0-9.145,9.29,2.743,2.743,0,0,1-2.635.716,2.482,2.482,0,0,1-2.2.023A19.067,19.067,0,0,1,91.7,20.343a19.65,19.65,0,0,1,8.443-1.795,9.9,9.9,0,0,0,.524-6.636q-.616-1.4.056-1.649Z" transform="translate(10.094 1.283)" fill="#7a6d79"/>
    <path id="Trazado_1391083" data-name="Trazado 1391083" d="M107.953,56.218l.05,6.634a1.656,1.656,0,0,0,1.543,1.763l9.885.032a10.371,10.371,0,0,1,9.051,5.374l-55.073,0a9.608,9.608,0,0,1,8.862-5.38l9.873-.035a1.582,1.582,0,0,0,1.436-1.676V56.238l1-.176a13.542,13.542,0,0,0,12.37,0Z" transform="translate(9.186 7.015)" fill="#f7947f"/>
    <path id="Trazado_1391084" data-name="Trazado 1391084" d="M112.4,39.536c.243.064.612.17.624.353.185,2.654.219,9.487-.494,11.645l-.8.516a13.45,13.45,0,0,1-5.836,7.355,14.173,14.173,0,0,1-14.374.02l-1.69-1.406a13.83,13.83,0,0,0,15.9-11.3q-.8-.569-.3-2.262a1.821,1.821,0,0,1,.185-1.742,1.312,1.312,0,0,0,.365-.947l-.046-10.889c.963-.927,2.807.522,3.7,1.289a9.768,9.768,0,0,1,2.419,3.165c.537,1.116,1.518,3.453.351,4.2" transform="translate(11.241 3.826)" fill="#feaf9d"/>
    <path id="Trazado_1391085" data-name="Trazado 1391085" d="M86.523,38.545l-.018,8.128a13.483,13.483,0,0,0,.709,4.372l-3.365-.051a6.2,6.2,0,0,1-5.3-5.162,6.344,6.344,0,0,1,3.139-6.549c1.431-.818,3.225-.714,4.835-.738" transform="translate(9.819 4.823)" fill="#feaf9d"/>
    <path id="Trazado_1391086" data-name="Trazado 1391086" d="M105.7,19.318c.2-.3.295-.272.282.087a19.262,19.262,0,0,1,10.3,22.545,2.381,2.381,0,0,1-2.151-.092l-2.322-.095-.448-.613a9.038,9.038,0,0,0-6.473-8.656l-.025-.353A18.725,18.725,0,0,0,98.132,17.7a17.334,17.334,0,0,1,7.569,1.62" transform="translate(12.279 2.212)" fill="#5b5555"/>
    <path id="Trazado_1391087" data-name="Trazado 1391087" d="M114.89,39.342a6.394,6.394,0,0,1,2.987,6.7c-.548,2.565-2.616,4.931-5.428,4.971l-3.151.043a16.1,16.1,0,0,0,.673-5l0-7.511c1.649-.047,3.474-.095,4.922.8" transform="translate(13.677 4.82)" fill="#f79480"/>
    <path id="Trazado_1391088" data-name="Trazado 1391088" d="M105.145,19.361c.008-.078-.186-.14-.282-.087a.969.969,0,0,1,.728-1.248,6.844,6.844,0,0,0-.446,1.334" transform="translate(13.118 2.256)" fill="#7a6d79"/>
    <path id="Trazado_1391089" data-name="Trazado 1391089" d="M98.6,10.262l-.055,1.648-.9-1.622Z" transform="translate(12.219 1.284)" fill="#7a6d79"/>
    <path id="Trazado_1391090" data-name="Trazado 1391090" d="M106.5,30.648c.6-.1.614.138.025.352l.627.555a103.515,103.515,0,0,1-.2,11.314l-.743-.033-.764.036c-4.1-2.153-3.744,6.347.217,3.755l.664.214.486.81a14.324,14.324,0,0,1-11.5,11.035c-1.771.322-3.308.483-4.879-.546a13.252,13.252,0,0,1-4.043-5.978q-1.473-.991-1.313-3.561l0-8.49.626-.449c-1.278-1,.081-3.878.844-5.133a10.041,10.041,0,0,1,4.6-4.02c2.509-1.059,10.1-.978,13.094-.761q1.833-.12,2.271.9" transform="translate(10.644 3.706)" fill="#fecdbe"/>
    <path id="Trazado_1391091" data-name="Trazado 1391091" d="M95.98,43.474c.046,1.757-.894,2.922-2.361,2.935a2.487,2.487,0,0,1-2.41-2.779,3.067,3.067,0,0,1,.962-2.708,2.384,2.384,0,0,1,2.659-.1c.806.471,1.116,1.364,1.15,2.651" transform="translate(11.413 5.064)" fill="#f79580"/>
    <path id="Trazado_1391092" data-name="Trazado 1391092" d="M104.334,41.479c.782,1.3.324,2.68.117,4a2.566,2.566,0,0,1-2.96.72c-1.171-.523-1.43-1.6-1.429-2.9a2.621,2.621,0,0,1,1.615-2.722,2.294,2.294,0,0,1,2.658.894" transform="translate(12.521 5.063)" fill="#f79580"/>
  </g>
</svg>
