<svg id="Grupo_1223995" data-name="Grupo 1223995" xmlns="http://www.w3.org/2000/svg" xmlns:xlink="http://www.w3.org/1999/xlink" width="81.836" height="81.818" viewBox="0 0 81.836 81.818">
  <defs>
    <clipPath id="clip-path">
      <rect id="Rectángulo_743334" data-name="Rectángulo 743334" width="81.836" height="81.818" fill="none"/>
    </clipPath>
  </defs>
  <g id="Grupo_1223978" data-name="Grupo 1223978" clip-path="url(#clip-path)">
    <path id="Trazado_1390562" data-name="Trazado 1390562" d="M111.858,0a1.281,1.281,0,0,1,1.119.657q.22,15.892.124,31.844l-.341.21-.157.341-7.822.006-.2-.341-.341-.157q0-3.909,0-7.821l.341-.2-.341-.157q0-3.909,0-7.821l.341-.2-.227-.013q-.2-3.571-.113-7.279l.341-.2L104.6.855a1.329,1.329,0,0,1,.844-.838Z" transform="translate(-51.387)" fill="#59e68a"/>
    <path id="Trazado_1390563" data-name="Trazado 1390563" d="M124.289,13.625c.133.015.334.058.341.152a31.9,31.9,0,0,1,0,4.3q.157.782-.341.983c.13.017.307.043.341.145a19.584,19.584,0,0,1,0,2.354l-.341.234.341.156q0,5.282,0,10.568l-.341.2c-.036.132-.086.314-.2.341a31.459,31.459,0,0,1-3.644-.006l-.248-.341-.006-31.5c0-.632-.526-.947-.9-1.213l4.123.023a1.334,1.334,0,0,1,.852.833Z" transform="translate(-58.825 0)" fill="#41e27a"/>
    <path id="Trazado_1390564" data-name="Trazado 1390564" d="M113.113,64.533l.341.158,0,7.834-.341.2c-.015.134-.063.336-.158.341-2.232.1-4.946.1-7.176-.006q-.708.149-.851-.342l0-8.182Z" transform="translate(-51.74 -31.821)" fill="#e6eaee"/>
    <path id="Trazado_1390565" data-name="Trazado 1390565" d="M125.166,64.539v8.182c-.016.132-.055.33-.149.341a20,20,0,0,1-2.912.005q-.818.166-1.032-.339v-8.2Z" transform="translate(-59.702 -31.821)" fill="#dae0e6"/>
    <path id="Trazado_1390566" data-name="Trazado 1390566" d="M117.2,80.687v5.459l-.9.009c-.015.134-.063.338-.157.341-3.177.1-7.016.177-10.167-.011q-.866.168-1.056-.342l.02-3.632q.38-.2.762.383l.339.159,5.952-.007q1.077-.481.777-2.127l.341-.225Z" transform="translate(-51.733 -39.787)" fill="#41e27a"/>
    <path id="Trazado_1390567" data-name="Trazado 1390567" d="M113.113,80.694v1.367a1.341,1.341,0,0,1-1.361,1.352l-5.622-.014c-.576,0-.927-.5-1.189-.888l-.013-1.824Z" transform="translate(-51.741 -39.787)" fill="#59e68a"/>
    <path id="Trazado_1390568" data-name="Trazado 1390568" d="M39.575,0c.625.129,1.1.261,1.211.974l.03,6.99-.341.2-8.18.009.006-7c0-.388.425-1.143.856-1.145Z" transform="translate(-15.925)" fill="#fb6067"/>
    <path id="Trazado_1390569" data-name="Trazado 1390569" d="M51.647,4.938V8.161c-.016.132-.055.33-.149.341a20.361,20.361,0,0,1-2.911,0q-.817.165-1.031-.34l-.011-6.977c0-.578-.5-.934-.89-1.188l4.131.026a1.241,1.241,0,0,1,.827.824Z" transform="translate(-23.006 0)" fill="#fa4f56"/>
    <path id="Trazado_1390570" data-name="Trazado 1390570" d="M40.142,32.261l.341.12V58.158c-.177,1.087-.419,1.384-1.491,1.7-.334.1-5.187.1-5.676.016-.885-.144-1.219-.255-1.347-1.248l-.341-.119q0-10.3-.009-20.6l.341-.209,0-2.732.006-2.709Z" transform="translate(-15.591 -15.906)" fill="#fb6067"/>
    <path id="Trazado_1390571" data-name="Trazado 1390571" d="M52.525,16.1v8.192c-.016.132-.056.331-.149.341-.374.039-3.532.076-3.7,0a.557.557,0,0,1-.241-.341V16.1Z" transform="translate(-23.882 -7.939)" fill="#dae0e6"/>
    <path id="Trazado_1390572" data-name="Trazado 1390572" d="M44.184,32.261V48.626l.341.158q0,3.909,0,7.821l-.341.2c.537.1.526,1.672.014,1.822a7.424,7.424,0,0,1,.331,3.391l-.342.242-.16.341-11.908,0-.206-.341c-.133-.016-.332-.058-.341-.152a23.045,23.045,0,0,1,.008-3.246l.341-.243a1.513,1.513,0,0,0,1.355.907l5.459,0a1.334,1.334,0,0,0,1.359-1.377V32.263Z" transform="translate(-15.541 -15.908)" fill="#fa4f56"/>
    <path id="Trazado_1390573" data-name="Trazado 1390573" d="M63.419,8.07a1.291,1.291,0,0,1,1.117.657q.224,13.85.126,27.759l-.341.209c-.015.134-.062.337-.157.341-2.231.1-4.945.106-7.174,0q-.707.15-.851-.341L55.8,36.58q0-8.02,0-16.043l.341-.2-.341-.158q0-3.914,0-7.831l.341-.2c-.132-.016-.328-.054-.341-.149-.035-.252-.059-2.706,0-2.835a.564.564,0,0,1,.341-.239c.242-.288.544-.835,1.048-.836Z" transform="translate(-27.496 -3.979)" fill="#68b0fb"/>
    <path id="Trazado_1390574" data-name="Trazado 1390574" d="M75.858,12.831a.536.536,0,0,1,.227.013c.348.117.158,6.46.117,7.288l-.341.2c.134.015.337.062.341.157.1,2.231.106,4.945,0,7.174q.15.707-.341.851l.341.157v7.821l-.341.2c-.016.132-.055.329-.15.341a19.934,19.934,0,0,1-2.729,0q-.939.179-1.212-.342L71.765,9.28c0-.625-.53-.94-.9-1.21L75,8.093a1.246,1.246,0,0,1,.829.83Z" transform="translate(-34.945 -3.979)" fill="#4fa3fa"/>
    <path id="Trazado_1390575" data-name="Trazado 1390575" d="M64.687,64.542c.134.015.336.062.341.158.1,2.084.079,4.573,0,6.667q.183,1.052-.342,1.361l-.157.341-7.821,0-.2-.341,0-8.182Z" transform="translate(-27.861 -31.826)" fill="#e6eaee"/>
    <path id="Trazado_1390576" data-name="Trazado 1390576" d="M76.738,64.544l0,8.182c-.016.132-.056.332-.149.341-.374.039-3.532.076-3.7,0a.559.559,0,0,1-.241-.341l0-8.185Z" transform="translate(-35.821 -31.826)" fill="#dae0e6"/>
    <path id="Trazado_1390577" data-name="Trazado 1390577" d="M68.779,80.687l.014,1.824,0,3.631H56.508l.011-3.633a2.4,2.4,0,0,1,1.1.538l5.954,0q1.077-.481.776-2.13l.341-.226Z" transform="translate(-27.864 -39.787)" fill="#4fa3fa"/>
    <path id="Trazado_1390578" data-name="Trazado 1390578" d="M64.684,80.689l0,1.372a1.339,1.339,0,0,1-1.36,1.349l-5.619-.016c-.577,0-.93-.5-1.191-.885L56.5,80.687Z" transform="translate(-27.861 -39.787)" fill="#68b0fb"/>
    <path id="Trazado_1390579" data-name="Trazado 1390579" d="M87.993,16.145a1.144,1.144,0,0,1,1.111.716,70.731,70.731,0,0,1,.137,7.243l-.341.2-.157.341-7.823.01-.2-.341,0-7.5c.253-.054.508-.486.73-.655Z" transform="translate(-39.799 -7.961)" fill="#fbb760"/>
    <path id="Trazado_1390580" data-name="Trazado 1390580" d="M100.074,16.822v7.492c-.037.132-.092.325-.2.34a28.813,28.813,0,0,1-3.644-.009l-.248-.342.008-6.641a1.607,1.607,0,0,0-.915-1.517l4.267.036c.245.1.5.579.732.641" transform="translate(-46.882 -7.961)" fill="#faaf4f"/>
    <path id="Trazado_1390581" data-name="Trazado 1390581" d="M92.631,48.021V56.2l.341.158q0,3.909,0,7.821l-.341.2c.537.1.525,1.673.013,1.824a6.514,6.514,0,0,1,.207,3.521.48.48,0,0,1-.228.111l-.159.341H80.574l-.206-.341c-.132-.017-.325-.054-.341-.151a29.974,29.974,0,0,1,0-3.237l.341-.243a2.509,2.509,0,0,1,1.1.538,55.066,55.066,0,0,0,5.69.014c.76-.111.923-.291,1.041-1.034V48.241l.341-.208c.016-.131.05-.322.148-.341a29.39,29.39,0,0,1,3.7-.011Z" transform="translate(-39.44 -23.485)" fill="#faaf4f"/>
    <path id="Trazado_1390582" data-name="Trazado 1390582" d="M100.62,32.251v8.182l-4.094.012-.341-.158s0-2.614,0-7.842l.341-.2Z" transform="translate(-47.429 -15.898)" fill="#dae0e6"/>
    <path id="Trazado_1390583" data-name="Trazado 1390583" d="M88.522,48.083v17.7a1.317,1.317,0,0,1-1.375,1.366l-5.6-.009c-.578,0-.938-.5-1.19-.885-.537-.1-.527-1.673-.014-1.824L80,64.279l0-7.821.341-.2V48.072l.158-.341,7.819.011Z" transform="translate(-39.425 -23.536)" fill="#fbb760"/>
    <path id="Trazado_1390584" data-name="Trazado 1390584" d="M88.9,32.241l0,8.2-8.18-.012V32.251Z" transform="translate(-39.803 -15.898)" fill="#e6eaee"/>
    <path id="Trazado_1390585" data-name="Trazado 1390585" d="M76.08,91.1l4.1-.01a1.324,1.324,0,0,1,1.364,1.366l-.006,5.455c0,.926-.646,1.374-1.571,1.374l-57.354-.014c-.582,0-.835-.6-1.079-.876l-.005-2.743q.417-.1.894.441l.683.12,51.72-.011c1.466-.289.946-3.232.716-4.351a.73.73,0,0,1-.363-.742.462.462,0,0,1,.9-.009" transform="translate(-10.615 -44.744)" fill="#faaf4f"/>
    <path id="Trazado_1390586" data-name="Trazado 1390586" d="M26.984,91.078l12.274,0,.159-.341H51.335l.207.341H63.795l11.38.012a1.576,1.576,0,0,1,.91,1.518l-.013,2.567a1.326,1.326,0,0,1-1.394,1.355l-51.581,0a1.6,1.6,0,0,1-1.571-.9l.01-3.662c.15-.754.236-.964.982-1.2a36.809,36.809,0,0,1,4.222-.031Z" transform="translate(-10.615 -44.721)" fill="#fbb760"/>
    <path id="Trazado_1390587" data-name="Trazado 1390587" d="M53.707,92.262c-.034.134-.093.337-.2.343-.8.051-6.523.225-6.764-.013a22.531,22.531,0,0,1-2.724-5.371L31.889,87.2l-.2-.341.854-2.676-29.1-.07A3.735,3.735,0,0,1,.033,80.641L0,78.2a4.316,4.316,0,0,0,3.954,3.218l68.3.008a4.181,4.181,0,0,0,4.129-4.408l-.078-4.537-.325-.195q.094-18.019.049-36.1l.341-.21A5.413,5.413,0,0,1,76,33.289l.338-.245-.329-.59c.323-2.27-.449-4.342-2.716-5.151l-.156-.413,5.4.01a4.182,4.182,0,0,1,3.3,3.3l-.048,50.523a3.764,3.764,0,0,1-3.383,3.382l-29.1.067a19.256,19.256,0,0,0,4.406,8.09" transform="translate(0 -13.26)" fill="#dae0e6"/>
    <path id="Trazado_1390588" data-name="Trazado 1390588" d="M76.125,150.594l.669.095,3.388.053c.642.01.985.843.9,1.382-.071.446-.357,1.287-1.049,1.287L46.5,153.4c-.674,0-1.061-.965-1.031-1.415.034-.515.414-1.264,1-1.268l3.91-.026a21.169,21.169,0,0,0,3.732-5.5l12.6.026a25.146,25.146,0,0,0,2.641,5.457Z" transform="translate(-22.418 -71.592)" fill="#e6eaee"/>
    <path id="Trazado_1390589" data-name="Trazado 1390589" d="M136.819,26.886a4.445,4.445,0,0,1,3.127,3.164,13.245,13.245,0,0,1,.074,2.99.779.779,0,0,1-.829-.258q-4.887-.237-9.839-.128l-.2-.341V26.881Z" transform="translate(-63.683 -13.255)" fill="#e6eaee"/>
    <path id="Trazado_1390590" data-name="Trazado 1390590" d="M86.661,43.526l0,35.719-.067.784a1.675,1.675,0,0,1-1.507.766l-63.024,0a1.194,1.194,0,0,1-1.136-.848l-.06-5.232.339-.249.361-.091a1.034,1.034,0,0,0,.742.629L79.9,75c.561-.093.852-.256.964-.858a41.478,41.478,0,0,0,.014-5.608c-.093-.611-.206-.836-.829-1.018L76,67.51l-.242-.34c-.133-.016-.334-.059-.341-.153a34.276,34.276,0,0,1,0-4.127q-.17-.912.341-1.179l-.341-.158V53.733l.341-.2V42.6c.014-.134.063-.338.158-.341,3.311-.114,6.742-.049,10.026.143a1.155,1.155,0,0,1,.722,1.122" transform="translate(-10.291 -20.811)" fill="#68b0fb"/>
    <path id="Trazado_1390591" data-name="Trazado 1390591" d="M21.684,37.6c.131.017.321.049.341.146a8.883,8.883,0,0,1,0,1.545q.164.83-.342,1.041l-.148.342-4.2.036a.95.95,0,0,0-.721.688l-.036,23.587-.341.8c.132.017.33.057.341.153a31.137,31.137,0,0,1-.009,3.265.558.558,0,0,1-.342.244,4.687,4.687,0,0,1,.346,2.508l-.341.236.039,5.284c0,.49.56.76.819,1.044l-4.966.009a1.3,1.3,0,0,1-1.344-1.226l0-38.458a1.3,1.3,0,0,1,1.356-1.241Z" transform="translate(-5.314 -18.542)" fill="#4fa3fa"/>
    <path id="Trazado_1390592" data-name="Trazado 1390592" d="M140.02,38.32l.033,2.931a1.61,1.61,0,0,0-1.531-.927l-9.376,0V37.594l9.376,0a1.763,1.763,0,0,1,1.5.73" transform="translate(-63.683 -18.536)" fill="#4fa3fa"/>
    <path id="Trazado_1390593" data-name="Trazado 1390593" d="M26.986,42.991,27,63.915l-.008,3.641-4.258.013c-.572,0-.925.491-1.191.878L21.532,44.39A1.326,1.326,0,0,1,22.893,43Z" transform="translate(-10.617 -21.199)" fill="#68b0fb"/>
    <path id="Trazado_1390594" data-name="Trazado 1390594" d="M24.551,15.776l.341.158q0,3.913,0,7.829l-.341.2-.157.341-7.575,0a8.586,8.586,0,0,0-.107,2.128l-.341.24-.158.341-9.5.01a.948.948,0,0,0-.9.785l0,38.679a.939.939,0,0,0,.79.756l4.377.013.8.339.163-.341q31.789.086,63.477-.1.508-.483.891-.323c.134.033.335.088.344.189.19,2.056.35,5.749-.906,7.385a4.328,4.328,0,0,1-3.168,1.7H3.79C1.722,75.832.165,74.743,0,72.549L.046,24.678A3.715,3.715,0,0,1,3.4,21.315l12.969-.09,0-5.441.157-.341,7.819-.008Z" transform="translate(0 -7.611)" fill="#e6eaee"/>
    <path id="Trazado_1390595" data-name="Trazado 1390595" d="M79.393,126.436l-5.213.007a1.405,1.405,0,0,1-1.527-1.29,1.353,1.353,0,0,1,1.357-1.445l5.294-.014a1.393,1.393,0,0,1,1.518,1.3,1.359,1.359,0,0,1-1.428,1.444" transform="translate(-35.824 -60.994)" fill="#dae0e6"/>
  </g>
</svg>
