<svg id="Grupo_1224210" data-name="Grupo 1224210" xmlns="http://www.w3.org/2000/svg" xmlns:xlink="http://www.w3.org/1999/xlink" width="129.013" height="136.718" viewBox="0 0 129.013 136.718">
  <defs>
    <clipPath id="clip-path">
      <rect id="Rectángulo_744926" data-name="Rectángulo 744926" width="129.013" height="136.718" fill="none"/>
    </clipPath>
  </defs>
  <g id="Grupo_1224209" data-name="Grupo 1224209" clip-path="url(#clip-path)">
    <path id="Trazado_1391093" data-name="Trazado 1391093" d="M112.11,23.583l.489.76a17.207,17.207,0,0,0,10.3,16.4l.475.77c.183.025.207.117.089.271A.566.566,0,0,1,124,42.1q-.013,5.716-.026,11.431l-.534.313-.249.533-15.662-.051a1.466,1.466,0,0,0,.156,2.884l.415.572.592.183,2.325,10a62.3,62.3,0,0,0,8.638.031l2.193-10.047.589-.2c.013-.768.653-.738.86-.013l.535.182q.079,12.327.157,24.657l-.532.329a1.684,1.684,0,0,1-1.422.137l-13.783.027-.735.329a3.27,3.27,0,0,1-.975,1.248c-.272.441-.436.318-.244-.183a52.893,52.893,0,0,0-6.023-.129c-.18.333-.3.27-.382-.134l-.008-58.961a1.592,1.592,0,0,1,1.61-1.648Z" transform="translate(-3.746 -0.884)" fill="#fee077"/>
    <path id="Trazado_1391094" data-name="Trazado 1391094" d="M130.591,43.512q.306,24.418.238,49.12c-.42.075-.321.557-.475.66a1.76,1.76,0,0,1-.658.29q-5.218.11-10.313-.137-9.23.289-18.676.164c-.089-.29-.536-.552-.691-.73l.012-7.824a51.24,51.24,0,0,1,6.275.109l.243.184.362.055a1.983,1.983,0,0,0,1.4,1.262l14.027.013a1.472,1.472,0,0,0,.953-2.515l.171-.557-.16-25.167a4.615,4.615,0,0,0,1.073-1.958,6.367,6.367,0,0,0-.932-1.938l.027-12.059c-.038-.236.034-.247.2-.058a6.036,6.036,0,0,1,3.3.3l2.891.246Z" transform="translate(-3.751 -1.586)" fill="#fed05b"/>
    <path id="Trazado_1391095" data-name="Trazado 1391095" d="M132.02,92.672l-.238-49.12c.08-.234.175-.231.285,0Z" transform="translate(-4.942 -1.627)" fill="#fed463"/>
    <path id="Trazado_1391096" data-name="Trazado 1391096" d="M119.408,95.438c.24.059.245.153.027.283-.1.228-.2.219-.295-.016.118.791-3.579.632-3.8.531a.887.887,0,0,1-.369-.534l-3.579,0-10.665-.1Z" transform="translate(-3.778 -3.579)" fill="#fed463"/>
    <path id="Trazado_1391097" data-name="Trazado 1391097" d="M123.857,23.583c.605.1.732.289.133.4q.12,8.831-.14,17.523a17.709,17.709,0,0,1-11.266-17.926Z" transform="translate(-4.22 -0.884)" fill="#fd76a7"/>
    <path id="Trazado_1391098" data-name="Trazado 1391098" d="M130.713,23.843a1.457,1.457,0,0,1,.972.577q.094,9.257-.18,18.393a19.511,19.511,0,0,1-6.919-1.088q-.264-8.93-.151-17.979a54.548,54.548,0,0,1,6.278.1" transform="translate(-4.665 -0.889)" fill="#fd5693"/>
    <path id="Trazado_1391099" data-name="Trazado 1391099" d="M130.709,23.839l-6.146.018.018,17.865-.2.058a.57.57,0,0,1-.089-.272l.007-17.925,6.129,0a.269.269,0,0,1,.282.254" transform="translate(-4.661 -0.884)" fill="#fe6da3"/>
    <path id="Trazado_1391100" data-name="Trazado 1391100" d="M132.067,42.841l-.284,0,.18-18.393Z" transform="translate(-4.942 -0.917)" fill="#fc5e98"/>
    <path id="Trazado_1391101" data-name="Trazado 1391101" d="M106.3,86.824l-6.146,0-.141,7.71-.118-7.976,5.887-.016a.642.642,0,0,1,.519.278" transform="translate(-3.746 -3.246)" fill="#fed462"/>
    <path id="Trazado_1391102" data-name="Trazado 1391102" d="M130.449,95.575l-10.286.146-.027-.283Z" transform="translate(-4.506 -3.579)" fill="#fed463"/>
    <path id="Trazado_1391103" data-name="Trazado 1391103" d="M122.754,59.059,120.39,69.9l-8.678.083c-.256,0-.783-.21-.847-.494l-2.45-10.4.246-.534,13.771-.027Z" transform="translate(-4.066 -2.195)" fill="#0b96fb"/>
    <path id="Trazado_1391104" data-name="Trazado 1391104" d="M123.669,55.014c.99.006,1.536,1.383,1.455,2.092-.1.852-.635,1.791-1.6,1.806l-.86.013-14.337.028a2.094,2.094,0,0,1-2.236-2.024,2.02,2.02,0,0,1,2.034-2Z" transform="translate(-3.979 -2.06)" fill="#fefefe"/>
    <path id="Trazado_1391105" data-name="Trazado 1391105" d="M123.714,85.2a1.993,1.993,0,0,1,.63,2.37,1.959,1.959,0,0,1-1.833,1.235l-13.762,0a1.92,1.92,0,0,1-1.952-1.86,1.9,1.9,0,0,1,1.891-2.12l13.622-.018a2.35,2.35,0,0,1,1.4.4" transform="translate(-4.005 -3.18)" fill="#fefefe"/>
    <path id="Trazado_1391106" data-name="Trazado 1391106" d="M111.4,137.856c-.037-.86,3.082-.6,3.331-.347a.755.755,0,0,1,.169.356c.12-.771,2.8-.68,3.471-.538.4-.072.608.12.731.533.025-.462.177-.484.313-.02l12.073.111c.95.009,1.193,1.288,1.2,1.91,0,.581-.242,1.959-1.211,1.96l-32.125.016c-1.054,0-1.476-1.332-1.449-1.965.027-.65.251-1.913,1.208-1.921Z" transform="translate(-3.672 -5.147)" fill="#c8bec7"/>
    <path id="Trazado_1391107" data-name="Trazado 1391107" d="M130.728,106.061q-.1,4.685.118,9.313c-.007.268-.689.579-.9.928q-5.348.071-10.575-.206-9.244.284-18.705.127a1.726,1.726,0,0,1-.8-1.167L99.892,111l.188-.533,22.285.022.37-.246a36.768,36.768,0,0,0,.44-4.809l.593-.275,5.78-.028c.332,0,1.175.471,1.181.928" transform="translate(-3.745 -3.943)" fill="#fd5693"/>
    <path id="Trazado_1391108" data-name="Trazado 1391108" d="M111.459,105.2c-.157-.762,2.991-.611,3.128-.506a.889.889,0,0,1,.357.537c.122-.774,2.811-.714,3.491-.579.4-.078.613.111.743.525.037-.47.13-.488.3-.042l4.29.01c-.656,3.206.663,5.936-2,5.937l-21.878-.1,0-4.253a1.6,1.6,0,0,1,1.605-1.6Z" transform="translate(-3.746 -3.922)" fill="#fd76a7"/>
    <path id="Trazado_1391109" data-name="Trazado 1391109" d="M119.407,116.523c.213.125.192.218-.055.279l-.316-.011c.111.788-3.639.631-3.818.529a.891.891,0,0,1-.372-.535l-3.452.008L100.7,116.65Z" transform="translate(-3.777 -4.37)" fill="#fc5d99"/>
    <path id="Trazado_1391110" data-name="Trazado 1391110" d="M130.709,116.729l-10.631.073.056-.279Z" transform="translate(-4.503 -4.37)" fill="#fc5d98"/>
    <path id="Trazado_1391111" data-name="Trazado 1391111" d="M132.043,115.41a.464.464,0,0,1-.253-.362l.135-8.951Z" transform="translate(-4.943 -3.979)" fill="#fc5e99"/>
    <path id="Trazado_1391112" data-name="Trazado 1391112" d="M115.263,116.791l.536.245q.078,9.861.155,19.728l-.531.328-3.5-.009-.112-20.286a10.5,10.5,0,0,1,3.452-.008" transform="translate(-4.193 -4.375)" fill="#e4e0e4"/>
    <path id="Trazado_1391113" data-name="Trazado 1391113" d="M115.392,95.707c.207,0,.526.05.534.181a62.42,62.42,0,0,1,0,8.1c.066.5,0,.754-.534.907l-3.485-.031-.094-9.148a11.894,11.894,0,0,1,3.579,0" transform="translate(-4.193 -3.584)" fill="#e4e0e4"/>
    <path id="Trazado_1391114" data-name="Trazado 1391114" d="M120.215,137.067l-.313.021-.536-.245q-.084-9.855-.167-19.719l.531-.327c0-.232.162-.181.316.01Z" transform="translate(-4.47 -4.375)" fill="#ded9de"/>
    <path id="Trazado_1391115" data-name="Trazado 1391115" d="M120.2,104.8l-.3.042c-.21-.055-.522-.144-.536-.309a57.937,57.937,0,0,1-.064-8.42l.531-.4.295.016Z" transform="translate(-4.469 -3.59)" fill="#ded9de"/>
    <path id="Trazado_1391116" data-name="Trazado 1391116" d="M119.7,95.715l.068,9.125-4.233.055V95.713Z" transform="translate(-4.333 -3.59)" fill="#d6cfd5"/>
    <path id="Trazado_1391117" data-name="Trazado 1391117" d="M119.588,116.8l.171,20.291-4.2,0-.16-20.3Z" transform="translate(-4.328 -4.38)" fill="#d6cfd5"/>
    <path id="Trazado_1391118" data-name="Trazado 1391118" d="M91.246,103.935l-.265,0,0-.246-.465-.323q-.123-11.559-.065-23.152l.534-.323.265.007Z" transform="translate(-3.392 -2.996)" fill="#fe92b9"/>
    <path id="Trazado_1391119" data-name="Trazado 1391119" d="M86.848,0c.643.638,1.825,1.374,1.827,2.417q-.195,10.152-.092,20.385-3.845-.048-7.642.149c-.04.238-.122.235-.241.012l-.189.534-57.152,0-.331-.534c-.232-.085-.226-.176.007-.275l.129-.934a16.4,16.4,0,0,0,3.457-6.692l.695-.635.321-.534L54.2,13.825l.957.531a1.675,1.675,0,0,1,1.608.258q10.639.352,21.3.071a3.364,3.364,0,0,0,2.274-4.9l.272-.573-.515-1.171q.064-3.863.126-7.733L80.771,0Z" transform="translate(-0.857)" fill="#fed05b"/>
    <path id="Trazado_1391120" data-name="Trazado 1391120" d="M80.834,0l-.15,9.212A3.088,3.088,0,0,1,78.4,7.758c-.893-.167-2.479-.417-2.982.3l-18.191.1A3.3,3.3,0,0,0,54.5,11.611l-.5.358a2.58,2.58,0,0,1,1.226,2.388l-27.845.073-.365-.887A18.031,18.031,0,0,0,24.548.951L24.569,0Z" transform="translate(-0.921)" fill="#fee077"/>
    <path id="Trazado_1391121" data-name="Trazado 1391121" d="M90.975,23.058h-.263l-.3.534c-.763.149-3.325.223-3.6-.535-.028.205-.08.507-.228.533-.747.135-3.15.213-3.383-.546a.553.553,0,0,1,.547-.265l6.965,0,0-19.992c0-.206.166-.31.225-.282Z" transform="translate(-3.12 -0.094)" fill="#fee195"/>
    <path id="Trazado_1391122" data-name="Trazado 1391122" d="M79.546,8.053A3.194,3.194,0,0,1,81.83,9.509a3.919,3.919,0,0,1,.186,4.065,3.978,3.978,0,0,1-3.58,2.03l-19.207,0a4.221,4.221,0,0,1-2.859-.947,3.832,3.832,0,0,1-1.226-2.388l.247-.535,19.322-.107c1.548-.5,1.6-2.122,1.486-3.488.411-.374,2.682-.26,3.346-.082" transform="translate(-2.068 -0.296)" fill="#fd5693"/>
    <path id="Trazado_1391123" data-name="Trazado 1391123" d="M79.545,8.047l-2.874-.011c.38,1.766-.274,4.134-2.281,4.144l-19.246.079a3.842,3.842,0,0,1,3.837-4.4l18.651-.051c.716,0,1.442-.24,1.912.242" transform="translate(-2.067 -0.29)" fill="#fd76a7"/>
    <path id="Trazado_1391124" data-name="Trazado 1391124" d="M91.249,77.793c-.081.231-.169.225-.266-.007L90.45,77.6V24.181l.534-.328c.074-.233.162-.23.263,0Z" transform="translate(-3.392 -0.888)" fill="#e4e1e4"/>
    <path id="Trazado_1391125" data-name="Trazado 1391125" d="M86.786,23.858l.534.186-.043,53.4-.534.327c-.027.207-.083.511-.234.535-.832.134-3.213.246-3.53-.525l-.533-.248q.023-5.976.044-11.957l.535-.318c-.259,0-.282-.1-.084-.275l-.007-41.125.241-.013Z" transform="translate(-3.092 -0.894)" fill="#e4e0e4"/>
    <path id="Trazado_1391126" data-name="Trazado 1391126" d="M90.852,23.86V77.793l-3.941-.022.043-53.912Z" transform="translate(-3.259 -0.895)" fill="#d6cfd5"/>
    <path id="Trazado_1391127" data-name="Trazado 1391127" d="M30.563,69.63l-2.13,9.883-8.826.016c-.514,0-.976-.167-1.306-.162l-.783-4.092.3-.535a35.093,35.093,0,0,0,6.309-.251l.775-.512a12.4,12.4,0,0,0,1.13-4.363,17.136,17.136,0,0,1,4.528.015" transform="translate(-0.657 -2.605)" fill="#0ed18f"/>
    <path id="Trazado_1391128" data-name="Trazado 1391128" d="M17.876,65.237l.02-.355q5.182-.325,10.575-.2l.315.533,2.173-.032a2.048,2.048,0,0,1,1.875,2.487,2.2,2.2,0,0,1-2.417,1.778,17.851,17.851,0,0,0-3.869-.112l-.386.456-9.726.115-.4-.531a2.355,2.355,0,0,1-2.295-1.591,2.1,2.1,0,0,1,1.575-2.506,7.94,7.94,0,0,1,2.556-.044" transform="translate(-0.512 -2.425)" fill="#00f1a5"/>
    <path id="Trazado_1391129" data-name="Trazado 1391129" d="M30.511,69.625,26.5,69.6l-.606,3.43a2.9,2.9,0,0,1-3.109,2.228l-5.325.013-1.332-5.715,9.575-.1,4.31-.106c.238-.007.517.049.493.28" transform="translate(-0.605 -2.601)" fill="#05e29b"/>
    <path id="Trazado_1391130" data-name="Trazado 1391130" d="M30.314,56.71l-.237.532a23.764,23.764,0,0,1-3.424-.034.889.889,0,0,1-.366-.538l-.308.536c-1.207.073-9.446.209-9.807-.125a.737.737,0,0,1-.18-.355,2.338,2.338,0,0,1-2.318-2.033,2.283,2.283,0,0,1,2.41-2.22l14.465.042a2.125,2.125,0,0,1,2.32,2.446c-.129,1.139-1.268,1.76-2.556,1.748" transform="translate(-0.513 -1.968)" fill="#b2d9fd"/>
    <path id="Trazado_1391131" data-name="Trazado 1391131" d="M30.453,56.873l-1.527,8.05-10.91.021a27.419,27.419,0,0,1-.632-3.044l.3-.542,5.785-.15q2.382-.674,2.371-4.126l.592-.248Z" transform="translate(-0.652 -2.131)" fill="#0592fb"/>
    <path id="Trazado_1391132" data-name="Trazado 1391132" d="M26.378,56.834l-.545,2.83a2.647,2.647,0,0,1-2.521,2.082l-5.978.155L16.083,56.89Z" transform="translate(-0.603 -2.131)" fill="#26a5fd"/>
    <path id="Trazado_1391133" data-name="Trazado 1391133" d="M23.66,0a18.522,18.522,0,0,1,2.809,14.43l-.322.534L.61,14.971l-.323-.533L.328,1.9C.331,1,1.4.47,1.887,0Z" transform="translate(-0.011)" fill="#fd76a7"/>
    <path id="Trazado_1391134" data-name="Trazado 1391134" d="M.27,23.26c.234.075.231.166,0,.27A.25.25,0,0,1,0,23.262V15.246C0,15,.186,15,.276,15c.208.024.524.092.533.239a68.933,68.933,0,0,1,0,7.637.865.865,0,0,1-.534.385" transform="translate(0 -0.563)" fill="#fe649a"/>
    <path id="Trazado_1391135" data-name="Trazado 1391135" d="M26.469,14.992a16.891,16.891,0,0,1-4.281,8.261c-7.028.242-14.78.237-21.906.008L.287,15Z" transform="translate(-0.011 -0.562)" fill="#fd5693"/>
    <path id="Trazado_1391136" data-name="Trazado 1391136" d="M22.187,23.574l-.008.274H8.028c-.076.234-.166.23-.268,0q-.443.856-2.189.534-1.272.254-1.589-.533l-3.7,0,0-.27Z" transform="translate(-0.011 -0.884)" fill="#fd639b"/>
    <path id="Trazado_1391137" data-name="Trazado 1391137" d="M3.982,23.853l.534.186q.016,26.7.032,53.408l-.534.328-3.73,0V23.857a10,10,0,0,1,3.7,0" transform="translate(-0.011 -0.888)" fill="#e4e0e4"/>
    <path id="Trazado_1391138" data-name="Trazado 1391138" d="M7.9,23.859q.131,26.757.267,53.677l-.008.256-4-.012L4.126,23.859Z" transform="translate(-0.155 -0.895)" fill="#d6cfd5"/>
    <path id="Trazado_1391139" data-name="Trazado 1391139" d="M8.318,77.536c-.1,0-.267-.076-.267-.329V23.859h.268Z" transform="translate(-0.302 -0.895)" fill="#d8d2d8"/>
    <path id="Trazado_1391140" data-name="Trazado 1391140" d="M81.982,66.865l-.046,12.523-27.271.01,0-5.619.244-.535q9.748.081,19.416-.2l1.82-1.858.013-4.434a41.391,41.391,0,0,1,5.827.112" transform="translate(-2.05 -2.501)" fill="#fed05b"/>
    <path id="Trazado_1391141" data-name="Trazado 1391141" d="M76.023,66.584c.612.083.738.262.135.375l-.015,4.222a2.607,2.607,0,0,1-2.558,2.532l-18.922.059-.009-6.118a1.853,1.853,0,0,1,1.63-1.066Z" transform="translate(-2.05 -2.497)" fill="#fee077"/>
    <path id="Trazado_1391142" data-name="Trazado 1391142" d="M82.731,66.585a.93.93,0,0,0,.084.275l-5.7-.01-.143,4.332-.119-4.6Z" transform="translate(-2.882 -2.497)" fill="#feda72"/>
    <path id="Trazado_1391143" data-name="Trazado 1391143" d="M48.956,133.22a30.629,30.629,0,0,0,1.81,8.493L.918,141.691c-.572-.134-.9-1.384-.894-1.861l.057-6.6Z" transform="translate(-0.001 -4.996)" fill="#fd5693"/>
    <path id="Trazado_1391144" data-name="Trazado 1391144" d="M89.48,104.533c.178.059.171.141,0,.246q.271,17.205.193,34.668c0,.453-.842,1.1-1.327,1.1l-35.689,0a2.845,2.845,0,0,1-.51-.377c-.779-.752-2.043-6.6-1.62-7.585a2.761,2.761,0,0,1,.32-.531l.181-.535q15.047.039,29.966-.339l.323-.82.143-27.388.536-.323a3.786,3.786,0,0,1,3.329.023l3.555,1.081Z" transform="translate(-1.892 -3.836)" fill="#fed05b"/>
    <path id="Trazado_1391145" data-name="Trazado 1391145" d="M91.2,139.538,91,104.87c.071-.235.16-.233.265,0Z" transform="translate(-3.413 -3.926)" fill="#fee194"/>
    <path id="Trazado_1391146" data-name="Trazado 1391146" d="M81.927,102.669l.084-.008L81.865,130.4a1.385,1.385,0,0,1-1.3,1.484l-29.706.18a27.826,27.826,0,0,1,31.066-29.4" transform="translate(-1.906 -3.843)" fill="#fee077"/>
    <path id="Trazado_1391147" data-name="Trazado 1391147" d="M86.762,79.847q.316-.855,2.1-.522,1.445-.274,1.844.544l0,23.8a29.914,29.914,0,0,0-7.482-1.879c-.107.017-.268-.026-.084.008L83,79.858Z" transform="translate(-3.113 -2.971)" fill="#fd5693"/>
    <path id="Trazado_1391148" data-name="Trazado 1391148" d="M27.778,79.878l.321-.534,24.2-.011.321.534.186-.534,26.759-.01.326.534.535.243q.066,10.684.133,21.374l-.532.323-.964.437a27.343,27.343,0,0,0-29.609,28.028l-.493.933-.187.534-48.36.006L.083,131.2l.2-1.426,0-49.915c.027-.205.075-.494.232-.534.622-.158,3.323-.207,3.5.532q.332-.858,2.13-.528,1.38-.269,1.876.54l.172-.537,9.141-.129.321.529q.3-.69,1.328-.372l8.413-.016Z" transform="translate(-0.003 -2.97)" fill="#fd76a7"/>
    <path id="Trazado_1391149" data-name="Trazado 1391149" d="M36.252,99.109c-.8.23-.62-3.451-.534-3.636a.9.9,0,0,1,.534-.37l17.7-.01a2.019,2.019,0,1,1-.01,4.027Z" transform="translate(-1.337 -3.566)" fill="#ba5d4c"/>
    <path id="Trazado_1391150" data-name="Trazado 1391150" d="M36.235,91.676c-.8.242-.638-3.427-.555-3.607a.893.893,0,0,1,.532-.371l17.982-.012a1.988,1.988,0,0,1,0,3.972Z" transform="translate(-1.335 -3.289)" fill="#ba5d4c"/>
    <path id="Trazado_1391151" data-name="Trazado 1391151" d="M36.056,87.628l.023,3.978.016,3.149v4.006l-.01,5.409-4.006,0-.534-.3q0-2.361,0-4.723l.534-.373q-.859-.328-.534-2.127-.283-1.458.534-1.878c-.849-.205-.811-2.89,0-3.169q-.856-.338-.515-2.135-.271-1.463.551-1.876a1.91,1.91,0,0,1,2.015-1.788,1.994,1.994,0,0,1,1.923,1.822" transform="translate(-1.18 -3.218)" fill="#fed05b"/>
    <path id="Trazado_1391152" data-name="Trazado 1391152" d="M20.959,87.594c.206.025.512.078.536.226a12.179,12.179,0,0,1-.146,3.609.763.763,0,0,1-.355.175c.85.205.814,2.89,0,3.17.206.027.51.081.534.23a23.611,23.611,0,0,1,0,3.407.889.889,0,0,1-.534.371l.534.3q0,2.358,0,4.719l-.534.373-4.006,0-.01-5.409q-.859-.329-.534-2.127-.283-1.46.534-1.878L17,91.605a.638.638,0,0,1-.532-.232c-.142-.143-.188-3.768.557-3.744a1.992,1.992,0,0,1,1.922-1.823,1.91,1.91,0,0,1,2.015,1.788" transform="translate(-0.613 -3.218)" fill="#fed05b"/>
    <path id="Trazado_1391153" data-name="Trazado 1391153" d="M28.493,87.585c.206.025.51.078.536.227a23.777,23.777,0,0,1,.027,3.419.894.894,0,0,1-.531.375c.852.192.852,2.879.043,3.168.206.027.509.083.533.232a23.581,23.581,0,0,1,0,3.407.886.886,0,0,1-.534.37l.531.3q-.023,2.358-.045,4.719l-.537.368H24.561l-.537-.294q-.02-2.359-.042-4.719l.531-.378q-.86-.329-.536-2.129-.286-1.458.532-1.88c-.851-.226-.767-2.907.044-3.165a.639.639,0,0,1-.532-.236c-.142-.146-.182-3.8.563-3.79a1.963,1.963,0,0,1,3.909,0" transform="translate(-0.896 -3.218)" fill="#fed05b"/>
    <path id="Trazado_1391154" data-name="Trazado 1391154" d="M24.481,87.653l-.031,4.025c-.241.852-2.964.811-3.277,0l-.036-4.011Z" transform="translate(-0.793 -3.287)" fill="#bc5f4c"/>
    <path id="Trazado_1391155" data-name="Trazado 1391155" d="M32.013,87.664l-.036,4.012c-.238.852-2.961.814-3.273,0l-.031-4.02Z" transform="translate(-1.075 -3.287)" fill="#bc5f4c"/>
    <path id="Trazado_1391156" data-name="Trazado 1391156" d="M16.948,87.7l-.025,3.977a2.24,2.24,0,0,1-2.216-.96,2.008,2.008,0,0,1,.112-2.252,2.192,2.192,0,0,1,2.129-.765" transform="translate(-0.541 -3.288)" fill="#bb5d4c"/>
    <path id="Trazado_1391157" data-name="Trazado 1391157" d="M31.979,95.1v4.006l-3.232,0,0-4.009c.224-.851,2.931-.813,3.229,0" transform="translate(-1.078 -3.543)" fill="#bc5f4c"/>
    <path id="Trazado_1391158" data-name="Trazado 1391158" d="M37.386,117.04,34.779,128.5a1.73,1.73,0,0,1-1.67,1.252l-13.67,0c-1.152,0-1.645-.916-1.852-1.882l-.772-3.6q-.108-.953.578-.911l10.529-.081.526-.565,1.238-5.407.6-.248.3-.534L37,116.507Z" transform="translate(-0.63 -4.369)" fill="#fed05b"/>
    <path id="Trazado_1391159" data-name="Trazado 1391159" d="M31.8,109.039c.2.067.493.2.473.347a60.3,60.3,0,0,1-1.515,7.1l-.6.269-.243.533-14.52,0-.316-.534-1.534-7.035q-.911-1.142.322-1.218H31.482Z" transform="translate(-0.493 -4.069)" fill="#fefefe"/>
    <path id="Trazado_1391160" data-name="Trazado 1391160" d="M16.758,104.861c-.229-.8,3.452-.616,3.637-.529a.889.889,0,0,1,.369.534c.241-.852,2.967-.815,3.283,0-.241-.8,3.409-.618,3.587-.534a.9.9,0,0,1,.365.534c.241-.852,2.967-.813,3.282,0-.231-.8,3.451-.624,3.636-.538a.893.893,0,0,1,.371.534h4.358a2.055,2.055,0,0,1,2.2,1.988,1.97,1.97,0,0,1-1.943,2.018H38.845l-.307.534-6.464.009-.386-.534H13.507a.986.986,0,0,0-.078.683c-.4-1.12-3.23-.264-3.233-2.707a2.059,2.059,0,0,1,2.2-1.993Z" transform="translate(-0.382 -3.909)" fill="#e4e0e4"/>
    <path id="Trazado_1391161" data-name="Trazado 1391161" d="M30.228,117.076l-1.29,5.66a1.525,1.525,0,0,1-1.445,1.173l-10.116,0a.737.737,0,0,0-.625.381l-1.6-7.208Z" transform="translate(-0.568 -4.391)" fill="#fee077"/>
    <path id="Trazado_1391162" data-name="Trazado 1391162" d="M39.619,109.05l-1.707,7.711-7.1.014,1.645-7.715Z" transform="translate(-1.156 -4.09)" fill="#eeecee"/>
    <path id="Trazado_1391163" data-name="Trazado 1391163" d="M16.908,95.1v4.006a2.2,2.2,0,0,1-2.189-.925,2.019,2.019,0,0,1,.073-2.268,2.239,2.239,0,0,1,2.117-.813" transform="translate(-0.54 -3.566)" fill="#bb5d4d"/>
    <path id="Trazado_1391164" data-name="Trazado 1391164" d="M31.976,99.261v5.395H28.693l.051-5.391c.223-.851,2.932-.816,3.232,0" transform="translate(-1.076 -3.699)" fill="#fd77a6"/>
    <path id="Trazado_1391165" data-name="Trazado 1391165" d="M24.411,99.264l.048,5.391H21.177V99.265c.225-.851,2.935-.814,3.235,0" transform="translate(-0.794 -3.699)" fill="#fd77a6"/>
    <path id="Trazado_1391166" data-name="Trazado 1391166" d="M31.978,91.831V95H28.748L28.7,91.832Z" transform="translate(-1.077 -3.444)" fill="#fd77a5"/>
    <path id="Trazado_1391167" data-name="Trazado 1391167" d="M24.407,95.1l0,4.009H21.176V95.1c.224-.851,2.932-.814,3.231,0" transform="translate(-0.794 -3.543)" fill="#bc5f4c"/>
    <path id="Trazado_1391168" data-name="Trazado 1391168" d="M24.452,91.835,24.407,95l-3.231,0,0-3.17Z" transform="translate(-0.794 -3.444)" fill="#fd77a5"/>
  </g>
</svg>
