<svg xmlns="http://www.w3.org/2000/svg" xmlns:xlink="http://www.w3.org/1999/xlink" width="216.3" height="190.894" viewBox="0 0 216.3 190.894">
  <defs>
    <clipPath id="clip-path">
      <path id="Sustracción_79" data-name="Sustracción 79" d="M44.438,0A44.23,44.23,0,0,0,19.592,7.589,44.567,44.567,0,0,0,3.492,27.14a44.379,44.379,0,0,0,4.1,42.142,44.568,44.568,0,0,0,19.551,16.1,44.379,44.379,0,0,0,42.142-4.1,44.568,44.568,0,0,0,16.1-19.551,44.378,44.378,0,0,0-4.1-42.142,44.568,44.568,0,0,0-19.551-16.1A44.158,44.158,0,0,0,44.438,0Zm0,68.016A23.579,23.579,0,1,1,68.016,44.437,23.605,23.605,0,0,1,44.438,68.016Z" transform="translate(88.875 88.875) rotate(180)" fill="#bdf59c"/>
    </clipPath>
    <clipPath id="clip-path-2">
      <ellipse id="Elipse_66614" data-name="Elipse 66614" cx="59.776" cy="59.776" rx="59.776" ry="59.776" transform="translate(0 0)" fill="#61ccee"/>
    </clipPath>
    <clipPath id="clip-path-3">
      <rect id="Rectángulo_744903" data-name="Rectángulo 744903" width="133.428" height="133.739" fill="none"/>
    </clipPath>
  </defs>
  <g id="Grupo_1224310" data-name="Grupo 1224310" transform="translate(6599 7082)">
    <g id="Grupo_1224167" data-name="Grupo 1224167" transform="translate(-7763.626 -10936.658)">
      <g id="Enmascarar_grupo_1099781" data-name="Enmascarar grupo 1099781" transform="translate(1292.051 3854.658)" opacity="0.5" clip-path="url(#clip-path)" style="isolation: isolate">
        <g id="Grupo_1224018" data-name="Grupo 1224018" transform="translate(-101.106 0.115)">
          <rect id="Rectángulo_743560" data-name="Rectángulo 743560" width="2.554" height="123.008" transform="translate(283.144 86.98) rotate(135)" fill="#bdf59c"/>
          <rect id="Rectángulo_743561" data-name="Rectángulo 743561" width="2.554" height="123.008" transform="translate(216.319 86.98) rotate(135)" fill="#bdf59c"/>
          <rect id="Rectángulo_743562" data-name="Rectángulo 743562" width="2.554" height="123.008" transform="translate(148.218 86.98) rotate(135)" fill="#bdf59c"/>
          <rect id="Rectángulo_743563" data-name="Rectángulo 743563" width="2.554" height="123.008" transform="translate(249.519 86.98) rotate(135)" fill="#bdf59c"/>
          <rect id="Rectángulo_743564" data-name="Rectángulo 743564" width="2.554" height="123.008" transform="translate(182.694 86.98) rotate(135)" fill="#bdf59c"/>
          <rect id="Rectángulo_743565" data-name="Rectángulo 743565" width="2.554" height="123.008" transform="translate(114.593 86.98) rotate(135)" fill="#bdf59c"/>
          <rect id="Rectángulo_743566" data-name="Rectángulo 743566" width="2.554" height="123.008" transform="translate(266.119 86.98) rotate(135)" fill="#bdf59c"/>
          <rect id="Rectángulo_743567" data-name="Rectángulo 743567" width="2.554" height="123.008" transform="translate(199.294 86.98) rotate(135)" fill="#bdf59c"/>
          <rect id="Rectángulo_743568" data-name="Rectángulo 743568" width="2.554" height="123.008" transform="translate(131.192 86.98) rotate(135)" fill="#bdf59c"/>
          <rect id="Rectángulo_743569" data-name="Rectángulo 743569" width="2.554" height="123.008" transform="translate(232.493 86.98) rotate(135)" fill="#bdf59c"/>
          <rect id="Rectángulo_743570" data-name="Rectángulo 743570" width="2.554" height="123.008" transform="translate(165.669 86.98) rotate(135)" fill="#bdf59c"/>
          <rect id="Rectángulo_743571" data-name="Rectángulo 743571" width="2.554" height="123.008" transform="translate(97.567 86.98) rotate(135)" fill="#bdf59c"/>
          <rect id="Rectángulo_743572" data-name="Rectángulo 743572" width="2.554" height="123.008" transform="translate(274.363 86.98) rotate(135)" fill="#bdf59c"/>
          <rect id="Rectángulo_743573" data-name="Rectángulo 743573" width="2.554" height="123.008" transform="translate(207.538 86.98) rotate(135)" fill="#bdf59c"/>
          <rect id="Rectángulo_743574" data-name="Rectángulo 743574" width="2.554" height="123.008" transform="translate(139.437 86.98) rotate(135)" fill="#bdf59c"/>
          <rect id="Rectángulo_743575" data-name="Rectángulo 743575" width="2.554" height="123.008" transform="translate(240.738 86.98) rotate(135)" fill="#bdf59c"/>
          <rect id="Rectángulo_743576" data-name="Rectángulo 743576" width="2.554" height="123.008" transform="translate(173.913 86.98) rotate(135)" fill="#bdf59c"/>
          <rect id="Rectángulo_743577" data-name="Rectángulo 743577" width="2.554" height="123.008" transform="translate(105.811 86.98) rotate(135)" fill="#bdf59c"/>
          <rect id="Rectángulo_743578" data-name="Rectángulo 743578" width="2.554" height="123.008" transform="translate(257.338 86.98) rotate(135)" fill="#bdf59c"/>
          <rect id="Rectángulo_743579" data-name="Rectángulo 743579" width="2.554" height="123.008" transform="translate(190.513 86.98) rotate(135)" fill="#bdf59c"/>
          <rect id="Rectángulo_743580" data-name="Rectángulo 743580" width="2.554" height="123.008" transform="translate(122.411 86.98) rotate(135)" fill="#bdf59c"/>
          <rect id="Rectángulo_743581" data-name="Rectángulo 743581" width="2.554" height="123.008" transform="translate(223.712 86.98) rotate(135)" fill="#bdf59c"/>
          <rect id="Rectángulo_743582" data-name="Rectángulo 743582" width="2.554" height="123.008" transform="translate(156.888 86.98) rotate(135)" fill="#bdf59c"/>
          <rect id="Rectángulo_743583" data-name="Rectángulo 743583" width="2.554" height="123.008" transform="translate(88.786 86.98) rotate(135)" fill="#bdf59c"/>
        </g>
      </g>
      <g id="Enmascarar_grupo_1099780" data-name="Enmascarar grupo 1099780" transform="translate(1164.626 3926)" opacity="0.3" clip-path="url(#clip-path-2)" style="isolation: isolate">
        <g id="Grupo_1224017" data-name="Grupo 1224017" transform="translate(-136.004 0.155)">
          <rect id="Rectángulo_743536" data-name="Rectángulo 743536" width="3.436" height="165.467" transform="translate(380.875 117.003) rotate(135)" fill="#61ccee"/>
          <rect id="Rectángulo_743537" data-name="Rectángulo 743537" width="3.436" height="165.467" transform="translate(290.985 117.003) rotate(135)" fill="#61ccee"/>
          <rect id="Rectángulo_743538" data-name="Rectángulo 743538" width="3.436" height="165.467" transform="translate(199.377 117.003) rotate(135)" fill="#61ccee"/>
          <rect id="Rectángulo_743539" data-name="Rectángulo 743539" width="3.436" height="165.467" transform="translate(335.644 117.003) rotate(135)" fill="#61ccee"/>
          <rect id="Rectángulo_743540" data-name="Rectángulo 743540" width="3.436" height="165.467" transform="translate(245.754 117.003) rotate(135)" fill="#61ccee"/>
          <rect id="Rectángulo_743541" data-name="Rectángulo 743541" width="3.436" height="165.467" transform="translate(154.146 117.003) rotate(135)" fill="#61ccee"/>
          <rect id="Rectángulo_743542" data-name="Rectángulo 743542" width="3.436" height="165.467" transform="translate(357.973 117.003) rotate(135)" fill="#61ccee"/>
          <rect id="Rectángulo_743543" data-name="Rectángulo 743543" width="3.436" height="165.467" transform="translate(268.083 117.003) rotate(135)" fill="#61ccee"/>
          <rect id="Rectángulo_743544" data-name="Rectángulo 743544" width="3.436" height="165.467" transform="translate(176.475 117.003) rotate(135)" fill="#61ccee"/>
          <rect id="Rectángulo_743545" data-name="Rectángulo 743545" width="3.436" height="165.467" transform="translate(312.742 117.003) rotate(135)" fill="#61ccee"/>
          <rect id="Rectángulo_743546" data-name="Rectángulo 743546" width="3.436" height="165.467" transform="translate(222.852 117.003) rotate(135)" fill="#61ccee"/>
          <rect id="Rectángulo_743547" data-name="Rectángulo 743547" width="3.436" height="165.467" transform="translate(131.244 117.003) rotate(135)" fill="#61ccee"/>
          <rect id="Rectángulo_743548" data-name="Rectángulo 743548" width="3.436" height="165.467" transform="translate(369.063 117.003) rotate(135)" fill="#61ccee"/>
          <rect id="Rectángulo_743549" data-name="Rectángulo 743549" width="3.436" height="165.467" transform="translate(279.173 117.003) rotate(135)" fill="#61ccee"/>
          <rect id="Rectángulo_743550" data-name="Rectángulo 743550" width="3.436" height="165.467" transform="translate(187.565 117.003) rotate(135)" fill="#61ccee"/>
          <rect id="Rectángulo_743551" data-name="Rectángulo 743551" width="3.436" height="165.467" transform="translate(323.832 117.003) rotate(135)" fill="#61ccee"/>
          <rect id="Rectángulo_743552" data-name="Rectángulo 743552" width="3.436" height="165.467" transform="translate(233.942 117.003) rotate(135)" fill="#61ccee"/>
          <rect id="Rectángulo_743553" data-name="Rectángulo 743553" width="3.436" height="165.467" transform="translate(142.334 117.003) rotate(135)" fill="#61ccee"/>
          <rect id="Rectángulo_743554" data-name="Rectángulo 743554" width="3.436" height="165.467" transform="translate(346.161 117.003) rotate(135)" fill="#61ccee"/>
          <rect id="Rectángulo_743555" data-name="Rectángulo 743555" width="3.436" height="165.467" transform="translate(256.271 117.003) rotate(135)" fill="#61ccee"/>
          <rect id="Rectángulo_743556" data-name="Rectángulo 743556" width="3.436" height="165.467" transform="translate(164.663 117.003) rotate(135)" fill="#61ccee"/>
          <rect id="Rectángulo_743557" data-name="Rectángulo 743557" width="3.436" height="165.467" transform="translate(300.93 117.003) rotate(135)" fill="#61ccee"/>
          <rect id="Rectángulo_743558" data-name="Rectángulo 743558" width="3.436" height="165.467" transform="translate(211.04 117.003) rotate(135)" fill="#61ccee"/>
          <rect id="Rectángulo_743559" data-name="Rectángulo 743559" width="3.436" height="165.467" transform="translate(119.432 117.003) rotate(135)" fill="#61ccee"/>
        </g>
      </g>
    </g>
    <g id="Grupo_1224173" data-name="Grupo 1224173" transform="translate(-6558 -7053)">
      <g id="Grupo_1224172" data-name="Grupo 1224172" clip-path="url(#clip-path-3)">
        <path id="Trazado_1390826" data-name="Trazado 1390826" d="M137.143,20.664l.059,47.79c0,2.273-2.4,3.894-4.273,3.967-1.907.075-4.723-1.121-4.729-3.481l-.185-48.261c.053-.205.146-.513.3-.523,1.005-.064,8.093-.252,8.442-.015a.843.843,0,0,1,.383.522" transform="translate(-8.515 -1.332)" fill="#83e9f4"/>
        <path id="Trazado_1390827" data-name="Trazado 1390827" d="M127.574,16.261c.054-.2.146-.512.3-.522.994-.066,8.039-.161,8.428,0a.847.847,0,0,1,.382.523l2.233.02c1.1.009,1.672,1.184,1.623,2.164-.043.863-.6,1.925-1.624,1.926H136.5l-9.128.016-4.863.031,0,14.06a2.28,2.28,0,0,1-2.533,1.749,2.711,2.711,0,0,1-1.609-1.463l-.047-16.441a2.03,2.03,0,0,1,2.092-2.1Z" transform="translate(-7.87 -1.041)" fill="#fdd95f"/>
        <path id="Trazado_1390828" data-name="Trazado 1390828" d="M137.346,15.221h-9.114l-.019-11.767c.019-1.887,2.066-3.282,3.781-3.43,2.28-.2,4.758.828,5.085,3.364Z" transform="translate(-8.529 0)" fill="#13acc0"/>
        <path id="Trazado_1390829" data-name="Trazado 1390829" d="M94.563,46.487l9.82.028a2.287,2.287,0,0,1,2.056,2.351l.035,22.424a2.557,2.557,0,0,1-2.376,2.838H94.452q-2.282.006-.6-1.758.287-12.26-.111-24.472-.979-.748-.565-1.389Z" transform="translate(-6.19 -3.092)" fill="#f3c74e"/>
        <path id="Trazado_1390830" data-name="Trazado 1390830" d="M90.858,46.511c.321.48,1.252,1,1.254,1.86L92.149,71.8a2.648,2.648,0,0,1-1.119,2.035c.421.019,1.058.043,1.1.294l-31.783-.063a2.229,2.229,0,0,1-2.208-2.259l-.012-22.967a2.231,2.231,0,0,1,2.189-2.324Z" transform="translate(-3.867 -3.094)" fill="#fdd95f"/>
        <path id="Trazado_1390831" data-name="Trazado 1390831" d="M87.852,56.081,82.3,65.751l-5.565-9.62Z" transform="translate(-5.104 -3.731)" fill="#14acc0"/>
        <path id="Trazado_1390832" data-name="Trazado 1390832" d="M92.7,23.6a.539.539,0,0,1-.533.305L73.1,23.857a2.571,2.571,0,0,1-2.472-2.479L70.436.865c0-.309.152-.481.317-.486L72.6,2.432l4.423,4.694,4.7,4.961,4.7,4.961,4.726,4.927c.553.576.877,1.289,1.551,1.621" transform="translate(-4.685 -0.025)" fill="#cbd0d7"/>
        <path id="Trazado_1390833" data-name="Trazado 1390833" d="M66.068.358l.208.877.194,20.2c.251,1.271.754,1.64,1.977,1.882l18.721.043.847.218a.525.525,0,0,1,.257.5l.1,19.322q-.118.965-1.382.021l-.181.523-30.344,0c-1.277.218-1.463.6-1.686,1.828L54.794,68.8c.216,1,.464,1.394,1.5,1.646l30.753.069q.15.48,1.215.525l.02,15.8-.18.523-39.444.107-1.716.37a3.1,3.1,0,0,1-2.035.772,5.582,5.582,0,0,0-1.6,4.165l-.1,30.507L2.146,123.26a2.828,2.828,0,0,1-2.119-2.133L0,2.466A2.114,2.114,0,0,1,2.407.045L65.251.052c.552,0,.594.058.817.305" transform="translate(0 -0.003)" fill="#fff"/>
        <path id="Trazado_1390834" data-name="Trazado 1390834" d="M55.133,25.534l-19.18.028a2.022,2.022,0,1,1-.007-4.041l18.8-.007a2.058,2.058,0,0,1,2.222,1.867,1.975,1.975,0,0,1-1.831,2.153" transform="translate(-2.252 -1.431)" fill="#84e9f4"/>
        <path id="Trazado_1390835" data-name="Trazado 1390835" d="M26.1,13.6,20.12,24.08,14.071,13.614Z" transform="translate(-0.936 -0.905)" fill="#fdd95f"/>
        <path id="Trazado_1390836" data-name="Trazado 1390836" d="M49.13,16.6l-13.194.037a2.022,2.022,0,1,1,.008-4.043L49,12.6a2,2,0,0,1,2.043,1.781A1.963,1.963,0,0,1,49.13,16.6" transform="translate(-2.252 -0.838)" fill="#13acc0"/>
        <path id="Trazado_1390837" data-name="Trazado 1390837" d="M136.9,140.051l-12.156,0a5.883,5.883,0,0,0,4.48-5.768l0-3.891H111.343c-.209,0-.305-.186-.39-.3l.244-.521,19.609.1c2.435-.993,1.027-3.478-1.3-2.949l-.313-.53.065-26.139-.057-.549q5.115-2.459,10.315-4.61c.391.377,1.3,1.083,1.3,1.874l-.083,39.569c0,1.91-2.587,3.075-3.825,3.709" transform="translate(-7.381 -6.313)" fill="#83e9f4"/>
        <path id="Trazado_1390838" data-name="Trazado 1390838" d="M135.332,94.769a.583.583,0,0,1-.405.626l-9.853,4.532L92.559,114.866a4.936,4.936,0,0,1-4.428-.386L48.107,94.788a5.432,5.432,0,0,1,3.964-1.668l39.411-.1,40.083-.074a5.6,5.6,0,0,1,3.768,1.826" transform="translate(-3.2 -6.183)" fill="#13acc0"/>
        <path id="Trazado_1390839" data-name="Trazado 1390839" d="M129.083,128.427l1.7.047a1.865,1.865,0,0,1,1.656,1.678,1.96,1.96,0,0,1-1.2,2.141,7.5,7.5,0,0,1-2.813.092l-17.578-.062c-1.061,0-1.609-1.352-1.478-2.144a2.023,2.023,0,0,1,2.1-1.738Z" transform="translate(-7.274 -8.543)" fill="#13acc0"/>
        <path id="Trazado_1390840" data-name="Trazado 1390840" d="M124.912,100.041l.522.182q-.032,12.818-.063,25.641l-.524.316-.242.523-17.785.056c-1.952.738-1.1,2.136-.21,3.319q9.237.224,18.572.258a14.706,14.706,0,0,1,.021,5.585,5.01,5.01,0,0,1-4.8,4.113l-70.093,0-2.251-1.4c-1.41-.853-1.843-2.592-1.836-4.184l.02-4.876c-.2,0-.52-.056-.521-.182-.145-10.616,0-21.536.307-32.124.249-.929.82-2.652,1.917-2.366l.675-.25L88.2,114.123a4.479,4.479,0,0,0,3.994.378L124.4,99.7Z" transform="translate(-3.038 -6.296)" fill="#b7f8fe"/>
        <path id="Trazado_1390841" data-name="Trazado 1390841" d="M124.672,123.509l-13.212.029a2.007,2.007,0,0,1-2.106-2.068,2.027,2.027,0,0,1,2.115-1.972l13.3.037a1.93,1.93,0,0,1,1.778,1.945,1.951,1.951,0,0,1-1.873,2.028" transform="translate(-7.274 -7.949)" fill="#13acc0"/>
        <path id="Trazado_1390842" data-name="Trazado 1390842" d="M70.519,120.524,64.5,130.995l-6.082-10.476Z" transform="translate(-3.886 -8.017)" fill="#fdd95f"/>
      </g>
    </g>
  </g>
</svg>
