<svg xmlns="http://www.w3.org/2000/svg" xmlns:xlink="http://www.w3.org/1999/xlink" width="216.3" height="190.894" viewBox="0 0 216.3 190.894">
  <defs>
    <clipPath id="clip-path">
      <path id="Sustracción_79" data-name="Sustracción 79" d="M44.438,0A44.23,44.23,0,0,0,19.592,7.589,44.567,44.567,0,0,0,3.492,27.14a44.379,44.379,0,0,0,4.1,42.142,44.568,44.568,0,0,0,19.551,16.1,44.379,44.379,0,0,0,42.142-4.1,44.568,44.568,0,0,0,16.1-19.551,44.378,44.378,0,0,0-4.1-42.142,44.568,44.568,0,0,0-19.551-16.1A44.158,44.158,0,0,0,44.438,0Zm0,68.016A23.579,23.579,0,1,1,68.016,44.437,23.605,23.605,0,0,1,44.438,68.016Z" transform="translate(88.875 88.875) rotate(180)" fill="#bdf59c"/>
    </clipPath>
    <clipPath id="clip-path-2">
      <ellipse id="Elipse_66614" data-name="Elipse 66614" cx="59.776" cy="59.776" rx="59.776" ry="59.776" transform="translate(0 0)" fill="#61ccee"/>
    </clipPath>
    <clipPath id="clip-path-3">
      <rect id="Rectángulo_744897" data-name="Rectángulo 744897" width="143.273" height="133.739" fill="none"/>
    </clipPath>
  </defs>
  <g id="Grupo_1224306" data-name="Grupo 1224306" transform="translate(-1165.051 -3635.115)">
    <g id="Grupo_1224162" data-name="Grupo 1224162" transform="translate(0.425 -219.543)">
      <g id="Enmascarar_grupo_1099781" data-name="Enmascarar grupo 1099781" transform="translate(1292.051 3854.658)" opacity="0.5" clip-path="url(#clip-path)" style="isolation: isolate">
        <g id="Grupo_1224018" data-name="Grupo 1224018" transform="translate(-101.106 0.115)">
          <rect id="Rectángulo_743560" data-name="Rectángulo 743560" width="2.554" height="123.008" transform="translate(283.144 86.98) rotate(135)" fill="#bdf59c"/>
          <rect id="Rectángulo_743561" data-name="Rectángulo 743561" width="2.554" height="123.008" transform="translate(216.319 86.98) rotate(135)" fill="#bdf59c"/>
          <rect id="Rectángulo_743562" data-name="Rectángulo 743562" width="2.554" height="123.008" transform="translate(148.218 86.98) rotate(135)" fill="#bdf59c"/>
          <rect id="Rectángulo_743563" data-name="Rectángulo 743563" width="2.554" height="123.008" transform="translate(249.519 86.98) rotate(135)" fill="#bdf59c"/>
          <rect id="Rectángulo_743564" data-name="Rectángulo 743564" width="2.554" height="123.008" transform="translate(182.694 86.98) rotate(135)" fill="#bdf59c"/>
          <rect id="Rectángulo_743565" data-name="Rectángulo 743565" width="2.554" height="123.008" transform="translate(114.593 86.98) rotate(135)" fill="#bdf59c"/>
          <rect id="Rectángulo_743566" data-name="Rectángulo 743566" width="2.554" height="123.008" transform="translate(266.119 86.98) rotate(135)" fill="#bdf59c"/>
          <rect id="Rectángulo_743567" data-name="Rectángulo 743567" width="2.554" height="123.008" transform="translate(199.294 86.98) rotate(135)" fill="#bdf59c"/>
          <rect id="Rectángulo_743568" data-name="Rectángulo 743568" width="2.554" height="123.008" transform="translate(131.192 86.98) rotate(135)" fill="#bdf59c"/>
          <rect id="Rectángulo_743569" data-name="Rectángulo 743569" width="2.554" height="123.008" transform="translate(232.493 86.98) rotate(135)" fill="#bdf59c"/>
          <rect id="Rectángulo_743570" data-name="Rectángulo 743570" width="2.554" height="123.008" transform="translate(165.669 86.98) rotate(135)" fill="#bdf59c"/>
          <rect id="Rectángulo_743571" data-name="Rectángulo 743571" width="2.554" height="123.008" transform="translate(97.567 86.98) rotate(135)" fill="#bdf59c"/>
          <rect id="Rectángulo_743572" data-name="Rectángulo 743572" width="2.554" height="123.008" transform="translate(274.363 86.98) rotate(135)" fill="#bdf59c"/>
          <rect id="Rectángulo_743573" data-name="Rectángulo 743573" width="2.554" height="123.008" transform="translate(207.538 86.98) rotate(135)" fill="#bdf59c"/>
          <rect id="Rectángulo_743574" data-name="Rectángulo 743574" width="2.554" height="123.008" transform="translate(139.437 86.98) rotate(135)" fill="#bdf59c"/>
          <rect id="Rectángulo_743575" data-name="Rectángulo 743575" width="2.554" height="123.008" transform="translate(240.738 86.98) rotate(135)" fill="#bdf59c"/>
          <rect id="Rectángulo_743576" data-name="Rectángulo 743576" width="2.554" height="123.008" transform="translate(173.913 86.98) rotate(135)" fill="#bdf59c"/>
          <rect id="Rectángulo_743577" data-name="Rectángulo 743577" width="2.554" height="123.008" transform="translate(105.811 86.98) rotate(135)" fill="#bdf59c"/>
          <rect id="Rectángulo_743578" data-name="Rectángulo 743578" width="2.554" height="123.008" transform="translate(257.338 86.98) rotate(135)" fill="#bdf59c"/>
          <rect id="Rectángulo_743579" data-name="Rectángulo 743579" width="2.554" height="123.008" transform="translate(190.513 86.98) rotate(135)" fill="#bdf59c"/>
          <rect id="Rectángulo_743580" data-name="Rectángulo 743580" width="2.554" height="123.008" transform="translate(122.411 86.98) rotate(135)" fill="#bdf59c"/>
          <rect id="Rectángulo_743581" data-name="Rectángulo 743581" width="2.554" height="123.008" transform="translate(223.712 86.98) rotate(135)" fill="#bdf59c"/>
          <rect id="Rectángulo_743582" data-name="Rectángulo 743582" width="2.554" height="123.008" transform="translate(156.888 86.98) rotate(135)" fill="#bdf59c"/>
          <rect id="Rectángulo_743583" data-name="Rectángulo 743583" width="2.554" height="123.008" transform="translate(88.786 86.98) rotate(135)" fill="#bdf59c"/>
        </g>
      </g>
      <g id="Enmascarar_grupo_1099780" data-name="Enmascarar grupo 1099780" transform="translate(1164.626 3926)" opacity="0.3" clip-path="url(#clip-path-2)" style="isolation: isolate">
        <g id="Grupo_1224017" data-name="Grupo 1224017" transform="translate(-136.004 0.155)">
          <rect id="Rectángulo_743536" data-name="Rectángulo 743536" width="3.436" height="165.467" transform="translate(380.875 117.003) rotate(135)" fill="#61ccee"/>
          <rect id="Rectángulo_743537" data-name="Rectángulo 743537" width="3.436" height="165.467" transform="translate(290.985 117.003) rotate(135)" fill="#61ccee"/>
          <rect id="Rectángulo_743538" data-name="Rectángulo 743538" width="3.436" height="165.467" transform="translate(199.377 117.003) rotate(135)" fill="#61ccee"/>
          <rect id="Rectángulo_743539" data-name="Rectángulo 743539" width="3.436" height="165.467" transform="translate(335.644 117.003) rotate(135)" fill="#61ccee"/>
          <rect id="Rectángulo_743540" data-name="Rectángulo 743540" width="3.436" height="165.467" transform="translate(245.754 117.003) rotate(135)" fill="#61ccee"/>
          <rect id="Rectángulo_743541" data-name="Rectángulo 743541" width="3.436" height="165.467" transform="translate(154.146 117.003) rotate(135)" fill="#61ccee"/>
          <rect id="Rectángulo_743542" data-name="Rectángulo 743542" width="3.436" height="165.467" transform="translate(357.973 117.003) rotate(135)" fill="#61ccee"/>
          <rect id="Rectángulo_743543" data-name="Rectángulo 743543" width="3.436" height="165.467" transform="translate(268.083 117.003) rotate(135)" fill="#61ccee"/>
          <rect id="Rectángulo_743544" data-name="Rectángulo 743544" width="3.436" height="165.467" transform="translate(176.475 117.003) rotate(135)" fill="#61ccee"/>
          <rect id="Rectángulo_743545" data-name="Rectángulo 743545" width="3.436" height="165.467" transform="translate(312.742 117.003) rotate(135)" fill="#61ccee"/>
          <rect id="Rectángulo_743546" data-name="Rectángulo 743546" width="3.436" height="165.467" transform="translate(222.852 117.003) rotate(135)" fill="#61ccee"/>
          <rect id="Rectángulo_743547" data-name="Rectángulo 743547" width="3.436" height="165.467" transform="translate(131.244 117.003) rotate(135)" fill="#61ccee"/>
          <rect id="Rectángulo_743548" data-name="Rectángulo 743548" width="3.436" height="165.467" transform="translate(369.063 117.003) rotate(135)" fill="#61ccee"/>
          <rect id="Rectángulo_743549" data-name="Rectángulo 743549" width="3.436" height="165.467" transform="translate(279.173 117.003) rotate(135)" fill="#61ccee"/>
          <rect id="Rectángulo_743550" data-name="Rectángulo 743550" width="3.436" height="165.467" transform="translate(187.565 117.003) rotate(135)" fill="#61ccee"/>
          <rect id="Rectángulo_743551" data-name="Rectángulo 743551" width="3.436" height="165.467" transform="translate(323.832 117.003) rotate(135)" fill="#61ccee"/>
          <rect id="Rectángulo_743552" data-name="Rectángulo 743552" width="3.436" height="165.467" transform="translate(233.942 117.003) rotate(135)" fill="#61ccee"/>
          <rect id="Rectángulo_743553" data-name="Rectángulo 743553" width="3.436" height="165.467" transform="translate(142.334 117.003) rotate(135)" fill="#61ccee"/>
          <rect id="Rectángulo_743554" data-name="Rectángulo 743554" width="3.436" height="165.467" transform="translate(346.161 117.003) rotate(135)" fill="#61ccee"/>
          <rect id="Rectángulo_743555" data-name="Rectángulo 743555" width="3.436" height="165.467" transform="translate(256.271 117.003) rotate(135)" fill="#61ccee"/>
          <rect id="Rectángulo_743556" data-name="Rectángulo 743556" width="3.436" height="165.467" transform="translate(164.663 117.003) rotate(135)" fill="#61ccee"/>
          <rect id="Rectángulo_743557" data-name="Rectángulo 743557" width="3.436" height="165.467" transform="translate(300.93 117.003) rotate(135)" fill="#61ccee"/>
          <rect id="Rectángulo_743558" data-name="Rectángulo 743558" width="3.436" height="165.467" transform="translate(211.04 117.003) rotate(135)" fill="#61ccee"/>
          <rect id="Rectángulo_743559" data-name="Rectángulo 743559" width="3.436" height="165.467" transform="translate(119.432 117.003) rotate(135)" fill="#61ccee"/>
        </g>
      </g>
    </g>
    <g id="Grupo_1224161" data-name="Grupo 1224161" transform="translate(1201.051 3663.115)">
      <g id="Grupo_1224160" data-name="Grupo 1224160" clip-path="url(#clip-path-3)">
        <path id="Trazado_1390792" data-name="Trazado 1390792" d="M110.958.926q-.146,20.439.107,40.782l-.019.274-78.878,0,0-5.265,68.2.021a4.383,4.383,0,0,0,4.516-4.552l.01-30.172A2.079,2.079,0,0,0,103.741.036L109.332,0c.457,0,1.625.424,1.626.926" fill="#e3dee2"/>
        <path id="Trazado_1390793" data-name="Trazado 1390793" d="M111.065,41.708a.292.292,0,0,1-.3-.328L110.958.926Z" fill="#e8e3e7"/>
        <path id="Trazado_1390794" data-name="Trazado 1390794" d="M103.741.035c1.176.146,1.673.574,1.713,1.792L105.445,32.4c-.408,3.247-1.907,4.579-5.118,4.891l-67.812-.021-.346-.56.01-35.506A1.581,1.581,0,0,1,33.364.038Z" fill="#f9f6f7"/>
        <path id="Trazado_1390795" data-name="Trazado 1390795" d="M74.506,10.924c2.391-.328,3.9,2.037,4.186,4.259L78.675,28.3c-.307,2.31-1.148,3.66-3.6,3.933L62.64,32.212a4.031,4.031,0,0,1-4.005-3.91l-.018-12.889A4.307,4.307,0,0,1,61.906,11.3l5.116-1.5a6.681,6.681,0,0,0,7.484,1.125" fill="#fe7382"/>
        <path id="Trazado_1390796" data-name="Trazado 1390796" d="M75.071,32.235c1.62-.747,3.042-2.021,3.045-3.946l.02-12.873c0-2.552-1.725-3.525-3.63-4.492.545-.269,1.207-1.013,1.908-1.074l5.343,1.592a4.134,4.134,0,0,1,2.9,4l-.023,12.786c0,1.97-1.552,3.952-3.512,3.966Z" fill="#fe546a"/>
        <path id="Trazado_1390797" data-name="Trazado 1390797" d="M105.43,129.547l.259-.56,15.472-.008.336.559.314-.56,4.605-.011.029-31.875.56-.341c.57-.462.8-.057.829.6q-.049,15.806.052,31.612,1.623-.288,2.1.581c.059-.218.148-.536.323-.559a27.467,27.467,0,0,1,3.9,0q1.545-.294,2.01.561l5.333.032a2.032,2.032,0,0,1,1.7,2.325,2.064,2.064,0,0,1-2.05,1.834l-139.942,0A6.425,6.425,0,0,0,0,132.617v-1.958l1.2-1.019,5.794-.08c0-.216.048-.545.188-.559a63.725,63.725,0,0,1,9.612-.012l.33.559.267-.559,73.8-.011.348.56.307-.561,3.82-.017,0-44.427.559-.345c.058-.247.145-.239.258,0l.559.2.053,44.606,7.934,0Z" fill="#6ce699"/>
        <path id="Trazado_1390798" data-name="Trazado 1390798" d="M136.221,129.547l-6.236,0V45.7a3.815,3.815,0,0,0-2.763-3.708l6.473-.014a4.089,4.089,0,0,1,2.521,3.99Z" fill="#fe546a"/>
        <path id="Trazado_1390799" data-name="Trazado 1390799" d="M41.118,84.154c.218.059.545.154.558.322.066.858.05,6.651-.221,6.931a.783.783,0,0,1-.374.182l-.6.343c-1.858-1.425-2.75-1.363-5.022-1.088a24.178,24.178,0,0,0-2.594.485l-8.544,7.76,4.406,6.271a26.188,26.188,0,0,0,3.63-2.735c1.245-.283,1.723.3,2.005,1.435q-.084,7.725.13,15.359H51.93q.206-8.328.135-16.762c.027-.414.379-.462.8-.345l.6-.129a21.965,21.965,0,0,0,2.46,3.2,18.016,18.016,0,0,0,3.138-2.518,1.453,1.453,0,0,1,2.3.655q.076,8,.228,15.907l17.357,0,.215-.553-.007-14.812c.26-1.158.827-1.715,2.054-1.42a30.527,30.527,0,0,0,3.573,2.749,50.241,50.241,0,0,0,4.372-6.338L80.6,91.2a27.361,27.361,0,0,0-5.57-.444q-1.545,1.493-2.435.787a57.775,57.775,0,0,1-.277-7.211c-.484-.434-.255-.6.34-.737l18.544.011.335.56.559.2s0,14.944,0,44.831l-.559.346-74.411.01,0-45.387.192-.559L40.78,83.6Z" fill="#68e6fc"/>
        <path id="Trazado_1390800" data-name="Trazado 1390800" d="M45.314,84.154c.219.024.547.091.562.245.073.8.2,6.015.055,6.466a1.763,1.763,0,0,1-.552.809,4.787,4.787,0,0,1-4.3-.085l.037-7.435Z" fill="#574d56"/>
        <path id="Trazado_1390801" data-name="Trazado 1390801" d="M91.508,79.963l.31-.562,4.232-.037.4.556a2.215,2.215,0,0,1,2.034,2.185,2.047,2.047,0,0,1-2,2.084l-.258,0-.313.558-3.99-.019-.384-.561L72.4,84.153l.195,7.389c.212.5.016.614-.363.211l-.559-.251V84.789l-3.086-.061-.383-.563-.193.559-22.355-.01-.339-.56c-.028.216-.086.534-.242.559a24.616,24.616,0,0,1-3.567,0,.927.927,0,0,1-.387-.559l-23.993.007a2.1,2.1,0,0,1-2.092-2.04A2.062,2.062,0,0,1,17.1,79.974l.192-.56L40.782,79.4l.338.559c-.219-.832,3.623-.661,3.8-.557a.929.929,0,0,1,.387.56l.193-.56H67.885l.339.559.306-.559,3.1-.017.567-.5c.522-.2.65.051.755.523H91.17Z" fill="#6c5e69"/>
        <path id="Trazado_1390802" data-name="Trazado 1390802" d="M68.2,84.165l.562.317q.028,3.375.057,6.754l-.556.406c-.952-.3-1.863-1.341-2.809-1.463a19.413,19.413,0,0,0-5.736.633l-2.792,2.441-3.315-2.429a16.31,16.31,0,0,0-5.69-.639l-2.544,1.489-.065-7.52Z" fill="#68e6fc"/>
        <path id="Trazado_1390803" data-name="Trazado 1390803" d="M96.221,84.188l0,45.329-4.691.021,0-45.373Z" fill="#01dbfb"/>
        <path id="Trazado_1390804" data-name="Trazado 1390804" d="M72.23,91.753c-1.219.71-2.673.3-3.966-.11L68.2,84.165l4.028.031Z" fill="#574d56"/>
        <path id="Trazado_1390805" data-name="Trazado 1390805" d="M95.159,71.625l-.3.564-2.811.039q.078,3.625.021,7.329l-.561.406H72.526l-.331-1.082-.674-.145a1.521,1.521,0,0,0-2.74.777l-.557.444H45.31a.633.633,0,0,1-.551-.346c-.8-1.958-2.315-2.15-3.082-.108l-.557.452L17.1,79.974l.022-6.932a1.373,1.373,0,0,1,1.39-1.509H90.19c1.846-.138,3.9-.452,4.969.091" fill="#68e6fc"/>
        <path id="Trazado_1390806" data-name="Trazado 1390806" d="M45.31,79.959l-4.189,0a2.118,2.118,0,0,1,2.094-2.4,2.14,2.14,0,0,1,2.1,2.4" fill="#574f59"/>
        <path id="Trazado_1390807" data-name="Trazado 1390807" d="M72.2,78.881l-.017,1.081-3.954,0a2.13,2.13,0,0,1,1.639-2.349A1.989,1.989,0,0,1,72.2,78.881" fill="#575059"/>
        <path id="Trazado_1390808" data-name="Trazado 1390808" d="M95.159,71.625a1.246,1.246,0,0,1,1.228,1.227l.06,7.068-4.939.043.034-6.939a1.946,1.946,0,0,0-.7-1.339Z" fill="#01dbfb"/>
        <path id="Trazado_1390809" data-name="Trazado 1390809" d="M68.265,91.643l.477-.437,1.8.371a1.937,1.937,0,0,1,1.689.176l.362-.211c.9-.094,1.61-1.172,2.44-1.372,1.9-.3,3.776.421,5.769.53l8.539,7.674a1.07,1.07,0,0,1,.138,1.486L85.4,105.57a.961.961,0,0,1-1.421.144l-2.688-2.378a.883.883,0,0,0-.955-.178.987.987,0,0,0-.633.937l.007,14.806a1.069,1.069,0,0,1-1.119,1.162l-16.764-.005a.884.884,0,0,1-.917-.876l-.034-15.268c0-.4-.449-.72-.7-.805a.824.824,0,0,0-.783.2l-2.707,2.361a1.025,1.025,0,0,1-1.558-.2l-2.263-3.153c-.617.591-2.527-2.739-2.549-2.958a1.662,1.662,0,0,1,.027-.682c.091-.4,5.164-4.943,5.912-5.558l.677.138-.135-.625a7.87,7.87,0,0,1,5.824-2.921c2.188-.253,4.635-.27,5.648,1.935" fill="#fee170"/>
        <path id="Trazado_1390810" data-name="Trazado 1390810" d="M41.081,91.589a2.585,2.585,0,0,1,2.236,0,3.168,3.168,0,0,1,2.061.091c.377-1.4,2.3-2.079,3.654-2.116a10.637,10.637,0,0,1,7.908,3.01l-.013.685-6.213,5.721,2.146,3.338a.508.508,0,0,0-.247.419l-.007,16.441a.9.9,0,0,1-.876.881H34.7a.9.9,0,0,1-.884-.878L33.808,104.1a.961.961,0,0,0-.588-.932.855.855,0,0,0-.958.155l-2.707,2.356a1.006,1.006,0,0,1-1.547-.234l-4.44-6.429,9.058-8.18a21.469,21.469,0,0,1,5.888-.724,27.84,27.84,0,0,0,2.567,1.476" fill="#fe7382"/>
        <path id="Trazado_1390811" data-name="Trazado 1390811" d="M120.256,94.8a1.98,1.98,0,0,1,1.665,1.178q.215,16.584.136,33.219l-.559.344-16.068.009,0-32.717a2.094,2.094,0,0,1,2.244-2.047Z" fill="#68e6fc"/>
        <path id="Trazado_1390812" data-name="Trazado 1390812" d="M127,96.75l-.016,32.774-5.492.014-.024-32.972c0-.837-.894-1.277-1.217-1.769h4.779A1.9,1.9,0,0,1,127,96.75" fill="#00dbfb"/>
        <path id="Trazado_1390813" data-name="Trazado 1390813" d="M32.168,41.979l.267-.559,78.264,0,.347.559,16.175.013c2.316.18,3.008,1.29,3.317,3.476l.007,83.728-.56.346-2.719-.027.01-32.134A.689.689,0,0,0,127,96.75,10.1,10.1,0,0,0,125.43,95.4l-4.177-.056-1-.544-.022.373q-6.27.316-12.757.179c-1.051.207-1.294.49-1.484,1.5l0,32.353-.559.342-8.931,0-.02-45.362.357-.6a1.612,1.612,0,0,0-.092-3.075l-.3-.594-.562-.318-.055-6.778a11.793,11.793,0,0,1-.671-1.2,17.074,17.074,0,0,0-4.129-.051c-.111.072-.151.254-.17.467Q54.374,72,17.976,72.257l-.27.507-.046,6.8-.561.406a.634.634,0,0,1-.28.582c-1.584.894-1.784,2.131-.06,3l.366.6.559.194q0,22.422,0,44.851l-.56.342-10.13.013L7,45.186a3.682,3.682,0,0,1,3.92-3.224Z" fill="#fe7382"/>
        <path id="Trazado_1390814" data-name="Trazado 1390814" d="M87.119,57.729l-30.881.015a2.114,2.114,0,0,1-2.227-1.94,2.04,2.04,0,0,1,2.008-2.246l30.926-.021a2.1,2.1,0,0,1,2.245,1.8,2.074,2.074,0,0,1-2.071,2.4" fill="#f9f6f7"/>
      </g>
    </g>
  </g>
</svg>
