<svg xmlns="http://www.w3.org/2000/svg" xmlns:xlink="http://www.w3.org/1999/xlink" width="216.3" height="190.894" viewBox="0 0 216.3 190.894">
  <defs>
    <clipPath id="clip-path">
      <path id="Sustracción_79" data-name="Sustracción 79" d="M44.438,0A44.23,44.23,0,0,0,19.592,7.589,44.567,44.567,0,0,0,3.492,27.14a44.379,44.379,0,0,0,4.1,42.142,44.568,44.568,0,0,0,19.551,16.1,44.379,44.379,0,0,0,42.142-4.1,44.568,44.568,0,0,0,16.1-19.551,44.378,44.378,0,0,0-4.1-42.142,44.568,44.568,0,0,0-19.551-16.1A44.158,44.158,0,0,0,44.438,0Zm0,68.016A23.579,23.579,0,1,1,68.016,44.437,23.605,23.605,0,0,1,44.438,68.016Z" transform="translate(88.875 88.875) rotate(180)" fill="#bdf59c"/>
    </clipPath>
    <clipPath id="clip-path-2">
      <ellipse id="Elipse_66614" data-name="Elipse 66614" cx="59.776" cy="59.776" rx="59.776" ry="59.776" transform="translate(0 0)" fill="#61ccee"/>
    </clipPath>
    <clipPath id="clip-path-3">
      <rect id="Rectángulo_744904" data-name="Rectángulo 744904" width="133.735" height="133.739" fill="none"/>
    </clipPath>
  </defs>
  <g id="Grupo_1224309" data-name="Grupo 1224309" transform="translate(6599 7379)">
    <g id="Grupo_1224169" data-name="Grupo 1224169" transform="translate(-7763.626 -11233.658)">
      <g id="Enmascarar_grupo_1099781" data-name="Enmascarar grupo 1099781" transform="translate(1292.051 3854.658)" opacity="0.5" clip-path="url(#clip-path)" style="isolation: isolate">
        <g id="Grupo_1224018" data-name="Grupo 1224018" transform="translate(-101.106 0.115)">
          <rect id="Rectángulo_743560" data-name="Rectángulo 743560" width="2.554" height="123.008" transform="translate(283.144 86.98) rotate(135)" fill="#bdf59c"/>
          <rect id="Rectángulo_743561" data-name="Rectángulo 743561" width="2.554" height="123.008" transform="translate(216.319 86.98) rotate(135)" fill="#bdf59c"/>
          <rect id="Rectángulo_743562" data-name="Rectángulo 743562" width="2.554" height="123.008" transform="translate(148.218 86.98) rotate(135)" fill="#bdf59c"/>
          <rect id="Rectángulo_743563" data-name="Rectángulo 743563" width="2.554" height="123.008" transform="translate(249.519 86.98) rotate(135)" fill="#bdf59c"/>
          <rect id="Rectángulo_743564" data-name="Rectángulo 743564" width="2.554" height="123.008" transform="translate(182.694 86.98) rotate(135)" fill="#bdf59c"/>
          <rect id="Rectángulo_743565" data-name="Rectángulo 743565" width="2.554" height="123.008" transform="translate(114.593 86.98) rotate(135)" fill="#bdf59c"/>
          <rect id="Rectángulo_743566" data-name="Rectángulo 743566" width="2.554" height="123.008" transform="translate(266.119 86.98) rotate(135)" fill="#bdf59c"/>
          <rect id="Rectángulo_743567" data-name="Rectángulo 743567" width="2.554" height="123.008" transform="translate(199.294 86.98) rotate(135)" fill="#bdf59c"/>
          <rect id="Rectángulo_743568" data-name="Rectángulo 743568" width="2.554" height="123.008" transform="translate(131.192 86.98) rotate(135)" fill="#bdf59c"/>
          <rect id="Rectángulo_743569" data-name="Rectángulo 743569" width="2.554" height="123.008" transform="translate(232.493 86.98) rotate(135)" fill="#bdf59c"/>
          <rect id="Rectángulo_743570" data-name="Rectángulo 743570" width="2.554" height="123.008" transform="translate(165.669 86.98) rotate(135)" fill="#bdf59c"/>
          <rect id="Rectángulo_743571" data-name="Rectángulo 743571" width="2.554" height="123.008" transform="translate(97.567 86.98) rotate(135)" fill="#bdf59c"/>
          <rect id="Rectángulo_743572" data-name="Rectángulo 743572" width="2.554" height="123.008" transform="translate(274.363 86.98) rotate(135)" fill="#bdf59c"/>
          <rect id="Rectángulo_743573" data-name="Rectángulo 743573" width="2.554" height="123.008" transform="translate(207.538 86.98) rotate(135)" fill="#bdf59c"/>
          <rect id="Rectángulo_743574" data-name="Rectángulo 743574" width="2.554" height="123.008" transform="translate(139.437 86.98) rotate(135)" fill="#bdf59c"/>
          <rect id="Rectángulo_743575" data-name="Rectángulo 743575" width="2.554" height="123.008" transform="translate(240.738 86.98) rotate(135)" fill="#bdf59c"/>
          <rect id="Rectángulo_743576" data-name="Rectángulo 743576" width="2.554" height="123.008" transform="translate(173.913 86.98) rotate(135)" fill="#bdf59c"/>
          <rect id="Rectángulo_743577" data-name="Rectángulo 743577" width="2.554" height="123.008" transform="translate(105.811 86.98) rotate(135)" fill="#bdf59c"/>
          <rect id="Rectángulo_743578" data-name="Rectángulo 743578" width="2.554" height="123.008" transform="translate(257.338 86.98) rotate(135)" fill="#bdf59c"/>
          <rect id="Rectángulo_743579" data-name="Rectángulo 743579" width="2.554" height="123.008" transform="translate(190.513 86.98) rotate(135)" fill="#bdf59c"/>
          <rect id="Rectángulo_743580" data-name="Rectángulo 743580" width="2.554" height="123.008" transform="translate(122.411 86.98) rotate(135)" fill="#bdf59c"/>
          <rect id="Rectángulo_743581" data-name="Rectángulo 743581" width="2.554" height="123.008" transform="translate(223.712 86.98) rotate(135)" fill="#bdf59c"/>
          <rect id="Rectángulo_743582" data-name="Rectángulo 743582" width="2.554" height="123.008" transform="translate(156.888 86.98) rotate(135)" fill="#bdf59c"/>
          <rect id="Rectángulo_743583" data-name="Rectángulo 743583" width="2.554" height="123.008" transform="translate(88.786 86.98) rotate(135)" fill="#bdf59c"/>
        </g>
      </g>
      <g id="Enmascarar_grupo_1099780" data-name="Enmascarar grupo 1099780" transform="translate(1164.626 3926)" opacity="0.3" clip-path="url(#clip-path-2)" style="isolation: isolate">
        <g id="Grupo_1224017" data-name="Grupo 1224017" transform="translate(-136.004 0.155)">
          <rect id="Rectángulo_743536" data-name="Rectángulo 743536" width="3.436" height="165.467" transform="translate(380.875 117.003) rotate(135)" fill="#61ccee"/>
          <rect id="Rectángulo_743537" data-name="Rectángulo 743537" width="3.436" height="165.467" transform="translate(290.985 117.003) rotate(135)" fill="#61ccee"/>
          <rect id="Rectángulo_743538" data-name="Rectángulo 743538" width="3.436" height="165.467" transform="translate(199.377 117.003) rotate(135)" fill="#61ccee"/>
          <rect id="Rectángulo_743539" data-name="Rectángulo 743539" width="3.436" height="165.467" transform="translate(335.644 117.003) rotate(135)" fill="#61ccee"/>
          <rect id="Rectángulo_743540" data-name="Rectángulo 743540" width="3.436" height="165.467" transform="translate(245.754 117.003) rotate(135)" fill="#61ccee"/>
          <rect id="Rectángulo_743541" data-name="Rectángulo 743541" width="3.436" height="165.467" transform="translate(154.146 117.003) rotate(135)" fill="#61ccee"/>
          <rect id="Rectángulo_743542" data-name="Rectángulo 743542" width="3.436" height="165.467" transform="translate(357.973 117.003) rotate(135)" fill="#61ccee"/>
          <rect id="Rectángulo_743543" data-name="Rectángulo 743543" width="3.436" height="165.467" transform="translate(268.083 117.003) rotate(135)" fill="#61ccee"/>
          <rect id="Rectángulo_743544" data-name="Rectángulo 743544" width="3.436" height="165.467" transform="translate(176.475 117.003) rotate(135)" fill="#61ccee"/>
          <rect id="Rectángulo_743545" data-name="Rectángulo 743545" width="3.436" height="165.467" transform="translate(312.742 117.003) rotate(135)" fill="#61ccee"/>
          <rect id="Rectángulo_743546" data-name="Rectángulo 743546" width="3.436" height="165.467" transform="translate(222.852 117.003) rotate(135)" fill="#61ccee"/>
          <rect id="Rectángulo_743547" data-name="Rectángulo 743547" width="3.436" height="165.467" transform="translate(131.244 117.003) rotate(135)" fill="#61ccee"/>
          <rect id="Rectángulo_743548" data-name="Rectángulo 743548" width="3.436" height="165.467" transform="translate(369.063 117.003) rotate(135)" fill="#61ccee"/>
          <rect id="Rectángulo_743549" data-name="Rectángulo 743549" width="3.436" height="165.467" transform="translate(279.173 117.003) rotate(135)" fill="#61ccee"/>
          <rect id="Rectángulo_743550" data-name="Rectángulo 743550" width="3.436" height="165.467" transform="translate(187.565 117.003) rotate(135)" fill="#61ccee"/>
          <rect id="Rectángulo_743551" data-name="Rectángulo 743551" width="3.436" height="165.467" transform="translate(323.832 117.003) rotate(135)" fill="#61ccee"/>
          <rect id="Rectángulo_743552" data-name="Rectángulo 743552" width="3.436" height="165.467" transform="translate(233.942 117.003) rotate(135)" fill="#61ccee"/>
          <rect id="Rectángulo_743553" data-name="Rectángulo 743553" width="3.436" height="165.467" transform="translate(142.334 117.003) rotate(135)" fill="#61ccee"/>
          <rect id="Rectángulo_743554" data-name="Rectángulo 743554" width="3.436" height="165.467" transform="translate(346.161 117.003) rotate(135)" fill="#61ccee"/>
          <rect id="Rectángulo_743555" data-name="Rectángulo 743555" width="3.436" height="165.467" transform="translate(256.271 117.003) rotate(135)" fill="#61ccee"/>
          <rect id="Rectángulo_743556" data-name="Rectángulo 743556" width="3.436" height="165.467" transform="translate(164.663 117.003) rotate(135)" fill="#61ccee"/>
          <rect id="Rectángulo_743557" data-name="Rectángulo 743557" width="3.436" height="165.467" transform="translate(300.93 117.003) rotate(135)" fill="#61ccee"/>
          <rect id="Rectángulo_743558" data-name="Rectángulo 743558" width="3.436" height="165.467" transform="translate(211.04 117.003) rotate(135)" fill="#61ccee"/>
          <rect id="Rectángulo_743559" data-name="Rectángulo 743559" width="3.436" height="165.467" transform="translate(119.432 117.003) rotate(135)" fill="#61ccee"/>
        </g>
      </g>
    </g>
    <g id="Grupo_1224175" data-name="Grupo 1224175" transform="translate(-6558 -7350)">
      <g id="Grupo_1224174" data-name="Grupo 1224174" clip-path="url(#clip-path-3)">
        <path id="Trazado_1390843" data-name="Trazado 1390843" d="M70.719,85l.523.239.077,11.69q7.782.073,15.547.011l.046-11.631.524-.31c0-.783,1.44-.744,1.567,0a53.184,53.184,0,0,1,10.663-.518l.307.523.523.183q0,26.9,0,53.819l-.522.323H58.965l-.786-1.1V86.085a1.015,1.015,0,0,1,1.047-1.091Z" transform="translate(-3.851 -5.587)" fill="#fec244"/>
        <path id="Trazado_1390844" data-name="Trazado 1390844" d="M105.287,85l22.719,0,.006,31.864.522.18q.07,10.734-.072,21.443a1.537,1.537,0,0,1-1.234.839H102.937V85c.115-.8,2.146-.783,2.35,0" transform="translate(-6.814 -5.587)" fill="#fdb137"/>
        <path id="Trazado_1390845" data-name="Trazado 1390845" d="M120.513,136.122l-4.283.02a2.013,2.013,0,1,1,0-4.026h4.16a2.025,2.025,0,0,1,2.021,1.906,1.976,1.976,0,0,1-1.9,2.1" transform="translate(-7.56 -8.745)" fill="#e9f5fd"/>
        <path id="Trazado_1390846" data-name="Trazado 1390846" d="M79.2,85q.268-.8,1.68-.524l3.791.518,3.657,0-.049,12.518-16.652-.067L71.608,85Z" transform="translate(-4.74 -5.587)" fill="#fef2bd"/>
        <path id="Trazado_1390847" data-name="Trazado 1390847" d="M139.955,36.415V103.8c-.392,6.028-6.6,9.441-12.181,8.876l-.358-.517-.522-.18-.006-31.366.523-.318-.083-41.162c-.006-3.009-2.581-5.974-5.371-6.008l-11.779-.148.019,5.311c0,.739-1.217,2.1-2.01,1.413l-13.5-11.8a1.671,1.671,0,0,1-.719-1.511c.061-.565.346-.811.814-1.225L107.8,13.69a1.549,1.549,0,0,1,1.561-.141,1.614,1.614,0,0,1,.778,1.235l.118,5.371,12.2.131a19.15,19.15,0,0,1,17.506,16.129" transform="translate(-6.22 -0.887)" fill="#26a5fd"/>
        <path id="Trazado_1390848" data-name="Trazado 1390848" d="M12.539,24.053l.006,31.864.082,41.162c.007,3.008,2.581,5.974,5.371,6.008l11.776.146.008-5.262a1.57,1.57,0,0,1,.687-1.283,1.247,1.247,0,0,1,1.477-.1L45.26,108.318A1.723,1.723,0,0,1,46,109.579a1.761,1.761,0,0,1-.827,1.466L32.161,122.527a1.679,1.679,0,0,1-1.375.222,1.375,1.375,0,0,1-.922-1.127l-.164-5.555-12.433-.156A19.008,19.008,0,0,1,.007,99.226L0,32.984a10.986,10.986,0,0,1,12.539-8.931" transform="translate(0 -1.584)" fill="#26a5fd"/>
        <path id="Trazado_1390849" data-name="Trazado 1390849" d="M111.478,67.543l-.145,1.849a18.521,18.521,0,0,1-6.824,13.567l-2.35,0-10.97,0c.136-.219.361-.264.686-.319a18.738,18.738,0,0,0,13.649-10.484,19.419,19.419,0,0,0-1.209-18.525,18.8,18.8,0,0,1,7.163,13.911" transform="translate(-6.036 -3.55)" fill="#00c17a"/>
        <path id="Trazado_1390850" data-name="Trazado 1390850" d="M112.756,70.378c.013-.628-.239-1.356.145-1.849.04.622.307,1.353-.145,1.849" transform="translate(-7.459 -4.536)" fill="#8ee2bf"/>
        <path id="Trazado_1390851" data-name="Trazado 1390851" d="M103.073,53.337c4.363,4.9,4.323,12.515,1.869,18.334-2.5,5.929-8.508,10.705-15,10.994H88.378c-.026.2-.081.5-.229.522-.781.129-3.131.227-3.428-.527-2.114-.2-5.881-.679-7.29-2.347a1.208,1.208,0,0,1-.223-.533q-.438.049-1.166-.663a18.833,18.833,0,0,1-.461-21.53l7.045-.01a1.553,1.553,0,0,0,1.56-1.56l.013-5.48a19.2,19.2,0,0,1,17.078,1.427,20.633,20.633,0,0,1,1.8,1.373" transform="translate(-4.794 -3.255)" fill="#46cb8c"/>
        <path id="Trazado_1390852" data-name="Trazado 1390852" d="M85.02,84.817l-5.471.006a10.066,10.066,0,0,1-2.4-2.539c-.389-.589-.283-.657.353-.346a24.734,24.734,0,0,0,7.514,2.88" transform="translate(-5.092 -5.412)" fill="#02c27a"/>
        <path id="Trazado_1390853" data-name="Trazado 1390853" d="M77.464,81.9l-.354.346c-.182-.306-.588-.705-.811-1.01.539.026.817.457,1.165.664" transform="translate(-5.051 -5.378)" fill="#16c480"/>
        <path id="Trazado_1390854" data-name="Trazado 1390854" d="M94.171,74.444a2.011,2.011,0,0,1-2.2,2.064c-1.982-.155-1.795-1.968-1.957-4.07l-1.734.947a2.041,2.041,0,0,1-2.587-.419,1.9,1.9,0,0,1,.184-2.764l2.2-1.372-2.2-1.37a1.884,1.884,0,0,1-.3-2.618,1.937,1.937,0,0,1,2.515-.654l1.92,1.033c.163-2.095-.028-3.913,1.957-4.074a1.978,1.978,0,0,1,2.192,1.949l.044,2.178,1.728-.969a2.075,2.075,0,0,1,2.731.458,1.952,1.952,0,0,1-.453,2.875l-1.868,1.171,1.721,1.1a2.031,2.031,0,0,1,.8,2.669,2,2,0,0,1-2.753.863l-1.876-1.065Z" transform="translate(-5.639 -4.047)" fill="#e9f5fe"/>
        <path id="Trazado_1390855" data-name="Trazado 1390855" d="M25.928,0l.523.239L26.558,12l15.55-.114L42.122.315l.523-.309H55.183L55.7.189V54.01l-.522.322H13.4l-.522-.18-.006-31.366.522-.317L13.384,1.063A1.033,1.033,0,0,1,14.436,0Z" transform="translate(-0.852)" fill="#fec244"/>
        <path id="Trazado_1390856" data-name="Trazado 1390856" d="M83.257,47.282c.2.054.507.14.522.3.1,1.052.092,5.577-.3,6.235a2.2,2.2,0,0,1-.986.867c-.535.278-6.46.249-7.477.176l-.38-.521H58.182V.005L82.151.019c.4,0,1.1.362,1.1.813Z" transform="translate(-3.851 0)" fill="#fdb137"/>
        <path id="Trazado_1390857" data-name="Trazado 1390857" d="M75.759,51.088l-4.283.021a2.013,2.013,0,1,1,0-4.026h4.16a2.025,2.025,0,0,1,2.021,1.906,1.975,1.975,0,0,1-1.9,2.1" transform="translate(-4.597 -3.117)" fill="#e9f5fd"/>
        <path id="Trazado_1390858" data-name="Trazado 1390858" d="M43.571.006l-.016,12.45L26.9,12.523,26.854,0Z" transform="translate(-1.778 0)" fill="#fef2bd"/>
      </g>
    </g>
  </g>
</svg>
