<svg xmlns="http://www.w3.org/2000/svg" xmlns:xlink="http://www.w3.org/1999/xlink" width="216.3" height="190.894" viewBox="0 0 216.3 190.894">
  <defs>
    <clipPath id="clip-path">
      <path id="Sustracción_79" data-name="Sustracción 79" d="M44.438,0A44.23,44.23,0,0,0,19.592,7.589,44.567,44.567,0,0,0,3.492,27.14a44.379,44.379,0,0,0,4.1,42.142,44.568,44.568,0,0,0,19.551,16.1,44.379,44.379,0,0,0,42.142-4.1,44.568,44.568,0,0,0,16.1-19.551,44.378,44.378,0,0,0-4.1-42.142,44.568,44.568,0,0,0-19.551-16.1A44.158,44.158,0,0,0,44.438,0Zm0,68.016A23.579,23.579,0,1,1,68.016,44.437,23.605,23.605,0,0,1,44.438,68.016Z" transform="translate(88.875 88.875) rotate(180)" fill="#bdf59c"/>
    </clipPath>
    <clipPath id="clip-path-2">
      <ellipse id="Elipse_66614" data-name="Elipse 66614" cx="59.776" cy="59.776" rx="59.776" ry="59.776" transform="translate(0 0)" fill="#61ccee"/>
    </clipPath>
    <clipPath id="clip-path-3">
      <rect id="Rectángulo_744902" data-name="Rectángulo 744902" width="148.17" height="133.708" fill="none"/>
    </clipPath>
  </defs>
  <g id="Grupo_1224307" data-name="Grupo 1224307" transform="translate(6599 7973)">
    <g id="Grupo_1224163" data-name="Grupo 1224163" transform="translate(-7763.626 -11827.658)">
      <g id="Enmascarar_grupo_1099781" data-name="Enmascarar grupo 1099781" transform="translate(1292.051 3854.658)" opacity="0.5" clip-path="url(#clip-path)" style="isolation: isolate">
        <g id="Grupo_1224018" data-name="Grupo 1224018" transform="translate(-101.106 0.115)">
          <rect id="Rectángulo_743560" data-name="Rectángulo 743560" width="2.554" height="123.008" transform="translate(283.144 86.98) rotate(135)" fill="#bdf59c"/>
          <rect id="Rectángulo_743561" data-name="Rectángulo 743561" width="2.554" height="123.008" transform="translate(216.319 86.98) rotate(135)" fill="#bdf59c"/>
          <rect id="Rectángulo_743562" data-name="Rectángulo 743562" width="2.554" height="123.008" transform="translate(148.218 86.98) rotate(135)" fill="#bdf59c"/>
          <rect id="Rectángulo_743563" data-name="Rectángulo 743563" width="2.554" height="123.008" transform="translate(249.519 86.98) rotate(135)" fill="#bdf59c"/>
          <rect id="Rectángulo_743564" data-name="Rectángulo 743564" width="2.554" height="123.008" transform="translate(182.694 86.98) rotate(135)" fill="#bdf59c"/>
          <rect id="Rectángulo_743565" data-name="Rectángulo 743565" width="2.554" height="123.008" transform="translate(114.593 86.98) rotate(135)" fill="#bdf59c"/>
          <rect id="Rectángulo_743566" data-name="Rectángulo 743566" width="2.554" height="123.008" transform="translate(266.119 86.98) rotate(135)" fill="#bdf59c"/>
          <rect id="Rectángulo_743567" data-name="Rectángulo 743567" width="2.554" height="123.008" transform="translate(199.294 86.98) rotate(135)" fill="#bdf59c"/>
          <rect id="Rectángulo_743568" data-name="Rectángulo 743568" width="2.554" height="123.008" transform="translate(131.192 86.98) rotate(135)" fill="#bdf59c"/>
          <rect id="Rectángulo_743569" data-name="Rectángulo 743569" width="2.554" height="123.008" transform="translate(232.493 86.98) rotate(135)" fill="#bdf59c"/>
          <rect id="Rectángulo_743570" data-name="Rectángulo 743570" width="2.554" height="123.008" transform="translate(165.669 86.98) rotate(135)" fill="#bdf59c"/>
          <rect id="Rectángulo_743571" data-name="Rectángulo 743571" width="2.554" height="123.008" transform="translate(97.567 86.98) rotate(135)" fill="#bdf59c"/>
          <rect id="Rectángulo_743572" data-name="Rectángulo 743572" width="2.554" height="123.008" transform="translate(274.363 86.98) rotate(135)" fill="#bdf59c"/>
          <rect id="Rectángulo_743573" data-name="Rectángulo 743573" width="2.554" height="123.008" transform="translate(207.538 86.98) rotate(135)" fill="#bdf59c"/>
          <rect id="Rectángulo_743574" data-name="Rectángulo 743574" width="2.554" height="123.008" transform="translate(139.437 86.98) rotate(135)" fill="#bdf59c"/>
          <rect id="Rectángulo_743575" data-name="Rectángulo 743575" width="2.554" height="123.008" transform="translate(240.738 86.98) rotate(135)" fill="#bdf59c"/>
          <rect id="Rectángulo_743576" data-name="Rectángulo 743576" width="2.554" height="123.008" transform="translate(173.913 86.98) rotate(135)" fill="#bdf59c"/>
          <rect id="Rectángulo_743577" data-name="Rectángulo 743577" width="2.554" height="123.008" transform="translate(105.811 86.98) rotate(135)" fill="#bdf59c"/>
          <rect id="Rectángulo_743578" data-name="Rectángulo 743578" width="2.554" height="123.008" transform="translate(257.338 86.98) rotate(135)" fill="#bdf59c"/>
          <rect id="Rectángulo_743579" data-name="Rectángulo 743579" width="2.554" height="123.008" transform="translate(190.513 86.98) rotate(135)" fill="#bdf59c"/>
          <rect id="Rectángulo_743580" data-name="Rectángulo 743580" width="2.554" height="123.008" transform="translate(122.411 86.98) rotate(135)" fill="#bdf59c"/>
          <rect id="Rectángulo_743581" data-name="Rectángulo 743581" width="2.554" height="123.008" transform="translate(223.712 86.98) rotate(135)" fill="#bdf59c"/>
          <rect id="Rectángulo_743582" data-name="Rectángulo 743582" width="2.554" height="123.008" transform="translate(156.888 86.98) rotate(135)" fill="#bdf59c"/>
          <rect id="Rectángulo_743583" data-name="Rectángulo 743583" width="2.554" height="123.008" transform="translate(88.786 86.98) rotate(135)" fill="#bdf59c"/>
        </g>
      </g>
      <g id="Enmascarar_grupo_1099780" data-name="Enmascarar grupo 1099780" transform="translate(1164.626 3926)" opacity="0.3" clip-path="url(#clip-path-2)" style="isolation: isolate">
        <g id="Grupo_1224017" data-name="Grupo 1224017" transform="translate(-136.004 0.155)">
          <rect id="Rectángulo_743536" data-name="Rectángulo 743536" width="3.436" height="165.467" transform="translate(380.875 117.003) rotate(135)" fill="#61ccee"/>
          <rect id="Rectángulo_743537" data-name="Rectángulo 743537" width="3.436" height="165.467" transform="translate(290.985 117.003) rotate(135)" fill="#61ccee"/>
          <rect id="Rectángulo_743538" data-name="Rectángulo 743538" width="3.436" height="165.467" transform="translate(199.377 117.003) rotate(135)" fill="#61ccee"/>
          <rect id="Rectángulo_743539" data-name="Rectángulo 743539" width="3.436" height="165.467" transform="translate(335.644 117.003) rotate(135)" fill="#61ccee"/>
          <rect id="Rectángulo_743540" data-name="Rectángulo 743540" width="3.436" height="165.467" transform="translate(245.754 117.003) rotate(135)" fill="#61ccee"/>
          <rect id="Rectángulo_743541" data-name="Rectángulo 743541" width="3.436" height="165.467" transform="translate(154.146 117.003) rotate(135)" fill="#61ccee"/>
          <rect id="Rectángulo_743542" data-name="Rectángulo 743542" width="3.436" height="165.467" transform="translate(357.973 117.003) rotate(135)" fill="#61ccee"/>
          <rect id="Rectángulo_743543" data-name="Rectángulo 743543" width="3.436" height="165.467" transform="translate(268.083 117.003) rotate(135)" fill="#61ccee"/>
          <rect id="Rectángulo_743544" data-name="Rectángulo 743544" width="3.436" height="165.467" transform="translate(176.475 117.003) rotate(135)" fill="#61ccee"/>
          <rect id="Rectángulo_743545" data-name="Rectángulo 743545" width="3.436" height="165.467" transform="translate(312.742 117.003) rotate(135)" fill="#61ccee"/>
          <rect id="Rectángulo_743546" data-name="Rectángulo 743546" width="3.436" height="165.467" transform="translate(222.852 117.003) rotate(135)" fill="#61ccee"/>
          <rect id="Rectángulo_743547" data-name="Rectángulo 743547" width="3.436" height="165.467" transform="translate(131.244 117.003) rotate(135)" fill="#61ccee"/>
          <rect id="Rectángulo_743548" data-name="Rectángulo 743548" width="3.436" height="165.467" transform="translate(369.063 117.003) rotate(135)" fill="#61ccee"/>
          <rect id="Rectángulo_743549" data-name="Rectángulo 743549" width="3.436" height="165.467" transform="translate(279.173 117.003) rotate(135)" fill="#61ccee"/>
          <rect id="Rectángulo_743550" data-name="Rectángulo 743550" width="3.436" height="165.467" transform="translate(187.565 117.003) rotate(135)" fill="#61ccee"/>
          <rect id="Rectángulo_743551" data-name="Rectángulo 743551" width="3.436" height="165.467" transform="translate(323.832 117.003) rotate(135)" fill="#61ccee"/>
          <rect id="Rectángulo_743552" data-name="Rectángulo 743552" width="3.436" height="165.467" transform="translate(233.942 117.003) rotate(135)" fill="#61ccee"/>
          <rect id="Rectángulo_743553" data-name="Rectángulo 743553" width="3.436" height="165.467" transform="translate(142.334 117.003) rotate(135)" fill="#61ccee"/>
          <rect id="Rectángulo_743554" data-name="Rectángulo 743554" width="3.436" height="165.467" transform="translate(346.161 117.003) rotate(135)" fill="#61ccee"/>
          <rect id="Rectángulo_743555" data-name="Rectángulo 743555" width="3.436" height="165.467" transform="translate(256.271 117.003) rotate(135)" fill="#61ccee"/>
          <rect id="Rectángulo_743556" data-name="Rectángulo 743556" width="3.436" height="165.467" transform="translate(164.663 117.003) rotate(135)" fill="#61ccee"/>
          <rect id="Rectángulo_743557" data-name="Rectángulo 743557" width="3.436" height="165.467" transform="translate(300.93 117.003) rotate(135)" fill="#61ccee"/>
          <rect id="Rectángulo_743558" data-name="Rectángulo 743558" width="3.436" height="165.467" transform="translate(211.04 117.003) rotate(135)" fill="#61ccee"/>
          <rect id="Rectángulo_743559" data-name="Rectángulo 743559" width="3.436" height="165.467" transform="translate(119.432 117.003) rotate(135)" fill="#61ccee"/>
        </g>
      </g>
    </g>
    <g id="Grupo_1224171" data-name="Grupo 1224171" transform="translate(-6565 -7944)">
      <g id="Grupo_1224170" data-name="Grupo 1224170" clip-path="url(#clip-path-3)">
        <path id="Trazado_1390815" data-name="Trazado 1390815" d="M113.1,23.663l-.592.294-2.594-1.809a.611.611,0,0,0-.581.166c-7.506,9.117-14.02,16.582-23.822,23.544C67.534,58.626,46.22,63.883,24.435,64.914a3.609,3.609,0,0,1-1-.139,7.045,7.045,0,0,1-1.008-.335l9.9-3.352A155.522,155.522,0,0,0,56.4,50.447,135.49,135.49,0,0,0,82.949,32.172l8.523-8.525a56.055,56.055,0,0,0,7.359-9.905L92.638,9.46c-.612-.423-1.1-.984-.96-1.672a1.63,1.63,0,0,1,1.235-1.274L117.655.047A1.464,1.464,0,0,1,119.5,1.192l2.561,25.451a1.793,1.793,0,0,1-.476,1.5,1.685,1.685,0,0,1-1.6.229Z" transform="translate(0.135 0)" fill="#fe4755"/>
        <path id="Trazado_1390816" data-name="Trazado 1390816" d="M113.116,23.535a76.007,76.007,0,0,1-9.639,11.641c-.524.538-.9.967-1.447,1.484l-4.163,3.949A100.279,100.279,0,0,1,74.356,56.365l-6.382,2.977A139.433,139.433,0,0,1,24.258,69.73c-1.8.142-3.28-.258-3.7-1.783a2.765,2.765,0,0,1,1.884-3.636c22.4-1.069,43.124-5.475,61.9-18.458A104.479,104.479,0,0,0,108.59,22.133c.4-.54,1.158-.932,1.647-.593Z" transform="translate(0.123 0.129)" fill="#fb2b3a"/>
        <path id="Trazado_1390817" data-name="Trazado 1390817" d="M14.241,128.413l.267-.578,21.072,0,.345.578h11c.026-.229.114-.573.275-.576,6.621-.129,13.849-.09,20.459.174.445-.225.7-.18.969.312l10.992.087.267-.578,21.076,0,.345.578h11l.436-.578,20.945.014.345.579,11.755-.047a3,3,0,0,1,2.386,1.385v2.025l-1.6,1.159L1.909,132.926c-1.4,0-1.972-1.559-1.9-2.412a2.188,2.188,0,0,1,2.233-2.1Z" transform="translate(0 0.767)" fill="#407092"/>
        <path id="Trazado_1390818" data-name="Trazado 1390818" d="M100.644,123.722l-.269.578-20.894.005-.349-.578.035-52.513a3.22,3.22,0,0,1,2.918-3.208L97.872,68a3,3,0,0,1,2.92,2.928l.057,51.346Z" transform="translate(0.475 0.408)" fill="#97da7c"/>
        <path id="Trazado_1390819" data-name="Trazado 1390819" d="M100.644,123.389c.387,1.539.115,3.359.182,5.041l-21.686,0-.007-5.038Z" transform="translate(0.475 0.741)" fill="#81d261"/>
        <path id="Trazado_1390820" data-name="Trazado 1390820" d="M68.145,123.639l-.271.578-20.894-.038-.348-.579.081-37.083a2.953,2.953,0,0,1,2.812-2.748l16.146.062a2.949,2.949,0,0,1,2.6,2.961l.09,35.4Z" transform="translate(0.28 0.503)" fill="#feb957"/>
        <path id="Trazado_1390821" data-name="Trazado 1390821" d="M68.145,123.4c.41,1.566.107,3.33.2,4.944l-.9.258-20.8-.168-.007-5.073Z" transform="translate(0.28 0.741)" fill="#feab3e"/>
        <path id="Trazado_1390822" data-name="Trazado 1390822" d="M35.561,123.522l-.269.578L14.5,124.087l-.347-.579L14.127,103c0-1.324.806-3.348,2.387-3.353L33.5,99.591a2.588,2.588,0,0,1,2.012,2.024Z" transform="translate(0.085 0.598)" fill="#fee17a"/>
        <path id="Trazado_1390823" data-name="Trazado 1390823" d="M35.561,123.379l0,4.658a.516.516,0,0,0,.275.4l-21.684,0,0-5.074Z" transform="translate(0.085 0.741)" fill="#f8ce58"/>
        <path id="Trazado_1390824" data-name="Trazado 1390824" d="M133.329,123.846l-.269.578-20.8-.042-.346-.579.025-69.3a2.588,2.588,0,0,1,2.03-2.058h17.319a3.482,3.482,0,0,1,2.017,2.645Z" transform="translate(0.672 0.315)" fill="#8ac9fe"/>
        <path id="Trazado_1390825" data-name="Trazado 1390825" d="M133.331,123.42l.029,5.025-21.727-.015a.5.5,0,0,0,.277-.392l0-4.661Z" transform="translate(0.67 0.741)" fill="#6cc3fe"/>
      </g>
    </g>
  </g>
</svg>
